<?xml version="1.0" encoding="UTF-8" standalone="no"?>
<!DOCTYPE svg PUBLIC "-//W3C//DTD SVG 1.1//EN" "http://www.w3.org/Graphics/SVG/1.1/DTD/svg11.dtd">
<!-- Created with Vectornator (http://vectornator.io/) -->
<svg height="100%" stroke-miterlimit="10" style="fill-rule:nonzero;clip-rule:evenodd;stroke-linecap:round;stroke-linejoin:round;" version="1.1" viewBox="0 0 148 56" width="100%" xml:space="preserve" xmlns="http://www.w3.org/2000/svg" xmlns:vectornator="http://vectornator.io" xmlns:xlink="http://www.w3.org/1999/xlink">
<defs>
<clipPath id="TextBounds">
<rect height="34.5505" transform="matrix(1 0 0 1 -0.0904543 -9.18722)" width="148.243" x="0" y="0"/>
</clipPath>
<clipPath id="TextBounds_2">
<rect height="36" transform="matrix(1 0 0 1 0.194308 19.252)" width="148.255" x="0" y="0"/>
</clipPath>
<clipPath id="TextBounds_3">
<rect height="1" transform="matrix(1 0 0 1 59.4806 -40.785)" width="37.578" x="0" y="0"/>
</clipPath>
<clipPath id="TextBounds_4">
<rect height="1" transform="matrix(1 0 0 1 208.491 40.6677)" width="0" x="0" y="0"/>
</clipPath>
</defs>
<clipPath id="ArtboardFrame">
<rect height="56" width="148" x="0" y="0"/>
</clipPath>
<g clip-path="url(#ArtboardFrame)" id="Layer-1" vectornator:layerName="Layer 1">
<g fill="#303030" opacity="1" stroke="none">
<path clip-path="url(#TextBounds)" d="M8.66594 22.3508C8.84727 22.3961 8.97194 22.4754 9.03994 22.5888C9.10794 22.7021 9.14194 22.8211 9.14194 22.9458C9.14194 23.0704 9.10794 23.1894 9.03994 23.3028C8.97194 23.4161 8.88127 23.4841 8.76794 23.5068C8.35994 23.6201 7.9406 23.7221 7.50994 23.8128C7.07927 23.9034 6.65427 23.9658 6.23494 23.9998C5.8156 24.0338 5.4076 24.0111 5.01094 23.9318C4.61427 23.8524 4.25727 23.6994 3.93994 23.4728C3.57727 23.2234 3.28827 22.6738 3.07294 21.8238C2.8576 20.9738 2.7046 19.9708 2.61394 18.8148C2.52327 17.6588 2.47794 16.4121 2.47794 15.0748C2.47794 13.7374 2.50627 12.4454 2.56294 11.1988C2.6196 9.95211 2.69894 8.81878 2.80094 7.79878C2.90294 6.77878 2.99927 6.00812 3.08994 5.48678C3.20327 4.94278 3.39594 4.50645 3.66794 4.17778C3.93994 3.84912 4.22327 3.67345 4.51794 3.65078C4.8126 3.62812 5.0846 3.76412 5.33394 4.05878C5.58327 4.35345 5.74194 4.85212 5.80994 5.55478C5.87794 6.30278 5.91194 7.16978 5.91194 8.15578C5.91194 9.14178 5.89494 10.1788 5.86094 11.2668C5.82694 12.3548 5.7816 13.4654 5.72494 14.5988C5.66827 15.7321 5.63427 16.8031 5.62294 17.8118C5.6116 18.8204 5.62294 19.7271 5.65694 20.5318C5.69094 21.3364 5.77594 21.9768 5.91194 22.4528C6.09327 22.4754 6.31994 22.4754 6.59194 22.4528C6.86394 22.4301 7.13594 22.4131 7.40794 22.4018C7.67994 22.3904 7.93494 22.3734 8.17294 22.3508C8.41094 22.3281 8.57527 22.3281 8.66594 22.3508Z"/>
<path clip-path="url(#TextBounds)" d="M23.9659 21.1608C23.9659 21.1608 23.9773 21.1494 23.9999 21.1268C24.0906 20.9454 24.2493 20.6621 24.4759 20.2768C24.7026 19.8461 24.9519 19.4494 25.2239 19.0868C25.4506 18.7694 25.6659 18.4634 25.8699 18.1688C26.0513 17.8968 26.2439 17.6021 26.4479 17.2848C26.6519 16.9448 26.8786 16.6161 27.1279 16.2988C27.3546 15.9814 27.5813 15.6641 27.8079 15.3468C28.0119 15.0521 28.1593 14.8481 28.2499 14.7348C28.3406 14.5988 28.4653 14.4061 28.6239 14.1568C28.8053 13.8621 28.9979 13.5334 29.2019 13.1708C29.4059 12.8534 29.5646 12.5588 29.6779 12.2868C29.7913 12.0374 29.8706 11.7768 29.9159 11.5048C29.9839 11.2554 30.0293 11.0061 30.0519 10.7568C30.0519 10.4848 30.0519 10.2014 30.0519 9.90678C30.0293 9.63478 29.9953 9.41945 29.9499 9.26078C29.9273 9.12478 29.8819 8.99445 29.8139 8.86978C29.7459 8.74512 29.6779 8.64878 29.6099 8.58078C29.5873 8.53545 29.5646 8.50145 29.5419 8.47878C29.4966 8.45612 29.4286 8.43345 29.3379 8.41078C29.2246 8.38812 29.1113 8.36545 28.9979 8.34278C28.8393 8.34278 28.6466 8.34278 28.4199 8.34278C28.1706 8.34278 27.9553 8.35412 27.7739 8.37678C27.6379 8.39945 27.4566 8.43345 27.2299 8.47878C27.0033 8.52412 26.7766 8.58078 26.5499 8.64878C26.3459 8.73945 26.1419 8.84712 25.9379 8.97178C25.7339 9.09645 25.5753 9.21545 25.4619 9.32878C25.2806 9.51012 25.1219 9.68012 24.9859 9.83878C24.8726 9.95212 24.7763 10.0824 24.6969 10.2298C24.6176 10.3771 24.5553 10.5301 24.5099 10.6888C24.4193 10.8928 24.3513 11.1081 24.3059 11.3348C24.2153 11.6068 24.1246 11.8901 24.0339 12.1848C23.9433 12.4568 23.8639 12.7174 23.7959 12.9668C23.7733 13.0121 23.7393 13.0631 23.6939 13.1198C23.6486 13.1764 23.5636 13.2728 23.4389 13.4088C23.3143 13.5448 23.1839 13.6694 23.0479 13.7828C22.9119 13.8961 22.7533 13.9981 22.5719 14.0888C22.3906 14.1794 22.2206 14.2248 22.0619 14.2248C21.9033 14.2248 21.7389 14.1624 21.5689 14.0378C21.3989 13.9131 21.2346 13.7148 21.0759 13.4428C21.0079 13.2841 20.9286 13.1028 20.8379 12.8988C20.7473 12.7401 20.6339 12.5361 20.4979 12.2868C20.3619 12.0148 20.2259 11.7314 20.0899 11.4368C19.9539 11.1648 19.7953 10.8588 19.6139 10.5188C19.4779 10.2694 19.2796 9.98045 19.0189 9.65178C18.7583 9.32312 18.5486 9.10212 18.3899 8.98878C18.2313 8.85278 18.0726 8.73945 17.9139 8.64878C17.7779 8.55812 17.5966 8.47878 17.3699 8.41078C17.1433 8.34278 16.8996 8.29178 16.6389 8.25778C16.3783 8.22378 16.1119 8.21245 15.8399 8.22378C15.5679 8.23512 15.3073 8.27478 15.0579 8.34278C14.8766 8.36545 14.7179 8.42212 14.5819 8.51278C14.4233 8.58078 14.3099 8.66012 14.2419 8.75078C14.1966 8.79612 14.1626 8.84145 14.1399 8.88678C14.0946 8.97745 14.0606 9.14745 14.0379 9.39678C14.0153 9.64612 14.0266 9.83878 14.0719 9.97478C14.1173 10.2014 14.2193 10.5301 14.3779 10.9608C14.5139 11.3461 14.6953 11.7201 14.9219 12.0828C15.1713 12.5134 15.4206 12.8988 15.6699 13.2388C15.9419 13.6241 16.2026 13.9981 16.4519 14.3608C16.7013 14.6781 16.9393 14.9728 17.1659 15.2448C17.4379 15.5394 17.7099 15.8454 17.9819 16.1628C18.2313 16.4574 18.5033 16.7408 18.7979 17.0128C19.0699 17.2848 19.2739 17.4774 19.4099 17.5908C19.5913 17.7494 19.8519 17.9761 20.1919 18.2708C20.5093 18.5428 20.8153 18.7978 21.1099 19.0358C21.4046 19.2738 21.7333 19.5288 22.0959 19.8008C22.4133 20.0501 22.7306 20.2881 23.0479 20.5148C23.3426 20.7414 23.6486 20.9568 23.9659 21.1608ZM25.9039 23.2008C25.9039 23.4954 25.8246 23.7674 25.6659 24.0168C25.4619 24.3114 25.1729 24.4871 24.7989 24.5438C24.4249 24.6004 24.0906 24.5268 23.7959 24.3228L23.4219 24.0508C23.1726 23.8694 22.8666 23.6654 22.5039 23.4388C22.1413 23.1894 21.7899 22.9288 21.4499 22.6568C21.1099 22.4074 20.7756 22.1581 20.4469 21.9088C20.1183 21.6594 19.7839 21.4101 19.4439 21.1608C19.1039 20.8888 18.7639 20.5941 18.4239 20.2768C18.1066 20.0048 17.8686 19.8008 17.7099 19.6648C17.5059 19.4834 17.2339 19.2341 16.8939 18.9168C16.5766 18.5994 16.2706 18.2821 15.9759 17.9648C15.7039 17.6474 15.4319 17.3301 15.1599 17.0128C14.8653 16.6954 14.5819 16.3328 14.3099 15.9248C14.0379 15.5621 13.7659 15.1881 13.4939 14.8028C13.1766 14.3948 12.8819 13.9528 12.6099 13.4768C12.2926 12.9554 12.0433 12.4228 11.8619 11.8788C11.6579 11.3574 11.5219 10.9381 11.4539 10.6208C11.3633 10.1901 11.3406 9.70278 11.3859 9.15878C11.4313 8.59212 11.5333 8.12745 11.6919 7.76478C11.8506 7.42478 12.0659 7.11878 12.3379 6.84678C12.5873 6.59745 12.8933 6.37078 13.2559 6.16678C13.6186 5.96278 14.0266 5.81545 14.4799 5.72478C14.8653 5.63412 15.2789 5.57745 15.7209 5.55478C16.1629 5.53212 16.5879 5.54912 16.9959 5.60578C17.4039 5.66245 17.8006 5.74745 18.1859 5.86078C18.5939 5.99678 18.9453 6.14412 19.2399 6.30278C19.5346 6.46145 19.8179 6.66545 20.0899 6.91478C20.3846 7.14145 20.7246 7.48712 21.1099 7.95178C21.4953 8.41645 21.7899 8.86412 21.9939 9.29478L22.0959 9.46478C22.1866 9.23812 22.2886 9.04545 22.4019 8.88678C22.5606 8.61478 22.7419 8.35412 22.9459 8.10478C23.1273 7.87812 23.3313 7.65145 23.5579 7.42478C23.8299 7.15278 24.1473 6.91478 24.5099 6.71078C24.8499 6.48412 25.2126 6.29145 25.5979 6.13278C25.9606 5.99678 26.3233 5.89478 26.6859 5.82678C27.0259 5.75878 27.3093 5.71345 27.5359 5.69078C27.7399 5.66812 28.0006 5.65678 28.3179 5.65678C28.6579 5.63412 28.9639 5.64545 29.2359 5.69078C29.5306 5.71345 29.8139 5.75878 30.0859 5.82678C30.3806 5.91745 30.6526 6.03078 30.9019 6.16678C31.1739 6.32545 31.4233 6.54078 31.6499 6.81278C31.8313 7.03945 32.0069 7.30578 32.1769 7.61178C32.3469 7.91778 32.4773 8.25212 32.5679 8.61478C32.6586 8.93212 32.7153 9.30612 32.7379 9.73678C32.7606 10.1448 32.7606 10.5301 32.7379 10.8928C32.6926 11.3008 32.6246 11.7088 32.5339 12.1168C32.4433 12.5248 32.3073 12.9328 32.1259 13.3408C31.9673 13.7261 31.7633 14.1228 31.5139 14.5308C31.2873 14.9161 31.0833 15.2561 30.9019 15.5508C30.7206 15.8454 30.5733 16.0721 30.4599 16.2308C30.3693 16.3894 30.1993 16.6274 29.9499 16.9448C29.7686 17.2168 29.5533 17.5228 29.3039 17.8628C29.0773 18.1574 28.8846 18.4408 28.7259 18.7128C28.5219 19.0528 28.3123 19.3814 28.0969 19.6988C27.8816 20.0161 27.6493 20.3334 27.3999 20.6508C27.1959 20.9454 27.0033 21.2628 26.8219 21.6028C26.5953 21.9881 26.4253 22.2828 26.3119 22.4868C26.1986 22.6681 26.1079 22.8268 26.0399 22.9628C25.9946 23.0308 25.9493 23.1101 25.9039 23.2008Z"/>
<path clip-path="url(#TextBounds)" d="M38.4159 21.2288C37.8719 20.7074 37.3789 19.9311 36.9369 18.8998C36.4949 17.8684 36.1209 16.7294 35.8149 15.4828C35.5089 14.2361 35.2766 12.9441 35.1179 11.6068C34.9593 10.2694 34.8913 9.02845 34.9139 7.88378C34.9366 6.73912 35.0443 5.76445 35.2369 4.95978C35.4296 4.15512 35.7413 3.65078 36.1719 3.44678C36.2173 3.42412 36.3306 3.39578 36.5119 3.36178C36.6933 3.32778 36.8973 3.31078 37.1239 3.31078C37.3506 3.31078 37.5603 3.35045 37.7529 3.42978C37.9456 3.50912 38.0646 3.66212 38.1099 3.88878C38.1553 4.13812 38.1496 4.64812 38.0929 5.41878C38.0363 6.18945 38.0079 7.16978 38.0079 8.35978C38.0079 9.54978 38.0816 10.9381 38.2289 12.5248C38.3763 14.1114 38.6879 15.8454 39.1639 17.7268C39.2999 18.3161 39.4133 18.7864 39.5039 19.1378C39.5946 19.4891 39.6853 19.6874 39.7759 19.7328C39.8666 19.7781 39.9686 19.6534 40.0819 19.3588C40.1953 19.0641 40.3426 18.5654 40.5239 17.8628C40.7506 17.0014 40.9263 16.0834 41.0509 15.1088C41.1756 14.1341 41.2776 13.1651 41.3569 12.2018C41.4363 11.2384 41.4929 10.3034 41.5269 9.39678C41.5609 8.49012 41.6006 7.68545 41.6459 6.98278C41.6459 6.77878 41.7139 6.58612 41.8499 6.40478C41.9859 6.22345 42.1333 6.10445 42.2919 6.04778C42.4506 5.99112 42.6036 6.01378 42.7509 6.11578C42.8983 6.21778 42.9946 6.43878 43.0399 6.77878C43.1306 7.41345 43.1589 8.26912 43.1249 9.34578C43.0909 10.4224 43.0116 11.5671 42.8869 12.7798C42.7623 13.9924 42.5923 15.1938 42.3769 16.3838C42.1616 17.5738 41.9179 18.5994 41.6459 19.4608C41.4873 19.9594 41.2889 20.3901 41.0509 20.7528C40.8129 21.1154 40.5579 21.3874 40.2859 21.5688C40.0139 21.7501 39.7193 21.8181 39.4019 21.7728C39.0846 21.7274 38.7559 21.5461 38.4159 21.2288Z"/>
<path clip-path="url(#TextBounds)" d="M47.6979 11.3008C47.9699 11.2101 48.3666 11.0061 48.8879 10.6888C49.4093 10.3714 49.8966 9.99178 50.3499 9.54978C50.8033 9.10778 51.1319 8.62612 51.3359 8.10478C51.5399 7.58345 51.4606 7.07345 51.0979 6.57478C50.8033 6.57478 50.4746 6.72212 50.1119 7.01678C49.7493 7.31145 49.4093 7.69678 49.0919 8.17278C48.7746 8.64878 48.4856 9.16445 48.2249 9.71978C47.9643 10.2751 47.7886 10.8021 47.6979 11.3008ZM49.9079 18.9168C49.9306 18.8034 49.9986 18.6958 50.1119 18.5938C50.2253 18.4918 50.3499 18.4238 50.4859 18.3898C50.6219 18.3558 50.7523 18.3614 50.8769 18.4068C51.0016 18.4521 51.0753 18.5768 51.0979 18.7808C51.1206 19.0301 51.1263 19.2964 51.1149 19.5798C51.1036 19.8631 51.0526 20.1634 50.9619 20.4808C50.6899 21.3421 50.3159 21.9938 49.8399 22.4358C49.3639 22.8778 48.8539 23.0761 48.3099 23.0308C47.4713 22.9628 46.7346 22.5321 46.0999 21.7388C45.4653 20.9454 44.9836 19.9651 44.6549 18.7978C44.3263 17.6304 44.1619 16.3611 44.1619 14.9898C44.1619 13.6184 44.3659 12.2981 44.7739 11.0288C45.1819 9.75945 45.8053 8.63178 46.6439 7.64578C47.4826 6.65978 48.5819 5.98545 49.9419 5.62278C50.5766 5.44145 51.1546 5.43578 51.6759 5.60578C52.1973 5.77578 52.5656 6.07612 52.7809 6.50678C52.9963 6.93745 53.0133 7.47578 52.8319 8.12178C52.6506 8.76778 52.1746 9.47612 51.4039 10.2468C51.2679 10.3828 51.0469 10.5698 50.7409 10.8078C50.4349 11.0458 50.0949 11.2724 49.7209 11.4878C49.3469 11.7031 48.9616 11.9014 48.5649 12.0828C48.1683 12.2641 47.7999 12.3774 47.4599 12.4228C47.3466 13.3068 47.3013 14.0888 47.3239 14.7688C47.3466 15.4488 47.3693 16.2194 47.3919 17.0808C47.3919 17.3301 47.4203 17.6814 47.4769 18.1348C47.5336 18.5881 47.6186 19.0358 47.7319 19.4778C47.8453 19.9198 47.9813 20.3051 48.1399 20.6338C48.2986 20.9624 48.4799 21.1041 48.6839 21.0588C49.0013 21.0134 49.2619 20.7754 49.4659 20.3448C49.6699 19.9141 49.8173 19.4381 49.9079 18.9168Z"/>
<path clip-path="url(#TextBounds)" d="M65.2419 23.3708C65.1739 24.1414 64.9416 24.5154 64.5449 24.4928C64.1483 24.4701 63.7686 24.1301 63.4059 23.4728C63.0886 22.9061 62.8619 22.1581 62.7259 21.2288C62.5899 20.2994 62.5049 19.2681 62.4709 18.1348C62.4369 17.0014 62.4483 15.8228 62.5049 14.5988C62.5616 13.3748 62.6409 12.1791 62.7429 11.0118C62.8449 9.84445 62.9526 8.75645 63.0659 7.74778C63.1793 6.73912 63.2813 5.89478 63.3719 5.21478C63.0093 5.19212 62.6239 5.18645 62.2159 5.19778C61.8079 5.20912 61.5019 5.20345 61.2979 5.18078C61.0486 5.15812 60.8729 5.10145 60.7709 5.01078C60.6689 4.92012 60.6293 4.81812 60.6519 4.70478C60.6746 4.59145 60.7483 4.48378 60.8729 4.38178C60.9976 4.27978 61.1619 4.20612 61.3659 4.16078C61.5699 4.11545 61.9043 4.07578 62.3689 4.04178C62.8336 4.00778 63.3719 3.99078 63.9839 3.99078C64.5959 3.99078 65.2419 4.00212 65.9219 4.02478C66.6019 4.04745 67.2593 4.07578 67.8939 4.10978C68.5286 4.14378 69.1066 4.18345 69.6279 4.22878C70.1493 4.27412 70.5573 4.31945 70.8519 4.36478C70.9879 4.38745 71.1013 4.45545 71.1919 4.56878C71.2826 4.68212 71.3279 4.80112 71.3279 4.92578C71.3279 5.05045 71.2826 5.16378 71.1919 5.26578C71.1013 5.36778 70.9539 5.41878 70.7499 5.41878C69.8886 5.44145 69.0839 5.43012 68.3359 5.38478C67.5879 5.33945 66.8513 5.32812 66.1259 5.35078C65.9219 6.09878 65.7633 6.98278 65.6499 8.00278C65.5366 9.02278 65.4573 10.1108 65.4119 11.2668C65.3666 12.4228 65.3383 13.6071 65.3269 14.8198C65.3156 16.0324 65.3099 17.1828 65.3099 18.2708C65.3099 19.3588 65.3099 20.3504 65.3099 21.2458C65.3099 22.1411 65.2873 22.8494 65.2419 23.3708Z"/>
<path clip-path="url(#TextBounds)" d="M73.8099 21.3308C73.7419 21.6254 73.6003 21.8578 73.3849 22.0278C73.1696 22.1978 72.9316 22.2941 72.6709 22.3168C72.4103 22.3394 72.1496 22.2658 71.8889 22.0958C71.6283 21.9258 71.4073 21.6481 71.2259 21.2628C70.7046 20.1294 70.2966 18.7638 70.0019 17.1658C69.7073 15.5678 69.5373 13.9244 69.4919 12.2358C69.4466 10.5471 69.5316 8.91512 69.7469 7.33978C69.9623 5.76445 70.3419 4.42145 70.8859 3.31078C70.9766 3.10678 71.1466 2.94812 71.3959 2.83478C71.6453 2.72145 71.9003 2.66478 72.1609 2.66478C72.4216 2.66478 72.6369 2.73278 72.8069 2.86878C72.9769 3.00478 73.0506 3.24278 73.0279 3.58278C72.9826 4.01345 72.9203 4.58012 72.8409 5.28278C72.7616 5.98545 72.6823 6.76178 72.6029 7.61178C72.5236 8.46178 72.4556 9.33445 72.3989 10.2298C72.3423 11.1251 72.3026 11.9978 72.2799 12.8478C72.2573 13.6978 72.2686 14.4741 72.3139 15.1768C72.3593 15.8794 72.4386 16.4461 72.5519 16.8768C72.6653 16.5594 72.7843 16.0721 72.9089 15.4148C73.0336 14.7574 73.1866 14.1001 73.3679 13.4428C73.7079 12.1054 74.1669 11.0571 74.7449 10.2978C75.3229 9.53845 75.9009 9.13045 76.4789 9.07378C77.0569 9.01712 77.5839 9.35712 78.0599 10.0938C78.5359 10.8304 78.8419 12.0261 78.9779 13.6808C79.0233 14.2701 79.0629 14.8934 79.0969 15.5508C79.1309 16.2081 79.1536 16.8428 79.1649 17.4548C79.1763 18.0668 79.1819 18.6221 79.1819 19.1208C79.1819 19.6194 79.1593 19.9934 79.1139 20.2428C79.0686 20.5374 78.9609 20.7471 78.7909 20.8718C78.6209 20.9964 78.4339 21.0644 78.2299 21.0758C78.0259 21.0871 77.8333 21.0474 77.6519 20.9568C77.4706 20.8661 77.3686 20.7414 77.3459 20.5828C77.2553 20.1748 77.1816 19.6704 77.1249 19.0698C77.0683 18.4691 77.0116 17.8514 76.9549 17.2168C76.8983 16.5821 76.8586 15.9588 76.8359 15.3468C76.8133 14.7348 76.7906 14.2021 76.7679 13.7488C76.7453 12.8421 76.6659 12.1961 76.5299 11.8108C76.3939 11.4254 76.2353 11.2611 76.0539 11.3178C75.8726 11.3744 75.6743 11.6294 75.4589 12.0828C75.2436 12.5361 75.0566 13.1368 74.8979 13.8848C74.7619 14.4741 74.6543 15.0974 74.5749 15.7548C74.4956 16.4121 74.4163 17.0751 74.3369 17.7438C74.2576 18.4124 74.1783 19.0584 74.0989 19.6818C74.0196 20.3051 73.9233 20.8548 73.8099 21.3308Z"/>
<path clip-path="url(#TextBounds)" d="M83.0919 12.8988C83.2506 13.8508 83.5736 14.3438 84.0609 14.3778C84.5483 14.4118 85.0186 13.9981 85.4719 13.1368C85.7439 12.6381 86.0103 12.0828 86.2709 11.4708C86.5316 10.8588 86.7809 10.2751 87.0189 9.71978C87.2569 9.16445 87.4723 8.66012 87.6649 8.20678C87.8576 7.75345 88.0219 7.43612 88.1579 7.25478C88.2486 7.11878 88.4016 7.02245 88.6169 6.96578C88.8323 6.90912 89.0533 6.88645 89.2799 6.89778C89.5066 6.90912 89.7106 6.96578 89.8919 7.06778C90.0733 7.16978 90.1753 7.30012 90.1979 7.45878C90.2433 7.91212 90.2999 8.59212 90.3679 9.49878C90.4359 10.4054 90.4813 11.4141 90.5039 12.5248C90.5266 13.6354 90.5096 14.7801 90.4529 15.9588C90.3963 17.1374 90.2659 18.2198 90.0619 19.2058C89.8579 20.1918 89.5576 21.0248 89.1609 21.7048C88.7643 22.3848 88.2486 22.7701 87.6139 22.8608C87.3193 22.9061 87.0303 22.8778 86.7469 22.7758C86.4636 22.6738 86.2143 22.5151 85.9989 22.2998C85.7836 22.0844 85.6249 21.8124 85.5229 21.4838C85.4209 21.1551 85.4039 20.7868 85.4719 20.3788C85.5173 20.1294 85.6703 19.9878 85.9309 19.9538C86.1916 19.9198 86.3446 20.0161 86.3899 20.2428C86.5033 21.1721 86.6959 21.6538 86.9679 21.6878C87.2399 21.7218 87.4666 21.3194 87.6479 20.4808C87.7839 19.9368 87.8803 19.2794 87.9369 18.5088C87.9936 17.7381 88.0276 16.9448 88.0389 16.1288C88.0503 15.3128 88.0389 14.5138 88.0049 13.7318C87.9709 12.9498 87.9313 12.2868 87.8859 11.7428C87.8859 11.9241 87.7669 12.2358 87.5289 12.6778C87.2909 13.1198 87.0246 13.5674 86.7299 14.0208C86.2766 14.7461 85.7439 15.2674 85.1319 15.5848C84.5199 15.9021 83.9193 16.0268 83.3299 15.9588C82.7406 15.8908 82.2079 15.6414 81.7319 15.2108C81.2559 14.7801 80.9273 14.1681 80.7459 13.3748C80.6326 12.8988 80.5476 12.3718 80.4909 11.7938C80.4343 11.2158 80.4173 10.6378 80.4399 10.0598C80.4626 9.48178 80.5249 8.93778 80.6269 8.42778C80.7289 7.91778 80.8933 7.47012 81.1199 7.08478C81.1879 6.94878 81.3636 6.80712 81.6469 6.65978C81.9303 6.51245 82.2193 6.42178 82.5139 6.38778C82.8086 6.35378 83.0636 6.39345 83.2789 6.50678C83.4943 6.62012 83.5793 6.84678 83.5339 7.18678C83.3526 8.29745 83.1996 9.29478 83.0749 10.1788C82.9503 11.0628 82.9559 11.9694 83.0919 12.8988Z"/>
<path clip-path="url(#TextBounds)" d="M102.234 23.2008C102.461 23.6768 102.653 23.9601 102.812 24.0508C102.971 24.1414 103.09 24.1188 103.169 23.9828C103.248 23.8468 103.288 23.6314 103.288 23.3368C103.288 23.0421 103.254 22.7361 103.186 22.4188C103.073 21.9201 102.92 21.4158 102.727 20.9058C102.534 20.3958 102.404 20.0274 102.336 19.8008C102.2 19.3928 102.064 19.0244 101.928 18.6958C101.792 18.3671 101.656 18.0611 101.52 17.7778C101.384 17.4944 101.237 17.2054 101.078 16.9108C100.919 16.6161 100.749 16.2988 100.568 15.9588C100.205 15.3014 99.8709 14.6384 99.5649 13.9698C99.2589 13.3011 99.0096 12.6098 98.8169 11.8958C98.6243 11.1818 98.5166 10.4451 98.4939 9.68578C98.4713 8.92645 98.5619 8.11612 98.7659 7.25478C99.0379 6.18945 99.5593 5.29978 100.33 4.58578C101.101 3.87178 101.928 3.41845 102.812 3.22578C103.696 3.03312 104.535 3.14078 105.328 3.54878C106.121 3.95678 106.688 4.75012 107.028 5.92878C107.209 6.65412 107.311 7.42478 107.334 8.24078C107.357 9.05678 107.266 9.78212 107.062 10.4168C106.949 10.8248 106.796 11.1194 106.603 11.3008C106.41 11.4821 106.218 11.5614 106.025 11.5388C105.832 11.5161 105.657 11.4028 105.498 11.1988C105.339 10.9948 105.226 10.7114 105.158 10.3488L105.056 9.49878C105.011 8.93212 104.96 8.37112 104.903 7.81578C104.846 7.26045 104.75 6.73345 104.614 6.23478C104.41 5.55478 104.138 5.16378 103.798 5.06178C103.458 4.95978 103.118 5.01645 102.778 5.23178C102.438 5.44712 102.121 5.75312 101.826 6.14978C101.531 6.54645 101.316 6.91478 101.18 7.25478C100.84 8.11612 100.761 9.02845 100.942 9.99178C101.123 10.9551 101.412 11.9128 101.809 12.8648C102.206 13.8168 102.648 14.7404 103.135 15.6358C103.622 16.5311 104.013 17.3528 104.308 18.1008C104.467 18.4634 104.642 18.8828 104.835 19.3588C105.028 19.8348 105.198 20.3334 105.345 20.8548C105.492 21.3761 105.606 21.8974 105.685 22.4188C105.764 22.9401 105.759 23.4388 105.668 23.9148C105.532 24.7081 105.186 25.2351 104.631 25.4958C104.076 25.7564 103.475 25.8074 102.829 25.6488C102.183 25.4901 101.577 25.1444 101.01 24.6118C100.443 24.0791 100.058 23.4161 99.8539 22.6228C99.7859 22.3734 99.7463 22.0958 99.7349 21.7898C99.7236 21.4838 99.7349 21.1948 99.7689 20.9228C99.8029 20.6508 99.8823 20.4128 100.007 20.2088C100.132 20.0048 100.296 19.8688 100.5 19.8008C100.817 19.7101 101.027 19.7158 101.129 19.8178C101.231 19.9198 101.339 20.1634 101.452 20.5488C101.565 20.9341 101.679 21.3874 101.792 21.9088C101.905 22.4301 102.053 22.8608 102.234 23.2008Z"/>
<path clip-path="url(#TextBounds)" d="M111.924 11.3008C112.196 11.2101 112.593 11.0061 113.114 10.6888C113.635 10.3714 114.123 9.99178 114.576 9.54978C115.029 9.10778 115.358 8.62612 115.562 8.10478C115.766 7.58345 115.687 7.07345 115.324 6.57478C115.029 6.57478 114.701 6.72212 114.338 7.01678C113.975 7.31145 113.635 7.69678 113.318 8.17278C113.001 8.64878 112.712 9.16445 112.451 9.71978C112.19 10.2751 112.015 10.8021 111.924 11.3008ZM114.134 18.9168C114.157 18.8034 114.225 18.6958 114.338 18.5938C114.451 18.4918 114.576 18.4238 114.712 18.3898C114.848 18.3558 114.978 18.3614 115.103 18.4068C115.228 18.4521 115.301 18.5768 115.324 18.7808C115.347 19.0301 115.352 19.2964 115.341 19.5798C115.33 19.8631 115.279 20.1634 115.188 20.4808C114.916 21.3421 114.542 21.9938 114.066 22.4358C113.59 22.8778 113.08 23.0761 112.536 23.0308C111.697 22.9628 110.961 22.5321 110.326 21.7388C109.691 20.9454 109.21 19.9651 108.881 18.7978C108.552 17.6304 108.388 16.3611 108.388 14.9898C108.388 13.6184 108.592 12.2981 109 11.0288C109.408 9.75945 110.031 8.63178 110.87 7.64578C111.709 6.65978 112.808 5.98545 114.168 5.62278C114.803 5.44145 115.381 5.43578 115.902 5.60578C116.423 5.77578 116.792 6.07612 117.007 6.50678C117.222 6.93745 117.239 7.47578 117.058 8.12178C116.877 8.76778 116.401 9.47612 115.63 10.2468C115.494 10.3828 115.273 10.5698 114.967 10.8078C114.661 11.0458 114.321 11.2724 113.947 11.4878C113.573 11.7031 113.188 11.9014 112.791 12.0828C112.394 12.2641 112.026 12.3774 111.686 12.4228C111.573 13.3068 111.527 14.0888 111.55 14.7688C111.573 15.4488 111.595 16.2194 111.618 17.0808C111.618 17.3301 111.646 17.6814 111.703 18.1348C111.76 18.5881 111.845 19.0358 111.958 19.4778C112.071 19.9198 112.207 20.3051 112.366 20.6338C112.525 20.9624 112.706 21.1041 112.91 21.0588C113.227 21.0134 113.488 20.7754 113.692 20.3448C113.896 19.9141 114.043 19.4381 114.134 18.9168Z"/>
<path clip-path="url(#TextBounds)" d="M118.962 3.68478C119.053 3.43545 119.223 3.24845 119.472 3.12378C119.721 2.99912 119.982 2.94245 120.254 2.95378C120.526 2.96512 120.764 3.04445 120.968 3.19178C121.172 3.33912 121.274 3.54878 121.274 3.82078C121.251 5.38478 121.2 6.91478 121.121 8.41078C121.042 9.90678 120.974 11.3971 120.917 12.8818C120.86 14.3664 120.826 15.8511 120.815 17.3358C120.804 18.8204 120.843 20.3334 120.934 21.8748C120.957 22.1921 120.883 22.4358 120.713 22.6058C120.543 22.7758 120.345 22.8608 120.118 22.8608C119.891 22.8608 119.665 22.7814 119.438 22.6228C119.211 22.4641 119.064 22.2261 118.996 21.9088C118.86 21.2968 118.741 20.4751 118.639 19.4438C118.537 18.4124 118.463 17.2904 118.418 16.0778C118.373 14.8651 118.356 13.6128 118.367 12.3208C118.378 11.0288 118.407 9.81045 118.452 8.66578C118.497 7.52112 118.56 6.50678 118.639 5.62278C118.718 4.73878 118.826 4.09278 118.962 3.68478Z"/>
<path clip-path="url(#TextBounds)" d="M123.586 13.1708C123.586 12.5588 123.586 11.8901 123.586 11.1648C123.586 10.4394 123.614 9.70278 123.671 8.95478C123.728 8.20678 123.818 7.47578 123.943 6.76178C124.068 6.04778 124.255 5.39612 124.504 4.80678C124.799 4.05878 125.252 3.49212 125.864 3.10678C126.476 2.72145 127.116 2.51178 127.785 2.47778C128.454 2.44378 129.088 2.57978 129.689 2.88578C130.29 3.19178 130.726 3.66212 130.998 4.29678C131.225 4.81812 131.423 5.41312 131.593 6.08178C131.763 6.75045 131.814 7.34545 131.746 7.86678C131.701 8.38812 131.548 8.64312 131.287 8.63178C131.026 8.62045 130.805 8.39945 130.624 7.96878C130.488 7.69678 130.369 7.31712 130.267 6.82978C130.165 6.34245 130.035 5.86078 129.876 5.38478C129.717 4.90878 129.519 4.49512 129.281 4.14378C129.043 3.79245 128.731 3.62812 128.346 3.65078C127.825 3.85478 127.428 4.35345 127.156 5.14678C126.884 5.94012 126.691 6.82978 126.578 7.81578C126.465 8.80178 126.402 9.77078 126.391 10.7228C126.38 11.6748 126.374 12.4114 126.374 12.9328C126.601 12.9101 126.867 12.8818 127.173 12.8478C127.479 12.8138 127.796 12.7911 128.125 12.7798C128.454 12.7684 128.771 12.7628 129.077 12.7628C129.383 12.7628 129.661 12.7854 129.91 12.8308C130.273 12.9214 130.431 13.0971 130.386 13.3578C130.341 13.6184 130.216 13.7714 130.012 13.8168C129.445 13.9301 128.896 13.9924 128.363 14.0038C127.83 14.0151 127.201 14.0774 126.476 14.1908C126.476 14.5988 126.516 15.1428 126.595 15.8228C126.674 16.5028 126.765 17.2281 126.867 17.9988C126.969 18.7694 127.06 19.5344 127.139 20.2938C127.218 21.0531 127.258 21.7161 127.258 22.2828C127.258 22.5548 127.179 22.7758 127.02 22.9458C126.861 23.1158 126.669 23.2234 126.442 23.2688C126.215 23.3141 125.989 23.2744 125.762 23.1498C125.535 23.0251 125.343 22.7928 125.184 22.4528C125.003 22.0448 124.827 21.4838 124.657 20.7698C124.487 20.0558 124.334 19.3078 124.198 18.5258C124.062 17.7438 123.949 16.9958 123.858 16.2818C123.767 15.5678 123.722 15.0068 123.722 14.5988C123.563 14.5988 123.422 14.6158 123.297 14.6498C123.172 14.6838 123.042 14.6781 122.906 14.6328C122.702 14.5874 122.56 14.5024 122.481 14.3778C122.402 14.2531 122.362 14.1171 122.362 13.9698C122.362 13.8224 122.402 13.6808 122.481 13.5448C122.56 13.4088 122.668 13.3181 122.804 13.2728C122.917 13.2274 123.031 13.2048 123.144 13.2048C123.257 13.2048 123.405 13.1934 123.586 13.1708Z"/>
<path clip-path="url(#TextBounds)" d="M135.622 8.88678C135.622 9.65745 135.645 10.6264 135.69 11.7938C135.735 12.9611 135.775 14.1568 135.809 15.3808C135.843 16.6048 135.854 17.7551 135.843 18.8318C135.832 19.9084 135.758 20.7414 135.622 21.3308C135.599 21.4441 135.531 21.5291 135.418 21.5858C135.305 21.6424 135.18 21.6651 135.044 21.6538C134.908 21.6424 134.778 21.6084 134.653 21.5518C134.528 21.4951 134.432 21.4214 134.364 21.3308C134.137 20.9454 133.922 20.3844 133.718 19.6478C133.514 18.9111 133.344 18.1008 133.208 17.2168C133.072 16.3328 132.97 15.4261 132.902 14.4968C132.834 13.5674 132.817 12.7004 132.851 11.8958C132.885 11.0911 132.987 10.3998 133.157 9.82178C133.327 9.24378 133.571 8.87545 133.888 8.71678C134.001 8.67145 134.143 8.62612 134.313 8.58078C134.483 8.53545 134.659 8.51278 134.84 8.51278C135.021 8.51278 135.186 8.54112 135.333 8.59778C135.48 8.65445 135.577 8.75078 135.622 8.88678ZM134.636 7.45878C134.409 7.45878 134.228 7.38512 134.092 7.23778C133.956 7.09045 133.86 6.90345 133.803 6.67678C133.746 6.45012 133.718 6.21212 133.718 5.96278C133.718 5.71345 133.741 5.47545 133.786 5.24878C133.831 5.02212 133.956 4.86345 134.16 4.77278C134.364 4.68212 134.574 4.64245 134.789 4.65378C135.004 4.66512 135.203 4.73312 135.384 4.85778C135.565 4.98245 135.656 5.14678 135.656 5.35078C135.633 5.53212 135.611 5.71345 135.588 5.89478C135.565 6.07612 135.531 6.25745 135.486 6.43878C135.441 6.80145 135.39 7.07345 135.333 7.25478C135.276 7.43612 135.044 7.50412 134.636 7.45878Z"/>
<path clip-path="url(#TextBounds)" d="M140.45 11.3008C140.722 11.2101 141.119 11.0061 141.64 10.6888C142.161 10.3714 142.649 9.99178 143.102 9.54978C143.555 9.10778 143.884 8.62612 144.088 8.10478C144.292 7.58345 144.213 7.07345 143.85 6.57478C143.555 6.57478 143.227 6.72212 142.864 7.01678C142.501 7.31145 142.161 7.69678 141.844 8.17278C141.527 8.64878 141.238 9.16445 140.977 9.71978C140.716 10.2751 140.541 10.8021 140.45 11.3008ZM142.66 18.9168C142.683 18.8034 142.751 18.6958 142.864 18.5938C142.977 18.4918 143.102 18.4238 143.238 18.3898C143.374 18.3558 143.504 18.3614 143.629 18.4068C143.754 18.4521 143.827 18.5768 143.85 18.7808C143.873 19.0301 143.878 19.2964 143.867 19.5798C143.856 19.8631 143.805 20.1634 143.714 20.4808C143.442 21.3421 143.068 21.9938 142.592 22.4358C142.116 22.8778 141.606 23.0761 141.062 23.0308C140.223 22.9628 139.487 22.5321 138.852 21.7388C138.217 20.9454 137.736 19.9651 137.407 18.7978C137.078 17.6304 136.914 16.3611 136.914 14.9898C136.914 13.6184 137.118 12.2981 137.526 11.0288C137.934 9.75945 138.557 8.63178 139.396 7.64578C140.235 6.65978 141.334 5.98545 142.694 5.62278C143.329 5.44145 143.907 5.43578 144.428 5.60578C144.949 5.77578 145.318 6.07612 145.533 6.50678C145.748 6.93745 145.765 7.47578 145.584 8.12178C145.403 8.76778 144.927 9.47612 144.156 10.2468C144.02 10.3828 143.799 10.5698 143.493 10.8078C143.187 11.0458 142.847 11.2724 142.473 11.4878C142.099 11.7031 141.714 11.9014 141.317 12.0828C140.92 12.2641 140.552 12.3774 140.212 12.4228C140.099 13.3068 140.053 14.0888 140.076 14.7688C140.099 15.4488 140.121 16.2194 140.144 17.0808C140.144 17.3301 140.172 17.6814 140.229 18.1348C140.286 18.5881 140.371 19.0358 140.484 19.4778C140.597 19.9198 140.733 20.3051 140.892 20.6338C141.051 20.9624 141.232 21.1041 141.436 21.0588C141.753 21.0134 142.014 20.7754 142.218 20.3448C142.422 19.9141 142.569 19.4381 142.66 18.9168Z"/>
</g>
<g fill="#303030" opacity="1" stroke="none">
<path clip-path="url(#TextBounds_2)" d="M16.93 31.24C16.9527 30.9227 17.1227 30.679 17.44 30.509C17.7574 30.339 18.0974 30.2427 18.46 30.22C18.8227 30.1973 19.1514 30.2483 19.446 30.373C19.7407 30.4977 19.8994 30.696 19.922 30.968L19.99 31.852C20.194 31.4893 20.449 31.1323 20.755 30.781C21.061 30.4297 21.418 30.1237 21.826 29.863C22.234 29.6023 22.693 29.404 23.203 29.268C23.713 29.132 24.2854 29.098 24.92 29.166C25.872 29.2793 26.5294 29.7893 26.892 30.696C27.2547 31.6027 27.436 32.77 27.436 34.198C27.436 35.0593 27.351 35.9263 27.181 36.799C27.011 37.6717 26.8014 38.5047 26.552 39.298C26.3027 40.0913 26.0194 40.8167 25.702 41.474C25.3847 42.1313 25.0787 42.6753 24.784 43.106C24.0587 44.1487 23.271 45.0213 22.421 45.724C21.571 46.4267 20.772 46.8233 20.024 46.914C20.024 47.05 20.024 47.2937 20.024 47.645C20.024 47.9963 20.0184 48.393 20.007 48.835C19.9957 49.277 19.973 49.7247 19.939 50.178C19.905 50.6313 19.854 51.028 19.786 51.368C19.718 51.7533 19.6047 52.0197 19.446 52.167C19.2874 52.3143 19.1174 52.3767 18.936 52.354C18.7547 52.3313 18.579 52.2407 18.409 52.082C18.239 51.9233 18.0974 51.7193 17.984 51.47C17.6894 50.858 17.4457 50.025 17.253 48.971C17.0604 47.917 16.913 46.7497 16.811 45.469C16.709 44.1883 16.641 42.8567 16.607 41.474C16.573 40.0913 16.5674 38.7483 16.59 37.445C16.6127 36.1417 16.6524 34.946 16.709 33.858C16.7657 32.77 16.8394 31.8973 16.93 31.24ZM19.99 45.384C20.7834 44.772 21.4917 44.0127 22.115 43.106C22.7384 42.1993 23.254 41.2247 23.662 40.182C24.07 39.1393 24.376 38.0683 24.58 36.969C24.784 35.8697 24.8747 34.8327 24.852 33.858C24.8294 33.2913 24.7784 32.787 24.699 32.345C24.6197 31.903 24.495 31.597 24.325 31.427C24.155 31.257 23.9227 31.2627 23.628 31.444C23.3334 31.6253 22.9594 32.0333 22.506 32.668C22.0754 33.2573 21.69 34.0053 21.35 34.912C21.01 35.8187 20.7324 36.8217 20.517 37.921C20.3017 39.0203 20.143 40.2047 20.041 41.474C19.939 42.7433 19.922 44.0467 19.99 45.384Z"/>
<path clip-path="url(#TextBounds_2)" d="M32.026 49.77C31.958 50.0647 31.8164 50.297 31.601 50.467C31.3857 50.637 31.1477 50.7333 30.887 50.756C30.6264 50.7787 30.3657 50.705 30.105 50.535C29.8444 50.365 29.6234 50.0873 29.442 49.702C28.9207 48.5687 28.5127 47.203 28.218 45.605C27.9234 44.007 27.7534 42.3637 27.708 40.675C27.6627 38.9863 27.7477 37.3543 27.963 35.779C28.1784 34.2037 28.558 32.8607 29.102 31.75C29.1927 31.546 29.3627 31.3873 29.612 31.274C29.8614 31.1607 30.1164 31.104 30.377 31.104C30.6377 31.104 30.853 31.172 31.023 31.308C31.193 31.444 31.2667 31.682 31.244 32.022C31.1987 32.4527 31.1364 33.0193 31.057 33.722C30.9777 34.4247 30.8984 35.201 30.819 36.051C30.7397 36.901 30.6717 37.7737 30.615 38.669C30.5584 39.5643 30.5187 40.437 30.496 41.287C30.4734 42.137 30.4847 42.9133 30.53 43.616C30.5754 44.3187 30.6547 44.8853 30.768 45.316C30.8814 44.9987 31.0004 44.5113 31.125 43.854C31.2497 43.1967 31.4027 42.5393 31.584 41.882C31.924 40.5447 32.383 39.4963 32.961 38.737C33.539 37.9777 34.117 37.5697 34.695 37.513C35.273 37.4563 35.8 37.7963 36.276 38.533C36.752 39.2697 37.058 40.4653 37.194 42.12C37.2394 42.7093 37.279 43.3327 37.313 43.99C37.347 44.6473 37.3697 45.282 37.381 45.894C37.3924 46.506 37.398 47.0613 37.398 47.56C37.398 48.0587 37.3754 48.4327 37.33 48.682C37.2847 48.9767 37.177 49.1863 37.007 49.311C36.837 49.4357 36.65 49.5037 36.446 49.515C36.242 49.5263 36.0494 49.4867 35.868 49.396C35.6867 49.3053 35.5847 49.1807 35.562 49.022C35.4714 48.614 35.3977 48.1097 35.341 47.509C35.2844 46.9083 35.2277 46.2907 35.171 45.656C35.1144 45.0213 35.0747 44.398 35.052 43.786C35.0294 43.174 35.0067 42.6413 34.984 42.188C34.9614 41.2813 34.882 40.6353 34.746 40.25C34.61 39.8647 34.4514 39.7003 34.27 39.757C34.0887 39.8137 33.8904 40.0687 33.675 40.522C33.4597 40.9753 33.2727 41.576 33.114 42.324C32.978 42.9133 32.8704 43.5367 32.791 44.194C32.7117 44.8513 32.6324 45.5143 32.553 46.183C32.4737 46.8517 32.3944 47.4977 32.315 48.121C32.2357 48.7443 32.1394 49.294 32.026 49.77Z"/>
<path clip-path="url(#TextBounds_2)" d="M42.566 40.386C42.09 41.0433 41.7784 41.7177 41.631 42.409C41.4837 43.1003 41.4497 43.7633 41.529 44.398C41.6084 45.0327 41.767 45.6277 42.005 46.183C42.243 46.7383 42.5207 47.2087 42.838 47.594C43.4047 48.2967 43.9487 48.6083 44.47 48.529C44.9914 48.4497 45.4674 48.036 45.898 47.288C46.2154 46.6987 46.4817 45.8827 46.697 44.84C46.9124 43.7973 47.0314 42.4713 47.054 40.862C46.0567 40.9073 45.2294 40.9017 44.572 40.845C43.9147 40.7883 43.246 40.6353 42.566 40.386ZM42.566 38.278C43.2007 38.1193 43.654 38.176 43.926 38.448C44.198 38.72 44.13 39.0713 43.722 39.502C44.1754 39.6153 44.708 39.689 45.32 39.723C45.932 39.757 46.4987 39.7173 47.02 39.604C47.0427 38.992 46.935 38.38 46.697 37.768C46.459 37.156 46.1417 36.6573 45.745 36.272C45.3484 35.8867 44.9007 35.6883 44.402 35.677C43.9034 35.6657 43.4047 35.9547 42.906 36.544C42.702 36.7933 42.5887 37.0823 42.566 37.411C42.5434 37.7397 42.5434 38.0287 42.566 38.278ZM40.798 38.924C40.39 38.2893 40.3107 37.6207 40.56 36.918C40.8094 36.2153 41.308 35.626 42.056 35.15C42.6454 34.7647 43.229 34.5493 43.807 34.504C44.385 34.4587 44.9347 34.4927 45.456 34.606C46.408 34.7873 47.19 35.2633 47.802 36.034C48.414 36.8047 48.7767 37.87 48.89 39.23C49.0487 39.2073 49.247 39.1677 49.485 39.111C49.723 39.0543 49.9667 38.9863 50.216 38.907C50.4654 38.8277 50.7147 38.737 50.964 38.635C51.2134 38.533 51.4287 38.4253 51.61 38.312C51.7914 38.176 51.967 38.1193 52.137 38.142C52.307 38.1647 52.443 38.2213 52.545 38.312C52.647 38.4027 52.6924 38.5273 52.681 38.686C52.6697 38.8447 52.5847 38.992 52.426 39.128C52.1994 39.332 51.9274 39.5077 51.61 39.655C51.2927 39.8023 50.964 39.9327 50.624 40.046C50.284 40.1593 49.9724 40.2557 49.689 40.335C49.4057 40.4143 49.1847 40.4767 49.026 40.522C49.0714 41.066 49.0657 41.678 49.009 42.358C48.9524 43.038 48.8447 43.7237 48.686 44.415C48.5274 45.1063 48.3177 45.7863 48.057 46.455C47.7964 47.1237 47.4904 47.7243 47.139 48.257C46.7877 48.7897 46.3854 49.2317 45.932 49.583C45.4787 49.9343 44.9914 50.144 44.47 50.212C43.926 50.28 43.3537 50.212 42.753 50.008C42.1524 49.804 41.5857 49.4753 41.053 49.022C40.5204 48.5687 40.05 47.9963 39.642 47.305C39.234 46.6137 38.9507 45.8147 38.792 44.908C38.6787 44.3413 38.6334 43.7463 38.656 43.123C38.6787 42.4997 38.775 41.916 38.945 41.372C39.115 40.828 39.353 40.3407 39.659 39.91C39.965 39.4793 40.3447 39.1507 40.798 38.924Z"/>
<path clip-path="url(#TextBounds_2)" d="M54.262 32.464C54.6474 32.4187 55.0667 32.379 55.52 32.345C55.9734 32.311 56.4154 32.3167 56.846 32.362C57.118 32.3847 57.3504 32.4413 57.543 32.532C57.7357 32.6227 57.8547 32.7247 57.9 32.838C57.9454 32.9513 57.8944 33.0703 57.747 33.195C57.5997 33.3197 57.3447 33.416 56.982 33.484C56.5514 33.552 56.0697 33.5917 55.537 33.603C55.0044 33.6143 54.5227 33.6427 54.092 33.688C53.9334 34.5947 53.769 35.6543 53.599 36.867C53.429 38.0797 53.2817 39.3377 53.157 40.641C53.0324 41.9443 52.9587 43.2363 52.936 44.517C52.9134 45.7977 52.97 46.948 53.106 47.968C53.174 48.4667 53.3327 48.7273 53.582 48.75C53.8314 48.7727 54.1147 48.6763 54.432 48.461C54.7494 48.2457 55.061 47.9567 55.367 47.594C55.673 47.2313 55.9167 46.9253 56.098 46.676C56.234 46.472 56.3927 46.3473 56.574 46.302C56.7554 46.2567 56.9027 46.2793 57.016 46.37C57.1294 46.4607 57.1917 46.5967 57.203 46.778C57.2144 46.9593 57.1407 47.186 56.982 47.458C56.8234 47.7073 56.6194 47.9737 56.37 48.257C56.1207 48.5403 55.826 48.8633 55.486 49.226C54.8287 49.906 54.2167 50.2403 53.65 50.229C53.0834 50.2177 52.5847 49.9513 52.154 49.43C51.7687 48.9767 51.474 48.3533 51.27 47.56C51.066 46.7667 50.9187 45.894 50.828 44.942C50.7374 43.99 50.6977 42.9927 50.709 41.95C50.7204 40.9073 50.7544 39.8873 50.811 38.89C50.8677 37.8927 50.9414 36.969 51.032 36.119C51.1227 35.269 51.2134 34.5607 51.304 33.994C50.9867 33.9713 50.8167 33.9713 50.794 33.994C50.7714 34.0167 50.692 34.0167 50.556 33.994C50.3067 33.9713 50.114 33.8977 49.978 33.773C49.842 33.6483 49.774 33.518 49.774 33.382C49.774 33.246 49.842 33.1213 49.978 33.008C50.114 32.8947 50.318 32.8153 50.59 32.77C50.8394 32.7247 50.998 32.702 51.066 32.702C51.134 32.702 51.3267 32.6907 51.644 32.668C51.6894 32.464 51.7347 32.2203 51.78 31.937C51.8254 31.6537 51.8764 31.376 51.933 31.104C51.9897 30.832 52.052 30.5713 52.12 30.322C52.188 30.0727 52.2674 29.8687 52.358 29.71C52.494 29.4833 52.698 29.3133 52.97 29.2C53.242 29.0867 53.5197 29.0357 53.803 29.047C54.0864 29.0583 54.33 29.1207 54.534 29.234C54.738 29.3473 54.8287 29.506 54.806 29.71C54.7607 30.1633 54.6814 30.6167 54.568 31.07C54.4547 31.5233 54.3527 31.988 54.262 32.464Z"/>
<path clip-path="url(#TextBounds_2)" d="M61.912 40.386C61.436 41.0433 61.1244 41.7177 60.977 42.409C60.8297 43.1003 60.7957 43.7633 60.875 44.398C60.9544 45.0327 61.113 45.6277 61.351 46.183C61.589 46.7383 61.8667 47.2087 62.184 47.594C62.7507 48.2967 63.2947 48.6083 63.816 48.529C64.3374 48.4497 64.8134 48.036 65.244 47.288C65.5614 46.6987 65.8277 45.8827 66.043 44.84C66.2584 43.7973 66.3774 42.4713 66.4 40.862C65.4027 40.9073 64.5754 40.9017 63.918 40.845C63.2607 40.7883 62.592 40.6353 61.912 40.386ZM61.912 38.278C62.5467 38.1193 63 38.176 63.272 38.448C63.544 38.72 63.476 39.0713 63.068 39.502C63.5214 39.6153 64.054 39.689 64.666 39.723C65.278 39.757 65.8447 39.7173 66.366 39.604C66.3887 38.992 66.281 38.38 66.043 37.768C65.805 37.156 65.4877 36.6573 65.091 36.272C64.6944 35.8867 64.2467 35.6883 63.748 35.677C63.2494 35.6657 62.7507 35.9547 62.252 36.544C62.048 36.7933 61.9347 37.0823 61.912 37.411C61.8894 37.7397 61.8894 38.0287 61.912 38.278ZM60.144 38.924C59.736 38.2893 59.6567 37.6207 59.906 36.918C60.1554 36.2153 60.654 35.626 61.402 35.15C61.9914 34.7647 62.575 34.5493 63.153 34.504C63.731 34.4587 64.2807 34.4927 64.802 34.606C65.754 34.7873 66.536 35.2633 67.148 36.034C67.76 36.8047 68.1227 37.87 68.236 39.23C68.3947 39.2073 68.593 39.1677 68.831 39.111C69.069 39.0543 69.3127 38.9863 69.562 38.907C69.8114 38.8277 70.0607 38.737 70.31 38.635C70.5594 38.533 70.7747 38.4253 70.956 38.312C71.1374 38.176 71.313 38.1193 71.483 38.142C71.653 38.1647 71.789 38.2213 71.891 38.312C71.993 38.4027 72.0384 38.5273 72.027 38.686C72.0157 38.8447 71.9307 38.992 71.772 39.128C71.5454 39.332 71.2734 39.5077 70.956 39.655C70.6387 39.8023 70.31 39.9327 69.97 40.046C69.63 40.1593 69.3184 40.2557 69.035 40.335C68.7517 40.4143 68.5307 40.4767 68.372 40.522C68.4174 41.066 68.4117 41.678 68.355 42.358C68.2984 43.038 68.1907 43.7237 68.032 44.415C67.8734 45.1063 67.6637 45.7863 67.403 46.455C67.1424 47.1237 66.8364 47.7243 66.485 48.257C66.1337 48.7897 65.7314 49.2317 65.278 49.583C64.8247 49.9343 64.3374 50.144 63.816 50.212C63.272 50.28 62.6997 50.212 62.099 50.008C61.4984 49.804 60.9317 49.4753 60.399 49.022C59.8664 48.5687 59.396 47.9963 58.988 47.305C58.58 46.6137 58.2967 45.8147 58.138 44.908C58.0247 44.3413 57.9794 43.7463 58.002 43.123C58.0247 42.4997 58.121 41.916 58.291 41.372C58.461 40.828 58.699 40.3407 59.005 39.91C59.311 39.4793 59.6907 39.1507 60.144 38.924Z"/>
<path clip-path="url(#TextBounds_2)" d="M80.646 36.68C80.8047 36.2267 80.9804 35.7563 81.173 35.269C81.3657 34.7817 81.5867 34.3 81.836 33.824C82.652 32.2827 83.5757 31.2853 84.607 30.832C85.6384 30.3787 86.5904 30.3447 87.463 30.73C88.3357 31.1153 89.0214 31.8463 89.52 32.923C90.0187 33.9997 90.1434 35.2973 89.894 36.816C89.6674 38.244 89.1687 39.5133 88.398 40.624C87.6274 41.7347 86.5394 42.834 85.134 43.922C86.1087 44.1487 86.8567 44.5737 87.378 45.197C87.8994 45.8203 88.2167 46.5173 88.33 47.288C88.4434 48.0587 88.364 48.8237 88.092 49.583C87.82 50.3423 87.361 50.96 86.715 51.436C86.069 51.912 85.253 52.1727 84.267 52.218C83.281 52.2633 82.142 51.9573 80.85 51.3C80.85 51.5267 80.7197 51.7137 80.459 51.861C80.1984 52.0083 79.915 52.0877 79.609 52.099C79.303 52.1103 79.0197 52.0423 78.759 51.895C78.4984 51.7477 78.368 51.504 78.368 51.164C78.3907 50.2573 78.385 49.1977 78.351 47.985C78.317 46.7723 78.2547 45.52 78.164 44.228C78.0734 42.936 77.9714 41.6723 77.858 40.437C77.7447 39.2017 77.6314 38.0967 77.518 37.122C77.4274 36.1927 77.314 35.3143 77.178 34.487C77.042 33.6597 76.8947 32.9287 76.736 32.294C76.6227 31.8633 76.6794 31.5347 76.906 31.308C77.1327 31.0813 77.416 30.9567 77.756 30.934C78.096 30.9113 78.4474 30.9963 78.81 31.189C79.1727 31.3817 79.4447 31.6707 79.626 32.056C79.762 32.328 79.8754 32.6623 79.966 33.059C80.0567 33.4557 80.1474 33.8637 80.238 34.283C80.3287 34.7023 80.4024 35.1217 80.459 35.541C80.5157 35.9603 80.578 36.34 80.646 36.68ZM82.142 43.514C82.55 43.242 83.026 42.868 83.57 42.392C84.114 41.916 84.6467 41.3777 85.168 40.777C85.6894 40.1763 86.1654 39.5303 86.596 38.839C87.0267 38.1477 87.3327 37.462 87.514 36.782C87.6954 36.1473 87.7804 35.524 87.769 34.912C87.7577 34.3 87.6784 33.7673 87.531 33.314C87.3837 32.8607 87.1684 32.5093 86.885 32.26C86.6017 32.0107 86.2844 31.9257 85.933 32.005C85.5817 32.0843 85.202 32.3507 84.794 32.804C84.386 33.2573 83.978 33.96 83.57 34.912C83.094 35.9773 82.7087 36.9237 82.414 37.751C82.1194 38.5783 81.8757 39.3433 81.683 40.046C81.4904 40.7487 81.3487 41.4287 81.258 42.086C81.1674 42.7433 81.1107 43.4347 81.088 44.16C81.0654 44.8853 81.054 45.6787 81.054 46.54C81.054 47.4013 81.054 48.3873 81.054 49.498C81.53 49.8833 82.057 50.1667 82.635 50.348C83.213 50.5293 83.7627 50.603 84.284 50.569C84.8054 50.535 85.2644 50.4047 85.661 50.178C86.0577 49.9513 86.3127 49.6113 86.426 49.158C86.6527 48.3193 86.63 47.6507 86.358 47.152C86.086 46.6533 85.7064 46.251 85.219 45.945C84.7317 45.639 84.1934 45.3897 83.604 45.197C83.0147 45.0043 82.516 44.7947 82.108 44.568C81.768 44.3867 81.6207 44.2053 81.666 44.024C81.7114 43.8427 81.87 43.6727 82.142 43.514Z"/>
<path clip-path="url(#TextBounds_2)" d="M93.226 38.924C92.818 38.2893 92.7387 37.6207 92.988 36.918C93.2374 36.2153 93.736 35.626 94.484 35.15C95.0734 34.7647 95.657 34.5493 96.235 34.504C96.813 34.4587 97.3627 34.4927 97.884 34.606C98.836 34.7873 99.618 35.2633 100.23 36.034C100.842 36.8047 101.205 37.87 101.318 39.23C101.454 39.2073 101.703 39.1337 102.066 39.009C102.429 38.8843 102.825 38.7427 103.256 38.584C103.687 38.4253 104.1 38.261 104.497 38.091C104.894 37.921 105.217 37.768 105.466 37.632C105.738 36.6573 106.237 35.9717 106.962 35.575C107.687 35.1783 108.56 34.9913 109.58 35.014C109.988 35.014 110.407 35.116 110.838 35.32C111.269 35.524 111.665 35.847 112.028 36.289C112.391 36.731 112.708 37.2977 112.98 37.989C113.252 38.6803 113.433 39.5247 113.524 40.522C113.592 41.338 113.552 42.2163 113.405 43.157C113.258 44.0977 112.997 44.9703 112.623 45.775C112.249 46.5797 111.762 47.271 111.161 47.849C110.56 48.427 109.863 48.7613 109.07 48.852C108.163 48.9653 107.359 48.8917 106.656 48.631C105.953 48.3703 105.353 47.9907 104.854 47.492C104.355 46.9933 103.964 46.4097 103.681 45.741C103.398 45.0723 103.228 44.381 103.171 43.667C103.114 42.953 103.171 42.256 103.341 41.576C103.511 40.896 103.811 40.3067 104.242 39.808C103.766 39.9893 103.279 40.148 102.78 40.284C102.281 40.42 101.839 40.4993 101.454 40.522C101.499 41.066 101.494 41.678 101.437 42.358C101.38 43.038 101.273 43.7237 101.114 44.415C100.955 45.1063 100.746 45.7863 100.485 46.455C100.224 47.1237 99.9184 47.7243 99.567 48.257C99.2157 48.7897 98.8134 49.2317 98.36 49.583C97.9067 49.9343 97.4194 50.144 96.898 50.212C96.354 50.28 95.7817 50.212 95.181 50.008C94.5804 49.804 94.0137 49.4753 93.481 49.022C92.9484 48.5687 92.478 47.9963 92.07 47.305C91.662 46.6137 91.3787 45.8147 91.22 44.908C91.1067 44.3413 91.0614 43.7463 91.084 43.123C91.1067 42.4997 91.203 41.916 91.373 41.372C91.543 40.828 91.781 40.3407 92.087 39.91C92.393 39.4793 92.7727 39.1507 93.226 38.924ZM94.994 40.386C94.518 41.0433 94.2064 41.7177 94.059 42.409C93.9117 43.1003 93.8777 43.7633 93.957 44.398C94.0364 45.0327 94.195 45.6277 94.433 46.183C94.671 46.7383 94.9487 47.2087 95.266 47.594C95.8327 48.2967 96.3767 48.6083 96.898 48.529C97.4194 48.4497 97.8954 48.036 98.326 47.288C98.6434 46.6987 98.9097 45.8827 99.125 44.84C99.3404 43.7973 99.4594 42.4713 99.482 40.862C98.4847 40.9073 97.6574 40.9017 97 40.845C96.3427 40.7883 95.674 40.6353 94.994 40.386ZM107.064 40.386C106.407 40.93 106.027 41.5647 105.925 42.29C105.823 43.0153 105.897 43.7123 106.146 44.381C106.395 45.0497 106.769 45.6333 107.268 46.132C107.767 46.6307 108.277 46.914 108.798 46.982C109.41 47.05 109.897 46.8517 110.26 46.387C110.623 45.9223 110.9 45.3557 111.093 44.687C111.286 44.0183 111.41 43.327 111.467 42.613C111.524 41.899 111.552 41.3153 111.552 40.862C110.555 40.9073 109.727 40.9017 109.07 40.845C108.413 40.7883 107.744 40.6353 107.064 40.386ZM94.994 38.278C95.6287 38.1193 96.082 38.176 96.354 38.448C96.626 38.72 96.558 39.0713 96.15 39.502C96.6034 39.6153 97.136 39.689 97.748 39.723C98.36 39.757 98.9267 39.7173 99.448 39.604C99.4707 38.992 99.363 38.38 99.125 37.768C98.887 37.156 98.5697 36.6573 98.173 36.272C97.7764 35.8867 97.3287 35.6883 96.83 35.677C96.3314 35.6657 95.8327 35.9547 95.334 36.544C95.13 36.7933 95.0167 37.0823 94.994 37.411C94.9714 37.7397 94.9714 38.0287 94.994 38.278ZM107.064 38.278C107.699 38.1193 108.152 38.176 108.424 38.448C108.696 38.72 108.628 39.0713 108.22 39.502C108.673 39.6153 109.206 39.689 109.818 39.723C110.43 39.757 110.997 39.7173 111.518 39.604C111.563 38.448 111.331 37.5753 110.821 36.986C110.311 36.3967 109.682 36.1247 108.934 36.17C108.435 36.2153 108.016 36.408 107.676 36.748C107.336 37.088 107.132 37.598 107.064 38.278Z"/>
<path clip-path="url(#TextBounds_2)" d="M118.556 32.464C118.941 32.4187 119.361 32.379 119.814 32.345C120.267 32.311 120.709 32.3167 121.14 32.362C121.299 32.3847 121.435 32.4413 121.548 32.532C121.661 32.6227 121.735 32.7247 121.769 32.838C121.803 32.9513 121.786 33.0703 121.718 33.195C121.65 33.3197 121.503 33.416 121.276 33.484C120.845 33.552 120.364 33.5917 119.831 33.603C119.298 33.6143 118.817 33.6427 118.386 33.688C118.227 34.5947 118.063 35.6543 117.893 36.867C117.723 38.0797 117.576 39.3377 117.451 40.641C117.326 41.9443 117.253 43.2363 117.23 44.517C117.207 45.7977 117.264 46.948 117.4 47.968C117.468 48.4667 117.604 48.8463 117.808 49.107C118.012 49.3677 118.25 49.498 118.522 49.498C118.794 49.498 119.072 49.379 119.355 49.141C119.638 48.903 119.871 48.5233 120.052 48.002C120.143 47.7753 120.25 47.628 120.375 47.56C120.5 47.492 120.619 47.4977 120.732 47.577C120.845 47.6563 120.925 47.8037 120.97 48.019C121.015 48.2343 121.004 48.4893 120.936 48.784C120.8 49.328 120.568 49.7587 120.239 50.076C119.91 50.3933 119.536 50.5917 119.117 50.671C118.698 50.7503 118.256 50.6937 117.791 50.501C117.326 50.3083 116.879 49.9513 116.448 49.43C116.063 48.9767 115.768 48.3533 115.564 47.56C115.36 46.7667 115.213 45.894 115.122 44.942C115.031 43.99 114.992 42.9927 115.003 41.95C115.014 40.9073 115.048 39.8873 115.105 38.89C115.162 37.8927 115.235 36.969 115.326 36.119C115.417 35.269 115.507 34.5607 115.598 33.994C115.281 33.9713 115.111 33.9713 115.088 33.994C115.065 34.0167 114.986 34.0167 114.85 33.994C114.601 33.9713 114.408 33.8977 114.272 33.773C114.136 33.6483 114.068 33.518 114.068 33.382C114.068 33.246 114.136 33.1213 114.272 33.008C114.408 32.8947 114.612 32.8153 114.884 32.77C115.133 32.7247 115.292 32.702 115.36 32.702C115.428 32.702 115.621 32.6907 115.938 32.668C115.983 32.464 116.029 32.2203 116.074 31.937C116.119 31.6537 116.17 31.376 116.227 31.104C116.284 30.832 116.346 30.5713 116.414 30.322C116.482 30.0727 116.561 29.8687 116.652 29.71C116.788 29.4833 116.992 29.3133 117.264 29.2C117.536 29.0867 117.814 29.0357 118.097 29.047C118.38 29.0583 118.624 29.1207 118.828 29.234C119.032 29.3473 119.123 29.506 119.1 29.71C119.055 30.1633 118.975 30.6167 118.862 31.07C118.749 31.5233 118.647 31.988 118.556 32.464ZM125.832 49.77C125.764 50.0647 125.622 50.297 125.407 50.467C125.192 50.637 124.954 50.7333 124.693 50.756C124.432 50.7787 124.172 50.705 123.911 50.535C123.65 50.365 123.429 50.0873 123.248 49.702C122.908 48.954 122.625 48.0133 122.398 46.88C122.171 45.7467 122.007 44.5283 121.905 43.225C121.803 41.9217 121.758 40.5673 121.769 39.162C121.78 37.7567 121.854 36.408 121.99 35.116C122.126 33.824 122.313 32.6227 122.551 31.512C122.789 30.4013 123.089 29.472 123.452 28.724C123.543 28.52 123.713 28.3613 123.962 28.248C124.211 28.1347 124.466 28.078 124.727 28.078C124.988 28.078 125.203 28.146 125.373 28.282C125.543 28.418 125.617 28.656 125.594 28.996C125.549 29.4267 125.475 30.0727 125.373 30.934C125.271 31.7953 125.158 32.753 125.033 33.807C124.908 34.861 124.795 35.9773 124.693 37.156C124.591 38.3347 124.512 39.451 124.455 40.505C124.398 41.559 124.376 42.5167 124.387 43.378C124.398 44.2393 124.461 44.8853 124.574 45.316C124.687 44.9987 124.806 44.5113 124.931 43.854C125.056 43.1967 125.209 42.5393 125.39 41.882C125.73 40.5447 126.189 39.4963 126.767 38.737C127.345 37.9777 127.923 37.5697 128.501 37.513C129.079 37.4563 129.606 37.7963 130.082 38.533C130.558 39.2697 130.864 40.4653 131 42.12C131.045 42.7093 131.085 43.3327 131.119 43.99C131.153 44.6473 131.176 45.282 131.187 45.894C131.198 46.506 131.204 47.0613 131.204 47.56C131.204 48.0587 131.181 48.4327 131.136 48.682C131.091 48.9767 130.983 49.1863 130.813 49.311C130.643 49.4357 130.456 49.5037 130.252 49.515C130.048 49.5263 129.855 49.4867 129.674 49.396C129.493 49.3053 129.391 49.1807 129.368 49.022C129.277 48.614 129.204 48.1097 129.147 47.509C129.09 46.9083 129.034 46.2907 128.977 45.656C128.92 45.0213 128.881 44.398 128.858 43.786C128.835 43.174 128.813 42.6413 128.79 42.188C128.767 41.2813 128.688 40.6353 128.552 40.25C128.416 39.8647 128.257 39.7003 128.076 39.757C127.895 39.8137 127.696 40.0687 127.481 40.522C127.266 40.9753 127.079 41.576 126.92 42.324C126.784 42.9133 126.676 43.5367 126.597 44.194C126.518 44.8513 126.438 45.5143 126.359 46.183C126.28 46.8517 126.2 47.4977 126.121 48.121C126.042 48.7443 125.945 49.294 125.832 49.77Z"/>
</g>
<g fill="#303030" opacity="1" stroke="none"/>
<g fill="#580d0d" opacity="1" stroke="none"/>
</g>
</svg>
