<?xml version="1.0" encoding="UTF-8" standalone="no"?>
<!DOCTYPE svg PUBLIC "-//W3C//DTD SVG 1.1//EN" "http://www.w3.org/Graphics/SVG/1.1/DTD/svg11.dtd">
<!-- Created with Vectornator (http://vectornator.io/) -->
<svg height="100%" stroke-miterlimit="10" style="fill-rule:nonzero;clip-rule:evenodd;stroke-linecap:round;stroke-linejoin:round;" version="1.1" viewBox="0 0 120 20" width="100%" xml:space="preserve" xmlns="http://www.w3.org/2000/svg" xmlns:vectornator="http://vectornator.io" xmlns:xlink="http://www.w3.org/1999/xlink">
<defs>
<clipPath id="TextBounds">
<rect height="20.1571" transform="matrix(1 0 0 1 -0.283562 -0.342917)" width="151.434" x="0" y="0"/>
</clipPath>
</defs>
<g id="Layer-1" vectornator:layerName="Layer 1">
<g fill="#dddddd" opacity="1" stroke="none">
<path clip-path="url(#TextBounds)" d="M4.20144 13.0121C4.28144 13.0321 4.33644 13.0671 4.36644 13.1171C4.39644 13.1671 4.41144 13.2196 4.41144 13.2746C4.41144 13.3296 4.39644 13.3821 4.36644 13.4321C4.33644 13.4821 4.29644 13.5121 4.24644 13.5221C4.06644 13.5721 3.88144 13.6171 3.69144 13.6571C3.50144 13.6971 3.31394 13.7246 3.12894 13.7396C2.94394 13.7546 2.76394 13.7446 2.58894 13.7096C2.41394 13.6746 2.25644 13.6071 2.11644 13.5071C1.95644 13.3971 1.82894 13.1546 1.73394 12.7796C1.63894 12.4046 1.57144 11.9621 1.53144 11.4521C1.49144 10.9421 1.47144 10.3921 1.47144 9.80208C1.47144 9.21208 1.48394 8.64208 1.50894 8.09208C1.53394 7.54208 1.56894 7.04208 1.61394 6.59208C1.65894 6.14208 1.70144 5.80208 1.74144 5.57208C1.79144 5.33208 1.87644 5.13958 1.99644 4.99458C2.11644 4.84958 2.24144 4.77208 2.37144 4.76208C2.50144 4.75208 2.62144 4.81208 2.73144 4.94208C2.84144 5.07208 2.91144 5.29208 2.94144 5.60208C2.97144 5.93208 2.98644 6.31458 2.98644 6.74958C2.98644 7.18458 2.97894 7.64208 2.96394 8.12208C2.94894 8.60208 2.92894 9.09208 2.90394 9.59208C2.87894 10.0921 2.86394 10.5646 2.85894 11.0096C2.85394 11.4546 2.85894 11.8546 2.87394 12.2096C2.88894 12.5646 2.92644 12.8471 2.98644 13.0571C3.06644 13.0671 3.16644 13.0671 3.28644 13.0571C3.40644 13.0471 3.52644 13.0396 3.64644 13.0346C3.76644 13.0296 3.87894 13.0221 3.98394 13.0121C4.08894 13.0021 4.16144 13.0021 4.20144 13.0121Z"/>
<path clip-path="url(#TextBounds)" d="M10.9514 12.4871C10.9514 12.4871 10.9564 12.4821 10.9664 12.4721C11.0064 12.3921 11.0764 12.2671 11.1764 12.0971C11.2764 11.9071 11.3864 11.7321 11.5064 11.5721C11.6064 11.4321 11.7014 11.2971 11.7914 11.1671C11.8714 11.0471 11.9564 10.9171 12.0464 10.7771C12.1364 10.6271 12.2364 10.4821 12.3464 10.3421C12.4464 10.2021 12.5464 10.0621 12.6464 9.92208C12.7364 9.79208 12.8014 9.70208 12.8414 9.65208C12.8814 9.59208 12.9364 9.50708 13.0064 9.39708C13.0864 9.26708 13.1714 9.12208 13.2614 8.96208C13.3514 8.82208 13.4214 8.69208 13.4714 8.57208C13.5214 8.46208 13.5564 8.34708 13.5764 8.22708C13.6064 8.11708 13.6264 8.00708 13.6364 7.89708C13.6364 7.77708 13.6364 7.65208 13.6364 7.52208C13.6264 7.40208 13.6114 7.30708 13.5914 7.23708C13.5814 7.17708 13.5614 7.11958 13.5314 7.06458C13.5014 7.00958 13.4714 6.96708 13.4414 6.93708C13.4314 6.91708 13.4214 6.90208 13.4114 6.89208C13.3914 6.88208 13.3614 6.87208 13.3214 6.86208C13.2714 6.85208 13.2214 6.84208 13.1714 6.83208C13.1014 6.83208 13.0164 6.83208 12.9164 6.83208C12.8064 6.83208 12.7114 6.83708 12.6314 6.84708C12.5714 6.85708 12.4914 6.87208 12.3914 6.89208C12.2914 6.91208 12.1914 6.93708 12.0914 6.96708C12.0014 7.00708 11.9114 7.05458 11.8214 7.10958C11.7314 7.16458 11.6614 7.21708 11.6114 7.26708C11.5314 7.34708 11.4614 7.42208 11.4014 7.49208C11.3514 7.54208 11.3089 7.59958 11.2739 7.66458C11.2389 7.72958 11.2114 7.79708 11.1914 7.86708C11.1514 7.95708 11.1214 8.05208 11.1014 8.15208C11.0614 8.27208 11.0214 8.39708 10.9814 8.52708C10.9414 8.64708 10.9064 8.76208 10.8764 8.87208C10.8664 8.89208 10.8514 8.91458 10.8314 8.93958C10.8114 8.96458 10.7739 9.00708 10.7189 9.06708C10.6639 9.12708 10.6064 9.18208 10.5464 9.23208C10.4864 9.28208 10.4164 9.32708 10.3364 9.36708C10.2564 9.40708 10.1814 9.42708 10.1114 9.42708C10.0414 9.42708 9.96894 9.39958 9.89394 9.34458C9.81894 9.28958 9.74644 9.20208 9.67644 9.08208C9.64644 9.01208 9.61144 8.93208 9.57144 8.84208C9.53144 8.77208 9.48144 8.68208 9.42144 8.57208C9.36144 8.45208 9.30144 8.32708 9.24144 8.19708C9.18144 8.07708 9.11144 7.94208 9.03144 7.79208C8.97144 7.68208 8.88394 7.55458 8.76894 7.40958C8.65394 7.26458 8.56144 7.16708 8.49144 7.11708C8.42144 7.05708 8.35144 7.00708 8.28144 6.96708C8.22144 6.92708 8.14144 6.89208 8.04144 6.86208C7.94144 6.83208 7.83394 6.80958 7.71894 6.79458C7.60394 6.77958 7.48644 6.77458 7.36644 6.77958C7.24644 6.78458 7.13144 6.80208 7.02144 6.83208C6.94144 6.84208 6.87144 6.86708 6.81144 6.90708C6.74144 6.93708 6.69144 6.97208 6.66144 7.01208C6.64144 7.03208 6.62644 7.05208 6.61644 7.07208C6.59644 7.11208 6.58144 7.18708 6.57144 7.29708C6.56144 7.40708 6.56644 7.49208 6.58644 7.55208C6.60644 7.65208 6.65144 7.79708 6.72144 7.98708C6.78144 8.15708 6.86144 8.32208 6.96144 8.48208C7.07144 8.67208 7.18144 8.84208 7.29144 8.99208C7.41144 9.16208 7.52644 9.32708 7.63644 9.48708C7.74644 9.62708 7.85144 9.75708 7.95144 9.87708C8.07144 10.0071 8.19144 10.1421 8.31144 10.2821C8.42144 10.4121 8.54144 10.5371 8.67144 10.6571C8.79144 10.7771 8.88144 10.8621 8.94144 10.9121C9.02144 10.9821 9.13644 11.0821 9.28644 11.2121C9.42644 11.3321 9.56144 11.4446 9.69144 11.5496C9.82144 11.6546 9.96644 11.7671 10.1264 11.8871C10.2664 11.9971 10.4064 12.1021 10.5464 12.2021C10.6764 12.3021 10.8114 12.3971 10.9514 12.4871ZM11.8064 13.3871C11.8064 13.5171 11.7714 13.6371 11.7014 13.7471C11.6114 13.8771 11.4839 13.9546 11.3189 13.9796C11.1539 14.0046 11.0064 13.9721 10.8764 13.8821L10.7114 13.7621C10.6014 13.6821 10.4664 13.5921 10.3064 13.4921C10.1464 13.3821 9.99144 13.2671 9.84144 13.1471C9.69144 13.0371 9.54394 12.9271 9.39894 12.8171C9.25394 12.7071 9.10644 12.5971 8.95644 12.4871C8.80644 12.3671 8.65644 12.2371 8.50644 12.0971C8.36644 11.9771 8.26144 11.8871 8.19144 11.8271C8.10144 11.7471 7.98144 11.6371 7.83144 11.4971C7.69144 11.3571 7.55644 11.2171 7.42644 11.0771C7.30644 10.9371 7.18644 10.7971 7.06644 10.6571C6.93644 10.5171 6.81144 10.3571 6.69144 10.1771C6.57144 10.0171 6.45144 9.85208 6.33144 9.68208C6.19144 9.50208 6.06144 9.30708 5.94144 9.09708C5.80144 8.86708 5.69144 8.63208 5.61144 8.39208C5.52144 8.16208 5.46144 7.97708 5.43144 7.83708C5.39144 7.64708 5.38144 7.43208 5.40144 7.19208C5.42144 6.94208 5.46644 6.73708 5.53644 6.57708C5.60644 6.42708 5.70144 6.29208 5.82144 6.17208C5.93144 6.06208 6.06644 5.96208 6.22644 5.87208C6.38644 5.78208 6.56644 5.71708 6.76644 5.67708C6.93644 5.63708 7.11894 5.61208 7.31394 5.60208C7.50894 5.59208 7.69644 5.59958 7.87644 5.62458C8.05644 5.64958 8.23144 5.68708 8.40144 5.73708C8.58144 5.79708 8.73644 5.86208 8.86644 5.93208C8.99644 6.00208 9.12144 6.09208 9.24144 6.20208C9.37144 6.30208 9.52144 6.45458 9.69144 6.65958C9.86144 6.86458 9.99144 7.06208 10.0814 7.25208L10.1264 7.32708C10.1664 7.22708 10.2114 7.14208 10.2614 7.07208C10.3314 6.95208 10.4114 6.83708 10.5014 6.72708C10.5814 6.62708 10.6714 6.52708 10.7714 6.42708C10.8914 6.30708 11.0314 6.20208 11.1914 6.11208C11.3414 6.01208 11.5014 5.92708 11.6714 5.85708C11.8314 5.79708 11.9914 5.75208 12.1514 5.72208C12.3014 5.69208 12.4264 5.67208 12.5264 5.66208C12.6164 5.65208 12.7314 5.64708 12.8714 5.64708C13.0214 5.63708 13.1564 5.64208 13.2764 5.66208C13.4064 5.67208 13.5314 5.69208 13.6514 5.72208C13.7814 5.76208 13.9014 5.81208 14.0114 5.87208C14.1314 5.94208 14.2414 6.03708 14.3414 6.15708C14.4214 6.25708 14.4989 6.37458 14.5739 6.50958C14.6489 6.64458 14.7064 6.79208 14.7464 6.95208C14.7864 7.09208 14.8114 7.25708 14.8214 7.44708C14.8314 7.62708 14.8314 7.79708 14.8214 7.95708C14.8014 8.13708 14.7714 8.31708 14.7314 8.49708C14.6914 8.67708 14.6314 8.85708 14.5514 9.03708C14.4814 9.20708 14.3914 9.38208 14.2814 9.56208C14.1814 9.73208 14.0914 9.88208 14.0114 10.0121C13.9314 10.1421 13.8664 10.2421 13.8164 10.3121C13.7764 10.3821 13.7014 10.4871 13.5914 10.6271C13.5114 10.7471 13.4164 10.8821 13.3064 11.0321C13.2064 11.1621 13.1214 11.2871 13.0514 11.4071C12.9614 11.5571 12.8689 11.7021 12.7739 11.8421C12.6789 11.9821 12.5764 12.1221 12.4664 12.2621C12.3764 12.3921 12.2914 12.5321 12.2114 12.6821C12.1114 12.8521 12.0364 12.9821 11.9864 13.0721C11.9364 13.1521 11.8964 13.2221 11.8664 13.2821C11.8464 13.3121 11.8264 13.3471 11.8064 13.3871Z"/>
<path clip-path="url(#TextBounds)" d="M17.3264 12.5171C17.0864 12.2871 16.8689 11.9446 16.6739 11.4896C16.4789 11.0346 16.3139 10.5321 16.1789 9.98208C16.0439 9.43208 15.9414 8.86208 15.8714 8.27208C15.8014 7.68208 15.7714 7.13458 15.7814 6.62958C15.7914 6.12458 15.8389 5.69458 15.9239 5.33958C16.0089 4.98458 16.1464 4.76208 16.3364 4.67208C16.3564 4.66208 16.4064 4.64958 16.4864 4.63458C16.5664 4.61958 16.6564 4.61208 16.7564 4.61208C16.8564 4.61208 16.9489 4.62958 17.0339 4.66458C17.1189 4.69958 17.1714 4.76708 17.1914 4.86708C17.2114 4.97708 17.2089 5.20208 17.1839 5.54208C17.1589 5.88208 17.1464 6.31458 17.1464 6.83958C17.1464 7.36458 17.1789 7.97708 17.2439 8.67708C17.3089 9.37708 17.4464 10.1421 17.6564 10.9721C17.7164 11.2321 17.7664 11.4396 17.8064 11.5946C17.8464 11.7496 17.8864 11.8371 17.9264 11.8571C17.9664 11.8771 18.0114 11.8221 18.0614 11.6921C18.1114 11.5621 18.1764 11.3421 18.2564 11.0321C18.3564 10.6521 18.4339 10.2471 18.4889 9.81708C18.5439 9.38708 18.5889 8.95958 18.6239 8.53458C18.6589 8.10958 18.6839 7.69708 18.6989 7.29708C18.7139 6.89708 18.7314 6.54208 18.7514 6.23208C18.7514 6.14208 18.7814 6.05708 18.8414 5.97708C18.9014 5.89708 18.9664 5.84458 19.0364 5.81958C19.1064 5.79458 19.1739 5.80458 19.2389 5.84958C19.3039 5.89458 19.3464 5.99208 19.3664 6.14208C19.4064 6.42208 19.4189 6.79958 19.4039 7.27458C19.3889 7.74958 19.3539 8.25458 19.2989 8.78958C19.2439 9.32458 19.1689 9.85458 19.0739 10.3796C18.9789 10.9046 18.8714 11.3571 18.7514 11.7371C18.6814 11.9571 18.5939 12.1471 18.4889 12.3071C18.3839 12.4671 18.2714 12.5871 18.1514 12.6671C18.0314 12.7471 17.9014 12.7771 17.7614 12.7571C17.6214 12.7371 17.4764 12.6571 17.3264 12.5171Z"/>
<path clip-path="url(#TextBounds)" d="M21.4214 8.13708C21.5414 8.09708 21.7164 8.00708 21.9464 7.86708C22.1764 7.72708 22.3914 7.55958 22.5914 7.36458C22.7914 7.16958 22.9364 6.95708 23.0264 6.72708C23.1164 6.49708 23.0814 6.27208 22.9214 6.05208C22.7914 6.05208 22.6464 6.11708 22.4864 6.24708C22.3264 6.37708 22.1764 6.54708 22.0364 6.75708C21.8964 6.96708 21.7689 7.19458 21.6539 7.43958C21.5389 7.68458 21.4614 7.91708 21.4214 8.13708ZM22.3964 11.4971C22.4064 11.4471 22.4364 11.3996 22.4864 11.3546C22.5364 11.3096 22.5914 11.2796 22.6514 11.2646C22.7114 11.2496 22.7689 11.2521 22.8239 11.2721C22.8789 11.2921 22.9114 11.3471 22.9214 11.4371C22.9314 11.5471 22.9339 11.6646 22.9289 11.7896C22.9239 11.9146 22.9014 12.0471 22.8614 12.1871C22.7414 12.5671 22.5764 12.8546 22.3664 13.0496C22.1564 13.2446 21.9314 13.3321 21.6914 13.3121C21.3214 13.2821 20.9964 13.0921 20.7164 12.7421C20.4364 12.3921 20.2239 11.9596 20.0789 11.4446C19.9339 10.9296 19.8614 10.3696 19.8614 9.76458C19.8614 9.15958 19.9514 8.57708 20.1314 8.01708C20.3114 7.45708 20.5864 6.95958 20.9564 6.52458C21.3264 6.08958 21.8114 5.79208 22.4114 5.63208C22.6914 5.55208 22.9464 5.54958 23.1764 5.62458C23.4064 5.69958 23.5689 5.83208 23.6639 6.02208C23.7589 6.21208 23.7664 6.44958 23.6864 6.73458C23.6064 7.01958 23.3964 7.33208 23.0564 7.67208C22.9964 7.73208 22.8989 7.81458 22.7639 7.91958C22.6289 8.02458 22.4789 8.12458 22.3139 8.21958C22.1489 8.31458 21.9789 8.40208 21.8039 8.48208C21.6289 8.56208 21.4664 8.61208 21.3164 8.63208C21.2664 9.02208 21.2464 9.36708 21.2564 9.66708C21.2664 9.96708 21.2764 10.3071 21.2864 10.6871C21.2864 10.7971 21.2989 10.9521 21.3239 11.1521C21.3489 11.3521 21.3864 11.5496 21.4364 11.7446C21.4864 11.9396 21.5464 12.1096 21.6164 12.2546C21.6864 12.3996 21.7664 12.4621 21.8564 12.4421C21.9964 12.4221 22.1114 12.3171 22.2014 12.1271C22.2914 11.9371 22.3564 11.7271 22.3964 11.4971Z"/>
<path clip-path="url(#TextBounds)" d="M29.1614 13.4621C29.1314 13.8021 29.0289 13.9671 28.8539 13.9571C28.6789 13.9471 28.5114 13.7971 28.3514 13.5071C28.2114 13.2571 28.1114 12.9271 28.0514 12.5171C27.9914 12.1071 27.9539 11.6521 27.9389 11.1521C27.9239 10.6521 27.9289 10.1321 27.9539 9.59208C27.9789 9.05208 28.0139 8.52458 28.0589 8.00958C28.1039 7.49458 28.1514 7.01458 28.2014 6.56958C28.2514 6.12458 28.2964 5.75208 28.3364 5.45208C28.1764 5.44208 28.0064 5.43958 27.8264 5.44458C27.6464 5.44958 27.5114 5.44708 27.4214 5.43708C27.3114 5.42708 27.2339 5.40208 27.1889 5.36208C27.1439 5.32208 27.1264 5.27708 27.1364 5.22708C27.1464 5.17708 27.1789 5.12958 27.2339 5.08458C27.2889 5.03958 27.3614 5.00708 27.4514 4.98708C27.5414 4.96708 27.6889 4.94958 27.8939 4.93458C28.0989 4.91958 28.3364 4.91208 28.6064 4.91208C28.8764 4.91208 29.1614 4.91708 29.4614 4.92708C29.7614 4.93708 30.0514 4.94958 30.3314 4.96458C30.6114 4.97958 30.8664 4.99708 31.0964 5.01708C31.3264 5.03708 31.5064 5.05708 31.6364 5.07708C31.6964 5.08708 31.7464 5.11708 31.7864 5.16708C31.8264 5.21708 31.8464 5.26958 31.8464 5.32458C31.8464 5.37958 31.8264 5.42958 31.7864 5.47458C31.7464 5.51958 31.6814 5.54208 31.5914 5.54208C31.2114 5.55208 30.8564 5.54708 30.5264 5.52708C30.1964 5.50708 29.8714 5.50208 29.5514 5.51208C29.4614 5.84208 29.3914 6.23208 29.3414 6.68208C29.2914 7.13208 29.2564 7.61208 29.2364 8.12208C29.2164 8.63208 29.2039 9.15458 29.1989 9.68958C29.1939 10.2246 29.1914 10.7321 29.1914 11.2121C29.1914 11.6921 29.1914 12.1296 29.1914 12.5246C29.1914 12.9196 29.1814 13.2321 29.1614 13.4621Z"/>
<path clip-path="url(#TextBounds)" d="M32.9414 12.5621C32.9114 12.6921 32.8489 12.7946 32.7539 12.8696C32.6589 12.9446 32.5539 12.9871 32.4389 12.9971C32.3239 13.0071 32.2089 12.9746 32.0939 12.8996C31.9789 12.8246 31.8814 12.7021 31.8014 12.5321C31.5714 12.0321 31.3914 11.4296 31.2614 10.7246C31.1314 10.0196 31.0564 9.29458 31.0364 8.54958C31.0164 7.80458 31.0539 7.08458 31.1489 6.38958C31.2439 5.69458 31.4114 5.10208 31.6514 4.61208C31.6914 4.52208 31.7664 4.45208 31.8764 4.40208C31.9864 4.35208 32.0989 4.32708 32.2139 4.32708C32.3289 4.32708 32.4239 4.35708 32.4989 4.41708C32.5739 4.47708 32.6064 4.58208 32.5964 4.73208C32.5764 4.92208 32.5489 5.17208 32.5139 5.48208C32.4789 5.79208 32.4439 6.13458 32.4089 6.50958C32.3739 6.88458 32.3439 7.26958 32.3189 7.66458C32.2939 8.05958 32.2764 8.44458 32.2664 8.81958C32.2564 9.19458 32.2614 9.53708 32.2814 9.84708C32.3014 10.1571 32.3364 10.4071 32.3864 10.5971C32.4364 10.4571 32.4889 10.2421 32.5439 9.95208C32.5989 9.66208 32.6664 9.37208 32.7464 9.08208C32.8964 8.49208 33.0989 8.02958 33.3539 7.69458C33.6089 7.35958 33.8639 7.17958 34.1189 7.15458C34.3739 7.12958 34.6064 7.27958 34.8164 7.60458C35.0264 7.92958 35.1614 8.45708 35.2214 9.18708C35.2414 9.44708 35.2589 9.72208 35.2739 10.0121C35.2889 10.3021 35.2989 10.5821 35.3039 10.8521C35.3089 11.1221 35.3114 11.3671 35.3114 11.5871C35.3114 11.8071 35.3014 11.9721 35.2814 12.0821C35.2614 12.2121 35.2139 12.3046 35.1389 12.3596C35.0639 12.4146 34.9814 12.4446 34.8914 12.4496C34.8014 12.4546 34.7164 12.4371 34.6364 12.3971C34.5564 12.3571 34.5114 12.3021 34.5014 12.2321C34.4614 12.0521 34.4289 11.8296 34.4039 11.5646C34.3789 11.2996 34.3539 11.0271 34.3289 10.7471C34.3039 10.4671 34.2864 10.1921 34.2764 9.92208C34.2664 9.65208 34.2564 9.41708 34.2464 9.21708C34.2364 8.81708 34.2014 8.53208 34.1414 8.36208C34.0814 8.19208 34.0114 8.11958 33.9314 8.14458C33.8514 8.16958 33.7639 8.28208 33.6689 8.48208C33.5739 8.68208 33.4914 8.94708 33.4214 9.27708C33.3614 9.53708 33.3139 9.81208 33.2789 10.1021C33.2439 10.3921 33.2089 10.6846 33.1739 10.9796C33.1389 11.2746 33.1039 11.5596 33.0689 11.8346C33.0339 12.1096 32.9914 12.3521 32.9414 12.5621Z"/>
<path clip-path="url(#TextBounds)" d="M37.0364 8.84208C37.1064 9.26208 37.2489 9.47958 37.4639 9.49458C37.6789 9.50958 37.8864 9.32708 38.0864 8.94708C38.2064 8.72708 38.3239 8.48208 38.4389 8.21208C38.5539 7.94208 38.6639 7.68458 38.7689 7.43958C38.8739 7.19458 38.9689 6.97208 39.0539 6.77208C39.1389 6.57208 39.2114 6.43208 39.2714 6.35208C39.3114 6.29208 39.3789 6.24958 39.4739 6.22458C39.5689 6.19958 39.6664 6.18958 39.7664 6.19458C39.8664 6.19958 39.9564 6.22458 40.0364 6.26958C40.1164 6.31458 40.1614 6.37208 40.1714 6.44208C40.1914 6.64208 40.2164 6.94208 40.2464 7.34208C40.2764 7.74208 40.2964 8.18708 40.3064 8.67708C40.3164 9.16708 40.3089 9.67208 40.2839 10.1921C40.2589 10.7121 40.2014 11.1896 40.1114 11.6246C40.0214 12.0596 39.8889 12.4271 39.7139 12.7271C39.5389 13.0271 39.3114 13.1971 39.0314 13.2371C38.9014 13.2571 38.7739 13.2446 38.6489 13.1996C38.5239 13.1546 38.4139 13.0846 38.3189 12.9896C38.2239 12.8946 38.1539 12.7746 38.1089 12.6296C38.0639 12.4846 38.0564 12.3221 38.0864 12.1421C38.1064 12.0321 38.1739 11.9696 38.2889 11.9546C38.4039 11.9396 38.4714 11.9821 38.4914 12.0821C38.5414 12.4921 38.6264 12.7046 38.7464 12.7196C38.8664 12.7346 38.9664 12.5571 39.0464 12.1871C39.1064 11.9471 39.1489 11.6571 39.1739 11.3171C39.1989 10.9771 39.2139 10.6271 39.2189 10.2671C39.2239 9.90708 39.2189 9.55458 39.2039 9.20958C39.1889 8.86458 39.1714 8.57208 39.1514 8.33208C39.1514 8.41208 39.0989 8.54958 38.9939 8.74458C38.8889 8.93958 38.7714 9.13708 38.6414 9.33708C38.4414 9.65708 38.2064 9.88708 37.9364 10.0271C37.6664 10.1671 37.4014 10.2221 37.1414 10.1921C36.8814 10.1621 36.6464 10.0521 36.4364 9.86208C36.2264 9.67208 36.0814 9.40208 36.0014 9.05208C35.9514 8.84208 35.9139 8.60958 35.8889 8.35458C35.8639 8.09958 35.8564 7.84458 35.8664 7.58958C35.8764 7.33458 35.9039 7.09458 35.9489 6.86958C35.9939 6.64458 36.0664 6.44708 36.1664 6.27708C36.1964 6.21708 36.2739 6.15458 36.3989 6.08958C36.5239 6.02458 36.6514 5.98458 36.7814 5.96958C36.9114 5.95458 37.0239 5.97208 37.1189 6.02208C37.2139 6.07208 37.2514 6.17208 37.2314 6.32208C37.1514 6.81208 37.0839 7.25208 37.0289 7.64208C36.9739 8.03208 36.9764 8.43208 37.0364 8.84208Z"/>
<path clip-path="url(#TextBounds)" d="M45.4814 13.3871C45.5814 13.5971 45.6664 13.7221 45.7364 13.7621C45.8064 13.8021 45.8589 13.7921 45.8939 13.7321C45.9289 13.6721 45.9464 13.5771 45.9464 13.4471C45.9464 13.3171 45.9314 13.1821 45.9014 13.0421C45.8514 12.8221 45.7839 12.5996 45.6989 12.3746C45.6139 12.1496 45.5564 11.9871 45.5264 11.8871C45.4664 11.7071 45.4064 11.5446 45.3464 11.3996C45.2864 11.2546 45.2264 11.1196 45.1664 10.9946C45.1064 10.8696 45.0414 10.7421 44.9714 10.6121C44.9014 10.4821 44.8264 10.3421 44.7464 10.1921C44.5864 9.90208 44.4389 9.60958 44.3039 9.31458C44.1689 9.01958 44.0589 8.71458 43.9739 8.39958C43.8889 8.08458 43.8414 7.75958 43.8314 7.42458C43.8214 7.08958 43.8614 6.73208 43.9514 6.35208C44.0714 5.88208 44.3014 5.48958 44.6414 5.17458C44.9814 4.85958 45.3464 4.65958 45.7364 4.57458C46.1264 4.48958 46.4964 4.53708 46.8464 4.71708C47.1964 4.89708 47.4464 5.24708 47.5964 5.76708C47.6764 6.08708 47.7214 6.42708 47.7314 6.78708C47.7414 7.14708 47.7014 7.46708 47.6114 7.74708C47.5614 7.92708 47.4939 8.05708 47.4089 8.13708C47.3239 8.21708 47.2389 8.25208 47.1539 8.24208C47.0689 8.23208 46.9914 8.18208 46.9214 8.09208C46.8514 8.00208 46.8014 7.87708 46.7714 7.71708L46.7264 7.34208C46.7064 7.09208 46.6839 6.84458 46.6589 6.59958C46.6339 6.35458 46.5914 6.12208 46.5314 5.90208C46.4414 5.60208 46.3214 5.42958 46.1714 5.38458C46.0214 5.33958 45.8714 5.36458 45.7214 5.45958C45.5714 5.55458 45.4314 5.68958 45.3014 5.86458C45.1714 6.03958 45.0764 6.20208 45.0164 6.35208C44.8664 6.73208 44.8314 7.13458 44.9114 7.55958C44.9914 7.98458 45.1189 8.40708 45.2939 8.82708C45.4689 9.24708 45.6639 9.65458 45.8789 10.0496C46.0939 10.4446 46.2664 10.8071 46.3964 11.1371C46.4664 11.2971 46.5439 11.4821 46.6289 11.6921C46.7139 11.9021 46.7889 12.1221 46.8539 12.3521C46.9189 12.5821 46.9689 12.8121 47.0039 13.0421C47.0389 13.2721 47.0364 13.4921 46.9964 13.7021C46.9364 14.0521 46.7839 14.2846 46.5389 14.3996C46.2939 14.5146 46.0289 14.5371 45.7439 14.4671C45.4589 14.3971 45.1914 14.2446 44.9414 14.0096C44.6914 13.7746 44.5214 13.4821 44.4314 13.1321C44.4014 13.0221 44.3839 12.8996 44.3789 12.7646C44.3739 12.6296 44.3789 12.5021 44.3939 12.3821C44.4089 12.2621 44.4439 12.1571 44.4989 12.0671C44.5539 11.9771 44.6264 11.9171 44.7164 11.8871C44.8564 11.8471 44.9489 11.8496 44.9939 11.8946C45.0389 11.9396 45.0864 12.0471 45.1364 12.2171C45.1864 12.3871 45.2364 12.5871 45.2864 12.8171C45.3364 13.0471 45.4014 13.2371 45.4814 13.3871Z"/>
<path clip-path="url(#TextBounds)" d="M49.7564 8.13708C49.8764 8.09708 50.0514 8.00708 50.2814 7.86708C50.5114 7.72708 50.7264 7.55958 50.9264 7.36458C51.1264 7.16958 51.2714 6.95708 51.3614 6.72708C51.4514 6.49708 51.4164 6.27208 51.2564 6.05208C51.1264 6.05208 50.9814 6.11708 50.8214 6.24708C50.6614 6.37708 50.5114 6.54708 50.3714 6.75708C50.2314 6.96708 50.1039 7.19458 49.9889 7.43958C49.8739 7.68458 49.7964 7.91708 49.7564 8.13708ZM50.7314 11.4971C50.7414 11.4471 50.7714 11.3996 50.8214 11.3546C50.8714 11.3096 50.9264 11.2796 50.9864 11.2646C51.0464 11.2496 51.1039 11.2521 51.1589 11.2721C51.2139 11.2921 51.2464 11.3471 51.2564 11.4371C51.2664 11.5471 51.2689 11.6646 51.2639 11.7896C51.2589 11.9146 51.2364 12.0471 51.1964 12.1871C51.0764 12.5671 50.9114 12.8546 50.7014 13.0496C50.4914 13.2446 50.2664 13.3321 50.0264 13.3121C49.6564 13.2821 49.3314 13.0921 49.0514 12.7421C48.7714 12.3921 48.5589 11.9596 48.4139 11.4446C48.2689 10.9296 48.1964 10.3696 48.1964 9.76458C48.1964 9.15958 48.2864 8.57708 48.4664 8.01708C48.6464 7.45708 48.9214 6.95958 49.2914 6.52458C49.6614 6.08958 50.1464 5.79208 50.7464 5.63208C51.0264 5.55208 51.2814 5.54958 51.5114 5.62458C51.7414 5.69958 51.9039 5.83208 51.9989 6.02208C52.0939 6.21208 52.1014 6.44958 52.0214 6.73458C51.9414 7.01958 51.7314 7.33208 51.3914 7.67208C51.3314 7.73208 51.2339 7.81458 51.0989 7.91958C50.9639 8.02458 50.8139 8.12458 50.6489 8.21958C50.4839 8.31458 50.3139 8.40208 50.1389 8.48208C49.9639 8.56208 49.8014 8.61208 49.6514 8.63208C49.6014 9.02208 49.5814 9.36708 49.5914 9.66708C49.6014 9.96708 49.6114 10.3071 49.6214 10.6871C49.6214 10.7971 49.6339 10.9521 49.6589 11.1521C49.6839 11.3521 49.7214 11.5496 49.7714 11.7446C49.8214 11.9396 49.8814 12.1096 49.9514 12.2546C50.0214 12.3996 50.1014 12.4621 50.1914 12.4421C50.3314 12.4221 50.4464 12.3171 50.5364 12.1271C50.6264 11.9371 50.6914 11.7271 50.7314 11.4971Z"/>
<path clip-path="url(#TextBounds)" d="M52.8614 4.77708C52.9014 4.66708 52.9764 4.58458 53.0864 4.52958C53.1964 4.47458 53.3114 4.44958 53.4314 4.45458C53.5514 4.45958 53.6564 4.49458 53.7464 4.55958C53.8364 4.62458 53.8814 4.71708 53.8814 4.83708C53.8714 5.52708 53.8489 6.20208 53.8139 6.86208C53.7789 7.52208 53.7489 8.17958 53.7239 8.83458C53.6989 9.48958 53.6839 10.1446 53.6789 10.7996C53.6739 11.4546 53.6914 12.1221 53.7314 12.8021C53.7414 12.9421 53.7089 13.0496 53.6339 13.1246C53.5589 13.1996 53.4714 13.2371 53.3714 13.2371C53.2714 13.2371 53.1714 13.2021 53.0714 13.1321C52.9714 13.0621 52.9064 12.9571 52.8764 12.8171C52.8164 12.5471 52.7639 12.1846 52.7189 11.7296C52.6739 11.2746 52.6414 10.7796 52.6214 10.2446C52.6014 9.70958 52.5939 9.15708 52.5989 8.58708C52.6039 8.01708 52.6164 7.47958 52.6364 6.97458C52.6564 6.46958 52.6839 6.02208 52.7189 5.63208C52.7539 5.24208 52.8014 4.95708 52.8614 4.77708Z"/>
<path clip-path="url(#TextBounds)" d="M54.9014 8.96208C54.9014 8.69208 54.9014 8.39708 54.9014 8.07708C54.9014 7.75708 54.9139 7.43208 54.9389 7.10208C54.9639 6.77208 55.0039 6.44958 55.0589 6.13458C55.1139 5.81958 55.1964 5.53208 55.3064 5.27208C55.4364 4.94208 55.6364 4.69208 55.9064 4.52208C56.1764 4.35208 56.4589 4.25958 56.7539 4.24458C57.0489 4.22958 57.3289 4.28958 57.5939 4.42458C57.8589 4.55958 58.0514 4.76708 58.1714 5.04708C58.2714 5.27708 58.3589 5.53958 58.4339 5.83458C58.5089 6.12958 58.5314 6.39208 58.5014 6.62208C58.4814 6.85208 58.4139 6.96458 58.2989 6.95958C58.1839 6.95458 58.0864 6.85708 58.0064 6.66708C57.9464 6.54708 57.8939 6.37958 57.8489 6.16458C57.8039 5.94958 57.7464 5.73708 57.6764 5.52708C57.6064 5.31708 57.5189 5.13458 57.4139 4.97958C57.3089 4.82458 57.1714 4.75208 57.0014 4.76208C56.7714 4.85208 56.5964 5.07208 56.4764 5.42208C56.3564 5.77208 56.2714 6.16458 56.2214 6.59958C56.1714 7.03458 56.1439 7.46208 56.1389 7.88208C56.1339 8.30208 56.1314 8.62708 56.1314 8.85708C56.2314 8.84708 56.3489 8.83458 56.4839 8.81958C56.6189 8.80458 56.7589 8.79458 56.9039 8.78958C57.0489 8.78458 57.1889 8.78208 57.3239 8.78208C57.4589 8.78208 57.5814 8.79208 57.6914 8.81208C57.8514 8.85208 57.9214 8.92958 57.9014 9.04458C57.8814 9.15958 57.8264 9.22708 57.7364 9.24708C57.4864 9.29708 57.2439 9.32458 57.0089 9.32958C56.7739 9.33458 56.4964 9.36208 56.1764 9.41208C56.1764 9.59208 56.1939 9.83208 56.2289 10.1321C56.2639 10.4321 56.3039 10.7521 56.3489 11.0921C56.3939 11.4321 56.4339 11.7696 56.4689 12.1046C56.5039 12.4396 56.5214 12.7321 56.5214 12.9821C56.5214 13.1021 56.4864 13.1996 56.4164 13.2746C56.3464 13.3496 56.2614 13.3971 56.1614 13.4171C56.0614 13.4371 55.9614 13.4196 55.8614 13.3646C55.7614 13.3096 55.6764 13.2071 55.6064 13.0571C55.5264 12.8771 55.4489 12.6296 55.3739 12.3146C55.2989 11.9996 55.2314 11.6696 55.1714 11.3246C55.1114 10.9796 55.0614 10.6496 55.0214 10.3346C54.9814 10.0196 54.9614 9.77208 54.9614 9.59208C54.8914 9.59208 54.8289 9.59958 54.7739 9.61458C54.7189 9.62958 54.6614 9.62708 54.6014 9.60708C54.5114 9.58708 54.4489 9.54958 54.4139 9.49458C54.3789 9.43958 54.3614 9.37958 54.3614 9.31458C54.3614 9.24958 54.3789 9.18708 54.4139 9.12708C54.4489 9.06708 54.4964 9.02708 54.5564 9.00708C54.6064 8.98708 54.6564 8.97708 54.7064 8.97708C54.7564 8.97708 54.8214 8.97208 54.9014 8.96208Z"/>
<path clip-path="url(#TextBounds)" d="M60.2114 7.07208C60.2114 7.41208 60.2214 7.83958 60.2414 8.35458C60.2614 8.86958 60.2789 9.39708 60.2939 9.93708C60.3089 10.4771 60.3139 10.9846 60.3089 11.4596C60.3039 11.9346 60.2714 12.3021 60.2114 12.5621C60.2014 12.6121 60.1714 12.6496 60.1214 12.6746C60.0714 12.6996 60.0164 12.7096 59.9564 12.7046C59.8964 12.6996 59.8389 12.6846 59.7839 12.6596C59.7289 12.6346 59.6864 12.6021 59.6564 12.5621C59.5564 12.3921 59.4614 12.1446 59.3714 11.8196C59.2814 11.4946 59.2064 11.1371 59.1464 10.7471C59.0864 10.3571 59.0414 9.95708 59.0114 9.54708C58.9814 9.13708 58.9739 8.75458 58.9889 8.39958C59.0039 8.04458 59.0489 7.73958 59.1239 7.48458C59.1989 7.22958 59.3064 7.06708 59.4464 6.99708C59.4964 6.97708 59.5589 6.95708 59.6339 6.93708C59.7089 6.91708 59.7864 6.90708 59.8664 6.90708C59.9464 6.90708 60.0189 6.91958 60.0839 6.94458C60.1489 6.96958 60.1914 7.01208 60.2114 7.07208ZM59.7764 6.44208C59.6764 6.44208 59.5964 6.40958 59.5364 6.34458C59.4764 6.27958 59.4339 6.19708 59.4089 6.09708C59.3839 5.99708 59.3714 5.89208 59.3714 5.78208C59.3714 5.67208 59.3814 5.56708 59.4014 5.46708C59.4214 5.36708 59.4764 5.29708 59.5664 5.25708C59.6564 5.21708 59.7489 5.19958 59.8439 5.20458C59.9389 5.20958 60.0264 5.23958 60.1064 5.29458C60.1864 5.34958 60.2264 5.42208 60.2264 5.51208C60.2164 5.59208 60.2064 5.67208 60.1964 5.75208C60.1864 5.83208 60.1714 5.91208 60.1514 5.99208C60.1314 6.15208 60.1089 6.27208 60.0839 6.35208C60.0589 6.43208 59.9564 6.46208 59.7764 6.44208Z"/>
<path clip-path="url(#TextBounds)" d="M62.3414 8.13708C62.4614 8.09708 62.6364 8.00708 62.8664 7.86708C63.0964 7.72708 63.3114 7.55958 63.5114 7.36458C63.7114 7.16958 63.8564 6.95708 63.9464 6.72708C64.0364 6.49708 64.0014 6.27208 63.8414 6.05208C63.7114 6.05208 63.5664 6.11708 63.4064 6.24708C63.2464 6.37708 63.0964 6.54708 62.9564 6.75708C62.8164 6.96708 62.6889 7.19458 62.5739 7.43958C62.4589 7.68458 62.3814 7.91708 62.3414 8.13708ZM63.3164 11.4971C63.3264 11.4471 63.3564 11.3996 63.4064 11.3546C63.4564 11.3096 63.5114 11.2796 63.5714 11.2646C63.6314 11.2496 63.6889 11.2521 63.7439 11.2721C63.7989 11.2921 63.8314 11.3471 63.8414 11.4371C63.8514 11.5471 63.8539 11.6646 63.8489 11.7896C63.8439 11.9146 63.8214 12.0471 63.7814 12.1871C63.6614 12.5671 63.4964 12.8546 63.2864 13.0496C63.0764 13.2446 62.8514 13.3321 62.6114 13.3121C62.2414 13.2821 61.9164 13.0921 61.6364 12.7421C61.3564 12.3921 61.1439 11.9596 60.9989 11.4446C60.8539 10.9296 60.7814 10.3696 60.7814 9.76458C60.7814 9.15958 60.8714 8.57708 61.0514 8.01708C61.2314 7.45708 61.5064 6.95958 61.8764 6.52458C62.2464 6.08958 62.7314 5.79208 63.3314 5.63208C63.6114 5.55208 63.8664 5.54958 64.0964 5.62458C64.3264 5.69958 64.4889 5.83208 64.5839 6.02208C64.6789 6.21208 64.6864 6.44958 64.6064 6.73458C64.5264 7.01958 64.3164 7.33208 63.9764 7.67208C63.9164 7.73208 63.8189 7.81458 63.6839 7.91958C63.5489 8.02458 63.3989 8.12458 63.2339 8.21958C63.0689 8.31458 62.8989 8.40208 62.7239 8.48208C62.5489 8.56208 62.3864 8.61208 62.2364 8.63208C62.1864 9.02208 62.1664 9.36708 62.1764 9.66708C62.1864 9.96708 62.1964 10.3071 62.2064 10.6871C62.2064 10.7971 62.2189 10.9521 62.2439 11.1521C62.2689 11.3521 62.3064 11.5496 62.3564 11.7446C62.4064 11.9396 62.4664 12.1096 62.5364 12.2546C62.6064 12.3996 62.6864 12.4621 62.7764 12.4421C62.9164 12.4221 63.0314 12.3171 63.1214 12.1271C63.2114 11.9371 63.2764 11.7271 63.3164 11.4971Z"/>
<path clip-path="url(#TextBounds)" d="M68.2664 4.38708C68.2764 4.24708 68.3514 4.13958 68.4914 4.06458C68.6314 3.98958 68.7814 3.94708 68.9414 3.93708C69.1014 3.92708 69.2464 3.94958 69.3764 4.00458C69.5064 4.05958 69.5764 4.14708 69.5864 4.26708L69.6164 4.65708C69.7064 4.49708 69.8189 4.33958 69.9539 4.18458C70.0889 4.02958 70.2464 3.89458 70.4264 3.77958C70.6064 3.66458 70.8089 3.57708 71.0339 3.51708C71.2589 3.45708 71.5114 3.44208 71.7914 3.47208C72.2114 3.52208 72.5014 3.74708 72.6614 4.14708C72.8214 4.54708 72.9014 5.06208 72.9014 5.69208C72.9014 6.07208 72.8639 6.45458 72.7889 6.83958C72.7139 7.22458 72.6214 7.59208 72.5114 7.94208C72.4014 8.29208 72.2764 8.61208 72.1364 8.90208C71.9964 9.19208 71.8614 9.43208 71.7314 9.62208C71.4114 10.0821 71.0639 10.4671 70.6889 10.7771C70.3139 11.0871 69.9614 11.2621 69.6314 11.3021C69.6314 11.3621 69.6314 11.4696 69.6314 11.6246C69.6314 11.7796 69.6289 11.9546 69.6239 12.1496C69.6189 12.3446 69.6089 12.5421 69.5939 12.7421C69.5789 12.9421 69.5564 13.1171 69.5264 13.2671C69.4964 13.4371 69.4464 13.5546 69.3764 13.6196C69.3064 13.6846 69.2314 13.7121 69.1514 13.7021C69.0714 13.6921 68.9939 13.6521 68.9189 13.5821C68.8439 13.5121 68.7814 13.4221 68.7314 13.3121C68.6014 13.0421 68.4939 12.6746 68.4089 12.2096C68.3239 11.7446 68.2589 11.2296 68.2139 10.6646C68.1689 10.0996 68.1389 9.51208 68.1239 8.90208C68.1089 8.29208 68.1064 7.69958 68.1164 7.12458C68.1264 6.54958 68.1439 6.02208 68.1689 5.54208C68.1939 5.06208 68.2264 4.67708 68.2664 4.38708ZM69.6164 10.6271C69.9664 10.3571 70.2789 10.0221 70.5539 9.62208C70.8289 9.22208 71.0564 8.79208 71.2364 8.33208C71.4164 7.87208 71.5514 7.39958 71.6414 6.91458C71.7314 6.42958 71.7714 5.97208 71.7614 5.54208C71.7514 5.29208 71.7289 5.06958 71.6939 4.87458C71.6589 4.67958 71.6039 4.54458 71.5289 4.46958C71.4539 4.39458 71.3514 4.39708 71.2214 4.47708C71.0914 4.55708 70.9264 4.73708 70.7264 5.01708C70.5364 5.27708 70.3664 5.60708 70.2164 6.00708C70.0664 6.40708 69.9439 6.84958 69.8489 7.33458C69.7539 7.81958 69.6839 8.34208 69.6389 8.90208C69.5939 9.46208 69.5864 10.0371 69.6164 10.6271Z"/>
<path clip-path="url(#TextBounds)" d="M74.9264 12.5621C74.8964 12.6921 74.8339 12.7946 74.7389 12.8696C74.6439 12.9446 74.5389 12.9871 74.4239 12.9971C74.3089 13.0071 74.1939 12.9746 74.0789 12.8996C73.9639 12.8246 73.8664 12.7021 73.7864 12.5321C73.5564 12.0321 73.3764 11.4296 73.2464 10.7246C73.1164 10.0196 73.0414 9.29458 73.0214 8.54958C73.0014 7.80458 73.0389 7.08458 73.1339 6.38958C73.2289 5.69458 73.3964 5.10208 73.6364 4.61208C73.6764 4.52208 73.7514 4.45208 73.8614 4.40208C73.9714 4.35208 74.0839 4.32708 74.1989 4.32708C74.3139 4.32708 74.4089 4.35708 74.4839 4.41708C74.5589 4.47708 74.5914 4.58208 74.5814 4.73208C74.5614 4.92208 74.5339 5.17208 74.4989 5.48208C74.4639 5.79208 74.4289 6.13458 74.3939 6.50958C74.3589 6.88458 74.3289 7.26958 74.3039 7.66458C74.2789 8.05958 74.2614 8.44458 74.2514 8.81958C74.2414 9.19458 74.2464 9.53708 74.2664 9.84708C74.2864 10.1571 74.3214 10.4071 74.3714 10.5971C74.4214 10.4571 74.4739 10.2421 74.5289 9.95208C74.5839 9.66208 74.6514 9.37208 74.7314 9.08208C74.8814 8.49208 75.0839 8.02958 75.3389 7.69458C75.5939 7.35958 75.8489 7.17958 76.1039 7.15458C76.3589 7.12958 76.5914 7.27958 76.8014 7.60458C77.0114 7.92958 77.1464 8.45708 77.2064 9.18708C77.2264 9.44708 77.2439 9.72208 77.2589 10.0121C77.2739 10.3021 77.2839 10.5821 77.2889 10.8521C77.2939 11.1221 77.2964 11.3671 77.2964 11.5871C77.2964 11.8071 77.2864 11.9721 77.2664 12.0821C77.2464 12.2121 77.1989 12.3046 77.1239 12.3596C77.0489 12.4146 76.9664 12.4446 76.8764 12.4496C76.7864 12.4546 76.7014 12.4371 76.6214 12.3971C76.5414 12.3571 76.4964 12.3021 76.4864 12.2321C76.4464 12.0521 76.4139 11.8296 76.3889 11.5646C76.3639 11.2996 76.3389 11.0271 76.3139 10.7471C76.2889 10.4671 76.2714 10.1921 76.2614 9.92208C76.2514 9.65208 76.2414 9.41708 76.2314 9.21708C76.2214 8.81708 76.1864 8.53208 76.1264 8.36208C76.0664 8.19208 75.9964 8.11958 75.9164 8.14458C75.8364 8.16958 75.7489 8.28208 75.6539 8.48208C75.5589 8.68208 75.4764 8.94708 75.4064 9.27708C75.3464 9.53708 75.2989 9.81208 75.2639 10.1021C75.2289 10.3921 75.1939 10.6846 75.1589 10.9796C75.1239 11.2746 75.0889 11.5596 75.0539 11.8346C75.0189 12.1096 74.9764 12.3521 74.9264 12.5621Z"/>
<path clip-path="url(#TextBounds)" d="M79.5764 8.42208C79.3664 8.71208 79.2289 9.00958 79.1639 9.31458C79.0989 9.61958 79.0839 9.91208 79.1189 10.1921C79.1539 10.4721 79.2239 10.7346 79.3289 10.9796C79.4339 11.2246 79.5564 11.4321 79.6964 11.6021C79.9464 11.9121 80.1864 12.0496 80.4164 12.0146C80.6464 11.9796 80.8564 11.7971 81.0464 11.4671C81.1864 11.2071 81.3039 10.8471 81.3989 10.3871C81.4939 9.92708 81.5464 9.34208 81.5564 8.63208C81.1164 8.65208 80.7514 8.64958 80.4614 8.62458C80.1714 8.59958 79.8764 8.53208 79.5764 8.42208ZM79.5764 7.49208C79.8564 7.42208 80.0564 7.44708 80.1764 7.56708C80.2964 7.68708 80.2664 7.84208 80.0864 8.03208C80.2864 8.08208 80.5214 8.11458 80.7914 8.12958C81.0614 8.14458 81.3114 8.12708 81.5414 8.07708C81.5514 7.80708 81.5039 7.53708 81.3989 7.26708C81.2939 6.99708 81.1539 6.77708 80.9789 6.60708C80.8039 6.43708 80.6064 6.34958 80.3864 6.34458C80.1664 6.33958 79.9464 6.46708 79.7264 6.72708C79.6364 6.83708 79.5864 6.96458 79.5764 7.10958C79.5664 7.25458 79.5664 7.38208 79.5764 7.49208ZM78.7964 7.77708C78.6164 7.49708 78.5814 7.20208 78.6914 6.89208C78.8014 6.58208 79.0214 6.32208 79.3514 6.11208C79.6114 5.94208 79.8689 5.84708 80.1239 5.82708C80.3789 5.80708 80.6214 5.82208 80.8514 5.87208C81.2714 5.95208 81.6164 6.16208 81.8864 6.50208C82.1564 6.84208 82.3164 7.31208 82.3664 7.91208C82.4364 7.90208 82.5239 7.88458 82.6289 7.85958C82.7339 7.83458 82.8414 7.80458 82.9514 7.76958C83.0614 7.73458 83.1714 7.69458 83.2814 7.64958C83.3914 7.60458 83.4864 7.55708 83.5664 7.50708C83.6464 7.44708 83.7239 7.42208 83.7989 7.43208C83.8739 7.44208 83.9339 7.46708 83.9789 7.50708C84.0239 7.54708 84.0439 7.60208 84.0389 7.67208C84.0339 7.74208 83.9964 7.80708 83.9264 7.86708C83.8264 7.95708 83.7064 8.03458 83.5664 8.09958C83.4264 8.16458 83.2814 8.22208 83.1314 8.27208C82.9814 8.32208 82.8439 8.36458 82.7189 8.39958C82.5939 8.43458 82.4964 8.46208 82.4264 8.48208C82.4464 8.72208 82.4439 8.99208 82.4189 9.29208C82.3939 9.59208 82.3464 9.89458 82.2764 10.1996C82.2064 10.5046 82.1139 10.8046 81.9989 11.0996C81.8839 11.3946 81.7489 11.6596 81.5939 11.8946C81.4389 12.1296 81.2614 12.3246 81.0614 12.4796C80.8614 12.6346 80.6464 12.7271 80.4164 12.7571C80.1764 12.7871 79.9239 12.7571 79.6589 12.6671C79.3939 12.5771 79.1439 12.4321 78.9089 12.2321C78.6739 12.0321 78.4664 11.7796 78.2864 11.4746C78.1064 11.1696 77.9814 10.8171 77.9114 10.4171C77.8614 10.1671 77.8414 9.90458 77.8514 9.62958C77.8614 9.35458 77.9039 9.09708 77.9789 8.85708C78.0539 8.61708 78.1589 8.40208 78.2939 8.21208C78.4289 8.02208 78.5964 7.87708 78.7964 7.77708Z"/>
<path clip-path="url(#TextBounds)" d="M84.7364 4.92708C84.9064 4.90708 85.0914 4.88958 85.2914 4.87458C85.4914 4.85958 85.6864 4.86208 85.8764 4.88208C85.9964 4.89208 86.0989 4.91708 86.1839 4.95708C86.2689 4.99708 86.3214 5.04208 86.3414 5.09208C86.3614 5.14208 86.3389 5.19458 86.2739 5.24958C86.2089 5.30458 86.0964 5.34708 85.9364 5.37708C85.7464 5.40708 85.5339 5.42458 85.2989 5.42958C85.0639 5.43458 84.8514 5.44708 84.6614 5.46708C84.5914 5.86708 84.5189 6.33458 84.4439 6.86958C84.3689 7.40458 84.3039 7.95958 84.2489 8.53458C84.1939 9.10958 84.1614 9.67958 84.1514 10.2446C84.1414 10.8096 84.1664 11.3171 84.2264 11.7671C84.2564 11.9871 84.3264 12.1021 84.4364 12.1121C84.5464 12.1221 84.6714 12.0796 84.8114 11.9846C84.9514 11.8896 85.0889 11.7621 85.2239 11.6021C85.3589 11.4421 85.4664 11.3071 85.5464 11.1971C85.6064 11.1071 85.6764 11.0521 85.7564 11.0321C85.8364 11.0121 85.9014 11.0221 85.9514 11.0621C86.0014 11.1021 86.0289 11.1621 86.0339 11.2421C86.0389 11.3221 86.0064 11.4221 85.9364 11.5421C85.8664 11.6521 85.7764 11.7696 85.6664 11.8946C85.5564 12.0196 85.4264 12.1621 85.2764 12.3221C84.9864 12.6221 84.7164 12.7696 84.4664 12.7646C84.2164 12.7596 83.9964 12.6421 83.8064 12.4121C83.6364 12.2121 83.5064 11.9371 83.4164 11.5871C83.3264 11.2371 83.2614 10.8521 83.2214 10.4321C83.1814 10.0121 83.1639 9.57208 83.1689 9.11208C83.1739 8.65208 83.1889 8.20208 83.2139 7.76208C83.2389 7.32208 83.2714 6.91458 83.3114 6.53958C83.3514 6.16458 83.3914 5.85208 83.4314 5.60208C83.2914 5.59208 83.2164 5.59208 83.2064 5.60208C83.1964 5.61208 83.1614 5.61208 83.1014 5.60208C82.9914 5.59208 82.9064 5.55958 82.8464 5.50458C82.7864 5.44958 82.7564 5.39208 82.7564 5.33208C82.7564 5.27208 82.7864 5.21708 82.8464 5.16708C82.9064 5.11708 82.9964 5.08208 83.1164 5.06208C83.2264 5.04208 83.2964 5.03208 83.3264 5.03208C83.3564 5.03208 83.4414 5.02708 83.5814 5.01708C83.6014 4.92708 83.6214 4.81958 83.6414 4.69458C83.6614 4.56958 83.6839 4.44708 83.7089 4.32708C83.7339 4.20708 83.7614 4.09208 83.7914 3.98208C83.8214 3.87208 83.8564 3.78208 83.8964 3.71208C83.9564 3.61208 84.0464 3.53708 84.1664 3.48708C84.2864 3.43708 84.4089 3.41458 84.5339 3.41958C84.6589 3.42458 84.7664 3.45208 84.8564 3.50208C84.9464 3.55208 84.9864 3.62208 84.9764 3.71208C84.9564 3.91208 84.9214 4.11208 84.8714 4.31208C84.8214 4.51208 84.7764 4.71708 84.7364 4.92708Z"/>
<path clip-path="url(#TextBounds)" d="M88.1114 8.42208C87.9014 8.71208 87.7639 9.00958 87.6989 9.31458C87.6339 9.61958 87.6189 9.91208 87.6539 10.1921C87.6889 10.4721 87.7589 10.7346 87.8639 10.9796C87.9689 11.2246 88.0914 11.4321 88.2314 11.6021C88.4814 11.9121 88.7214 12.0496 88.9514 12.0146C89.1814 11.9796 89.3914 11.7971 89.5814 11.4671C89.7214 11.2071 89.8389 10.8471 89.9339 10.3871C90.0289 9.92708 90.0814 9.34208 90.0914 8.63208C89.6514 8.65208 89.2864 8.64958 88.9964 8.62458C88.7064 8.59958 88.4114 8.53208 88.1114 8.42208ZM88.1114 7.49208C88.3914 7.42208 88.5914 7.44708 88.7114 7.56708C88.8314 7.68708 88.8014 7.84208 88.6214 8.03208C88.8214 8.08208 89.0564 8.11458 89.3264 8.12958C89.5964 8.14458 89.8464 8.12708 90.0764 8.07708C90.0864 7.80708 90.0389 7.53708 89.9339 7.26708C89.8289 6.99708 89.6889 6.77708 89.5139 6.60708C89.3389 6.43708 89.1414 6.34958 88.9214 6.34458C88.7014 6.33958 88.4814 6.46708 88.2614 6.72708C88.1714 6.83708 88.1214 6.96458 88.1114 7.10958C88.1014 7.25458 88.1014 7.38208 88.1114 7.49208ZM87.3314 7.77708C87.1514 7.49708 87.1164 7.20208 87.2264 6.89208C87.3364 6.58208 87.5564 6.32208 87.8864 6.11208C88.1464 5.94208 88.4039 5.84708 88.6589 5.82708C88.9139 5.80708 89.1564 5.82208 89.3864 5.87208C89.8064 5.95208 90.1514 6.16208 90.4214 6.50208C90.6914 6.84208 90.8514 7.31208 90.9014 7.91208C90.9714 7.90208 91.0589 7.88458 91.1639 7.85958C91.2689 7.83458 91.3764 7.80458 91.4864 7.76958C91.5964 7.73458 91.7064 7.69458 91.8164 7.64958C91.9264 7.60458 92.0214 7.55708 92.1014 7.50708C92.1814 7.44708 92.2589 7.42208 92.3339 7.43208C92.4089 7.44208 92.4689 7.46708 92.5139 7.50708C92.5589 7.54708 92.5789 7.60208 92.5739 7.67208C92.5689 7.74208 92.5314 7.80708 92.4614 7.86708C92.3614 7.95708 92.2414 8.03458 92.1014 8.09958C91.9614 8.16458 91.8164 8.22208 91.6664 8.27208C91.5164 8.32208 91.3789 8.36458 91.2539 8.39958C91.1289 8.43458 91.0314 8.46208 90.9614 8.48208C90.9814 8.72208 90.9789 8.99208 90.9539 9.29208C90.9289 9.59208 90.8814 9.89458 90.8114 10.1996C90.7414 10.5046 90.6489 10.8046 90.5339 11.0996C90.4189 11.3946 90.2839 11.6596 90.1289 11.8946C89.9739 12.1296 89.7964 12.3246 89.5964 12.4796C89.3964 12.6346 89.1814 12.7271 88.9514 12.7571C88.7114 12.7871 88.4589 12.7571 88.1939 12.6671C87.9289 12.5771 87.6789 12.4321 87.4439 12.2321C87.2089 12.0321 87.0014 11.7796 86.8214 11.4746C86.6414 11.1696 86.5164 10.8171 86.4464 10.4171C86.3964 10.1671 86.3764 9.90458 86.3864 9.62958C86.3964 9.35458 86.4389 9.09708 86.5139 8.85708C86.5889 8.61708 86.6939 8.40208 86.8289 8.21208C86.9639 8.02208 87.1314 7.87708 87.3314 7.77708Z"/>
<path clip-path="url(#TextBounds)" d="M96.3764 6.78708C96.4464 6.58708 96.5239 6.37958 96.6089 6.16458C96.6939 5.94958 96.7914 5.73708 96.9014 5.52708C97.2614 4.84708 97.6689 4.40708 98.1239 4.20708C98.5789 4.00708 98.9989 3.99208 99.3839 4.16208C99.7689 4.33208 100.071 4.65458 100.291 5.12958C100.511 5.60458 100.566 6.17708 100.456 6.84708C100.356 7.47708 100.136 8.03708 99.7964 8.52708C99.4564 9.01708 98.9764 9.50208 98.3564 9.98208C98.7864 10.0821 99.1164 10.2696 99.3464 10.5446C99.5764 10.8196 99.7164 11.1271 99.7664 11.4671C99.8164 11.8071 99.7814 12.1446 99.6614 12.4796C99.5414 12.8146 99.3389 13.0871 99.0539 13.2971C98.7689 13.5071 98.4089 13.6221 97.9739 13.6421C97.5389 13.6621 97.0364 13.5271 96.4664 13.2371C96.4664 13.3371 96.4089 13.4196 96.2939 13.4846C96.1789 13.5496 96.0539 13.5846 95.9189 13.5896C95.7839 13.5946 95.6589 13.5646 95.5439 13.4996C95.4289 13.4346 95.3714 13.3271 95.3714 13.1771C95.3814 12.7771 95.3789 12.3096 95.3639 11.7746C95.3489 11.2396 95.3214 10.6871 95.2814 10.1171C95.2414 9.54708 95.1964 8.98958 95.1464 8.44458C95.0964 7.89958 95.0464 7.41208 94.9964 6.98208C94.9564 6.57208 94.9064 6.18458 94.8464 5.81958C94.7864 5.45458 94.7214 5.13208 94.6514 4.85208C94.6014 4.66208 94.6264 4.51708 94.7264 4.41708C94.8264 4.31708 94.9514 4.26208 95.1014 4.25208C95.2514 4.24208 95.4064 4.27958 95.5664 4.36458C95.7264 4.44958 95.8464 4.57708 95.9264 4.74708C95.9864 4.86708 96.0364 5.01458 96.0764 5.18958C96.1164 5.36458 96.1564 5.54458 96.1964 5.72958C96.2364 5.91458 96.2689 6.09958 96.2939 6.28458C96.3189 6.46958 96.3464 6.63708 96.3764 6.78708ZM97.0364 9.80208C97.2164 9.68208 97.4264 9.51708 97.6664 9.30708C97.9064 9.09708 98.1414 8.85958 98.3714 8.59458C98.6014 8.32958 98.8114 8.04458 99.0014 7.73958C99.1914 7.43458 99.3264 7.13208 99.4064 6.83208C99.4864 6.55208 99.5239 6.27708 99.5189 6.00708C99.5139 5.73708 99.4789 5.50208 99.4139 5.30208C99.3489 5.10208 99.2539 4.94708 99.1289 4.83708C99.0039 4.72708 98.8639 4.68958 98.7089 4.72458C98.5539 4.75958 98.3864 4.87708 98.2064 5.07708C98.0264 5.27708 97.8464 5.58708 97.6664 6.00708C97.4564 6.47708 97.2864 6.89458 97.1564 7.25958C97.0264 7.62458 96.9189 7.96208 96.8339 8.27208C96.7489 8.58208 96.6864 8.88208 96.6464 9.17208C96.6064 9.46208 96.5814 9.76708 96.5714 10.0871C96.5614 10.4071 96.5564 10.7571 96.5564 11.1371C96.5564 11.5171 96.5564 11.9521 96.5564 12.4421C96.7664 12.6121 96.9989 12.7371 97.2539 12.8171C97.5089 12.8971 97.7514 12.9296 97.9814 12.9146C98.2114 12.8996 98.4139 12.8421 98.5889 12.7421C98.7639 12.6421 98.8764 12.4921 98.9264 12.2921C99.0264 11.9221 99.0164 11.6271 98.8964 11.4071C98.7764 11.1871 98.6089 11.0096 98.3939 10.8746C98.1789 10.7396 97.9414 10.6296 97.6814 10.5446C97.4214 10.4596 97.2014 10.3671 97.0214 10.2671C96.8714 10.1871 96.8064 10.1071 96.8264 10.0271C96.8464 9.94708 96.9164 9.87208 97.0364 9.80208Z"/>
<path clip-path="url(#TextBounds)" d="M101.926 7.77708C101.746 7.49708 101.711 7.20208 101.821 6.89208C101.931 6.58208 102.151 6.32208 102.481 6.11208C102.741 5.94208 102.999 5.84708 103.254 5.82708C103.509 5.80708 103.751 5.82208 103.981 5.87208C104.401 5.95208 104.746 6.16208 105.016 6.50208C105.286 6.84208 105.446 7.31208 105.496 7.91208C105.556 7.90208 105.666 7.86958 105.826 7.81458C105.986 7.75958 106.161 7.69708 106.351 7.62708C106.541 7.55708 106.724 7.48458 106.899 7.40958C107.074 7.33458 107.216 7.26708 107.326 7.20708C107.446 6.77708 107.666 6.47458 107.986 6.29958C108.306 6.12458 108.691 6.04208 109.141 6.05208C109.321 6.05208 109.506 6.09708 109.696 6.18708C109.886 6.27708 110.061 6.41958 110.221 6.61458C110.381 6.80958 110.521 7.05958 110.641 7.36458C110.761 7.66958 110.841 8.04208 110.881 8.48208C110.911 8.84208 110.894 9.22958 110.829 9.64458C110.764 10.0596 110.649 10.4446 110.484 10.7996C110.319 11.1546 110.104 11.4596 109.839 11.7146C109.574 11.9696 109.266 12.1171 108.916 12.1571C108.516 12.2071 108.161 12.1746 107.851 12.0596C107.541 11.9446 107.276 11.7771 107.056 11.5571C106.836 11.3371 106.664 11.0796 106.539 10.7846C106.414 10.4896 106.339 10.1846 106.314 9.86958C106.289 9.55458 106.314 9.24708 106.389 8.94708C106.464 8.64708 106.596 8.38708 106.786 8.16708C106.576 8.24708 106.361 8.31708 106.141 8.37708C105.921 8.43708 105.726 8.47208 105.556 8.48208C105.576 8.72208 105.574 8.99208 105.549 9.29208C105.524 9.59208 105.476 9.89458 105.406 10.1996C105.336 10.5046 105.244 10.8046 105.129 11.0996C105.014 11.3946 104.879 11.6596 104.724 11.8946C104.569 12.1296 104.391 12.3246 104.191 12.4796C103.991 12.6346 103.776 12.7271 103.546 12.7571C103.306 12.7871 103.054 12.7571 102.789 12.6671C102.524 12.5771 102.274 12.4321 102.039 12.2321C101.804 12.0321 101.596 11.7796 101.416 11.4746C101.236 11.1696 101.111 10.8171 101.041 10.4171C100.991 10.1671 100.971 9.90458 100.981 9.62958C100.991 9.35458 101.034 9.09708 101.109 8.85708C101.184 8.61708 101.289 8.40208 101.424 8.21208C101.559 8.02208 101.726 7.87708 101.926 7.77708ZM102.706 8.42208C102.496 8.71208 102.359 9.00958 102.294 9.31458C102.229 9.61958 102.214 9.91208 102.249 10.1921C102.284 10.4721 102.354 10.7346 102.459 10.9796C102.564 11.2246 102.686 11.4321 102.826 11.6021C103.076 11.9121 103.316 12.0496 103.546 12.0146C103.776 11.9796 103.986 11.7971 104.176 11.4671C104.316 11.2071 104.434 10.8471 104.529 10.3871C104.624 9.92708 104.676 9.34208 104.686 8.63208C104.246 8.65208 103.881 8.64958 103.591 8.62458C103.301 8.59958 103.006 8.53208 102.706 8.42208ZM108.031 8.42208C107.741 8.66208 107.574 8.94208 107.529 9.26208C107.484 9.58208 107.516 9.88958 107.626 10.1846C107.736 10.4796 107.901 10.7371 108.121 10.9571C108.341 11.1771 108.566 11.3021 108.796 11.3321C109.066 11.3621 109.281 11.2746 109.441 11.0696C109.601 10.8646 109.724 10.6146 109.809 10.3196C109.894 10.0246 109.949 9.71958 109.974 9.40458C109.999 9.08958 110.011 8.83208 110.011 8.63208C109.571 8.65208 109.206 8.64958 108.916 8.62458C108.626 8.59958 108.331 8.53208 108.031 8.42208ZM102.706 7.49208C102.986 7.42208 103.186 7.44708 103.306 7.56708C103.426 7.68708 103.396 7.84208 103.216 8.03208C103.416 8.08208 103.651 8.11458 103.921 8.12958C104.191 8.14458 104.441 8.12708 104.671 8.07708C104.681 7.80708 104.634 7.53708 104.529 7.26708C104.424 6.99708 104.284 6.77708 104.109 6.60708C103.934 6.43708 103.736 6.34958 103.516 6.34458C103.296 6.33958 103.076 6.46708 102.856 6.72708C102.766 6.83708 102.716 6.96458 102.706 7.10958C102.696 7.25458 102.696 7.38208 102.706 7.49208ZM108.031 7.49208C108.311 7.42208 108.511 7.44708 108.631 7.56708C108.751 7.68708 108.721 7.84208 108.541 8.03208C108.741 8.08208 108.976 8.11458 109.246 8.12958C109.516 8.14458 109.766 8.12708 109.996 8.07708C110.016 7.56708 109.914 7.18208 109.689 6.92208C109.464 6.66208 109.186 6.54208 108.856 6.56208C108.636 6.58208 108.451 6.66708 108.301 6.81708C108.151 6.96708 108.061 7.19208 108.031 7.49208Z"/>
<path clip-path="url(#TextBounds)" d="M113.101 4.92708C113.271 4.90708 113.456 4.88958 113.656 4.87458C113.856 4.85958 114.051 4.86208 114.241 4.88208C114.311 4.89208 114.371 4.91708 114.421 4.95708C114.471 4.99708 114.504 5.04208 114.519 5.09208C114.534 5.14208 114.526 5.19458 114.496 5.24958C114.466 5.30458 114.401 5.34708 114.301 5.37708C114.111 5.40708 113.899 5.42458 113.664 5.42958C113.429 5.43458 113.216 5.44708 113.026 5.46708C112.956 5.86708 112.884 6.33458 112.809 6.86958C112.734 7.40458 112.669 7.95958 112.614 8.53458C112.559 9.10958 112.526 9.67958 112.516 10.2446C112.506 10.8096 112.531 11.3171 112.591 11.7671C112.621 11.9871 112.681 12.1546 112.771 12.2696C112.861 12.3846 112.966 12.4421 113.086 12.4421C113.206 12.4421 113.329 12.3896 113.454 12.2846C113.579 12.1796 113.681 12.0121 113.761 11.7821C113.801 11.6821 113.849 11.6171 113.904 11.5871C113.959 11.5571 114.011 11.5596 114.061 11.5946C114.111 11.6296 114.146 11.6946 114.166 11.7896C114.186 11.8846 114.181 11.9971 114.151 12.1271C114.091 12.3671 113.989 12.5571 113.844 12.6971C113.699 12.8371 113.534 12.9246 113.349 12.9596C113.164 12.9946 112.969 12.9696 112.764 12.8846C112.559 12.7996 112.361 12.6421 112.171 12.4121C112.001 12.2121 111.871 11.9371 111.781 11.5871C111.691 11.2371 111.626 10.8521 111.586 10.4321C111.546 10.0121 111.529 9.57208 111.534 9.11208C111.539 8.65208 111.554 8.20208 111.579 7.76208C111.604 7.32208 111.636 6.91458 111.676 6.53958C111.716 6.16458 111.756 5.85208 111.796 5.60208C111.656 5.59208 111.581 5.59208 111.571 5.60208C111.561 5.61208 111.526 5.61208 111.466 5.60208C111.356 5.59208 111.271 5.55958 111.211 5.50458C111.151 5.44958 111.121 5.39208 111.121 5.33208C111.121 5.27208 111.151 5.21708 111.211 5.16708C111.271 5.11708 111.361 5.08208 111.481 5.06208C111.591 5.04208 111.661 5.03208 111.691 5.03208C111.721 5.03208 111.806 5.02708 111.946 5.01708C111.966 4.92708 111.986 4.81958 112.006 4.69458C112.026 4.56958 112.049 4.44708 112.074 4.32708C112.099 4.20708 112.126 4.09208 112.156 3.98208C112.186 3.87208 112.221 3.78208 112.261 3.71208C112.321 3.61208 112.411 3.53708 112.531 3.48708C112.651 3.43708 112.774 3.41458 112.899 3.41958C113.024 3.42458 113.131 3.45208 113.221 3.50208C113.311 3.55208 113.351 3.62208 113.341 3.71208C113.321 3.91208 113.286 4.11208 113.236 4.31208C113.186 4.51208 113.141 4.71708 113.101 4.92708ZM116.311 12.5621C116.281 12.6921 116.219 12.7946 116.124 12.8696C116.029 12.9446 115.924 12.9871 115.809 12.9971C115.694 13.0071 115.579 12.9746 115.464 12.8996C115.349 12.8246 115.251 12.7021 115.171 12.5321C115.021 12.2021 114.896 11.7871 114.796 11.2871C114.696 10.7871 114.624 10.2496 114.579 9.67458C114.534 9.09958 114.514 8.50208 114.519 7.88208C114.524 7.26208 114.556 6.66708 114.616 6.09708C114.676 5.52708 114.759 4.99708 114.864 4.50708C114.969 4.01708 115.101 3.60708 115.261 3.27708C115.301 3.18708 115.376 3.11708 115.486 3.06708C115.596 3.01708 115.709 2.99208 115.824 2.99208C115.939 2.99208 116.034 3.02208 116.109 3.08208C116.184 3.14208 116.216 3.24708 116.206 3.39708C116.186 3.58708 116.154 3.87208 116.109 4.25208C116.064 4.63208 116.014 5.05458 115.959 5.51958C115.904 5.98458 115.854 6.47708 115.809 6.99708C115.764 7.51708 115.729 8.00958 115.704 8.47458C115.679 8.93958 115.669 9.36208 115.674 9.74208C115.679 10.1221 115.706 10.4071 115.756 10.5971C115.806 10.4571 115.859 10.2421 115.914 9.95208C115.969 9.66208 116.036 9.37208 116.116 9.08208C116.266 8.49208 116.469 8.02958 116.724 7.69458C116.979 7.35958 117.234 7.17958 117.489 7.15458C117.744 7.12958 117.976 7.27958 118.186 7.60458C118.396 7.92958 118.531 8.45708 118.591 9.18708C118.611 9.44708 118.629 9.72208 118.644 10.0121C118.659 10.3021 118.669 10.5821 118.674 10.8521C118.679 11.1221 118.681 11.3671 118.681 11.5871C118.681 11.8071 118.671 11.9721 118.651 12.0821C118.631 12.2121 118.584 12.3046 118.509 12.3596C118.434 12.4146 118.351 12.4446 118.261 12.4496C118.171 12.4546 118.086 12.4371 118.006 12.3971C117.926 12.3571 117.881 12.3021 117.871 12.2321C117.831 12.0521 117.799 11.8296 117.774 11.5646C117.749 11.2996 117.724 11.0271 117.699 10.7471C117.674 10.4671 117.656 10.1921 117.646 9.92208C117.636 9.65208 117.626 9.41708 117.616 9.21708C117.606 8.81708 117.571 8.53208 117.511 8.36208C117.451 8.19208 117.381 8.11958 117.301 8.14458C117.221 8.16958 117.134 8.28208 117.039 8.48208C116.944 8.68208 116.861 8.94708 116.791 9.27708C116.731 9.53708 116.684 9.81208 116.649 10.1021C116.614 10.3921 116.579 10.6846 116.544 10.9796C116.509 11.2746 116.474 11.5596 116.439 11.8346C116.404 12.1096 116.361 12.3521 116.311 12.5621Z"/>
</g>
</g>
</svg>
