<?xml version="1.0" encoding="UTF-8" standalone="no"?>
<!DOCTYPE svg PUBLIC "-//W3C//DTD SVG 1.1//EN" "http://www.w3.org/Graphics/SVG/1.1/DTD/svg11.dtd">
<!-- Created with Vectornator (http://vectornator.io/) -->
<svg height="100%" stroke-miterlimit="10" style="fill-rule:nonzero;clip-rule:evenodd;stroke-linecap:round;stroke-linejoin:round;" version="1.1" viewBox="0 0 419.58 297.675" width="100%" xml:space="preserve" xmlns="http://www.w3.org/2000/svg" xmlns:vectornator="http://vectornator.io" xmlns:xlink="http://www.w3.org/1999/xlink">
<defs>
<clipPath id="TextBounds">
<rect height="217.674" width="358.987" x="24.7899" y="34.3403"/>
</clipPath>
<clipPath id="TextBounds_2">
<rect height="135.835" width="419.059" x="0.568104" y="44.8795"/>
</clipPath>
</defs>
<g id="Layer-1" vectornator:layerName="Layer 1">
<g fill="#000000" opacity="1" stroke="none">
<path clip-path="url(#TextBounds)" d="M118.718 170.526C118.678 170.59 109.394 184.65 100.039 197.641C98.1076 197.833 96.2319 197.933 94.4391 197.933C93.375 197.933 92.3401 197.898 91.3402 197.826C97.7887 186.113 106.508 172.911 116.192 163.667C119.676 162.757 127.51 161.037 134.59 161.037C141.947 161.037 148.489 162.895 148.489 169.453C148.489 170.006 148.442 170.591 148.346 171.212C146.16 185.326 117.087 194.906 105.139 196.948C113.733 184.865 121.648 172.874 121.688 172.813C121.748 172.723 121.776 172.62 121.776 172.51C121.776 171.652 120.114 170.302 119.196 170.302C118.99 170.302 118.822 170.37 118.718 170.526ZM102.77 200.258C113.905 199.057 126.65 194.987 136.294 189.491C142.982 185.684 151.578 179.209 151.578 171.539C151.578 169.727 151.098 167.849 150.001 165.924C146.633 160.01 139.424 158.381 132.352 158.381C128.294 158.381 124.28 158.917 121.063 159.489C122.691 158.265 124.302 157.232 125.88 156.431C126.055 156.342 126.132 156.197 126.132 156.021C126.132 155.226 124.576 153.783 123.584 153.783C123.455 153.783 123.335 153.808 123.229 153.862C118.153 156.445 113.501 161.12 113.393 161.181C103.8 163.677 73.9092 174.444 72.8529 185.064C72.8377 185.217 72.8303 185.369 72.8304 185.52C72.8304 188.289 75.2968 190.718 76.6087 190.718C76.7084 190.718 76.8013 190.704 76.8861 190.675C77.4008 190.5 77.2561 189.77 76.5632 189.043C75.9196 188.368 75.6254 187.635 75.6254 186.859C75.6253 179.088 105.189 167.06 108.892 165.833C100.92 174.703 93.0491 186.726 87.3945 197.315C86.2876 197.108 82.3841 196.485 82.3841 194.897C82.3841 192.285 87.6761 189.134 91.7977 187.143C92.262 186.917 92.05 186.157 91.3202 185.444C90.5936 184.728 89.6247 184.331 89.1605 184.556C84.4782 186.816 81.6459 188.845 80.2869 190.617C79.5663 191.557 79.2603 192.442 79.2603 193.264C79.2603 196.311 83.47 198.484 86.3316 199.34C84.8689 202.175 79.0477 213.222 79.0478 218.855C79.0477 219.971 79.2764 220.875 79.8126 221.46C79.829 221.456 79.8454 221.454 79.862 221.454C80.2821 221.454 80.7791 222.792 82.2503 222.792C83.1993 222.792 84.5535 222.235 86.5536 220.404C90.7079 216.599 97.0217 208.227 102.77 200.258ZM97.8896 200.601C94.1995 205.654 87.1154 215.809 81.9688 219.385C82.5137 215.853 85.5647 208.614 90.0688 200.171C92.0249 200.478 94.0979 200.625 96.3093 200.625C96.8283 200.625 97.355 200.617 97.8896 200.601Z"/>
<path clip-path="url(#TextBounds)" d="M175.327 195.381C172.886 196.962 165.583 201.75 162.512 201.75C162.46 201.75 162.409 201.749 162.359 201.746C160.933 198.58 162.894 194.164 158.444 191.691C157.949 191.416 157.513 191.286 157.096 191.286C156.544 191.286 156.027 191.514 155.45 191.934C152.264 194.248 147.902 201.086 145.362 204.652C149.695 191.12 160.475 163.072 160.516 162.971C160.857 162.081 158.94 160.542 157.958 160.542C157.72 160.542 157.537 160.633 157.455 160.845C157.447 160.867 140.47 204.241 140.47 209.585C140.47 210.947 141.953 212.456 143.24 212.456C143.537 212.456 143.824 212.376 144.08 212.194C147.632 208.245 153.445 197.326 158.504 194.231C158.656 197.117 158.659 200.663 160.822 202.819C161.882 203.876 163.173 204.302 164.579 204.302C169.102 204.302 174.817 199.895 177.893 197.904C178.046 197.804 178.113 197.658 178.113 197.485C178.113 196.675 176.651 195.275 175.714 195.275C175.57 195.275 175.438 195.308 175.327 195.381Z"/>
<path clip-path="url(#TextBounds)" d="M179.833 194.103C180.62 193.071 183.215 192.499 184.328 192.499C184.609 192.499 184.795 192.535 184.835 192.61C185.051 193.007 185.143 193.5 185.143 194.045C185.143 195.782 184.209 198.055 183.382 199.512C181.592 199.129 179.914 198.207 179.423 196.488C179.946 196.072 180.882 195.954 180.882 195.43C180.882 195.146 180.605 194.741 179.833 194.103ZM176.217 194.413C173.811 196.36 170.908 200.076 170.908 203.383C170.908 204.93 171.544 206.389 173.163 207.535C173.098 207.666 174.638 208.639 176.9 208.639C179.455 208.639 182.932 207.397 186.056 202.297C186.441 202.332 186.841 202.351 187.255 202.351C190.544 202.351 194.676 201.192 198.587 198.022C198.718 197.915 198.775 197.77 198.775 197.602C198.775 196.77 197.367 195.384 196.481 195.384C196.329 195.384 196.192 195.425 196.081 195.516C193.223 197.847 189.766 199.051 187.452 199.502C187.939 198.365 188.175 197.209 188.175 196.112C188.175 194.341 187.56 192.722 186.389 191.58C185.241 190.461 183.4 189.891 181.595 189.891C178.849 189.891 176.189 191.21 176.189 193.92C176.189 194.08 176.198 194.244 176.217 194.413ZM177.859 197.975L177.859 197.975C178.915 199.29 180.402 200.468 182.228 201.295C180.517 203.632 177.676 206.226 175.251 206.226C174.807 206.226 174.377 206.139 173.97 205.947C173.923 205.799 173.93 205.446 173.967 204.961C174.152 202.64 176.274 199.66 177.859 197.975Z"/>
<path clip-path="url(#TextBounds)" d="M207.822 159.668C207.801 159.725 205.218 167.106 201.948 177.049C187.635 178.724 175.361 181.418 175.29 181.435C174.729 181.556 174.803 182.253 175.459 182.989C176.111 183.726 177.097 184.22 177.655 184.099C177.722 184.086 188.214 181.782 200.953 180.09C195.197 197.773 186.832 221.491 187.34 227.95C187.387 228.548 188.123 229.396 188.984 229.843C189.849 230.294 190.512 230.173 190.465 229.574C189.943 222.965 199.019 197.383 204.861 179.602C218.316 178.024 233.268 177.402 240.864 180.877C241.715 181.267 242.304 181.065 242.179 180.429C242.055 179.794 241.261 178.963 240.41 178.573C232.801 175.091 218.872 175.32 205.844 176.625C208.71 167.987 210.866 161.818 210.886 161.764C211.051 161.293 210.496 160.442 209.651 159.863C208.804 159.281 207.983 159.194 207.822 159.668Z"/>
<path clip-path="url(#TextBounds)" d="M213.03 194.103C213.817 193.071 216.412 192.499 217.525 192.499C217.806 192.499 217.992 192.535 218.032 192.61C218.248 193.007 218.34 193.5 218.34 194.045C218.34 195.782 217.406 198.055 216.579 199.512C214.789 199.129 213.111 198.207 212.62 196.488C213.143 196.072 214.079 195.954 214.079 195.43C214.079 195.146 213.802 194.741 213.03 194.103ZM209.414 194.413C207.008 196.36 204.105 200.076 204.105 203.383C204.105 204.93 204.741 206.389 206.36 207.535C206.295 207.666 207.835 208.639 210.097 208.639C212.652 208.639 216.129 207.397 219.253 202.297C219.638 202.332 220.038 202.351 220.452 202.351C223.741 202.351 227.873 201.192 231.784 198.022C231.915 197.915 231.972 197.77 231.972 197.602C231.972 196.77 230.564 195.384 229.678 195.384C229.526 195.384 229.389 195.425 229.278 195.516C226.42 197.847 222.963 199.051 220.649 199.502C221.136 198.365 221.372 197.209 221.372 196.112C221.372 194.341 220.757 192.722 219.586 191.58C218.438 190.461 216.597 189.891 214.792 189.891C212.046 189.891 209.386 191.21 209.386 193.92C209.386 194.08 209.395 194.244 209.414 194.413ZM211.056 197.975L211.056 197.975C212.112 199.29 213.599 200.468 215.425 201.295C213.714 203.632 210.873 206.226 208.448 206.226C208.004 206.226 207.574 206.139 207.167 205.947C207.12 205.799 207.127 205.446 207.164 204.961C207.349 202.64 209.471 199.66 211.056 197.975Z"/>
<path clip-path="url(#TextBounds)" d="M241.745 161.047C241.69 161.191 224.753 204.497 224.753 209.984C224.753 211.583 225.717 212.602 227.503 212.602C228.512 212.602 230.575 209.722 233.052 206.024C234.717 207.465 236.382 208.07 237.972 208.07C242.361 208.07 246.172 203.453 247.809 199.065C252.99 198.167 257.635 197.635 257.665 197.632C257.991 197.594 258.128 197.424 258.128 197.185C258.128 196.415 256.694 194.934 255.584 194.934C255.539 194.934 255.495 194.936 255.452 194.941C255.422 194.944 252.448 195.281 248.607 195.967C248.666 195.518 248.696 195.076 248.696 194.642C248.696 191.59 247.188 188.991 243.521 187.981C243.414 187.952 243.303 187.938 243.188 187.938C240.555 187.938 235.638 195.357 231.478 201.638C230.95 202.432 230.435 203.206 229.948 203.942C234.452 190.104 244.769 163.274 244.806 163.177C245.149 162.286 243.229 160.744 242.248 160.744C242.01 160.744 241.827 160.835 241.745 161.047ZM234.038 204.541C234.553 203.764 235.067 202.987 235.582 202.21C237.341 201.356 240.207 200.582 243.302 199.926C242.363 201.46 241.193 202.849 239.911 203.855C238.935 204.618 237.409 205.503 236.037 205.503C235.286 205.503 234.581 205.237 234.038 204.541ZM244.731 190.561C245.361 190.735 245.571 191.558 245.571 192.557C245.571 194.094 245.075 196.049 244.843 196.707C242.532 197.205 240.15 197.813 238.051 198.533C240.993 194.214 243.695 190.55 244.648 190.55C244.677 190.55 244.705 190.554 244.731 190.561Z"/>
<path clip-path="url(#TextBounds)" d="M259.577 194.103C260.364 193.071 262.959 192.499 264.072 192.499C264.353 192.499 264.539 192.535 264.579 192.61C264.795 193.007 264.887 193.5 264.887 194.045C264.887 195.782 263.953 198.055 263.126 199.512C261.336 199.129 259.658 198.207 259.167 196.488C259.69 196.072 260.626 195.954 260.626 195.43C260.626 195.146 260.349 194.741 259.577 194.103ZM255.961 194.413C253.555 196.36 250.652 200.076 250.652 203.383C250.652 204.93 251.288 206.389 252.907 207.535C252.842 207.666 254.382 208.639 256.644 208.639C259.199 208.639 262.676 207.397 265.8 202.297C266.185 202.332 266.585 202.351 266.999 202.351C270.288 202.351 274.42 201.192 278.331 198.022C278.462 197.915 278.519 197.77 278.519 197.602C278.519 196.77 277.111 195.384 276.225 195.384C276.073 195.384 275.936 195.425 275.825 195.516C272.967 197.847 269.51 199.051 267.196 199.502C267.683 198.365 267.919 197.209 267.919 196.112C267.919 194.341 267.304 192.722 266.133 191.58C264.985 190.461 263.144 189.891 261.339 189.891C258.593 189.891 255.933 191.21 255.933 193.92C255.933 194.08 255.942 194.244 255.961 194.413ZM257.603 197.975L257.603 197.975C258.659 199.29 260.146 200.468 261.972 201.295C260.261 203.632 257.42 206.226 254.995 206.226C254.551 206.226 254.121 206.139 253.714 205.947C253.667 205.799 253.674 205.446 253.711 204.961C253.896 202.64 256.018 199.66 257.603 197.975Z"/>
<path clip-path="url(#TextBounds)" d="M280.403 194.103C281.19 193.071 283.785 192.499 284.898 192.499C285.179 192.499 285.365 192.535 285.405 192.61C285.621 193.007 285.713 193.5 285.713 194.045C285.713 195.782 284.779 198.055 283.952 199.512C282.162 199.129 280.484 198.207 279.993 196.488C280.516 196.072 281.452 195.954 281.452 195.43C281.452 195.146 281.175 194.741 280.403 194.103ZM276.787 194.413C274.381 196.36 271.478 200.076 271.478 203.383C271.478 204.93 272.114 206.389 273.733 207.535C273.668 207.666 275.208 208.639 277.47 208.639C280.025 208.639 283.502 207.397 286.626 202.297C287.011 202.332 287.411 202.351 287.825 202.351C291.114 202.351 295.246 201.192 299.157 198.022C299.288 197.915 299.345 197.77 299.345 197.602C299.345 196.77 297.937 195.384 297.051 195.384C296.899 195.384 296.762 195.425 296.651 195.516C293.793 197.847 290.336 199.051 288.022 199.502C288.509 198.365 288.745 197.209 288.745 196.112C288.745 194.341 288.13 192.722 286.959 191.58C285.811 190.461 283.97 189.891 282.165 189.891C279.419 189.891 276.759 191.21 276.759 193.92C276.759 194.08 276.768 194.244 276.787 194.413ZM278.429 197.975L278.429 197.975C279.485 199.29 280.972 200.468 282.798 201.295C281.087 203.632 278.246 206.226 275.821 206.226C275.377 206.226 274.947 206.139 274.54 205.947C274.493 205.799 274.5 205.446 274.537 204.961C274.722 202.64 276.844 199.66 278.429 197.975Z"/>
<path clip-path="url(#TextBounds)" d="M337.063 195.745C334.578 197.353 327.07 202.281 324.096 202.109C322.67 198.944 324.631 194.527 320.177 192.055C319.03 191.416 318.196 191.564 317.187 192.297C314.001 194.615 309.638 201.45 307.095 205.015C310.12 195.57 316.285 179.057 319.75 169.908C321.617 168.232 323.026 166.399 323.78 164.401C323.958 163.937 323.417 163.086 322.572 162.497C322.296 162.305 322.017 162.164 321.768 162.08C320.958 161.192 319.474 160.472 319.192 161.209C319.178 161.239 318.209 163.762 316.739 167.644C314.418 169.696 311.371 171.505 307.977 173.086C310.224 166.752 311.785 162.534 311.801 162.49C311.976 162.023 311.431 161.172 310.587 160.587C309.739 159.998 308.912 159.9 308.737 160.368C308.717 160.422 306.483 166.466 303.496 174.98C290.515 179.975 275.183 182.121 275.109 182.135C274.517 182.219 274.544 182.892 275.17 183.635C275.796 184.379 276.788 184.91 277.38 184.823C277.447 184.816 289.987 183.057 302.1 178.99C295.924 196.821 287.74 221.972 288.268 228.659C288.315 229.258 289.052 230.109 289.917 230.557C290.778 231.004 291.44 230.883 291.393 230.284C290.845 223.318 300.22 195.176 306.45 177.412C309.306 176.292 312.047 175.034 314.489 173.625C309.548 186.837 302.443 206.32 302.211 209.826C302.097 211.531 304.421 213.549 305.817 212.557C309.369 208.611 315.182 197.689 320.241 194.594C320.393 197.48 320.396 201.026 322.559 203.182C327.026 207.639 335.775 200.878 339.808 198.271C340.787 197.628 338.059 195.092 337.063 195.745Z"/>
</g>
<g fill="#000000" opacity="1" stroke="none">
<path clip-path="url(#TextBounds_2)" d="M10.1605 129.325C10.2076 129.308 17.1403 127.277 26.7271 125.272C26.717 125.511 26.7103 125.733 26.7237 125.928C26.7851 126.958 28.4686 128.108 29.3379 128.108C29.6423 128.108 29.8469 127.967 29.8469 127.63C29.8469 127.524 29.8379 127.423 29.838 127.308C29.838 126.628 29.9649 125.701 30.1985 124.572C38.9261 122.878 49.2505 121.382 58.4908 121.382C63.7454 121.382 68.6494 121.866 72.7099 123.072C72.9017 123.129 73.0627 123.155 73.195 123.155C73.5413 123.155 73.6925 122.977 73.6925 122.712C73.6925 122.056 72.764 120.864 71.5764 120.512C67.2681 119.232 62.0927 118.721 56.5766 118.721C48.2247 118.721 39.0914 119.892 31.0024 121.336C35.6848 104.561 52.9242 64.7102 52.9814 64.5757C53.015 64.4992 53.0307 64.4173 53.0307 64.3315C53.0307 63.4424 51.3456 62.1328 50.4434 62.1328C50.2137 62.1328 50.0347 62.2177 49.9472 62.4161C49.8867 62.5608 30.7165 106.868 27.2518 122.036C16.1109 124.216 7.75536 126.664 7.70148 126.681C7.4589 126.752 7.3553 126.91 7.35539 127.115C7.35539 127.895 8.85604 129.361 9.89641 129.361C9.98853 129.361 10.0769 129.35 10.1605 129.325Z"/>
<path clip-path="url(#TextBounds_2)" d="M62.5602 97.6425C63.3474 96.6106 65.9421 96.0382 67.0554 96.0382C67.3357 96.0382 67.5223 96.0746 67.5621 96.149C67.7783 96.5466 67.8702 97.0389 67.8703 97.5839C67.8702 99.3211 66.936 101.595 66.109 103.051C64.3195 102.668 62.6409 101.746 62.1498 100.027C62.6727 99.6113 63.6089 99.4929 63.6089 98.9695C63.6089 98.6848 63.3319 98.2802 62.5602 97.6425ZM58.9442 97.9519C56.538 99.8997 53.6354 103.615 53.6354 106.922C53.6354 108.47 54.2708 109.928 55.8899 111.074C55.8251 111.205 57.3652 112.178 59.627 112.178C62.1823 112.178 65.6588 110.936 68.7832 105.837C69.1681 105.872 69.5684 105.89 69.982 105.89C73.2708 105.89 77.4032 104.732 81.3144 101.562C81.4449 101.455 81.5022 101.309 81.5023 101.142C81.5023 100.31 80.0945 98.9236 79.2078 98.9236C79.0559 98.9236 78.9193 98.9642 78.8077 99.0553C75.9501 101.387 72.4935 102.591 70.1792 103.041C70.6658 101.905 70.9021 100.749 70.9022 99.651C70.9022 97.8805 70.2874 96.2617 69.1163 95.1196C67.9684 94.0001 66.1268 93.4303 64.3222 93.4303C61.5763 93.4303 58.9161 94.7496 58.9161 97.4597C58.9161 97.619 58.9253 97.783 58.9442 97.9519ZM60.5856 101.514L60.5857 101.514C61.6419 102.829 63.1287 104.007 64.9552 104.834C63.2438 107.171 60.4031 109.765 57.9785 109.765C57.5343 109.765 57.104 109.678 56.6972 109.486C56.6501 109.338 56.6568 108.985 56.6938 108.501C56.8788 106.18 59.0014 103.199 60.5856 101.514Z"/>
<path clip-path="url(#TextBounds_2)" d="M80.3893 93.8851C80.3801 93.9096 77.2204 101.997 77.2204 107.261C77.2204 107.779 77.251 108.27 77.3182 108.723C77.6186 110.749 79.155 113.15 81.4108 113.15C81.4279 113.15 81.445 113.15 81.4623 113.15C85.0582 113.092 91.1971 104.71 93.3701 101.077C94.711 102.325 96.4748 102.804 98.4215 102.804C100.436 102.804 102.646 102.291 104.786 101.588C105.046 101.504 105.157 101.322 105.157 101.092C105.157 100.296 103.84 98.9159 102.84 98.9159C102.738 98.9159 102.639 98.9302 102.546 98.9611C101.566 99.2817 98.1128 100.145 96.084 100.145C95.4738 100.145 94.9925 100.067 94.7459 99.8726C94.7177 99.5465 94.7033 99.2832 94.7034 99.0566C94.7033 98.1776 94.9182 97.8518 95.3648 96.5627C95.4937 95.0349 93.8465 93.8155 92.9205 93.8155C92.6619 93.8155 92.4596 93.9106 92.3678 94.1206C92.2029 93.9995 91.7219 96.64 91.7084 96.8351C91.0323 98.2177 89.9257 100.007 88.6239 101.84C86.5854 104.71 82.7608 109.355 80.3018 110.31C80.2094 109.845 80.1681 109.321 80.1681 108.757C80.1681 103.875 83.2653 95.9371 83.2653 95.9371C83.2983 95.8521 83.3137 95.7625 83.3137 95.6701C83.3137 94.7537 81.8041 93.5452 80.933 93.5452C80.681 93.5452 80.4824 93.6463 80.3893 93.8851Z"/>
<path clip-path="url(#TextBounds_2)" d="M102.943 106.136C102.97 106.126 112.53 102.597 114.7 98.813C115.002 98.285 115.137 97.7403 115.137 97.2059C115.137 95.0299 112.91 93.026 110.772 93.026C110.712 93.026 110.652 93.0275 110.592 93.0307C105.834 93.2887 99.3814 101.062 99.3814 106.814C99.3814 109.763 101.077 112.181 105.567 112.783C105.935 112.832 106.314 112.856 106.702 112.856C114.966 112.856 127.203 102.128 127.238 102.096C127.364 101.986 127.419 101.832 127.419 101.653C127.419 100.749 126.013 99.1842 125.15 99.1842C125.011 99.1842 124.887 99.2245 124.784 99.3143C120.953 102.67 110.948 110.189 104.883 110.189C104.25 110.189 103.66 110.107 103.125 109.93C102.471 109.715 102.218 108.914 102.218 108.101C102.218 107.204 102.526 106.291 102.943 106.136ZM105.348 101.343C107.225 98.9139 109.95 96.4651 111.992 95.8664C111.48 97.9116 107.848 100.075 105.348 101.343Z"/>
<path clip-path="url(#TextBounds_2)" d="M175.681 62.4161C175.671 62.4397 175.244 63.4286 174.51 65.1408C151.193 67.8722 127.972 71.458 127.848 71.4747C127.544 71.5221 127.416 71.6892 127.416 71.9188C127.416 72.6908 128.865 74.1687 129.957 74.1687C130.015 74.1687 130.073 74.1645 130.129 74.1557C130.243 74.1389 151.233 70.8962 173.202 68.222C167.216 82.3702 152.449 118.035 152.449 125.63C152.449 126.899 154.036 128.108 155.068 128.108C155.374 128.108 155.581 127.966 155.581 127.63C155.581 127.519 155.571 127.414 155.571 127.294C155.571 119.414 172.423 79.3179 177.366 67.7241C191.476 66.0671 205.472 64.7387 214.122 64.7387C217.343 64.7387 219.822 64.9228 221.29 65.3426C221.472 65.3944 221.626 65.4181 221.754 65.4181C222.104 65.4181 222.256 65.2395 222.256 64.9736C222.256 64.3108 221.31 63.105 220.116 62.766C218.508 62.3059 215.809 62.1053 212.322 62.1053C204.133 62.1053 191.602 63.2121 178.678 64.6631L178.715 64.5757C178.749 64.4992 178.764 64.4173 178.764 64.3315C178.764 63.4424 177.079 62.1328 176.177 62.1328C175.947 62.1328 175.768 62.2177 175.681 62.4161Z"/>
<path clip-path="url(#TextBounds_2)" d="M207.307 98.9207C204.866 100.502 197.563 105.289 194.492 105.289C194.44 105.289 194.389 105.288 194.339 105.285C192.913 102.12 194.874 97.703 190.424 95.2306C189.929 94.9555 189.493 94.8257 189.076 94.8257C188.525 94.8257 188.007 95.0532 187.43 95.4728C184.245 97.7871 179.882 104.626 177.342 108.191C181.675 94.6588 192.455 66.6116 192.496 66.5106C192.837 65.6202 190.92 64.081 189.938 64.081C189.7 64.081 189.517 64.1718 189.435 64.3847C189.427 64.406 172.45 107.781 172.45 113.124C172.45 114.486 173.933 115.996 175.22 115.996C175.517 115.996 175.804 115.915 176.06 115.733C179.613 111.784 185.425 100.865 190.484 97.7702C190.636 100.656 190.639 104.202 192.802 106.358C193.862 107.415 195.153 107.841 196.559 107.841C201.082 107.841 206.797 103.435 209.873 101.443C210.026 101.344 210.093 101.197 210.093 101.024C210.093 100.214 208.631 98.8143 207.694 98.8143C207.55 98.8143 207.418 98.8474 207.307 98.9207Z"/>
<path clip-path="url(#TextBounds_2)" d="M210.606 93.0375C207.205 97.8813 205.749 101.242 205.409 103.452C205.231 104.619 205.362 105.564 205.698 106.304C206.59 108.272 208.884 109.675 211.033 109.012C212.641 108.518 214.922 107.145 217.495 104.777C217.509 104.764 217.522 104.754 217.532 104.75C217.65 104.663 218.05 104.357 218.71 103.66C218.02 106.19 217.334 108.696 216.597 111.02C209.91 115.851 188.21 131.886 198.322 141.51C208.833 151.537 217.734 119.184 219.587 113.361C226.308 108.518 232.861 104.525 236.137 102.53C239.821 100.286 235.138 98.9443 234.708 99.2101C230.193 101.999 225.73 104.727 221.33 107.71C222.585 103.529 223.715 98.4565 225.222 94.4805C225.545 93.6396 223.856 92.2201 222.84 92.062C222.447 91.9678 222.13 92.0284 222.023 92.3379C220.879 95.6814 217.236 99.9534 214.639 102.345C213.079 103.781 210.529 105.83 208.443 106.402C208.325 103.149 211.8 97.8477 213.56 95.3417C214.215 94.4167 211.255 92.1158 210.606 93.0375ZM204.047 138.953C202.365 140.716 200.945 141.479 199.997 140.682C193.935 133.904 209.2 121.344 214.589 117.115C211.484 126.134 207.767 135.051 204.047 138.953Z"/>
<path clip-path="url(#TextBounds_2)" d="M300.065 73.2879C300.078 73.2746 304.353 69.3407 304.353 65.9776C304.353 65.0774 304.047 64.2181 303.27 63.4858C301.799 62.0972 299.714 61.6588 297.547 61.6588C295.379 61.6588 293.129 62.098 291.336 62.4632C282.963 64.1653 274.221 67.9327 267.392 72.3325C263.125 75.0827 254.733 81.2958 254.733 87.3823C254.733 88.5838 255.06 89.7803 255.811 90.9444C262.026 100.589 281.727 99.0375 281.726 108.505C281.727 116.158 268.21 123.617 259.508 123.617C258.762 123.617 258.052 123.563 257.388 123.449C255.945 123.203 254.859 122.641 254.401 121.689C253.91 120.673 252.648 119.977 251.924 119.977C251.607 119.977 251.393 120.111 251.393 120.41C251.393 120.549 251.439 120.723 251.542 120.936C252.975 123.909 255.639 125.541 258.949 126.109C259.734 126.244 260.57 126.309 261.443 126.309C270.959 126.309 284.842 118.602 284.842 110.229C284.842 96.4448 259.512 97.8158 257.927 90.0294C257.86 89.7048 257.829 89.3759 257.829 89.044C257.829 83.6011 266.317 77.319 270.134 74.8587C276.865 70.5195 285.469 66.8092 293.694 65.1374C296.405 64.5858 298.52 64.2362 299.909 64.2362C301.143 64.2362 301.804 64.5117 301.804 65.1661C301.804 66.1302 300.368 67.9167 297.209 70.8558C297.105 70.953 297.059 71.0762 297.059 71.2159C297.059 72.0415 298.679 73.4421 299.625 73.4421C299.799 73.4421 299.95 73.3948 300.065 73.2879Z"/>
<path clip-path="url(#TextBounds_2)" d="M294.471 106.136C294.498 106.126 304.058 102.597 306.228 98.813C306.53 98.285 306.665 97.7403 306.665 97.2059C306.665 95.0299 304.438 93.026 302.3 93.026C302.24 93.026 302.18 93.0275 302.12 93.0307C297.362 93.2887 290.909 101.062 290.909 106.814C290.909 109.763 292.605 112.181 297.095 112.783C297.463 112.832 297.842 112.856 298.23 112.856C306.494 112.856 318.731 102.128 318.766 102.096C318.892 101.986 318.947 101.832 318.947 101.653C318.947 100.749 317.541 99.1842 316.678 99.1842C316.539 99.1842 316.415 99.2245 316.312 99.3143C312.481 102.67 302.476 110.189 296.411 110.189C295.778 110.189 295.188 110.107 294.653 109.93C293.999 109.715 293.746 108.914 293.746 108.101C293.746 107.204 294.054 106.291 294.471 106.136ZM296.876 101.343C298.753 98.9139 301.478 96.4651 303.52 95.8664C303.008 97.9116 299.376 100.075 296.876 101.343Z"/>
<path clip-path="url(#TextBounds_2)" d="M333.98 99.173C327.704 105.169 319.469 116.631 314.151 120.21C314.265 112.251 324.31 87.9716 329.762 74.799C331.352 70.9582 333.067 67.8212 333.066 66.4871C333.066 65.5797 331.369 64.2869 330.469 64.2869C330.226 64.2869 330.041 64.3813 329.964 64.6034C329.523 65.8682 328.319 68.7779 326.718 72.6496C321.209 85.9683 311.023 110.575 311.023 118.652C311.023 121.649 312.226 123.409 314.814 123.409C314.91 123.409 315.009 123.407 315.11 123.402C318.103 123.26 331.669 105.362 336.566 101.74C336.677 101.634 336.726 101.496 336.726 101.339C336.726 100.477 335.266 99.0229 334.385 99.0229C334.228 99.0229 334.089 99.0691 333.98 99.173Z"/>
<path clip-path="url(#TextBounds_2)" d="M358.549 99.1194C350.975 106.579 341.757 111.461 333.022 113.506C334.253 109.739 335.629 105.867 337.078 102.093C342.972 98.4198 355.828 84.197 355.828 76.1817C355.828 75.1248 355.604 74.1757 355.112 73.373C354.345 72.1217 352.979 71.0588 351.657 70.7964C351.499 70.7649 351.339 70.7494 351.177 70.7494C349.553 70.7494 347.723 72.3035 345.817 74.9642C337.535 86.537 324.165 122.017 324.165 135.792C324.165 136.042 324.169 136.286 324.178 136.521C324.289 139.504 326.582 143.073 329.476 143.073C329.923 143.073 330.385 142.988 330.855 142.801C334.378 141.405 337.143 132.672 337.143 125.036C337.143 121.743 336.629 118.655 335.44 116.446C344.334 114.401 353.538 108.992 361.308 101.384C361.427 101.267 361.479 101.125 361.479 100.969C361.479 100.146 360.026 98.9238 359.08 98.9238C358.872 98.9238 358.688 98.9832 358.549 99.1194ZM332.086 133.689C331.484 135.485 330.327 138.264 328.851 139.488C328.602 139.693 327.845 140.356 327.724 139.801C327.589 139.203 327.528 138.48 327.528 137.663C327.528 131.469 331.018 119.837 332.349 115.609C333.499 117.056 333.981 119.575 333.981 122.468C333.981 126.075 333.231 130.266 332.086 133.689ZM340.244 94.2924C342.41 89.2535 348.663 75.6268 352.505 73.8104C352.525 73.984 352.536 74.1644 352.536 74.3511C352.536 79.8598 343.702 90.8209 340.244 94.2924Z"/>
<path clip-path="url(#TextBounds_2)" d="M361.186 93.1451C359.811 96.063 356.947 102.256 356.947 106.68C356.947 107.882 357.159 108.953 357.668 109.792C358.367 110.946 359.615 111.925 360.92 112.282C361.304 112.386 361.7 112.435 362.107 112.435C367.09 112.435 373.623 105.05 376.26 101.829C376.359 101.708 376.402 101.55 376.402 101.37C376.402 100.418 375.183 98.842 374.437 98.842C374.303 98.842 374.184 98.8931 374.09 99.0082C371.734 101.898 364.345 109.76 360.253 109.76C360.218 109.76 360.184 109.76 360.15 109.759C360.042 109.394 359.992 108.964 359.992 108.484C359.992 104.727 363.009 97.894 364.217 95.3349C364.255 95.2553 364.273 95.1693 364.273 95.0786C364.273 94.194 362.589 92.8725 361.682 92.8725C361.456 92.8725 361.278 92.9543 361.186 93.1451ZM366.04 91.221L369.683 85.4319C369.739 85.343 369.765 85.2431 369.765 85.1357C369.765 84.2737 368.1 82.9297 367.184 82.9297C366.975 82.9297 366.805 82.9996 366.703 83.1614L363.06 88.9471C363.003 89.036 362.978 89.1359 362.978 89.2433C362.978 90.106 364.646 91.4513 365.561 91.4513C365.769 91.4513 365.938 91.3817 366.04 91.221Z"/>
<path clip-path="url(#TextBounds_2)" d="M374.304 106.136C374.331 106.126 383.891 102.597 386.061 98.813C386.363 98.285 386.498 97.7403 386.498 97.2059C386.498 95.0299 384.271 93.026 382.133 93.026C382.073 93.026 382.013 93.0275 381.953 93.0307C377.195 93.2887 370.742 101.062 370.742 106.814C370.742 109.763 372.438 112.181 376.928 112.783C377.296 112.832 377.675 112.856 378.063 112.856C386.327 112.856 398.564 102.128 398.599 102.096C398.725 101.986 398.78 101.832 398.78 101.653C398.78 100.749 397.374 99.1842 396.511 99.1842C396.372 99.1842 396.248 99.2245 396.145 99.3143C392.314 102.67 382.309 110.189 376.244 110.189C375.611 110.189 375.021 110.107 374.486 109.93C373.832 109.715 373.579 108.914 373.579 108.101C373.579 107.204 373.887 106.291 374.304 106.136ZM376.709 101.343C378.586 98.9139 381.311 96.4651 383.353 95.8664C382.841 97.9116 379.209 100.075 376.709 101.343Z"/>
</g>
</g>
</svg>
