<?xml version="1.0" encoding="UTF-8" standalone="no"?>
<!DOCTYPE svg PUBLIC "-//W3C//DTD SVG 1.1//EN" "http://www.w3.org/Graphics/SVG/1.1/DTD/svg11.dtd">
<!-- Created with Vectornator (http://vectornator.io/) -->
<svg height="100%" stroke-miterlimit="10" style="fill-rule:nonzero;clip-rule:evenodd;stroke-linecap:round;stroke-linejoin:round;" version="1.1" viewBox="0 0 419.58 297.675" width="100%" xml:space="preserve" xmlns="http://www.w3.org/2000/svg" xmlns:vectornator="http://vectornator.io" xmlns:xlink="http://www.w3.org/1999/xlink">
<defs>
<clipPath id="TextBounds">
<rect height="297.793" width="323.7" x="46.8263" y="-0.252272"/>
</clipPath>
</defs>
<g id="Layer-1" vectornator:layerName="Layer 1">
<g fill="#312d2c" opacity="1" stroke="none">
<path clip-path="url(#TextBounds)" d="M143.48 71.1277C146.8 69.4677 149.871 67.9737 153.274 67.0607C156.179 66.2307 159.167 65.7327 162.238 66.3967C163.234 66.6457 164.23 66.9777 164.977 67.8077C165.309 68.2227 165.558 68.7207 165.226 69.3847C164.894 69.8827 164.396 69.9657 163.898 69.8827C160.246 68.8867 156.843 69.9657 153.523 71.2937C148.958 73.0367 144.642 75.2777 140.741 78.1827C140.243 78.5977 139.662 79.0127 138.998 79.2617C137.421 79.7597 136.093 78.4317 136.508 76.7717C136.591 76.4397 136.674 76.1907 136.84 75.9417C142.65 63.0767 148.128 50.1287 153.025 36.9317C153.606 35.3547 154.353 33.7777 155.017 32.2007C155.183 31.7857 155.432 31.2877 155.764 30.8727C156.179 30.1257 156.843 29.6277 157.756 29.9597C158.835 30.2917 159.001 31.2047 158.835 32.1177C158.669 33.0307 158.42 33.9437 158.171 34.8567C156.843 39.3387 155.1 43.6547 153.357 47.9707C150.535 55.0257 147.298 61.9147 144.227 68.8037C143.895 69.4677 143.397 70.0487 143.48 71.1277Z"/>
<path clip-path="url(#TextBounds)" d="M167.052 61.2507C170.206 60.4207 171.949 58.6777 173.111 56.1877C173.526 55.4407 173.692 54.6937 172.862 54.0297C172.198 53.4487 170.87 53.5317 170.206 54.1957C168.463 56.0217 167.633 58.2627 167.052 61.2507ZM163.649 60.4207C163.649 59.0097 164.064 57.7647 164.562 56.6027C165.06 55.5237 165.641 54.4447 165.89 53.3657C166.388 51.5397 169.957 50.2117 171.617 50.9587C172.115 51.1247 172.696 51.2907 173.277 51.5397C175.103 52.2867 176.099 53.8637 175.601 55.6897C174.522 59.5907 172.115 62.4127 168.38 63.8237C165.724 64.8197 163.649 63.2427 163.649 60.4207Z"/>
<path clip-path="url(#TextBounds)" d="M181.411 59.4247C185.063 55.8557 187.304 51.2907 190.458 47.3897C191.205 48.3857 190.79 49.0497 190.541 49.6307C188.466 54.1957 185.976 58.4287 182.905 62.3297C182.241 63.1597 181.494 63.9067 180.581 64.3217C179.004 64.9857 177.427 64.4047 176.846 62.7447C176.597 61.9977 176.597 61.2507 176.597 60.5037C176.846 58.0967 177.51 55.7727 178.589 53.5317C178.838 53.0337 179.17 52.5357 179.585 52.1207C180.166 51.4567 180.913 51.1247 181.743 51.5397C182.49 51.9547 182.656 52.7017 182.49 53.4487C182.241 54.9427 181.826 56.3537 181.411 57.7647C181.328 58.1797 181.162 58.5947 181.411 59.4247Z"/>
<path clip-path="url(#TextBounds)" d="M198.343 53.6147C196.019 54.4447 194.525 56.2707 194.857 58.1797C197.181 57.2667 198.343 55.7727 198.343 53.6147ZM188.051 65.0687C187.885 64.0727 187.885 62.9937 188.217 61.9977C189.296 58.0967 191.454 54.7767 194.691 52.2867C195.438 51.7057 196.268 51.2077 197.264 51.0417C199.422 50.5437 200.916 51.8717 200.833 54.0297C200.667 56.7687 197.513 60.7527 194.94 61.4997C194.525 61.6657 194.11 61.6657 193.612 61.6657C193.197 61.7487 192.533 61.2507 192.201 61.8317C191.869 62.5787 191.62 63.4087 191.703 64.2387C191.786 64.7367 192.284 64.9027 192.699 64.8197C193.695 64.8197 194.608 64.4877 195.521 64.1557C198.509 62.9107 200.999 61.0847 203.406 58.9267C204.153 58.1797 205.73 56.5197 206.145 56.9347C206.56 57.3497 205.481 59.0927 204.817 59.8397C202.078 63.2427 198.758 65.8157 194.691 67.3927C193.695 67.8077 192.699 68.0567 191.62 68.0567C189.711 67.9737 188.466 66.9777 188.051 65.0687Z"/>
<path clip-path="url(#TextBounds)" d="M232.207 73.2857C233.701 71.9577 233.95 69.8827 235.527 68.0567C235.444 70.9617 234.863 73.2857 233.369 75.1947C232.207 76.6887 230.713 76.3567 229.883 74.6967C229.468 73.8667 229.385 72.9537 229.302 72.1237C228.97 68.5547 229.468 64.9857 230.381 61.5827C232.871 51.7057 236.191 42.0777 240.922 32.9477C241.088 32.6987 241.171 32.4497 241.254 32.2007C240.673 31.7027 240.092 32.0347 239.511 32.1177C233.452 33.3627 227.476 35.0227 221.666 37.1807C221.002 37.4297 220.338 37.7617 219.508 37.6787C218.761 37.6787 218.263 37.4297 217.931 36.7657C217.682 36.0187 217.848 35.4377 218.346 34.9397C218.927 34.2757 219.757 34.0267 220.504 33.6947C225.567 31.4537 230.879 30.1257 236.357 28.9637C242.001 27.8847 247.645 26.8887 253.372 26.3907C255.198 26.2247 256.941 26.3907 258.684 26.7227C259.348 26.8057 259.929 27.1377 260.51 27.3867C261.34 27.8847 261.921 28.6317 261.672 29.6277C261.423 30.6237 260.759 31.1217 259.763 31.2877C259.265 31.4537 258.601 31.3707 258.684 30.6237C258.767 29.2127 257.771 29.5447 257.107 29.4617C254.451 29.4617 251.961 29.8767 249.388 30.2917C248.973 30.3747 248.641 30.4577 248.475 30.7897C247.894 31.6197 247.894 33.0307 246.234 32.4497C246.151 32.4497 245.57 33.5287 245.321 34.1097C242.416 40.0857 239.926 46.2277 237.519 52.4527C235.527 57.7647 233.535 63.0767 232.29 68.6377C231.958 70.1317 231.875 71.7087 232.207 73.2857Z"/>
<path clip-path="url(#TextBounds)" d="M252.874 51.8717C258.518 47.8047 262.336 42.6587 263.498 35.8527C263.747 34.6077 263.83 33.3627 263.415 32.1177C263.083 31.1217 262.668 31.0387 261.838 31.7857C261.008 32.6157 260.344 33.6117 259.763 34.6077C256.692 39.6707 254.534 45.1487 252.708 50.7927C252.625 51.0417 252.542 51.3737 252.874 51.8717ZM247.23 62.1637C247.147 59.2587 247.645 56.4367 248.143 53.6147C249.305 47.6387 251.131 41.8287 254.036 36.5167C255.032 34.6907 256.111 32.9477 257.522 31.3707C258.103 30.6237 258.767 29.8767 259.514 29.2957C262.336 27.1377 264.826 28.1337 265.573 31.5367C266.071 33.7777 265.739 36.0187 265.241 38.0937C263.249 46.0617 259.016 52.2037 251.878 56.3537C251.297 56.6857 250.965 57.0177 250.882 57.6817C250.716 59.0097 250.218 60.2547 250.467 61.7487C251.297 61.4997 251.38 60.6697 251.712 60.1717C252.459 59.0927 253.04 58.0137 253.87 57.1007C254.949 55.7727 256.36 56.1047 256.941 57.6817C257.273 58.6777 257.273 59.6737 257.273 60.7527C257.273 61.7487 257.19 62.8277 257.356 63.8237C257.522 64.9857 257.937 65.2347 259.016 64.8197C259.929 64.4047 260.676 63.8237 261.34 63.1597C263 61.6657 266.403 56.9347 267.399 57.4327C268.229 57.8477 262.668 65.2347 260.178 66.9777C257.439 68.9697 254.783 67.7247 254.285 64.3217C254.119 63.0767 254.368 61.9147 253.953 60.5037C253.372 61.5827 252.791 62.6617 252.293 63.7407C251.961 64.3217 251.795 64.8197 251.463 65.3177C250.55 66.8117 249.056 66.7287 248.06 65.3177C247.479 64.3217 247.313 63.2427 247.23 62.1637Z"/>
<path clip-path="url(#TextBounds)" d="M272.13 67.8907C268.727 69.9657 266.486 72.7877 265.407 76.6057C265.158 77.4357 264.826 78.2657 265.905 79.0127C268.893 75.7757 270.636 71.9577 272.13 67.8907ZM263.166 79.2617C262.834 78.0167 263 76.7717 263.498 75.6097C265.158 71.2937 267.897 67.8907 272.296 66.1477C273.043 65.8157 273.458 65.3177 273.707 64.6537C274.454 62.0807 275.201 59.5077 275.367 56.8517C274.62 56.7687 274.62 57.4327 274.371 57.7647C273.624 58.7607 273.043 59.8397 272.296 60.9187C271.715 61.7487 271.051 62.5787 270.221 63.2427C269.225 64.0727 268.146 64.7367 266.818 64.1557C265.407 63.5747 264.992 62.3297 264.992 60.9187C264.992 57.9307 265.905 55.2747 267.482 52.7847C267.731 52.4527 267.98 52.2037 268.312 51.9547C268.893 51.4567 269.64 51.2077 270.304 51.7057C271.051 52.2037 270.968 52.9507 270.553 53.6977C269.474 55.8557 268.893 58.1797 268.561 60.7527C269.723 60.5037 270.304 59.6737 270.885 58.9267C272.296 57.1837 273.458 55.1087 274.371 53.0337C274.62 52.5357 274.869 51.9547 275.201 51.4567C276.031 50.2947 277.442 50.2117 278.272 51.4567C278.936 52.2867 279.102 53.2827 279.185 54.3617C279.351 56.6857 279.019 58.9267 278.438 61.1677C276.778 67.2267 274.039 72.7047 270.636 77.9337C269.806 79.0957 268.976 80.1747 267.731 81.0047C265.822 82.4157 263.747 81.5857 263.166 79.2617Z"/>
<path clip-path="url(#TextBounds)" d="M178.132 167.725C178.879 165.733 178.63 164.571 177.053 163.16C176.555 162.745 175.974 162.413 175.476 161.998C174.646 161.251 173.816 161.334 172.903 161.915C169.749 163.907 166.844 166.148 164.354 168.97C162.694 170.796 161.283 172.705 160.453 175.029C159.54 177.602 160.37 178.764 163.192 178.681L163.856 178.681C169.832 177.187 174.563 173.867 177.8 168.555C177.966 168.306 178.049 168.057 178.132 167.725ZM157.133 175.859C157.631 173.784 158.627 172.041 159.872 170.298C162.445 166.646 165.765 163.824 169.583 161.417C170.164 161.085 170.745 160.753 171.243 160.338C171.409 160.255 171.409 160.089 171.492 159.923C169.749 158.927 168.006 157.931 166.429 156.852C163.524 154.86 161.449 152.287 160.702 148.718C160.204 146.228 160.536 143.655 161.532 141.331C165.433 132.45 172.073 126.391 181.452 123.569C183.029 123.154 184.689 123.071 186.266 123.32C188.922 123.901 190.582 125.727 190.748 128.383C190.831 129.877 190.499 131.371 190.001 132.699C189.005 135.355 187.594 137.762 186.017 140.169C184.855 141.829 183.361 143.323 182.448 145.232C182.116 146.062 181.286 146.311 180.373 145.979C179.46 145.647 179.377 144.817 179.543 143.904C179.792 143.157 180.29 142.493 180.788 141.829C182.033 140.003 183.361 138.26 184.606 136.351C185.768 134.525 186.764 132.533 187.262 130.375C187.926 127.636 186.847 126.474 183.942 126.806C182.614 126.972 181.369 127.304 180.207 127.885C173.982 130.79 169.5 135.438 166.678 141.663C166.18 142.576 165.931 143.572 165.765 144.568C165.267 147.473 166.097 149.797 168.255 151.789C168.753 152.204 169.251 152.702 169.832 153.034C172.156 154.528 174.646 155.939 177.053 157.267C179.543 156.022 181.95 155.026 182.199 155.607C182.448 156.105 180.954 157.267 178.962 158.429C180.207 159.342 181.286 160.753 182.116 162.164C182.863 163.741 183.195 165.401 182.863 167.144C182.614 168.721 182.033 170.215 181.037 171.626C177.136 177.104 171.824 180.673 165.267 182.167C163.441 182.582 161.532 182.333 159.872 181.503C157.548 180.424 156.552 178.349 157.133 175.859Z"/>
<path clip-path="url(#TextBounds)" d="M195.728 153.615C193.404 154.445 191.91 156.271 192.242 158.18C194.566 157.267 195.728 155.773 195.728 153.615ZM185.436 165.069C185.27 164.073 185.27 162.994 185.602 161.998C186.681 158.097 188.839 154.777 192.076 152.287C192.823 151.706 193.653 151.208 194.649 151.042C196.807 150.544 198.301 151.872 198.218 154.03C198.052 156.769 194.898 160.753 192.325 161.5C191.91 161.666 191.495 161.666 190.997 161.666C190.582 161.749 189.918 161.251 189.586 161.832C189.254 162.579 189.005 163.409 189.088 164.239C189.171 164.737 189.669 164.903 190.084 164.82C191.08 164.82 191.993 164.488 192.906 164.156C195.894 162.911 198.384 161.085 200.791 158.927C201.538 158.18 203.115 156.52 203.53 156.935C203.945 157.35 202.866 159.093 202.202 159.84C199.463 163.243 196.143 165.816 192.076 167.393C191.08 167.808 190.084 168.057 189.005 168.057C187.096 167.974 185.851 166.978 185.436 165.069Z"/>
<path clip-path="url(#TextBounds)" d="M206.767 155.524C210.668 152.868 213.988 150.046 216.81 146.726C220.296 142.742 222.869 138.26 224.363 133.114C224.612 132.118 224.778 131.039 224.695 130.043C224.612 128.715 224.114 128.466 223.035 129.213C221.458 130.209 220.213 131.537 219.051 133.031C214.154 139.173 210.17 145.896 207.348 153.283C207.099 153.864 206.767 154.445 206.767 155.524ZM200.874 163.16C200.791 160.338 201.372 157.682 202.285 155.109C205.273 145.979 210.087 137.928 216.395 130.79C217.64 129.296 219.051 128.051 220.711 127.055C221.458 126.557 222.288 126.225 223.201 126.059C224.861 125.81 226.106 126.64 226.521 128.217C226.853 129.711 226.687 131.205 226.272 132.616C223.118 144.236 216.561 153.366 206.352 159.84C205.107 160.587 204.941 161.583 204.858 162.745C204.609 166.48 206.02 167.476 209.506 166.148C213.241 164.737 216.146 162.164 218.885 159.342C219.798 158.429 221.292 156.271 221.873 156.603C222.288 156.852 221.541 158.429 221.126 159.093C218.221 163.492 214.569 166.978 209.755 168.97C204.443 171.128 200.957 168.804 200.874 163.16Z"/>
<path clip-path="url(#TextBounds)" d="M223.201 170.381C222.869 169.551 222.371 168.638 221.209 168.555C220.379 168.555 219.217 169.551 218.885 170.63C218.138 173.203 217.474 175.859 217.142 178.598C216.976 179.76 216.976 181.088 217.225 182.25C217.391 183.246 217.972 183.495 218.802 182.914C219.134 182.748 219.383 182.499 219.632 182.25C222.122 179.677 223.367 176.523 223.699 172.954C223.782 172.041 223.616 171.211 223.201 170.381ZM213.573 182.167C213.241 179.594 213.573 177.021 214.071 174.448C215.482 167.725 217.806 161.334 221.043 155.192C221.873 153.698 222.786 152.121 224.031 150.793C224.529 150.212 225.11 149.631 226.023 149.548C227.268 149.299 228.264 149.963 228.264 151.208C228.264 153.449 227.351 155.524 226.521 157.599C226.272 158.18 225.608 158.014 225.276 157.433C225.11 157.101 225.027 156.603 224.861 156.022C223.45 158.18 222.62 160.504 221.624 162.828C222.371 162.994 222.786 162.496 223.201 162.247C227.932 159.093 232.912 156.603 238.058 154.279C238.39 154.113 238.722 153.947 239.054 153.864C241.046 153.283 242.457 154.279 242.54 156.354C242.54 157.599 242.125 158.844 241.71 160.006C240.797 162.745 239.801 165.401 238.888 168.14C238.639 168.804 238.141 169.468 239.054 170.298C239.718 170.796 239.137 172.124 238.224 172.622C237.311 173.203 236.481 172.954 235.817 172.207C235.07 171.377 235.07 170.298 235.153 169.302C235.402 166.48 235.983 163.741 236.896 161.085C237.228 160.006 237.56 159.01 237.975 157.931C235.485 158.097 227.019 162.496 223.035 165.567C222.952 165.899 223.118 165.982 223.284 166.065C225.691 167.725 226.604 169.966 226.521 172.788C226.355 177.27 224.695 181.171 221.624 184.574C221.458 184.74 221.375 184.906 221.126 184.989C219.715 186.151 218.304 187.147 216.312 186.4C214.403 185.653 213.822 183.993 213.573 182.167ZM240.299 147.556C240.133 146.56 241.129 145.564 242.457 145.564C243.287 145.564 244.034 145.896 244.2 146.975C244.366 147.888 243.204 148.967 242.125 149.05C241.129 149.05 240.465 148.469 240.299 147.556Z"/>
<path clip-path="url(#TextBounds)" d="M254.99 153.615C252.666 154.445 251.172 156.271 251.504 158.18C253.828 157.267 254.99 155.773 254.99 153.615ZM244.698 165.069C244.532 164.073 244.532 162.994 244.864 161.998C245.943 158.097 248.101 154.777 251.338 152.287C252.085 151.706 252.915 151.208 253.911 151.042C256.069 150.544 257.563 151.872 257.48 154.03C257.314 156.769 254.16 160.753 251.587 161.5C251.172 161.666 250.757 161.666 250.259 161.666C249.844 161.749 249.18 161.251 248.848 161.832C248.516 162.579 248.267 163.409 248.35 164.239C248.433 164.737 248.931 164.903 249.346 164.82C250.342 164.82 251.255 164.488 252.168 164.156C255.156 162.911 257.646 161.085 260.053 158.927C260.8 158.18 262.377 156.52 262.792 156.935C263.207 157.35 262.128 159.093 261.464 159.84C258.725 163.243 255.405 165.816 251.338 167.393C250.342 167.808 249.346 168.057 248.267 168.057C246.358 167.974 245.113 166.978 244.698 165.069Z"/>
<path clip-path="url(#TextBounds)" d="M138.458 243.572C135.47 244.983 132.814 246.809 130.241 248.801C128.581 250.129 127.004 251.623 125.759 253.366C125.095 254.279 123.933 255.441 124.763 256.271C125.593 257.267 126.921 256.188 127.834 255.524C132.399 252.453 135.636 248.137 138.458 243.572ZM109.242 269.8C109.325 267.725 109.574 265.65 109.989 263.658C111.981 253.781 114.471 244.07 118.538 234.857C120.115 231.122 121.941 227.47 124.348 224.15C124.929 223.32 125.593 222.49 126.423 221.909C127.253 221.411 128.083 221.328 128.913 221.909C129.66 222.49 129.743 223.32 129.494 224.15C129.245 224.897 128.83 225.478 128.498 226.142C127.004 229.13 125.51 232.201 124.265 235.438C126.091 233.363 127.751 231.371 129.66 229.545C131.818 227.47 134.059 225.561 136.632 224.067C137.96 223.237 139.371 222.573 140.865 222.158C145.015 221.079 148.252 223.32 148.667 227.636C148.999 230.209 148.418 232.782 147.588 235.189C147.09 236.434 146.509 237.513 147.837 238.758C148.501 239.339 148.003 240.252 147.007 240.086C145.596 239.92 145.098 240.75 144.517 241.746C141.363 247.141 137.628 252.038 132.897 256.105C130.988 257.682 128.996 259.093 126.589 259.757C124.846 260.255 123.186 260.089 121.858 258.761C120.613 257.433 120.696 255.773 121.194 254.196C121.526 252.785 122.356 251.623 123.186 250.544C124.763 248.552 126.672 246.892 128.664 245.398C132.399 242.825 136.3 240.584 140.45 238.841C141.197 238.509 141.944 238.26 142.276 237.43C143.438 234.857 144.517 232.367 144.766 229.628C144.849 229.047 144.849 228.466 144.766 227.885C144.517 225.976 143.604 225.229 141.778 225.644C140.118 225.976 138.707 226.723 137.379 227.636C133.727 230.043 130.739 233.031 128 236.434C122.024 243.738 118.206 252.121 115.384 261.085C114.388 264.239 113.475 267.393 112.811 270.63C112.645 271.709 112.479 272.705 113.641 273.369C114.388 273.867 113.973 274.448 113.475 274.863C112.396 275.776 110.902 275.444 110.072 274.033C109.325 272.788 109.159 271.294 109.242 269.8Z"/>
<path clip-path="url(#TextBounds)" d="M150.659 251.872C156.303 247.805 160.121 242.659 161.283 235.853C161.532 234.608 161.615 233.363 161.2 232.118C160.868 231.122 160.453 231.039 159.623 231.786C158.793 232.616 158.129 233.612 157.548 234.608C154.477 239.671 152.319 245.149 150.493 250.793C150.41 251.042 150.327 251.374 150.659 251.872ZM145.015 262.164C144.932 259.259 145.43 256.437 145.928 253.615C147.09 247.639 148.916 241.829 151.821 236.517C152.817 234.691 153.896 232.948 155.307 231.371C155.888 230.624 156.552 229.877 157.299 229.296C160.121 227.138 162.611 228.134 163.358 231.537C163.856 233.778 163.524 236.019 163.026 238.094C161.034 246.062 156.801 252.204 149.663 256.354C149.082 256.686 148.75 257.018 148.667 257.682C148.501 259.01 148.003 260.255 148.252 261.749C149.082 261.5 149.165 260.67 149.497 260.172C150.244 259.093 150.825 258.014 151.655 257.101C152.734 255.773 154.145 256.105 154.726 257.682C155.058 258.678 155.058 259.674 155.058 260.753C155.058 261.749 154.975 262.828 155.141 263.824C155.307 264.986 155.722 265.235 156.801 264.82C157.714 264.405 158.461 263.824 159.125 263.16C160.785 261.666 164.188 256.935 165.184 257.433C166.014 257.848 160.453 265.235 157.963 266.978C155.224 268.97 152.568 267.725 152.07 264.322C151.904 263.077 152.153 261.915 151.738 260.504C151.157 261.583 150.576 262.662 150.078 263.741C149.746 264.322 149.58 264.82 149.248 265.318C148.335 266.812 146.841 266.729 145.845 265.318C145.264 264.322 145.098 263.243 145.015 262.164Z"/>
<path clip-path="url(#TextBounds)" d="M166.18 261.251C169.334 260.421 171.077 258.678 172.239 256.188C172.654 255.441 172.82 254.694 171.99 254.03C171.326 253.449 169.998 253.532 169.334 254.196C167.591 256.022 166.761 258.263 166.18 261.251ZM162.777 260.421C162.777 259.01 163.192 257.765 163.69 256.603C164.188 255.524 164.769 254.445 165.018 253.366C165.516 251.54 169.085 250.212 170.745 250.959C171.243 251.125 171.824 251.291 172.405 251.54C174.231 252.287 175.227 253.864 174.729 255.69C173.65 259.591 171.243 262.413 167.508 263.824C164.852 264.82 162.777 263.243 162.777 260.421Z"/>
<path clip-path="url(#TextBounds)" d="M184.523 246.145C186.432 244.734 187.262 243.821 188.175 242.161C185.768 242.078 185.768 242.161 184.523 246.145ZM169.998 243.987C169.749 243.406 169.915 242.825 170.413 242.41C170.911 241.995 171.575 241.829 172.239 241.58C174.978 240.667 177.8 240.086 180.622 239.671C181.95 239.505 182.697 238.841 183.278 237.762C184.523 235.355 185.934 233.114 187.76 231.205C188.756 230.209 189.835 229.213 191.163 228.715C193.985 227.47 196.06 228.964 195.811 232.035C195.728 233.197 195.396 234.359 194.898 235.438C194.483 236.351 194.151 237.347 193.57 238.509C195.23 238.758 196.807 238.675 198.218 239.09C199.131 239.256 199.961 239.505 200.542 240.252C200.791 240.75 200.957 241.248 200.625 241.746C200.293 242.327 199.795 242.161 199.297 241.912C197.056 240.916 194.815 241.414 192.491 241.497C191.744 241.497 191.412 242.078 190.997 242.659C188.756 245.813 186.266 248.884 182.863 250.959C182.365 251.208 182.199 251.706 182.033 252.204C180.456 257.018 179.128 261.832 179.294 266.895C179.294 268.14 179.46 269.385 179.792 270.63C180.373 272.456 180.788 272.705 182.697 272.29C182.946 272.207 183.195 272.207 183.776 272.124C182.78 274.946 180.456 275.61 178.63 273.784C177.468 272.539 176.887 271.045 176.638 269.385C175.559 263.243 176.057 257.184 177.8 251.291C178.381 249.133 179.128 247.058 179.875 244.983C180.041 244.402 180.456 243.904 180.207 243.074L173.318 244.568C172.571 244.734 171.907 244.9 171.16 244.9C170.579 244.817 170.164 244.568 169.998 243.987ZM188.009 238.509C190.831 238.841 190.831 238.841 191.827 236.683C192.325 235.687 192.823 234.608 192.989 233.529C193.155 233.114 193.238 232.616 192.823 232.118C190.665 233.861 189.42 236.019 188.009 238.509Z"/>
<path clip-path="url(#TextBounds)" d="M189.171 261.251C192.325 260.421 194.068 258.678 195.23 256.188C195.645 255.441 195.811 254.694 194.981 254.03C194.317 253.449 192.989 253.532 192.325 254.196C190.582 256.022 189.752 258.263 189.171 261.251ZM185.768 260.421C185.768 259.01 186.183 257.765 186.681 256.603C187.179 255.524 187.76 254.445 188.009 253.366C188.507 251.54 192.076 250.212 193.736 250.959C194.234 251.125 194.815 251.291 195.396 251.54C197.222 252.287 198.218 253.864 197.72 255.69C196.641 259.591 194.234 262.413 190.499 263.824C187.843 264.82 185.768 263.243 185.768 260.421Z"/>
<path clip-path="url(#TextBounds)" d="M245.445 256.437C244.781 256.437 244.366 256.437 243.951 256.52C242.706 256.769 241.461 257.018 240.299 257.516C233.493 260.172 227.932 264.571 223.45 270.298C222.869 271.128 222.288 271.958 221.956 272.954C221.458 274.78 221.956 275.527 223.782 275.527C225.359 275.61 226.853 274.946 228.181 274.199C234.157 270.962 239.137 266.563 243.038 261.002C244.034 259.674 244.781 258.263 245.445 256.437ZM212.826 278.847C212.992 276.689 213.241 274.614 213.573 272.456C215.15 262.579 217.474 252.785 220.711 243.24C221.707 240.335 222.869 237.43 224.612 234.857C225.193 233.944 225.857 233.031 226.853 232.45C227.849 231.869 228.762 232.035 229.177 232.782C229.675 233.529 229.426 234.276 228.347 234.857C227.6 235.189 227.351 235.853 227.019 236.517C225.525 239.339 224.446 242.327 223.367 245.315C222.454 248.137 221.458 250.959 220.711 254.113C221.541 253.366 221.707 252.619 222.039 251.872C224.446 247.058 227.102 242.41 230.422 238.094C232.331 235.687 234.406 233.529 236.896 231.786C238.888 230.458 240.963 229.379 243.453 229.13C244.781 229.047 246.109 229.13 246.939 230.375C247.769 231.62 247.354 232.865 246.773 234.027C246.192 235.189 245.362 236.185 244.449 237.181C242.706 239.173 240.797 240.916 238.888 242.576C238.39 243.074 237.643 243.406 237.311 244.236C238.141 244.485 238.805 244.236 239.552 244.153C241.129 243.904 242.623 244.153 244.117 244.568C247.354 245.481 249.263 248.054 249.512 251.374C249.595 254.03 249.014 256.437 247.935 258.678C243.702 267.144 237.311 273.369 228.928 277.519C227.268 278.349 225.442 278.847 223.616 278.681C219.798 278.432 217.972 275.61 219.217 272.041C219.632 270.796 220.296 269.717 221.043 268.721C225.608 262.994 231.252 258.512 238.141 255.773C240.548 254.86 243.038 254.113 245.611 255.109C247.52 250.876 245.611 247.473 241.212 247.141C238.888 247.058 236.647 247.639 234.489 248.137C233.659 248.303 232.912 248.552 232.082 248.635C231.252 248.718 230.588 248.469 230.256 247.722C229.924 246.975 230.173 246.394 230.671 245.896C231.086 245.398 231.584 244.983 232.082 244.568C235.485 241.746 238.805 239.007 241.71 235.687C242.623 234.691 243.536 233.612 244.2 232.201C243.204 231.703 242.374 231.952 241.627 232.201C239.137 232.948 237.145 234.442 235.236 236.185C232.414 238.841 230.173 241.912 228.181 245.232C223.284 253.117 219.881 261.666 217.557 270.63C216.976 273.12 216.395 275.527 215.814 278.017L215.565 279.262C215.316 280.009 214.984 280.756 214.071 280.673C212.992 280.59 212.743 279.677 212.826 278.847Z"/>
<path clip-path="url(#TextBounds)" d="M270.096 262.662C273.001 261.002 273.914 258.512 272.586 256.105C271.341 258.097 270.345 260.089 270.096 262.662ZM248.682 264.903C249.014 261.334 250.757 258.429 253.081 255.856C253.911 254.943 254.741 254.03 255.073 252.619C255.488 250.793 257.729 249.963 259.555 250.793C260.8 251.291 261.713 252.121 262.377 253.2C262.792 253.947 263.373 254.279 264.203 254.196C265.531 254.113 266.859 254.113 268.187 253.864C269.349 253.615 270.428 253.283 271.175 252.204C271.59 251.623 272.171 251.125 272.918 250.959C274.495 250.627 275.657 251.623 275.242 253.117C274.993 253.947 275.159 254.528 275.574 255.192C278.064 259.508 274.329 264.82 271.258 265.982C268.519 267.061 266.195 265.318 266.278 262.33C266.278 261.002 266.693 259.757 267.191 258.512L267.44 257.35C266.61 257.018 266.029 257.267 265.448 257.267C263.954 257.184 263.207 257.848 262.792 259.425C261.796 262.911 259.638 265.733 256.65 267.891C255.903 268.389 255.073 268.887 254.077 269.136C250.923 270.132 248.433 268.223 248.682 264.903ZM252.915 265.484C256.484 264.488 258.559 262.081 259.887 258.844C260.385 257.682 260.302 257.433 258.974 257.35C258.144 257.267 257.231 256.354 256.484 257.267C254.575 259.591 253.164 262.247 252.915 265.484Z"/>
<path clip-path="url(#TextBounds)" d="M288.522 246.145C290.431 244.734 291.261 243.821 292.174 242.161C289.767 242.078 289.767 242.161 288.522 246.145ZM273.997 243.987C273.748 243.406 273.914 242.825 274.412 242.41C274.91 241.995 275.574 241.829 276.238 241.58C278.977 240.667 281.799 240.086 284.621 239.671C285.949 239.505 286.696 238.841 287.277 237.762C288.522 235.355 289.933 233.114 291.759 231.205C292.755 230.209 293.834 229.213 295.162 228.715C297.984 227.47 300.059 228.964 299.81 232.035C299.727 233.197 299.395 234.359 298.897 235.438C298.482 236.351 298.15 237.347 297.569 238.509C299.229 238.758 300.806 238.675 302.217 239.09C303.13 239.256 303.96 239.505 304.541 240.252C304.79 240.75 304.956 241.248 304.624 241.746C304.292 242.327 303.794 242.161 303.296 241.912C301.055 240.916 298.814 241.414 296.49 241.497C295.743 241.497 295.411 242.078 294.996 242.659C292.755 245.813 290.265 248.884 286.862 250.959C286.364 251.208 286.198 251.706 286.032 252.204C284.455 257.018 283.127 261.832 283.293 266.895C283.293 268.14 283.459 269.385 283.791 270.63C284.372 272.456 284.787 272.705 286.696 272.29C286.945 272.207 287.194 272.207 287.775 272.124C286.779 274.946 284.455 275.61 282.629 273.784C281.467 272.539 280.886 271.045 280.637 269.385C279.558 263.243 280.056 257.184 281.799 251.291C282.38 249.133 283.127 247.058 283.874 244.983C284.04 244.402 284.455 243.904 284.206 243.074L277.317 244.568C276.57 244.734 275.906 244.9 275.159 244.9C274.578 244.817 274.163 244.568 273.997 243.987ZM292.008 238.509C294.83 238.841 294.83 238.841 295.826 236.683C296.324 235.687 296.822 234.608 296.988 233.529C297.154 233.114 297.237 232.616 296.822 232.118C294.664 233.861 293.419 236.019 292.008 238.509Z"/>
<path clip-path="url(#TextBounds)" d="M295.909 251.872C301.553 247.805 305.371 242.659 306.533 235.853C306.782 234.608 306.865 233.363 306.45 232.118C306.118 231.122 305.703 231.039 304.873 231.786C304.043 232.616 303.379 233.612 302.798 234.608C299.727 239.671 297.569 245.149 295.743 250.793C295.66 251.042 295.577 251.374 295.909 251.872ZM290.265 262.164C290.182 259.259 290.68 256.437 291.178 253.615C292.34 247.639 294.166 241.829 297.071 236.517C298.067 234.691 299.146 232.948 300.557 231.371C301.138 230.624 301.802 229.877 302.549 229.296C305.371 227.138 307.861 228.134 308.608 231.537C309.106 233.778 308.774 236.019 308.276 238.094C306.284 246.062 302.051 252.204 294.913 256.354C294.332 256.686 294 257.018 293.917 257.682C293.751 259.01 293.253 260.255 293.502 261.749C294.332 261.5 294.415 260.67 294.747 260.172C295.494 259.093 296.075 258.014 296.905 257.101C297.984 255.773 299.395 256.105 299.976 257.682C300.308 258.678 300.308 259.674 300.308 260.753C300.308 261.749 300.225 262.828 300.391 263.824C300.557 264.986 300.972 265.235 302.051 264.82C302.964 264.405 303.711 263.824 304.375 263.16C306.035 261.666 309.438 256.935 310.434 257.433C311.264 257.848 305.703 265.235 303.213 266.978C300.474 268.97 297.818 267.725 297.32 264.322C297.154 263.077 297.403 261.915 296.988 260.504C296.407 261.583 295.826 262.662 295.328 263.741C294.996 264.322 294.83 264.82 294.498 265.318C293.585 266.812 292.091 266.729 291.095 265.318C290.514 264.322 290.348 263.243 290.265 262.164Z"/>
</g>
</g>
</svg>
