<?xml version="1.0" encoding="UTF-8" standalone="no"?>
<!DOCTYPE svg PUBLIC "-//W3C//DTD SVG 1.1//EN" "http://www.w3.org/Graphics/SVG/1.1/DTD/svg11.dtd">
<!-- Created with Vectornator (http://vectornator.io/) -->
<svg height="100%" stroke-miterlimit="10" style="fill-rule:nonzero;clip-rule:evenodd;stroke-linecap:round;stroke-linejoin:round;" version="1.1" viewBox="0 0 836.325 70.875" width="100%" xml:space="preserve" xmlns="http://www.w3.org/2000/svg" xmlns:vectornator="http://vectornator.io" xmlns:xlink="http://www.w3.org/1999/xlink">
<defs/>
<g id="Layer-1" vectornator:layerName="Layer 1">
<g fill="#fff9f4" opacity="1" stroke="none">
<path d="M5.45856 4.27567C5.93856 3.79567 6.49856 3.55567 7.13856 3.55567C7.77856 3.55567 8.33856 3.78567 8.81856 4.24567C9.29856 4.70567 9.53856 5.25567 9.53856 5.89567L9.53856 6.97567C9.53856 7.65567 9.55856 8.53567 9.59856 9.61567C9.63856 10.6957 9.65856 12.1757 9.65856 14.0557L9.65856 23.0557C9.65856 24.5357 9.65856 25.9757 9.65856 27.3757C9.69856 28.8157 9.71856 30.1357 9.71856 31.3357C9.75856 32.5757 9.77856 33.7757 9.77856 34.9357C9.77856 36.0957 9.75856 37.1957 9.71856 38.2357C9.71856 39.2357 9.69856 40.1757 9.65856 41.0557C9.65856 41.9357 9.64856 42.6957 9.62856 43.3357C9.60856 43.9757 9.59856 44.5357 9.59856 45.0157C9.55856 45.4957 9.53856 45.9957 9.53856 46.5157C9.49856 46.9157 9.47856 47.2357 9.47856 47.4757L9.47856 47.6557C9.71856 47.6957 9.93856 47.7157 10.1386 47.7157C10.7386 47.7157 11.4386 47.7257 12.2386 47.7457C13.0386 47.7657 13.8386 47.7757 14.6386 47.7757L17.1586 47.7757C18.0386 47.7757 18.8786 47.7657 19.6786 47.7457C20.4786 47.7257 21.2386 47.6957 21.9586 47.6557C22.6786 47.6157 23.3186 47.5757 23.8786 47.5357C24.3986 47.5357 24.7786 47.5157 25.0186 47.4757C25.3386 47.4757 25.6586 47.4757 25.9786 47.4757L26.3986 47.4757C27.0386 47.4757 27.5886 47.7057 28.0486 48.1657C28.5086 48.6257 28.7386 49.1757 28.7386 49.8157C28.7386 50.4557 28.5086 51.0157 28.0486 51.4957C27.5886 51.9757 27.0386 52.2157 26.3986 52.2157L25.9786 52.2157C25.7786 52.2157 25.5786 52.2157 25.3786 52.2157C25.0986 52.2157 24.6786 52.2357 24.1186 52.2757C23.5986 52.3157 22.9786 52.3557 22.2586 52.3957C21.4586 52.4357 20.6386 52.4757 19.7986 52.5157C18.9586 52.5157 18.0786 52.5157 17.1586 52.5157L14.6386 52.5157C13.7986 52.5157 12.9686 52.5057 12.1486 52.4857C11.3286 52.4657 10.6186 52.4557 10.0186 52.4557C9.29856 52.4157 8.51856 52.3157 7.67856 52.1557C5.71856 51.7557 4.73856 50.7557 4.73856 49.1557L4.73856 47.4757C4.73856 47.1557 4.75856 46.7357 4.79856 46.2157C4.79856 45.7757 4.81856 45.3157 4.85856 44.8357C4.85856 44.3557 4.86856 43.8057 4.88856 43.1857C4.90856 42.5657 4.92856 41.8257 4.94856 40.9657C4.96856 40.1057 4.97856 39.1557 4.97856 38.1157C5.01856 37.1157 5.03856 36.0457 5.03856 34.9057C5.03856 33.7657 5.01856 32.5957 4.97856 31.3957C4.97856 30.1957 4.95856 28.8757 4.91856 27.4357C4.91856 25.9957 4.91856 24.5357 4.91856 23.0557L4.91856 14.0557C4.91856 12.2157 4.89856 10.7757 4.85856 9.73567C4.81856 8.61567 4.79856 7.71567 4.79856 7.03567L4.79856 5.95567C4.79856 5.31567 5.01856 4.75567 5.45856 4.27567Z"/>
<path d="M56.9986 44.1757C56.9986 44.1757 57.0186 44.1557 57.0586 44.1157C57.2186 43.7957 57.4986 43.2957 57.8986 42.6157C58.2986 41.8557 58.7386 41.1557 59.2186 40.5157C59.6186 39.9557 59.9986 39.4157 60.3586 38.8957C60.6786 38.4157 61.0186 37.8957 61.3786 37.3357C61.7386 36.7357 62.1386 36.1557 62.5786 35.5957C62.9786 35.0357 63.3786 34.4757 63.7786 33.9157C64.1386 33.3957 64.3986 33.0357 64.5586 32.8357C64.7186 32.5957 64.9386 32.2557 65.2186 31.8157C65.5386 31.2957 65.8786 30.7157 66.2386 30.0757C66.5986 29.5157 66.8786 28.9957 67.0786 28.5157C67.2786 28.0757 67.4186 27.6157 67.4986 27.1357C67.6186 26.6957 67.6986 26.2557 67.7386 25.8157C67.7386 25.3357 67.7386 24.8357 67.7386 24.3157C67.6986 23.8357 67.6386 23.4557 67.5586 23.1757C67.5186 22.9357 67.4386 22.7057 67.3186 22.4857C67.1986 22.2657 67.0786 22.0957 66.9586 21.9757C66.9186 21.8957 66.8786 21.8357 66.8386 21.7957C66.7586 21.7557 66.6386 21.7157 66.4786 21.6757C66.2786 21.6357 66.0786 21.5957 65.8786 21.5557C65.5986 21.5557 65.2586 21.5557 64.8586 21.5557C64.4186 21.5557 64.0386 21.5757 63.7186 21.6157C63.4786 21.6557 63.1586 21.7157 62.7586 21.7957C62.3586 21.8757 61.9586 21.9757 61.5586 22.0957C61.1986 22.2557 60.8386 22.4457 60.4786 22.6657C60.1186 22.8857 59.8386 23.0957 59.6386 23.2957C59.3186 23.6157 59.0386 23.9157 58.7986 24.1957C58.5986 24.3957 58.4286 24.6257 58.2886 24.8857C58.1486 25.1457 58.0386 25.4157 57.9586 25.6957C57.7986 26.0557 57.6786 26.4357 57.5986 26.8357C57.4386 27.3157 57.2786 27.8157 57.1186 28.3357C56.9586 28.8157 56.8186 29.2757 56.6986 29.7157C56.6586 29.7957 56.5986 29.8857 56.5186 29.9857C56.4386 30.0857 56.2886 30.2557 56.0686 30.4957C55.8486 30.7357 55.6186 30.9557 55.3786 31.1557C55.1386 31.3557 54.8586 31.5357 54.5386 31.6957C54.2186 31.8557 53.9186 31.9357 53.6386 31.9357C53.3586 31.9357 53.0686 31.8257 52.7686 31.6057C52.4686 31.3857 52.1786 31.0357 51.8986 30.5557C51.7786 30.2757 51.6386 29.9557 51.4786 29.5957C51.3186 29.3157 51.1186 28.9557 50.8786 28.5157C50.6386 28.0357 50.3986 27.5357 50.1586 27.0157C49.9186 26.5357 49.6386 25.9957 49.3186 25.3957C49.0786 24.9557 48.7286 24.4457 48.2686 23.8657C47.8086 23.2857 47.4386 22.8957 47.1586 22.6957C46.8786 22.4557 46.5986 22.2557 46.3186 22.0957C46.0786 21.9357 45.7586 21.7957 45.3586 21.6757C44.9586 21.5557 44.5286 21.4657 44.0686 21.4057C43.6086 21.3457 43.1386 21.3257 42.6586 21.3457C42.1786 21.3657 41.7186 21.4357 41.2786 21.5557C40.9586 21.5957 40.6786 21.6957 40.4386 21.8557C40.1586 21.9757 39.9586 22.1157 39.8386 22.2757C39.7586 22.3557 39.6986 22.4357 39.6586 22.5157C39.5786 22.6757 39.5186 22.9757 39.4786 23.4157C39.4386 23.8557 39.4586 24.1957 39.5386 24.4357C39.6186 24.8357 39.7986 25.4157 40.0786 26.1757C40.3186 26.8557 40.6386 27.5157 41.0386 28.1557C41.4786 28.9157 41.9186 29.5957 42.3586 30.1957C42.8386 30.8757 43.2986 31.5357 43.7386 32.1757C44.1786 32.7357 44.5986 33.2557 44.9986 33.7357C45.4786 34.2557 45.9586 34.7957 46.4386 35.3557C46.8786 35.8757 47.3586 36.3757 47.8786 36.8557C48.3586 37.3357 48.7186 37.6757 48.9586 37.8757C49.2786 38.1557 49.7386 38.5557 50.3386 39.0757C50.8986 39.5557 51.4386 40.0057 51.9586 40.4257C52.4786 40.8457 53.0586 41.2957 53.6986 41.7757C54.2586 42.2157 54.8186 42.6357 55.3786 43.0357C55.8986 43.4357 56.4386 43.8157 56.9986 44.1757ZM60.4186 47.7757C60.4186 48.2957 60.2786 48.7757 59.9986 49.2157C59.6386 49.7357 59.1286 50.0457 58.4686 50.1457C57.8086 50.2457 57.2186 50.1157 56.6986 49.7557L56.0386 49.2757C55.5986 48.9557 55.0586 48.5957 54.4186 48.1957C53.7786 47.7557 53.1586 47.2957 52.5586 46.8157C51.9586 46.3757 51.3686 45.9357 50.7886 45.4957C50.2086 45.0557 49.6186 44.6157 49.0186 44.1757C48.4186 43.6957 47.8186 43.1757 47.2186 42.6157C46.6586 42.1357 46.2386 41.7757 45.9586 41.5357C45.5986 41.2157 45.1186 40.7757 44.5186 40.2157C43.9586 39.6557 43.4186 39.0957 42.8986 38.5357C42.4186 37.9757 41.9386 37.4157 41.4586 36.8557C40.9386 36.2957 40.4386 35.6557 39.9586 34.9357C39.4786 34.2957 38.9986 33.6357 38.5186 32.9557C37.9586 32.2357 37.4386 31.4557 36.9586 30.6157C36.3986 29.6957 35.9586 28.7557 35.6386 27.7957C35.2786 26.8757 35.0386 26.1357 34.9186 25.5757C34.7586 24.8157 34.7186 23.9557 34.7986 22.9957C34.8786 21.9957 35.0586 21.1757 35.3386 20.5357C35.6186 19.9357 35.9986 19.3957 36.4786 18.9157C36.9186 18.4757 37.4586 18.0757 38.0986 17.7157C38.7386 17.3557 39.4586 17.0957 40.2586 16.9357C40.9386 16.7757 41.6686 16.6757 42.4486 16.6357C43.2286 16.5957 43.9786 16.6257 44.6986 16.7257C45.4186 16.8257 46.1186 16.9757 46.7986 17.1757C47.5186 17.4157 48.1386 17.6757 48.6586 17.9557C49.1786 18.2357 49.6786 18.5957 50.1586 19.0357C50.6786 19.4357 51.2786 20.0457 51.9586 20.8657C52.6386 21.6857 53.1586 22.4757 53.5186 23.2357L53.6986 23.5357C53.8586 23.1357 54.0386 22.7957 54.2386 22.5157C54.5186 22.0357 54.8386 21.5757 55.1986 21.1357C55.5186 20.7357 55.8786 20.3357 56.2786 19.9357C56.7586 19.4557 57.3186 19.0357 57.9586 18.6757C58.5586 18.2757 59.1986 17.9357 59.8786 17.6557C60.5186 17.4157 61.1586 17.2357 61.7986 17.1157C62.3986 16.9957 62.8986 16.9157 63.2986 16.8757C63.6586 16.8357 64.1186 16.8157 64.6786 16.8157C65.2786 16.7757 65.8186 16.7957 66.2986 16.8757C66.8186 16.9157 67.3186 16.9957 67.7986 17.1157C68.3186 17.2757 68.7986 17.4757 69.2386 17.7157C69.7186 17.9957 70.1586 18.3757 70.5586 18.8557C70.8786 19.2557 71.1886 19.7257 71.4886 20.2657C71.7886 20.8057 72.0186 21.3957 72.1786 22.0357C72.3386 22.5957 72.4386 23.2557 72.4786 24.0157C72.5186 24.7357 72.5186 25.4157 72.4786 26.0557C72.3986 26.7757 72.2786 27.4957 72.1186 28.2157C71.9586 28.9357 71.7186 29.6557 71.3986 30.3757C71.1186 31.0557 70.7586 31.7557 70.3186 32.4757C69.9186 33.1557 69.5586 33.7557 69.2386 34.2757C68.9186 34.7957 68.6586 35.1957 68.4586 35.4757C68.2986 35.7557 67.9986 36.1757 67.5586 36.7357C67.2386 37.2157 66.8586 37.7557 66.4186 38.3557C66.0186 38.8757 65.6786 39.3757 65.3986 39.8557C65.0386 40.4557 64.6686 41.0357 64.2886 41.5957C63.9086 42.1557 63.4986 42.7157 63.0586 43.2757C62.6986 43.7957 62.3586 44.3557 62.0386 44.9557C61.6386 45.6357 61.3386 46.1557 61.1386 46.5157C60.9386 46.8357 60.7786 47.1157 60.6586 47.3557C60.5786 47.4757 60.4986 47.6157 60.4186 47.7757Z"/>
<path d="M78.5386 18.9157C78.7386 18.2757 79.1186 17.7957 79.6786 17.4757C80.2386 17.1557 80.8386 17.0857 81.4786 17.2657C82.1186 17.4457 82.5986 17.8157 82.9186 18.3757L83.8186 19.9957C84.4586 21.0757 85.0786 22.2557 85.6786 23.5357C86.2786 24.7357 86.8786 25.9557 87.4786 27.1957C88.0786 28.4357 88.6486 29.6657 89.1886 30.8857C89.7286 32.1057 90.2586 33.2957 90.7786 34.4557C91.2586 35.5757 91.6986 36.6557 92.0986 37.6957C92.5386 38.7357 92.9386 39.7357 93.2986 40.6957C93.3386 40.7357 93.3786 40.8157 93.4186 40.9357C93.4986 40.6157 93.5786 40.3357 93.6586 40.0957C94.0586 38.9357 94.4786 37.7757 94.9186 36.6157C95.3586 35.5357 95.7586 34.4957 96.1186 33.4957C96.4786 32.4557 96.7986 31.4957 97.0786 30.6157C97.3986 29.6157 97.7386 28.6357 98.0986 27.6757C98.4986 26.7157 98.8586 25.8357 99.1786 25.0357C99.4986 24.2357 99.7786 23.5157 100.019 22.8757C100.259 22.2757 100.459 21.7357 100.619 21.2557C100.779 20.7357 100.939 20.2457 101.099 19.7857C101.259 19.3257 101.379 18.9357 101.459 18.6157C101.539 18.3757 101.599 18.1757 101.639 18.0157L101.699 17.5957C101.819 16.9557 102.159 16.4557 102.719 16.0957C103.279 15.7357 103.869 15.6157 104.489 15.7357C105.109 15.8557 105.609 16.1857 105.989 16.7257C106.369 17.2657 106.499 17.8557 106.379 18.4957L106.259 18.9157C106.219 19.2757 106.119 19.6557 105.959 20.0557C105.879 20.3757 105.759 20.7757 105.599 21.2557C105.439 21.7357 105.279 22.2157 105.119 22.6957C104.959 23.2557 104.739 23.8757 104.459 24.5557C104.219 25.2357 103.919 25.9757 103.559 26.7757C103.239 27.5757 102.899 28.4557 102.539 29.4157C102.179 30.2957 101.859 31.1757 101.579 32.0557C101.299 32.9757 100.959 33.9757 100.559 35.0557C100.199 36.1357 99.7986 37.2557 99.3586 38.4157C98.9186 39.4557 98.5286 40.4957 98.1886 41.5357C97.8486 42.5757 97.5386 43.5557 97.2586 44.4757C96.9386 45.5957 96.6386 46.5757 96.3586 47.4157C96.0786 48.2557 95.8786 48.8557 95.7586 49.2157C95.5986 49.6557 95.1586 49.9857 94.4386 50.2057C93.7186 50.4257 92.9886 50.4257 92.2486 50.2057C91.5086 49.9857 91.0786 49.5357 90.9586 48.8557C90.8786 48.5757 90.7786 48.2157 90.6586 47.7757C90.5386 47.3357 90.4386 46.9357 90.3586 46.5757C90.2386 46.2157 90.0486 45.6457 89.7886 44.8657C89.5286 44.0857 89.2386 43.2557 88.9186 42.3757C88.5586 41.4557 88.1586 40.4957 87.7186 39.4957C87.3186 38.4957 86.8786 37.4357 86.3986 36.3157C85.9186 35.1957 85.4086 34.0457 84.8686 32.8657C84.3286 31.6857 83.7786 30.4757 83.2186 29.2357C82.6186 28.0757 82.0186 26.8557 81.4186 25.5757C80.8586 24.4157 80.2786 23.3357 79.6786 22.3357L78.7786 20.7157C78.4586 20.1557 78.3786 19.5557 78.5386 18.9157Z"/>
<path d="M113.039 19.0957C112.959 18.4557 113.119 17.8757 113.519 17.3557C113.919 16.8357 114.439 16.5357 115.079 16.4557L115.619 16.3357C116.019 16.2957 116.579 16.2557 117.299 16.2157C118.059 16.1357 118.699 16.0957 119.219 16.0957C119.739 16.0557 120.579 16.0157 121.739 15.9757C122.899 15.9357 123.999 15.8757 125.039 15.7957C126.079 15.7157 127.019 15.6357 127.859 15.5557C128.739 15.5157 129.539 15.4757 130.259 15.4357C131.019 15.3957 131.639 15.3757 132.119 15.3757C132.679 15.3357 133.139 15.3157 133.499 15.3157L134.039 15.3157C134.679 15.3157 135.229 15.5457 135.689 16.0057C136.149 16.4657 136.379 17.0257 136.379 17.6857C136.379 18.3457 136.149 18.9057 135.689 19.3657C135.229 19.8257 134.679 20.0557 134.039 20.0557L133.499 20.0557C133.179 20.0557 132.779 20.0557 132.299 20.0557C131.819 20.0957 131.219 20.1357 130.499 20.1757C129.819 20.1757 129.059 20.2157 128.219 20.2957C127.379 20.3757 126.419 20.4457 125.339 20.5057C124.259 20.5657 123.139 20.6357 121.979 20.7157C120.779 20.7557 119.939 20.7957 119.459 20.8357C118.939 20.8357 118.339 20.8757 117.659 20.9557C117.499 20.9557 117.319 20.9557 117.119 20.9557L117.359 21.9757C117.599 22.9357 117.759 23.7357 117.839 24.3757C117.919 24.9757 118.059 25.9957 118.259 27.4357C118.499 28.8357 118.719 30.2757 118.919 31.7557C118.919 31.7957 118.919 31.8357 118.919 31.8757L119.099 31.8757C119.539 31.8357 120.109 31.7757 120.809 31.6957C121.509 31.6157 122.279 31.5157 123.119 31.3957C123.999 31.2757 124.879 31.1957 125.759 31.1557C126.599 31.0757 127.419 31.0357 128.219 31.0357C128.939 31.0357 129.499 31.0357 129.899 31.0357L130.559 30.9757C131.239 30.9357 131.819 31.1457 132.299 31.6057C132.779 32.0657 133.029 32.6157 133.049 33.2557C133.069 33.8957 132.859 34.4557 132.419 34.9357C131.979 35.4157 131.439 35.6757 130.799 35.7157L130.079 35.7757C129.599 35.7757 128.979 35.7757 128.219 35.7757C127.579 35.7757 126.859 35.7957 126.059 35.8357C125.259 35.9157 124.479 35.9957 123.719 36.0757C122.919 36.1957 122.119 36.2957 121.319 36.3757C120.639 36.4557 120.079 36.5157 119.639 36.5557C119.799 37.6757 119.919 38.6957 119.999 39.6157C120.119 40.6557 120.219 41.5957 120.299 42.4357C120.419 43.1957 120.499 43.7957 120.539 44.2357C120.539 44.5557 120.579 45.0157 120.659 45.6157C120.699 45.9357 120.739 46.2157 120.779 46.4557C121.139 46.4557 121.539 46.4557 121.979 46.4557C122.739 46.4557 123.569 46.4457 124.469 46.4257C125.369 46.4057 126.369 46.3757 127.469 46.3357C128.569 46.2957 129.699 46.2357 130.859 46.1557C131.979 46.0757 133.019 45.9957 133.979 45.9157C134.979 45.8357 135.799 45.7957 136.439 45.7957L137.699 45.7957L138.179 45.7957C138.819 45.7957 139.369 46.0257 139.829 46.4857C140.289 46.9457 140.519 47.4957 140.519 48.1357C140.519 48.7757 140.289 49.3357 139.829 49.8157C139.369 50.2957 138.819 50.5357 138.179 50.5357L137.699 50.5357L136.439 50.5357C135.959 50.5357 135.279 50.5757 134.399 50.6557C133.399 50.7357 132.319 50.8157 131.159 50.8957C129.999 50.9357 128.849 50.9857 127.709 51.0457C126.569 51.1057 125.529 51.1457 124.589 51.1657C123.649 51.1857 122.779 51.1957 121.979 51.1957C121.179 51.1957 120.479 51.1757 119.879 51.1357L119.039 51.0757C117.999 51.0357 117.299 50.5157 116.939 49.5157C116.499 49.1157 116.239 48.6157 116.159 48.0157L116.159 47.5957C116.119 47.2757 116.059 46.8157 115.979 46.2157C115.899 45.5357 115.839 44.9957 115.799 44.5957C115.759 44.2757 115.699 43.7157 115.619 42.9157C115.539 42.1157 115.439 41.1957 115.319 40.1557C115.199 39.1157 115.039 37.9557 114.839 36.6757C114.639 35.3157 114.439 33.8957 114.239 32.4157C113.999 30.9757 113.779 29.5357 113.579 28.0957C113.379 26.6557 113.239 25.6357 113.159 25.0357C113.079 24.5157 112.939 23.8557 112.739 23.0557L112.439 21.6757C112.239 20.8357 112.459 20.0957 113.099 19.4557C113.099 19.3357 113.079 19.2157 113.039 19.0957Z"/>
<path d="M174.299 8.11567C173.819 7.67567 173.559 7.12567 173.519 6.46567C173.479 5.80567 173.679 5.23567 174.119 4.75567C174.559 4.27567 175.099 4.01567 175.739 3.97567L176.579 3.91567C177.179 3.87567 177.839 3.85567 178.559 3.85567L200.579 3.85567C201.099 3.85567 201.519 3.85567 201.839 3.85567L202.259 3.91567C202.899 3.95567 203.439 4.22567 203.879 4.72567C204.319 5.22567 204.519 5.79567 204.479 6.43567C204.439 7.07567 204.169 7.61567 203.669 8.05567C203.169 8.49567 202.599 8.69567 201.959 8.65567L201.539 8.59567C201.299 8.59567 200.979 8.59567 200.579 8.59567L190.979 8.59567C190.979 8.67567 190.979 8.77567 190.979 8.89567L190.799 9.79567C190.719 10.2757 190.699 11.0357 190.739 12.0757C190.739 13.2357 190.739 14.1457 190.739 14.8057C190.739 15.4657 190.759 16.4957 190.799 17.8957C190.839 19.3357 190.859 20.8157 190.859 22.3357C190.859 23.7757 190.879 25.2957 190.919 26.8957C190.919 28.4557 190.939 30.0557 190.979 31.6957C191.019 33.2957 191.059 34.7757 191.099 36.1357C191.179 37.5357 191.219 38.8557 191.219 40.0957C191.219 41.2957 191.259 42.3757 191.339 43.3357C191.419 44.4557 191.459 45.3357 191.459 45.9757C191.499 46.6557 191.519 47.1557 191.519 47.4757L191.519 49.0357C191.519 49.6757 191.289 50.2357 190.829 50.7157C190.369 51.1957 189.819 51.4357 189.179 51.4357C188.539 51.4357 187.979 51.1957 187.499 50.7157C187.019 50.2357 186.779 49.6757 186.779 49.0357L186.779 47.4757C186.779 47.2357 186.769 46.8057 186.749 46.1857C186.729 45.5657 186.679 44.7257 186.599 43.6657C186.519 42.6057 186.479 41.4357 186.479 40.1557C186.479 38.9557 186.439 37.6757 186.359 36.3157C186.319 34.9557 186.279 33.4457 186.239 31.7857C186.199 30.1257 186.179 28.5157 186.179 26.9557C186.139 25.3957 186.119 23.8557 186.119 22.3357C186.119 20.8557 186.099 19.4157 186.059 18.0157C186.019 16.5757 185.999 15.5157 185.999 14.8357C185.999 14.1557 185.999 13.2357 185.999 12.0757C185.959 10.7557 185.999 9.75567 186.119 9.07567L186.239 8.59567L178.559 8.59567C177.959 8.59567 177.399 8.61567 176.879 8.65567L176.039 8.65567C175.399 8.69567 174.819 8.51567 174.299 8.11567Z"/>
<path d="M211.799 4.81567C212.319 4.41567 212.899 4.26567 213.539 4.36567C214.179 4.46567 214.699 4.77567 215.099 5.29567C215.499 5.81567 215.639 6.39567 215.519 7.03567L215.459 7.69567C215.419 7.97567 215.379 8.75567 215.339 10.0357C215.339 11.3957 215.319 12.9357 215.279 14.6557C215.239 16.3357 215.219 18.4757 215.219 21.0757C215.219 22.5157 215.219 23.8357 215.219 25.0357C215.539 24.7157 215.859 24.4157 216.179 24.1357C216.859 23.5357 217.739 22.9157 218.819 22.2757C219.899 21.6757 220.779 21.2557 221.459 21.0157C222.179 20.7357 222.879 20.5757 223.559 20.5357C224.239 20.4957 224.919 20.5157 225.599 20.5957C226.399 20.7157 227.279 21.0357 228.239 21.5557C229.119 22.0357 229.839 22.5157 230.399 22.9957C230.959 23.4357 231.439 23.8957 231.839 24.3757C232.319 24.8957 232.819 25.6557 233.339 26.6557C233.819 27.5757 234.179 28.3157 234.419 28.8757C234.659 29.5157 234.919 30.3357 235.199 31.3357C235.439 32.3357 235.619 33.1957 235.739 33.9157C235.859 34.6357 235.959 35.3157 236.039 35.9557C236.079 36.5557 236.139 37.2557 236.219 38.0557C236.299 38.8157 236.359 39.4557 236.399 39.9757C236.479 40.4957 236.539 41.0157 236.579 41.5357C236.619 42.0557 236.659 42.5157 236.699 42.9157C236.739 43.3157 236.759 43.6957 236.759 44.0557C236.799 44.5357 236.819 44.8957 236.819 45.1357C236.859 45.4557 236.879 45.7757 236.879 46.0957L236.879 48.9157C236.879 49.5557 236.639 50.1057 236.159 50.5657C235.679 51.0257 235.119 51.2557 234.479 51.2557C233.839 51.2557 233.289 51.0257 232.829 50.5657C232.369 50.1057 232.139 49.5557 232.139 48.9157L232.139 46.0957C232.139 45.8957 232.119 45.6757 232.079 45.4357C232.079 45.1957 232.059 44.8157 232.019 44.2957C232.019 43.9757 231.999 43.6557 231.959 43.3357C231.919 42.9357 231.879 42.4957 231.839 42.0157C231.799 41.4957 231.759 40.9757 231.719 40.4557C231.639 39.9757 231.559 39.3357 231.479 38.5357C231.399 37.7357 231.339 37.0357 231.299 36.4357C231.259 35.8757 231.179 35.2957 231.059 34.6957C230.979 34.0957 230.819 33.3757 230.579 32.5357C230.379 31.6957 230.199 31.0757 230.039 30.6757C229.879 30.2757 229.599 29.6957 229.199 28.9357C228.839 28.2557 228.539 27.7957 228.299 27.5557C228.019 27.2357 227.699 26.9157 227.339 26.5957C227.019 26.3557 226.579 26.0757 226.019 25.7557C225.539 25.4757 225.159 25.3157 224.879 25.2757C224.559 25.2357 224.259 25.2357 223.979 25.2757C223.699 25.2757 223.379 25.3357 223.019 25.4557C222.619 25.6157 222.019 25.9357 221.219 26.4157C220.379 26.8557 219.749 27.2757 219.329 27.6757C218.909 28.0757 218.539 28.4757 218.219 28.8757C217.859 29.3557 217.519 29.8357 217.199 30.3157C216.879 30.7957 216.619 31.2557 216.419 31.6957C216.259 32.0957 216.099 32.6557 215.939 33.3757C215.739 34.1757 215.639 34.8957 215.639 35.5357C215.599 36.2157 215.579 36.8357 215.579 37.3957C215.619 37.9957 215.659 38.6757 215.699 39.4357C215.739 40.1957 215.799 41.0357 215.879 41.9557C215.919 42.8757 215.959 43.8157 215.999 44.7757C216.079 45.7357 216.119 46.6357 216.119 47.4757C216.119 47.6357 215.719 47.8557 214.919 48.1357C214.119 48.4157 213.369 48.5957 212.669 48.6757C211.969 48.7557 211.539 48.6357 211.379 48.3157C211.379 47.9957 211.339 47.1557 211.259 45.7957C211.139 44.3957 211.039 42.9957 210.959 41.5957C210.839 40.1557 210.759 38.6757 210.719 37.1557C210.679 35.6757 210.639 34.1557 210.599 32.5957C210.599 31.0757 210.579 29.4357 210.539 27.6757C210.499 25.9157 210.479 23.7157 210.479 21.0757C210.479 18.4357 210.499 16.2557 210.539 14.5357C210.579 12.9357 210.599 11.4157 210.599 9.97567C210.639 8.49567 210.699 7.49567 210.779 6.97567L210.839 6.37567C210.959 5.73567 211.279 5.21567 211.799 4.81567Z"/>
<path d="M267.959 28.7557L268.019 29.3557C268.099 30.7557 268.179 32.2357 268.259 33.7957C268.339 35.3957 268.409 37.4857 268.469 40.0657C268.529 42.6457 268.559 44.7157 268.559 46.2757C268.599 47.8757 268.559 49.7957 268.439 52.0357C268.279 54.3957 268.049 56.1857 267.749 57.4057C267.449 58.6257 266.999 59.8557 266.399 61.0957C265.799 62.4157 265.179 63.4357 264.539 64.1557C263.939 64.8757 263.319 65.4757 262.679 65.9557C261.999 66.5157 261.139 67.0157 260.099 67.4557C258.939 67.9757 257.919 68.2157 257.039 68.1757C256.319 68.1757 255.439 67.9957 254.399 67.6357C253.119 67.1957 252.059 66.4357 251.219 65.3557C250.419 64.3557 249.919 63.1757 249.719 61.8157C249.559 60.7357 249.519 59.7757 249.599 58.9357L249.659 58.0357C249.699 57.3957 249.969 56.8557 250.469 56.4157C250.969 55.9757 251.549 55.7857 252.209 55.8457C252.869 55.9057 253.409 56.1857 253.829 56.6857C254.249 57.1857 254.439 57.7557 254.399 58.3957L254.279 59.3557C254.239 59.7957 254.279 60.3957 254.399 61.1557C254.479 61.6357 254.659 62.0757 254.939 62.4757C255.219 62.7957 255.539 63.0157 255.899 63.1357C256.459 63.3357 256.879 63.4357 257.159 63.4357C257.359 63.4357 257.719 63.3157 258.239 63.0757C258.879 62.7957 259.399 62.5157 259.799 62.2357C260.159 61.9157 260.539 61.5357 260.939 61.0957C261.299 60.6957 261.699 60.0357 262.139 59.1157C262.579 58.1157 262.919 57.1557 263.159 56.2357C263.399 55.3157 263.579 53.8357 263.699 51.7957C263.779 49.6357 263.819 47.7957 263.819 46.2757C263.819 44.7557 263.799 42.7157 263.759 40.1557C263.719 39.8357 263.699 39.4957 263.699 39.1357C263.339 39.6157 262.939 40.0957 262.499 40.5757C261.539 41.6157 260.739 42.3957 260.099 42.9157C259.379 43.5557 258.539 44.0557 257.579 44.4157C256.659 44.7757 255.579 45.0157 254.339 45.1357C253.099 45.2157 252.059 45.1357 251.219 44.8957C250.379 44.6957 249.599 44.3757 248.879 43.9357C248.119 43.4557 247.379 42.7957 246.659 41.9557C245.979 41.1557 245.439 40.3357 245.039 39.4957C244.679 38.6957 244.319 37.6557 243.959 36.3757C243.639 35.1357 243.399 34.0557 243.239 33.1357C243.079 32.2157 242.959 31.2557 242.879 30.2557C242.839 29.2557 242.819 28.2557 242.819 27.2557C242.819 26.2157 242.919 25.0157 243.119 23.6557C243.279 22.2557 243.479 21.1757 243.719 20.4157C243.999 19.6557 244.259 19.0557 244.499 18.6157L244.799 18.1957C245.119 17.6357 245.599 17.2757 246.239 17.1157C246.879 16.9557 247.479 17.0457 248.039 17.3857C248.599 17.7257 248.959 18.2157 249.119 18.8557C249.279 19.4957 249.179 20.0957 248.819 20.6557L248.579 21.0757C248.499 21.1957 248.379 21.4757 248.219 21.9157C248.099 22.3957 247.959 23.1957 247.799 24.3157C247.639 25.4757 247.559 26.4757 247.559 27.3157C247.559 28.1957 247.579 29.0757 247.619 29.9557C247.659 30.7957 247.759 31.5957 247.919 32.3557C248.039 33.1557 248.239 34.0957 248.519 35.1757C248.799 36.1757 249.059 36.9357 249.299 37.4557C249.539 37.9357 249.859 38.4157 250.259 38.8957C250.659 39.3357 250.999 39.6557 251.279 39.8557C251.639 40.0557 252.019 40.2157 252.419 40.3357C252.779 40.4157 253.299 40.4357 253.979 40.3957C254.739 40.3557 255.359 40.2357 255.839 40.0357C256.319 39.8357 256.739 39.5957 257.099 39.3157C257.539 38.9157 258.179 38.2557 259.019 37.3357C259.779 36.4957 260.339 35.7757 260.699 35.1757C261.099 34.4557 261.519 33.5357 261.959 32.4157C262.439 31.2957 262.759 30.3957 262.919 29.7157C263.039 29.3157 263.139 28.9357 263.219 28.5757C263.179 28.0957 263.079 26.9957 262.919 25.2757C262.799 23.7157 262.699 22.5957 262.619 21.9157C262.539 21.1957 262.479 20.5557 262.439 19.9957C262.479 19.9557 262.519 19.9057 262.559 19.8457C262.599 19.7857 262.699 19.6557 262.859 19.4557C263.019 19.2557 263.179 19.0657 263.339 18.8857C263.499 18.7057 263.689 18.5157 263.909 18.3157C264.129 18.1157 264.349 17.9457 264.569 17.8057C264.789 17.6657 265.019 17.5557 265.259 17.4757C265.499 17.3957 265.729 17.3657 265.949 17.3857C266.169 17.4057 266.379 17.5057 266.579 17.6857C266.779 17.8657 266.939 18.1357 267.059 18.4957C267.259 18.8557 267.419 19.3757 267.539 20.0557C267.659 20.6157 267.759 21.1757 267.839 21.7357C267.919 22.2557 267.999 22.7957 268.079 23.3557C268.119 23.9157 268.139 24.6557 268.139 25.5757C268.179 26.5757 268.139 27.4957 268.019 28.3357C268.019 28.4557 267.999 28.5957 267.959 28.7557Z"/>
<path d="M326.399 7.15567C326.559 7.79567 326.469 8.38567 326.129 8.92567C325.789 9.46567 325.299 9.81567 324.659 9.97567C324.019 10.1357 323.419 10.0357 322.859 9.67567L322.499 9.43567C322.379 9.39567 322.199 9.35567 321.959 9.31567C321.519 9.27567 320.899 9.27567 320.099 9.31567C319.299 9.35567 318.459 9.49567 317.579 9.73567C316.659 9.97567 315.819 10.2557 315.059 10.5757C314.339 10.8957 313.579 11.3557 312.779 11.9557C311.939 12.5157 311.179 13.1757 310.499 13.9357C309.819 14.6557 309.239 15.3957 308.759 16.1557C308.359 16.8357 308.119 17.4757 308.039 18.0757C307.919 18.6357 307.919 19.1557 308.039 19.6357C308.119 20.0357 308.259 20.3757 308.459 20.6557C308.779 21.0157 309.339 21.4357 310.139 21.9157C311.059 22.4757 312.059 22.9357 313.139 23.2957C314.379 23.6957 315.579 24.0557 316.739 24.3757C317.979 24.7357 319.159 25.1357 320.279 25.5757C321.559 26.0557 322.909 26.8157 324.329 27.8557C325.749 28.8957 326.879 29.9357 327.719 30.9757C328.479 31.9357 329.059 32.6957 329.459 33.2557C329.899 33.8957 330.359 34.7757 330.839 35.8957C331.359 37.1357 331.699 38.3157 331.859 39.4357C332.019 40.6357 331.999 41.7357 331.799 42.7357C331.599 43.6957 331.279 44.5357 330.839 45.2557C330.439 45.9357 329.959 46.5557 329.399 47.1157C328.839 47.6757 328.099 48.1957 327.179 48.6757C326.299 49.1557 325.289 49.5757 324.149 49.9357C323.009 50.2957 321.819 50.5157 320.579 50.5957C319.419 50.6757 318.279 50.6757 317.159 50.5957C315.999 50.4757 314.859 50.2557 313.739 49.9357C312.659 49.6557 311.579 49.2957 310.499 48.8557C309.339 48.3757 308.039 47.6357 306.599 46.6357C305.199 45.6357 304.219 44.8557 303.659 44.2957C303.099 43.7757 302.679 43.3357 302.399 42.9757L302.099 42.5557C301.699 42.0757 301.529 41.5057 301.589 40.8457C301.649 40.1857 301.929 39.6457 302.429 39.2257C302.929 38.8057 303.509 38.6357 304.169 38.7157C304.829 38.7957 305.359 39.0757 305.759 39.5557L306.119 39.9757C306.279 40.1757 306.559 40.4957 306.959 40.9357C307.359 41.3357 308.159 41.9357 309.359 42.7357C310.479 43.5357 311.439 44.1157 312.239 44.4757C313.159 44.8357 314.079 45.1357 314.999 45.3757C315.839 45.6157 316.699 45.7757 317.579 45.8557C318.459 45.9357 319.359 45.9557 320.279 45.9157C321.119 45.8357 321.939 45.6757 322.739 45.4357C323.539 45.1557 324.259 44.8557 324.899 44.5357C325.419 44.2557 325.819 43.9757 326.099 43.6957C326.339 43.4557 326.559 43.1757 326.759 42.8557C326.919 42.5757 327.059 42.1957 327.179 41.7157C327.259 41.2757 327.259 40.7357 327.179 40.0957C327.059 39.3757 326.839 38.6157 326.519 37.8157C326.119 36.9357 325.799 36.3157 325.559 35.9557C325.239 35.5157 324.739 34.8557 324.059 33.9757C323.459 33.2557 322.609 32.4957 321.509 31.6957C320.409 30.8957 319.439 30.3157 318.599 29.9557C317.599 29.5957 316.559 29.2557 315.479 28.9357C314.239 28.5757 312.979 28.1957 311.699 27.7957C310.259 27.3157 308.939 26.7157 307.739 25.9957C306.459 25.2357 305.479 24.4557 304.799 23.6557C304.079 22.8157 303.599 21.7957 303.359 20.5957C303.159 19.4757 303.159 18.3557 303.359 17.2357C303.559 16.0757 303.999 14.9157 304.679 13.7557C305.319 12.6757 306.099 11.6557 307.019 10.6957C307.939 9.69567 308.939 8.81567 310.019 8.05567C311.099 7.29567 312.159 6.69567 313.199 6.25567C314.159 5.81567 315.219 5.45567 316.379 5.17567C317.579 4.85567 318.719 4.65567 319.799 4.57567C320.919 4.49567 321.879 4.51567 322.679 4.63567C323.639 4.79567 324.399 5.05567 324.959 5.41567L325.379 5.65567C325.939 6.01567 326.279 6.51567 326.399 7.15567Z"/>
<path d="M338.579 19.0957C338.499 18.4557 338.659 17.8757 339.059 17.3557C339.459 16.8357 339.979 16.5357 340.619 16.4557L341.159 16.3357C341.559 16.2957 342.119 16.2557 342.839 16.2157C343.599 16.1357 344.239 16.0957 344.759 16.0957C345.279 16.0557 346.119 16.0157 347.279 15.9757C348.439 15.9357 349.539 15.8757 350.579 15.7957C351.619 15.7157 352.559 15.6357 353.399 15.5557C354.279 15.5157 355.079 15.4757 355.799 15.4357C356.559 15.3957 357.179 15.3757 357.659 15.3757C358.219 15.3357 358.679 15.3157 359.039 15.3157L359.579 15.3157C360.219 15.3157 360.769 15.5457 361.229 16.0057C361.689 16.4657 361.919 17.0257 361.919 17.6857C361.919 18.3457 361.689 18.9057 361.229 19.3657C360.769 19.8257 360.219 20.0557 359.579 20.0557L359.039 20.0557C358.719 20.0557 358.319 20.0557 357.839 20.0557C357.359 20.0957 356.759 20.1357 356.039 20.1757C355.359 20.1757 354.599 20.2157 353.759 20.2957C352.919 20.3757 351.959 20.4457 350.879 20.5057C349.799 20.5657 348.679 20.6357 347.519 20.7157C346.319 20.7557 345.479 20.7957 344.999 20.8357C344.479 20.8357 343.879 20.8757 343.199 20.9557C343.039 20.9557 342.859 20.9557 342.659 20.9557L342.899 21.9757C343.139 22.9357 343.299 23.7357 343.379 24.3757C343.459 24.9757 343.599 25.9957 343.799 27.4357C344.039 28.8357 344.259 30.2757 344.459 31.7557C344.459 31.7957 344.459 31.8357 344.459 31.8757L344.639 31.8757C345.079 31.8357 345.649 31.7757 346.349 31.6957C347.049 31.6157 347.819 31.5157 348.659 31.3957C349.539 31.2757 350.419 31.1957 351.299 31.1557C352.139 31.0757 352.959 31.0357 353.759 31.0357C354.479 31.0357 355.039 31.0357 355.439 31.0357L356.099 30.9757C356.779 30.9357 357.359 31.1457 357.839 31.6057C358.319 32.0657 358.569 32.6157 358.589 33.2557C358.609 33.8957 358.399 34.4557 357.959 34.9357C357.519 35.4157 356.979 35.6757 356.339 35.7157L355.619 35.7757C355.139 35.7757 354.519 35.7757 353.759 35.7757C353.119 35.7757 352.399 35.7957 351.599 35.8357C350.799 35.9157 350.019 35.9957 349.259 36.0757C348.459 36.1957 347.659 36.2957 346.859 36.3757C346.179 36.4557 345.619 36.5157 345.179 36.5557C345.339 37.6757 345.459 38.6957 345.539 39.6157C345.659 40.6557 345.759 41.5957 345.839 42.4357C345.959 43.1957 346.039 43.7957 346.079 44.2357C346.079 44.5557 346.119 45.0157 346.199 45.6157C346.239 45.9357 346.279 46.2157 346.319 46.4557C346.679 46.4557 347.079 46.4557 347.519 46.4557C348.279 46.4557 349.109 46.4457 350.009 46.4257C350.909 46.4057 351.909 46.3757 353.009 46.3357C354.109 46.2957 355.239 46.2357 356.399 46.1557C357.519 46.0757 358.559 45.9957 359.519 45.9157C360.519 45.8357 361.339 45.7957 361.979 45.7957L363.239 45.7957L363.719 45.7957C364.359 45.7957 364.909 46.0257 365.369 46.4857C365.829 46.9457 366.059 47.4957 366.059 48.1357C366.059 48.7757 365.829 49.3357 365.369 49.8157C364.909 50.2957 364.359 50.5357 363.719 50.5357L363.239 50.5357L361.979 50.5357C361.499 50.5357 360.819 50.5757 359.939 50.6557C358.939 50.7357 357.859 50.8157 356.699 50.8957C355.539 50.9357 354.389 50.9857 353.249 51.0457C352.109 51.1057 351.069 51.1457 350.129 51.1657C349.189 51.1857 348.319 51.1957 347.519 51.1957C346.719 51.1957 346.019 51.1757 345.419 51.1357L344.579 51.0757C343.539 51.0357 342.839 50.5157 342.479 49.5157C342.039 49.1157 341.779 48.6157 341.699 48.0157L341.699 47.5957C341.659 47.2757 341.599 46.8157 341.519 46.2157C341.439 45.5357 341.379 44.9957 341.339 44.5957C341.299 44.2757 341.239 43.7157 341.159 42.9157C341.079 42.1157 340.979 41.1957 340.859 40.1557C340.739 39.1157 340.579 37.9557 340.379 36.6757C340.179 35.3157 339.979 33.8957 339.779 32.4157C339.539 30.9757 339.319 29.5357 339.119 28.0957C338.919 26.6557 338.779 25.6357 338.699 25.0357C338.619 24.5157 338.479 23.8557 338.279 23.0557L337.979 21.6757C337.779 20.8357 337.999 20.0957 338.639 19.4557C338.639 19.3357 338.619 19.2157 338.579 19.0957Z"/>
<path d="M373.079 5.65567C373.559 5.17567 374.119 4.93567 374.759 4.93567C375.399 4.93567 375.949 5.16567 376.409 5.62567C376.869 6.08567 377.099 6.63567 377.099 7.27567L377.099 8.11567C377.099 8.67567 377.099 9.33567 377.099 10.0957C377.099 10.8557 377.099 11.4357 377.099 11.8357L377.099 21.1357C377.099 21.5757 377.079 22.2557 377.039 23.1757C377.039 24.1357 377.019 25.0557 376.979 25.9357C376.979 26.7757 376.959 27.6757 376.919 28.6357C376.919 29.5957 376.899 30.2957 376.859 30.7357C376.859 31.1757 376.859 31.7957 376.859 32.5957L376.859 34.9957C376.859 35.7557 376.859 36.4957 376.859 37.2157C376.899 38.0157 376.899 38.7557 376.859 39.4357C376.859 39.9957 376.859 40.3557 376.859 40.5157C376.899 40.8357 376.919 41.2957 376.919 41.8957L376.919 44.8957C376.919 45.3357 376.899 45.7757 376.859 46.2157C376.859 46.5757 376.859 46.9157 376.859 47.2357C376.859 47.6357 376.839 47.9957 376.799 48.3157L376.799 48.7957C376.759 49.4357 376.489 49.9757 375.989 50.4157C375.489 50.8557 374.919 51.0557 374.279 51.0157C373.639 50.9757 373.099 50.7057 372.659 50.2057C372.219 49.7057 372.019 49.1357 372.059 48.4957L372.119 48.0157C372.119 47.7757 372.119 47.5157 372.119 47.2357C372.119 46.8357 372.119 46.4157 372.119 45.9757C372.159 45.6157 372.179 45.2557 372.179 44.8957L372.179 41.8957C372.179 41.4557 372.159 41.1357 372.119 40.9357C372.119 40.5757 372.119 40.0357 372.119 39.3157C372.159 38.7157 372.159 38.0557 372.119 37.3357C372.119 36.5757 372.119 35.7957 372.119 34.9957L372.119 32.5957C372.119 31.7557 372.119 31.0957 372.119 30.6157C372.159 30.1757 372.189 29.4857 372.209 28.5457C372.229 27.6057 372.239 26.6957 372.239 25.8157C372.279 24.9357 372.309 24.0357 372.329 23.1157C372.349 22.1957 372.359 21.5357 372.359 21.1357L372.359 11.8357C372.359 11.3957 372.359 10.7757 372.359 9.97567C372.359 9.25567 372.359 8.63567 372.359 8.11567L372.359 7.27567C372.359 6.63567 372.599 6.09567 373.079 5.65567Z"/>
<path d="M384.059 33.1957C383.539 32.7957 383.229 32.2757 383.129 31.6357C383.029 30.9957 383.179 30.4057 383.579 29.8657C383.979 29.3257 384.499 29.0157 385.139 28.9357L385.499 28.8757C385.779 28.8357 386.179 28.7957 386.699 28.7557C387.099 28.7157 387.839 28.6157 388.919 28.4557C389.359 28.3757 389.799 28.2957 390.239 28.2157C390.239 28.0957 390.239 27.9557 390.239 27.7957C390.199 26.9557 390.139 26.0757 390.059 25.1557C390.019 24.1157 389.999 23.1357 389.999 22.2157C389.999 21.2957 389.999 20.4157 389.999 19.5757C389.999 18.7357 390.019 18.0557 390.059 17.5357C390.099 17.0157 390.159 16.2757 390.239 15.3157C390.359 14.2357 390.559 13.2257 390.839 12.2857C391.119 11.3457 391.429 10.5457 391.769 9.88567C392.109 9.22567 392.519 8.61567 392.999 8.05567C393.519 7.41567 394.139 6.91567 394.859 6.55567C395.419 6.23567 395.999 5.99567 396.599 5.83567C397.199 5.67567 397.819 5.59567 398.459 5.59567C399.179 5.55567 399.959 5.63567 400.799 5.83567C401.599 6.03567 402.319 6.29567 402.959 6.61567C403.519 6.93567 404.059 7.29567 404.579 7.69567C405.139 8.09567 405.619 8.55567 406.019 9.07567C406.379 9.55567 406.719 10.0757 407.039 10.6357C407.319 11.0757 407.579 11.5157 407.819 11.9557C408.019 12.3557 408.239 12.7957 408.479 13.2757C408.759 13.7957 409.019 14.3557 409.259 14.9557C409.499 15.5557 409.699 16.1157 409.859 16.6357C409.979 17.1157 410.099 17.6957 410.219 18.3757L410.399 19.2757C410.519 19.9157 410.389 20.5057 410.009 21.0457C409.629 21.5857 409.119 21.9157 408.479 22.0357C407.839 22.1557 407.249 22.0257 406.709 21.6457C406.169 21.2657 405.839 20.7557 405.719 20.1157L405.539 19.2157C405.459 18.6957 405.379 18.2557 405.299 17.8957C405.179 17.5757 405.039 17.1757 404.879 16.6957C404.679 16.2557 404.479 15.8157 404.279 15.3757C404.039 14.9757 403.819 14.5857 403.619 14.2057C403.419 13.8257 403.199 13.4157 402.959 12.9757C402.759 12.6157 402.539 12.3157 402.299 12.0757C402.139 11.8357 401.939 11.6157 401.699 11.4157C401.379 11.1757 401.059 10.9757 400.739 10.8157C400.419 10.6557 400.059 10.5157 399.659 10.3957C399.299 10.3157 398.979 10.2757 398.699 10.2757C398.379 10.3157 398.089 10.3657 397.829 10.4257C397.569 10.4857 397.299 10.5957 397.019 10.7557C396.899 10.7957 396.779 10.9157 396.659 11.1157C396.379 11.3957 396.159 11.7157 395.999 12.0757C395.799 12.4757 395.599 13.0057 395.399 13.6657C395.199 14.3257 395.059 15.0357 394.979 15.7957C394.899 16.7157 394.839 17.3857 394.799 17.8057C394.759 18.2257 394.739 18.8357 394.739 19.6357C394.739 20.4757 394.739 21.3357 394.739 22.2157C394.739 23.0557 394.759 23.9157 394.799 24.7957C394.879 25.7957 394.939 26.7157 394.979 27.5557C394.979 27.5957 394.979 27.6357 394.979 27.6757C395.299 27.6357 395.619 27.6157 395.939 27.6157C396.979 27.5357 397.859 27.4957 398.579 27.4957C399.219 27.4557 399.699 27.4157 400.019 27.3757L400.559 27.3157C401.199 27.2757 401.769 27.4657 402.269 27.8857C402.769 28.3057 403.049 28.8357 403.109 29.4757C403.169 30.1157 402.999 30.6857 402.599 31.1857C402.199 31.6857 401.659 31.9757 400.979 32.0557L400.499 32.1157C400.099 32.1557 399.539 32.1957 398.819 32.2357C398.139 32.2357 397.259 32.2757 396.179 32.3557C395.819 32.3557 395.459 32.3757 395.099 32.4157C395.099 32.5757 395.099 32.7357 395.099 32.8957C395.139 33.8957 395.179 34.8357 395.219 35.7157C395.259 36.6757 395.279 37.5757 395.279 38.4157L395.279 42.4357C395.279 42.8757 395.259 43.3957 395.219 43.9957C395.179 44.6357 395.139 45.1957 395.099 45.6757C395.059 46.0357 395.039 46.3157 395.039 46.5157L395.039 49.7557C395.039 50.4357 394.809 51.0057 394.349 51.4657C393.889 51.9257 393.329 52.1557 392.669 52.1557C392.009 52.1557 391.449 51.9257 390.989 51.4657C390.529 51.0057 390.299 50.4357 390.299 49.7557L390.299 46.5157C390.299 46.1157 390.339 45.6557 390.419 45.1357C390.459 44.7757 390.479 44.3357 390.479 43.8157C390.519 43.2557 390.539 42.7957 390.539 42.4357L390.539 38.4157C390.539 37.6157 390.519 36.7557 390.479 35.8357C390.439 34.9557 390.399 34.0357 390.359 33.0757C390.359 33.0357 390.359 33.0157 390.359 33.0157C390.119 33.0557 389.879 33.0957 389.639 33.1357C388.519 33.2957 387.699 33.4157 387.179 33.4957C386.699 33.5357 386.359 33.5757 386.159 33.6157L385.799 33.6157C385.159 33.7357 384.579 33.5957 384.059 33.1957Z"/>
<path d="M423.719 12.5557C422.999 13.3157 422.179 13.5757 421.259 13.3357L420.779 13.1557C420.179 12.9957 419.639 12.7357 419.159 12.3757C418.759 12.0957 418.289 11.6257 417.749 10.9657C417.209 10.3057 416.819 9.73567 416.579 9.25567C416.179 8.33567 416.369 7.46567 417.149 6.64567C417.929 5.82567 418.699 5.47567 419.459 5.59567C419.819 5.67567 420.219 5.81567 420.659 6.01567C421.259 5.37567 421.889 5.08567 422.549 5.14567C423.209 5.20567 423.779 5.40567 424.259 5.74567C424.739 6.08567 425.079 6.43567 425.279 6.79567C425.679 7.71567 425.759 8.65567 425.519 9.61567C425.359 10.3357 425.119 10.9357 424.799 11.4157L424.559 11.7757C424.359 12.0957 424.079 12.3557 423.719 12.5557ZM420.419 18.2557C420.819 17.7357 421.339 17.4357 421.979 17.3557C422.619 17.2757 423.199 17.4357 423.719 17.8357C424.239 18.2357 424.539 18.7557 424.619 19.3957L424.739 19.9357C424.779 20.2957 424.819 20.6557 424.859 21.0157C424.899 21.3757 424.959 21.9757 425.039 22.8157C425.079 23.6157 425.119 24.4357 425.159 25.2757C425.199 26.1157 425.219 26.7757 425.219 27.2557C425.259 27.7757 425.279 28.5357 425.279 29.5357C425.279 30.4557 425.279 31.1557 425.279 31.6357C425.319 32.1557 425.359 32.9357 425.399 33.9757C425.399 34.9357 425.419 35.8757 425.459 36.7957C425.499 37.6757 425.519 38.3557 425.519 38.8357C425.559 39.3557 425.579 40.0757 425.579 40.9957C425.579 41.9157 425.579 42.5557 425.579 42.9157L425.579 49.7557C425.579 50.3957 425.349 50.9457 424.889 51.4057C424.429 51.8657 423.869 52.0957 423.209 52.0957C422.549 52.0957 421.989 51.8657 421.529 51.4057C421.069 50.9457 420.839 50.3957 420.839 49.7557L420.839 42.9157C420.839 42.5957 420.839 41.9757 420.839 41.0557C420.839 40.1757 420.819 39.5157 420.779 39.0757C420.779 38.5957 420.759 37.8757 420.719 36.9157C420.679 36.0357 420.659 35.0957 420.659 34.0957C420.619 33.0957 420.579 32.3557 420.539 31.8757C420.539 31.3157 420.539 30.5357 420.539 29.5357C420.539 28.6157 420.519 27.9157 420.479 27.4357C420.479 26.9957 420.459 26.3557 420.419 25.5157C420.379 24.6757 420.339 23.8757 420.299 23.1157C420.259 22.3957 420.219 21.8957 420.179 21.6157C420.099 21.2957 420.039 20.9357 419.999 20.5357L419.939 19.9957C419.859 19.3557 420.019 18.7757 420.419 18.2557Z"/>
<path d="M432.239 19.0957C432.159 18.4557 432.319 17.8757 432.719 17.3557C433.119 16.8357 433.639 16.5357 434.279 16.4557L434.819 16.3357C435.219 16.2957 435.779 16.2557 436.499 16.2157C437.259 16.1357 437.899 16.0957 438.419 16.0957C438.939 16.0557 439.779 16.0157 440.939 15.9757C442.099 15.9357 443.199 15.8757 444.239 15.7957C445.279 15.7157 446.219 15.6357 447.059 15.5557C447.939 15.5157 448.739 15.4757 449.459 15.4357C450.219 15.3957 450.839 15.3757 451.319 15.3757C451.879 15.3357 452.339 15.3157 452.699 15.3157L453.239 15.3157C453.879 15.3157 454.429 15.5457 454.889 16.0057C455.349 16.4657 455.579 17.0257 455.579 17.6857C455.579 18.3457 455.349 18.9057 454.889 19.3657C454.429 19.8257 453.879 20.0557 453.239 20.0557L452.699 20.0557C452.379 20.0557 451.979 20.0557 451.499 20.0557C451.019 20.0957 450.419 20.1357 449.699 20.1757C449.019 20.1757 448.259 20.2157 447.419 20.2957C446.579 20.3757 445.619 20.4457 444.539 20.5057C443.459 20.5657 442.339 20.6357 441.179 20.7157C439.979 20.7557 439.139 20.7957 438.659 20.8357C438.139 20.8357 437.539 20.8757 436.859 20.9557C436.699 20.9557 436.519 20.9557 436.319 20.9557L436.559 21.9757C436.799 22.9357 436.959 23.7357 437.039 24.3757C437.119 24.9757 437.259 25.9957 437.459 27.4357C437.699 28.8357 437.919 30.2757 438.119 31.7557C438.119 31.7957 438.119 31.8357 438.119 31.8757L438.299 31.8757C438.739 31.8357 439.309 31.7757 440.009 31.6957C440.709 31.6157 441.479 31.5157 442.319 31.3957C443.199 31.2757 444.079 31.1957 444.959 31.1557C445.799 31.0757 446.619 31.0357 447.419 31.0357C448.139 31.0357 448.699 31.0357 449.099 31.0357L449.759 30.9757C450.439 30.9357 451.019 31.1457 451.499 31.6057C451.979 32.0657 452.229 32.6157 452.249 33.2557C452.269 33.8957 452.059 34.4557 451.619 34.9357C451.179 35.4157 450.639 35.6757 449.999 35.7157L449.279 35.7757C448.799 35.7757 448.179 35.7757 447.419 35.7757C446.779 35.7757 446.059 35.7957 445.259 35.8357C444.459 35.9157 443.679 35.9957 442.919 36.0757C442.119 36.1957 441.319 36.2957 440.519 36.3757C439.839 36.4557 439.279 36.5157 438.839 36.5557C438.999 37.6757 439.119 38.6957 439.199 39.6157C439.319 40.6557 439.419 41.5957 439.499 42.4357C439.619 43.1957 439.699 43.7957 439.739 44.2357C439.739 44.5557 439.779 45.0157 439.859 45.6157C439.899 45.9357 439.939 46.2157 439.979 46.4557C440.339 46.4557 440.739 46.4557 441.179 46.4557C441.939 46.4557 442.769 46.4457 443.669 46.4257C444.569 46.4057 445.569 46.3757 446.669 46.3357C447.769 46.2957 448.899 46.2357 450.059 46.1557C451.179 46.0757 452.219 45.9957 453.179 45.9157C454.179 45.8357 454.999 45.7957 455.639 45.7957L456.899 45.7957L457.379 45.7957C458.019 45.7957 458.569 46.0257 459.029 46.4857C459.489 46.9457 459.719 47.4957 459.719 48.1357C459.719 48.7757 459.489 49.3357 459.029 49.8157C458.569 50.2957 458.019 50.5357 457.379 50.5357L456.899 50.5357L455.639 50.5357C455.159 50.5357 454.479 50.5757 453.599 50.6557C452.599 50.7357 451.519 50.8157 450.359 50.8957C449.199 50.9357 448.049 50.9857 446.909 51.0457C445.769 51.1057 444.729 51.1457 443.789 51.1657C442.849 51.1857 441.979 51.1957 441.179 51.1957C440.379 51.1957 439.679 51.1757 439.079 51.1357L438.239 51.0757C437.199 51.0357 436.499 50.5157 436.139 49.5157C435.699 49.1157 435.439 48.6157 435.359 48.0157L435.359 47.5957C435.319 47.2757 435.259 46.8157 435.179 46.2157C435.099 45.5357 435.039 44.9957 434.999 44.5957C434.959 44.2757 434.899 43.7157 434.819 42.9157C434.739 42.1157 434.639 41.1957 434.519 40.1557C434.399 39.1157 434.239 37.9557 434.039 36.6757C433.839 35.3157 433.639 33.8957 433.439 32.4157C433.199 30.9757 432.979 29.5357 432.779 28.0957C432.579 26.6557 432.439 25.6357 432.359 25.0357C432.279 24.5157 432.139 23.8557 431.939 23.0557L431.639 21.6757C431.439 20.8357 431.659 20.0957 432.299 19.4557C432.299 19.3357 432.279 19.2157 432.239 19.0957Z"/>
<path d="M495.359 3.37567C496.159 3.37567 496.819 3.71567 497.339 4.39567C497.699 4.23567 498.139 4.07567 498.659 3.91567C499.699 3.67567 500.949 3.56567 502.409 3.58567C503.869 3.60567 505.099 3.77567 506.099 4.09567C507.019 4.41567 507.899 4.79567 508.739 5.23567C509.499 5.67567 510.239 6.15567 510.959 6.67567C511.759 7.23567 512.459 7.85567 513.059 8.53567C513.619 9.17567 514.139 9.85567 514.619 10.5757C515.179 11.3757 515.639 12.2357 515.999 13.1557C516.399 14.0357 516.699 14.9357 516.899 15.8557C517.099 16.8557 517.179 17.9957 517.139 19.2757C517.099 20.5157 516.959 21.5757 516.719 22.4557C516.479 23.2157 516.199 23.9557 515.879 24.6757C515.559 25.4357 515.219 26.1157 514.859 26.7157C514.499 27.2757 514.139 27.7957 513.779 28.2757C513.419 28.7557 512.909 29.2957 512.249 29.8957C511.589 30.4957 510.999 30.9657 510.479 31.3057C509.959 31.6457 509.379 31.9557 508.739 32.2357C508.179 32.4757 507.619 32.6957 507.059 32.8957C506.419 33.0957 505.759 33.2357 505.079 33.3157C504.519 33.3957 503.939 33.4557 503.339 33.4957C502.699 33.4957 501.899 33.4357 500.939 33.3157C500.019 33.1557 499.259 32.9957 498.659 32.8357C498.579 32.7957 498.499 32.7557 498.419 32.7157C498.419 33.7157 498.419 34.6557 498.419 35.5357C498.419 36.5757 498.419 37.6957 498.419 38.8957C498.419 40.0957 498.439 41.2157 498.479 42.2557C498.479 43.3757 498.479 44.3157 498.479 45.0757L498.479 47.3557C498.479 48.0757 498.489 48.8257 498.509 49.6057C498.529 50.3857 498.539 50.9557 498.539 51.3157C498.579 51.7957 498.599 52.1757 498.599 52.4557L498.599 52.8157C498.599 53.4557 498.359 54.0157 497.879 54.4957C497.399 54.9757 496.839 55.2157 496.199 55.2157C495.559 55.2157 495.009 54.9757 494.549 54.4957C494.089 54.0157 493.859 53.4557 493.859 52.8157L493.859 52.4557C493.859 52.2157 493.839 51.9157 493.799 51.5557C493.799 51.1557 493.789 50.5457 493.769 49.7257C493.749 48.9057 493.739 48.1157 493.739 47.3557L493.739 45.0757C493.739 44.3157 493.739 43.4157 493.739 42.3757C493.699 41.2957 493.679 40.1357 493.679 38.8957C493.679 37.6557 493.679 36.5357 493.679 35.5357C493.679 34.5357 493.679 33.4957 493.679 32.4157C493.639 31.3357 493.599 30.0957 493.559 28.6957C493.519 27.2957 493.479 25.8657 493.439 24.4057C493.399 22.9457 493.379 21.5857 493.379 20.3257C493.379 19.0657 493.379 17.8557 493.379 16.6957C493.379 15.5757 493.339 14.4757 493.259 13.3957C493.179 12.3557 493.139 11.3357 493.139 10.3357C492.539 9.49567 492.519 8.63567 493.079 7.75567C493.079 7.55567 493.079 7.35567 493.079 7.15567L493.019 5.83567C493.019 5.19567 493.249 4.63567 493.709 4.15567C494.169 3.67567 494.719 3.41567 495.359 3.37567ZM498.299 27.5557L498.419 27.6157C499.139 27.9757 499.679 28.2057 500.039 28.3057C500.399 28.4057 500.939 28.5157 501.659 28.6357C502.299 28.7157 502.819 28.7557 503.219 28.7557C503.659 28.7157 504.099 28.6757 504.539 28.6357C504.899 28.5957 505.239 28.5157 505.559 28.3957C505.959 28.2757 506.379 28.0957 506.819 27.8557C507.219 27.6957 507.569 27.5157 507.869 27.3157C508.169 27.1157 508.549 26.8057 509.009 26.3857C509.469 25.9657 509.819 25.6157 510.059 25.3357C510.299 25.0157 510.559 24.6557 510.839 24.2557C511.079 23.8157 511.319 23.3257 511.559 22.7857C511.799 22.2457 511.999 21.6957 512.159 21.1357C512.279 20.6957 512.359 20.0257 512.399 19.1257C512.439 18.2257 512.379 17.4757 512.219 16.8757C512.099 16.2357 511.899 15.5957 511.619 14.9557C511.379 14.3557 511.079 13.7957 510.719 13.2757C510.319 12.6757 509.899 12.1357 509.459 11.6557C509.139 11.2557 508.719 10.8757 508.199 10.5157C507.639 10.0757 507.039 9.69567 506.399 9.37567C505.879 9.05567 505.299 8.79567 504.659 8.59567C504.099 8.43567 503.309 8.34567 502.289 8.32567C501.269 8.30567 500.479 8.37567 499.919 8.53567C499.279 8.69567 498.719 8.89567 498.239 9.13567C498.079 9.21567 497.939 9.29567 497.819 9.37567C497.859 9.57567 497.879 9.77567 497.879 9.97567C497.879 10.9757 497.919 12.0157 497.999 13.0957C498.079 14.2557 498.119 15.4557 498.119 16.6957C498.119 17.8557 498.119 19.0557 498.119 20.2957C498.119 21.5357 498.139 22.8757 498.179 24.3157C498.219 25.3957 498.259 26.4757 498.299 27.5557Z"/>
<path d="M524.459 4.81567C524.979 4.41567 525.559 4.26567 526.199 4.36567C526.839 4.46567 527.359 4.77567 527.759 5.29567C528.159 5.81567 528.299 6.39567 528.179 7.03567L528.119 7.69567C528.079 7.97567 528.039 8.75567 527.999 10.0357C527.999 11.3957 527.979 12.9357 527.939 14.6557C527.899 16.3357 527.879 18.4757 527.879 21.0757C527.879 22.5157 527.879 23.8357 527.879 25.0357C528.199 24.7157 528.519 24.4157 528.839 24.1357C529.519 23.5357 530.399 22.9157 531.479 22.2757C532.559 21.6757 533.439 21.2557 534.119 21.0157C534.839 20.7357 535.539 20.5757 536.219 20.5357C536.899 20.4957 537.579 20.5157 538.259 20.5957C539.059 20.7157 539.939 21.0357 540.899 21.5557C541.779 22.0357 542.499 22.5157 543.059 22.9957C543.619 23.4357 544.099 23.8957 544.499 24.3757C544.979 24.8957 545.479 25.6557 545.999 26.6557C546.479 27.5757 546.839 28.3157 547.079 28.8757C547.319 29.5157 547.579 30.3357 547.859 31.3357C548.099 32.3357 548.279 33.1957 548.399 33.9157C548.519 34.6357 548.619 35.3157 548.699 35.9557C548.739 36.5557 548.799 37.2557 548.879 38.0557C548.959 38.8157 549.019 39.4557 549.059 39.9757C549.139 40.4957 549.199 41.0157 549.239 41.5357C549.279 42.0557 549.319 42.5157 549.359 42.9157C549.399 43.3157 549.419 43.6957 549.419 44.0557C549.459 44.5357 549.479 44.8957 549.479 45.1357C549.519 45.4557 549.539 45.7757 549.539 46.0957L549.539 48.9157C549.539 49.5557 549.299 50.1057 548.819 50.5657C548.339 51.0257 547.779 51.2557 547.139 51.2557C546.499 51.2557 545.949 51.0257 545.489 50.5657C545.029 50.1057 544.799 49.5557 544.799 48.9157L544.799 46.0957C544.799 45.8957 544.779 45.6757 544.739 45.4357C544.739 45.1957 544.719 44.8157 544.679 44.2957C544.679 43.9757 544.659 43.6557 544.619 43.3357C544.579 42.9357 544.539 42.4957 544.499 42.0157C544.459 41.4957 544.419 40.9757 544.379 40.4557C544.299 39.9757 544.219 39.3357 544.139 38.5357C544.059 37.7357 543.999 37.0357 543.959 36.4357C543.919 35.8757 543.839 35.2957 543.719 34.6957C543.639 34.0957 543.479 33.3757 543.239 32.5357C543.039 31.6957 542.859 31.0757 542.699 30.6757C542.539 30.2757 542.259 29.6957 541.859 28.9357C541.499 28.2557 541.199 27.7957 540.959 27.5557C540.679 27.2357 540.359 26.9157 539.999 26.5957C539.679 26.3557 539.239 26.0757 538.679 25.7557C538.199 25.4757 537.819 25.3157 537.539 25.2757C537.219 25.2357 536.919 25.2357 536.639 25.2757C536.359 25.2757 536.039 25.3357 535.679 25.4557C535.279 25.6157 534.679 25.9357 533.879 26.4157C533.039 26.8557 532.409 27.2757 531.989 27.6757C531.569 28.0757 531.199 28.4757 530.879 28.8757C530.519 29.3557 530.179 29.8357 529.859 30.3157C529.539 30.7957 529.279 31.2557 529.079 31.6957C528.919 32.0957 528.759 32.6557 528.599 33.3757C528.399 34.1757 528.299 34.8957 528.299 35.5357C528.259 36.2157 528.239 36.8357 528.239 37.3957C528.279 37.9957 528.319 38.6757 528.359 39.4357C528.399 40.1957 528.459 41.0357 528.539 41.9557C528.579 42.8757 528.619 43.8157 528.659 44.7757C528.739 45.7357 528.779 46.6357 528.779 47.4757C528.779 47.6357 528.379 47.8557 527.579 48.1357C526.779 48.4157 526.029 48.5957 525.329 48.6757C524.629 48.7557 524.199 48.6357 524.039 48.3157C524.039 47.9957 523.999 47.1557 523.919 45.7957C523.799 44.3957 523.699 42.9957 523.619 41.5957C523.499 40.1557 523.419 38.6757 523.379 37.1557C523.339 35.6757 523.299 34.1557 523.259 32.5957C523.259 31.0757 523.239 29.4357 523.199 27.6757C523.159 25.9157 523.139 23.7157 523.139 21.0757C523.139 18.4357 523.159 16.2557 523.199 14.5357C523.239 12.9357 523.259 11.4157 523.259 9.97567C523.299 8.49567 523.359 7.49567 523.439 6.97567L523.499 6.37567C523.619 5.73567 523.939 5.21567 524.459 4.81567Z"/>
<path d="M566.639 18.0877L566.447 18.0877C566.191 18.1517 565.759 18.3917 565.151 18.8077C564.351 19.3197 563.615 19.9437 562.943 20.6797C562.239 21.4157 561.599 22.2797 561.023 23.2717C560.447 24.1997 559.983 25.2717 559.631 26.4877C559.247 27.7677 558.975 29.0157 558.815 30.2317C558.687 31.4157 558.655 32.5197 558.719 33.5437C558.751 34.5997 558.863 35.6397 559.055 36.6637C559.247 37.6877 559.487 38.5997 559.775 39.3997C560.063 40.1677 560.367 40.7917 560.687 41.2717C561.007 41.7517 561.423 42.2237 561.935 42.6877C562.447 43.1517 563.055 43.5757 563.759 43.9597C564.495 44.3437 565.247 44.6317 566.015 44.8237C566.687 45.0157 567.663 45.0637 568.943 44.9677C570.127 44.8717 570.975 44.6797 571.487 44.3917C572.063 44.0717 572.527 43.7357 572.879 43.3837C573.263 42.9677 573.663 42.4397 574.079 41.7997C574.463 41.1597 574.815 40.4637 575.135 39.7117C575.455 38.9597 575.711 38.1517 575.903 37.2877C576.127 36.3597 576.303 35.4477 576.431 34.5517C576.527 33.6557 576.591 32.7757 576.623 31.9117C576.655 31.0797 576.575 30.0877 576.383 28.9357C576.223 27.8477 576.031 27.0157 575.807 26.4397C575.583 25.7997 575.327 25.2237 575.039 24.7117C574.719 24.1037 574.415 23.5597 574.127 23.0797C573.871 22.6317 573.615 22.2317 573.359 21.8797C573.071 21.5277 572.775 21.1837 572.471 20.8477C572.167 20.5117 571.871 20.1997 571.583 19.9117C571.295 19.6237 570.975 19.3517 570.623 19.0957C570.271 18.8397 569.967 18.6317 569.711 18.4717C569.455 18.3437 569.199 18.2317 568.943 18.1357C568.719 18.0397 568.479 17.9757 568.223 17.9437C568.095 17.9437 567.983 17.9437 567.887 17.9437L567.407 18.0397C567.151 18.1037 566.895 18.1197 566.639 18.0877ZM567.119 14.2477C567.663 14.1197 568.223 14.1037 568.799 14.1997C569.311 14.2957 569.807 14.4237 570.287 14.5837C570.703 14.7437 571.135 14.9517 571.583 15.2077C571.967 15.4317 572.415 15.7197 572.927 16.0717C573.375 16.4557 573.783 16.8157 574.151 17.1517C574.519 17.4877 574.895 17.8717 575.279 18.3037C575.663 18.7357 576.031 19.1597 576.383 19.5757C576.735 20.0557 577.071 20.5837 577.391 21.1597C577.711 21.7037 578.031 22.2797 578.351 22.8877C578.735 23.5597 579.071 24.2797 579.359 25.0477C579.679 25.8797 579.935 26.9997 580.127 28.4077C580.351 29.7517 580.447 30.9517 580.415 32.0077C580.383 32.9997 580.303 34.0077 580.175 35.0317C580.047 36.0557 579.855 37.0797 579.599 38.1037C579.375 39.1917 579.063 40.2077 578.663 41.1517C578.263 42.0957 577.791 42.9837 577.247 43.8157C576.735 44.6477 576.207 45.3677 575.663 45.9757C575.023 46.6477 574.239 47.2237 573.311 47.7037C572.319 48.2477 570.959 48.5997 569.231 48.7597C567.535 48.8877 566.143 48.8077 565.055 48.5197C563.999 48.2317 562.991 47.8317 562.031 47.3197C561.039 46.8077 560.167 46.2077 559.415 45.5197C558.663 44.8317 558.031 44.1197 557.519 43.3837C557.039 42.6477 556.607 41.7517 556.223 40.6957C555.871 39.6717 555.583 38.5677 555.359 37.3837C555.135 36.1997 554.991 34.9997 554.927 33.7837C554.831 32.5357 554.879 31.1917 555.071 29.7517C555.231 28.3437 555.535 26.9037 555.983 25.4317C556.431 23.8957 557.023 22.5197 557.759 21.3037C558.463 20.1197 559.263 19.0477 560.159 18.0877C561.055 17.1277 562.015 16.3117 563.039 15.6397C564.191 14.8717 565.151 14.4397 565.919 14.3437L566.639 14.2477C566.767 14.2157 566.927 14.2157 567.119 14.2477Z"/>
<path d="M587.435 16.5157C588.275 16.5557 589.155 16.5557 590.075 16.5157C591.075 16.5157 592.095 16.4957 593.135 16.4557C594.255 16.3757 595.095 16.3357 595.655 16.3357C596.255 16.2957 597.095 16.2557 598.175 16.2157C599.255 16.1757 600.275 16.1357 601.235 16.0957C602.195 16.0557 603.035 15.9957 603.755 15.9157C604.595 15.8357 605.255 15.7957 605.735 15.7957C606.255 15.7557 606.675 15.7357 606.995 15.7357L607.415 15.7357C608.055 15.7357 608.605 15.9757 609.065 16.4557C609.525 16.9357 609.755 17.4957 609.755 18.1357C609.755 18.7757 609.525 19.3257 609.065 19.7857C608.605 20.2457 608.055 20.4757 607.415 20.4757L606.995 20.4757C606.715 20.4757 606.355 20.4957 605.915 20.5357C605.515 20.5357 604.935 20.5757 604.175 20.6557C603.375 20.7357 602.475 20.7957 601.475 20.8357C600.595 20.8757 599.655 20.9157 598.655 20.9557L598.655 21.0157C598.735 21.8157 598.775 22.4357 598.775 22.8757C598.775 23.3157 598.795 23.9757 598.835 24.8557C598.875 25.7757 598.895 26.7157 598.895 27.6757L598.895 30.3757C598.895 31.2157 598.895 32.0357 598.895 32.8357C598.895 33.6357 598.855 34.4757 598.775 35.3557C598.735 36.1957 598.695 36.9757 598.655 37.6957C598.575 38.4557 598.535 39.1357 598.535 39.7357C598.495 40.3357 598.475 40.9157 598.475 41.4757L598.475 44.2957C598.475 44.6557 598.475 45.0357 598.475 45.4357C598.475 45.8357 598.475 46.1757 598.475 46.4557C598.515 46.7757 598.535 47.1157 598.535 47.4757L598.535 48.7957C598.535 49.4357 598.295 49.9857 597.815 50.4457C597.335 50.9057 596.775 51.1357 596.135 51.1357C595.495 51.1357 594.945 50.9057 594.485 50.4457C594.025 49.9857 593.795 49.4357 593.795 48.7957L593.795 47.4757C593.795 47.1557 593.775 46.8557 593.735 46.5757C593.735 46.2957 593.735 45.9357 593.735 45.4957C593.735 45.0957 593.735 44.6957 593.735 44.2957L593.735 41.4757C593.735 40.8357 593.755 40.1757 593.795 39.4957C593.835 38.8157 593.875 38.1157 593.915 37.3957C593.955 36.6357 593.995 35.8557 594.035 35.0557C594.115 34.2557 594.155 33.4957 594.155 32.7757C594.155 32.0157 594.155 31.2157 594.155 30.3757L594.155 27.6757C594.155 26.7957 594.135 25.9157 594.095 25.0357C594.055 24.1157 594.035 23.4357 594.035 22.9957C594.035 22.5957 594.015 22.0357 593.975 21.3157L593.915 21.1357C593.755 21.1357 593.575 21.1557 593.375 21.1957C592.295 21.2357 591.235 21.2557 590.195 21.2557C589.115 21.2957 588.095 21.2957 587.135 21.2557C587.055 21.2557 586.855 20.8457 586.535 20.0257C586.215 19.2057 585.985 18.4357 585.845 17.7157C585.705 16.9957 585.895 16.5757 586.415 16.4557L586.895 16.4557C587.055 16.4557 587.235 16.4757 587.435 16.5157Z"/>
<path d="M626.915 18.0877L626.723 18.0877C626.467 18.1517 626.035 18.3917 625.427 18.8077C624.627 19.3197 623.891 19.9437 623.219 20.6797C622.515 21.4157 621.875 22.2797 621.299 23.2717C620.723 24.1997 620.259 25.2717 619.907 26.4877C619.523 27.7677 619.251 29.0157 619.091 30.2317C618.963 31.4157 618.931 32.5197 618.995 33.5437C619.027 34.5997 619.139 35.6397 619.331 36.6637C619.523 37.6877 619.763 38.5997 620.051 39.3997C620.339 40.1677 620.643 40.7917 620.963 41.2717C621.283 41.7517 621.699 42.2237 622.211 42.6877C622.723 43.1517 623.331 43.5757 624.035 43.9597C624.771 44.3437 625.523 44.6317 626.291 44.8237C626.963 45.0157 627.939 45.0637 629.219 44.9677C630.403 44.8717 631.251 44.6797 631.763 44.3917C632.339 44.0717 632.803 43.7357 633.155 43.3837C633.539 42.9677 633.939 42.4397 634.355 41.7997C634.739 41.1597 635.091 40.4637 635.411 39.7117C635.731 38.9597 635.987 38.1517 636.179 37.2877C636.403 36.3597 636.579 35.4477 636.707 34.5517C636.803 33.6557 636.867 32.7757 636.899 31.9117C636.931 31.0797 636.851 30.0877 636.659 28.9357C636.499 27.8477 636.307 27.0157 636.083 26.4397C635.859 25.7997 635.603 25.2237 635.315 24.7117C634.995 24.1037 634.691 23.5597 634.403 23.0797C634.147 22.6317 633.891 22.2317 633.635 21.8797C633.347 21.5277 633.051 21.1837 632.747 20.8477C632.443 20.5117 632.147 20.1997 631.859 19.9117C631.571 19.6237 631.251 19.3517 630.899 19.0957C630.547 18.8397 630.243 18.6317 629.987 18.4717C629.731 18.3437 629.475 18.2317 629.219 18.1357C628.995 18.0397 628.755 17.9757 628.499 17.9437C628.371 17.9437 628.259 17.9437 628.163 17.9437L627.683 18.0397C627.427 18.1037 627.171 18.1197 626.915 18.0877ZM627.395 14.2477C627.939 14.1197 628.499 14.1037 629.075 14.1997C629.587 14.2957 630.083 14.4237 630.563 14.5837C630.979 14.7437 631.411 14.9517 631.859 15.2077C632.243 15.4317 632.691 15.7197 633.203 16.0717C633.651 16.4557 634.059 16.8157 634.427 17.1517C634.795 17.4877 635.171 17.8717 635.555 18.3037C635.939 18.7357 636.307 19.1597 636.659 19.5757C637.011 20.0557 637.347 20.5837 637.667 21.1597C637.987 21.7037 638.307 22.2797 638.627 22.8877C639.011 23.5597 639.347 24.2797 639.635 25.0477C639.955 25.8797 640.211 26.9997 640.403 28.4077C640.627 29.7517 640.723 30.9517 640.691 32.0077C640.659 32.9997 640.579 34.0077 640.451 35.0317C640.323 36.0557 640.131 37.0797 639.875 38.1037C639.651 39.1917 639.339 40.2077 638.939 41.1517C638.539 42.0957 638.067 42.9837 637.523 43.8157C637.011 44.6477 636.483 45.3677 635.939 45.9757C635.299 46.6477 634.515 47.2237 633.587 47.7037C632.595 48.2477 631.235 48.5997 629.507 48.7597C627.811 48.8877 626.419 48.8077 625.331 48.5197C624.275 48.2317 623.267 47.8317 622.307 47.3197C621.315 46.8077 620.443 46.2077 619.691 45.5197C618.939 44.8317 618.307 44.1197 617.795 43.3837C617.315 42.6477 616.883 41.7517 616.499 40.6957C616.147 39.6717 615.859 38.5677 615.635 37.3837C615.411 36.1997 615.267 34.9997 615.203 33.7837C615.107 32.5357 615.155 31.1917 615.347 29.7517C615.507 28.3437 615.811 26.9037 616.259 25.4317C616.707 23.8957 617.299 22.5197 618.035 21.3037C618.739 20.1197 619.539 19.0477 620.435 18.0877C621.331 17.1277 622.291 16.3117 623.315 15.6397C624.467 14.8717 625.427 14.4397 626.195 14.3437L626.915 14.2477C627.043 14.2157 627.203 14.2157 627.395 14.2477Z"/>
<path d="M673.631 5.95567C674.071 5.43567 674.611 5.14567 675.251 5.08567C675.891 5.02567 676.461 5.20567 676.961 5.62567C677.461 6.04567 677.751 6.57567 677.831 7.21567L677.891 8.23567C678.531 7.75567 679.251 7.33567 680.051 6.97567C681.011 6.45567 682.111 6.08567 683.351 5.86567C684.591 5.64567 685.811 5.57567 687.011 5.65567C688.251 5.77567 689.451 6.07567 690.611 6.55567C691.771 7.03567 692.801 7.63567 693.701 8.35567C694.601 9.07567 695.531 10.1157 696.491 11.4757C697.531 12.8757 698.191 14.2357 698.471 15.5557C698.751 16.8357 698.811 18.1357 698.651 19.4557C698.531 20.7757 698.231 21.9757 697.751 23.0557C697.351 24.1357 696.831 25.1557 696.191 26.1157C695.631 26.9557 694.771 27.8357 693.611 28.7557C693.851 28.8357 694.071 28.9157 694.271 28.9957C695.271 29.4357 696.151 29.9557 696.911 30.5557C697.671 31.1557 698.351 31.8557 698.951 32.6557C699.551 33.4957 700.051 34.5157 700.451 35.7157C700.851 36.9957 700.991 38.1557 700.871 39.1957C700.751 40.0757 700.571 40.8957 700.331 41.6557C700.131 42.4157 699.831 43.1757 699.431 43.9357C699.031 44.7757 698.551 45.5157 697.991 46.1557C697.471 46.8357 696.711 47.5157 695.711 48.1957C694.671 48.9557 693.691 49.4757 692.771 49.7557C691.891 49.9957 690.771 50.1157 689.411 50.1157C688.091 50.1157 686.951 50.0157 685.991 49.8157C685.111 49.6157 684.271 49.3557 683.471 49.0357C682.671 48.7557 681.711 48.3557 680.591 47.8357C679.871 47.4757 679.231 47.1557 678.671 46.8757L678.671 48.1957C678.671 48.8357 678.441 49.3857 677.981 49.8457C677.521 50.3057 676.971 50.5357 676.331 50.5357C675.691 50.5357 675.131 50.3057 674.651 49.8457C674.171 49.3857 673.931 48.8357 673.931 48.1957L673.931 43.0957C673.931 42.2957 673.951 41.4157 673.991 40.4557C674.031 39.5757 674.051 38.5757 674.051 37.4557C674.091 36.2157 674.111 34.5757 674.111 32.5357C674.151 30.4957 674.151 28.8157 674.111 27.4957C674.111 26.1357 674.071 24.7157 673.991 23.2357C673.911 21.7557 673.841 20.2957 673.781 18.8557C673.721 17.4157 673.651 16.0557 673.571 14.7757C673.531 13.5357 673.471 12.3957 673.391 11.3557C673.351 10.3157 673.291 9.45567 673.211 8.77567L673.091 7.69567C673.051 7.05567 673.231 6.47567 673.631 5.95567ZM678.731 41.0557L679.151 41.4157C679.551 41.7357 680.011 42.0757 680.531 42.4357C681.011 42.7557 681.711 43.1357 682.631 43.5757C683.591 44.0157 684.391 44.3557 685.031 44.5957C685.671 44.8357 686.331 45.0357 687.011 45.1957C687.651 45.3157 688.451 45.3757 689.411 45.3757C690.291 45.3757 690.971 45.3157 691.451 45.1957C691.851 45.0757 692.351 44.7957 692.951 44.3557C693.591 43.9157 694.051 43.5157 694.331 43.1557C694.651 42.7957 694.931 42.3757 695.171 41.8957C695.451 41.3357 695.671 40.7957 695.831 40.2757C695.991 39.7557 696.091 39.2157 696.131 38.6557C696.211 38.2957 696.131 37.7957 695.891 37.1557C695.691 36.4357 695.451 35.8757 695.171 35.4757C694.851 35.0357 694.461 34.6357 694.001 34.2757C693.541 33.9157 693.011 33.6157 692.411 33.3757C691.811 33.0957 691.131 32.8957 690.371 32.7757C689.971 32.6957 689.551 32.6357 689.111 32.5957C688.711 32.5557 688.291 32.5357 687.851 32.5357C687.411 32.5357 686.971 32.5357 686.531 32.5357C686.171 32.6557 685.831 32.7557 685.511 32.8357C684.511 33.1157 683.611 33.3157 682.811 33.4357C682.051 33.5557 681.411 33.6557 680.891 33.7357C680.371 33.7757 679.871 33.7957 679.391 33.7957C679.191 33.7957 679.011 33.7957 678.851 33.7957C678.851 35.2357 678.831 36.4557 678.791 37.4557C678.791 38.6557 678.771 39.7157 678.731 40.6357C678.731 40.7957 678.731 40.9357 678.731 41.0557ZM678.911 30.7357L680.411 28.6357C681.931 28.3157 683.271 28.0957 684.431 27.9757C684.831 27.8957 685.231 27.8557 685.631 27.8557C686.071 27.6957 686.531 27.5157 687.011 27.3157C687.291 27.1957 687.591 27.0557 687.911 26.8957C688.591 26.5357 689.331 26.0757 690.131 25.5157C691.131 24.7557 691.831 24.0757 692.231 23.4757C692.711 22.7957 693.091 22.0757 693.371 21.3157C693.651 20.5957 693.851 19.8157 693.971 18.9757C694.051 18.1357 694.011 17.3357 693.851 16.5757C693.691 15.8957 693.291 15.0957 692.651 14.1757C691.931 13.2157 691.301 12.5057 690.761 12.0457C690.221 11.5857 689.581 11.2157 688.841 10.9357C688.101 10.6557 687.351 10.4757 686.591 10.3957C685.831 10.3157 685.051 10.3557 684.251 10.5157C683.451 10.6757 682.751 10.8957 682.151 11.1757C681.511 11.4957 680.971 11.8557 680.531 12.2557C680.171 12.5357 679.851 12.8957 679.571 13.3357L678.971 14.4757C678.811 14.7557 678.611 14.9957 678.371 15.1957C678.411 16.2757 678.451 17.4157 678.491 18.6157C678.571 20.0557 678.651 21.5157 678.731 22.9957C678.811 24.5557 678.851 26.0157 678.851 27.3757C678.891 28.3357 678.911 29.4557 678.911 30.7357Z"/>
<path d="M718.031 18.0877L717.839 18.0877C717.583 18.1517 717.151 18.3917 716.543 18.8077C715.743 19.3197 715.007 19.9437 714.335 20.6797C713.631 21.4157 712.991 22.2797 712.415 23.2717C711.839 24.1997 711.375 25.2717 711.023 26.4877C710.639 27.7677 710.367 29.0157 710.207 30.2317C710.079 31.4157 710.047 32.5197 710.111 33.5437C710.143 34.5997 710.255 35.6397 710.447 36.6637C710.639 37.6877 710.879 38.5997 711.167 39.3997C711.455 40.1677 711.759 40.7917 712.079 41.2717C712.399 41.7517 712.815 42.2237 713.327 42.6877C713.839 43.1517 714.447 43.5757 715.151 43.9597C715.887 44.3437 716.639 44.6317 717.407 44.8237C718.079 45.0157 719.055 45.0637 720.335 44.9677C721.519 44.8717 722.367 44.6797 722.879 44.3917C723.455 44.0717 723.919 43.7357 724.271 43.3837C724.655 42.9677 725.055 42.4397 725.471 41.7997C725.855 41.1597 726.207 40.4637 726.527 39.7117C726.847 38.9597 727.103 38.1517 727.295 37.2877C727.519 36.3597 727.695 35.4477 727.823 34.5517C727.919 33.6557 727.983 32.7757 728.015 31.9117C728.047 31.0797 727.967 30.0877 727.775 28.9357C727.615 27.8477 727.423 27.0157 727.199 26.4397C726.975 25.7997 726.719 25.2237 726.431 24.7117C726.111 24.1037 725.807 23.5597 725.519 23.0797C725.263 22.6317 725.007 22.2317 724.751 21.8797C724.463 21.5277 724.167 21.1837 723.863 20.8477C723.559 20.5117 723.263 20.1997 722.975 19.9117C722.687 19.6237 722.367 19.3517 722.015 19.0957C721.663 18.8397 721.359 18.6317 721.103 18.4717C720.847 18.3437 720.591 18.2317 720.335 18.1357C720.111 18.0397 719.871 17.9757 719.615 17.9437C719.487 17.9437 719.375 17.9437 719.279 17.9437L718.799 18.0397C718.543 18.1037 718.287 18.1197 718.031 18.0877ZM718.511 14.2477C719.055 14.1197 719.615 14.1037 720.191 14.1997C720.703 14.2957 721.199 14.4237 721.679 14.5837C722.095 14.7437 722.527 14.9517 722.975 15.2077C723.359 15.4317 723.807 15.7197 724.319 16.0717C724.767 16.4557 725.175 16.8157 725.543 17.1517C725.911 17.4877 726.287 17.8717 726.671 18.3037C727.055 18.7357 727.423 19.1597 727.775 19.5757C728.127 20.0557 728.463 20.5837 728.783 21.1597C729.103 21.7037 729.423 22.2797 729.743 22.8877C730.127 23.5597 730.463 24.2797 730.751 25.0477C731.071 25.8797 731.327 26.9997 731.519 28.4077C731.743 29.7517 731.839 30.9517 731.807 32.0077C731.775 32.9997 731.695 34.0077 731.567 35.0317C731.439 36.0557 731.247 37.0797 730.991 38.1037C730.767 39.1917 730.455 40.2077 730.055 41.1517C729.655 42.0957 729.183 42.9837 728.639 43.8157C728.127 44.6477 727.599 45.3677 727.055 45.9757C726.415 46.6477 725.631 47.2237 724.703 47.7037C723.711 48.2477 722.351 48.5997 720.623 48.7597C718.927 48.8877 717.535 48.8077 716.447 48.5197C715.391 48.2317 714.383 47.8317 713.423 47.3197C712.431 46.8077 711.559 46.2077 710.807 45.5197C710.055 44.8317 709.423 44.1197 708.911 43.3837C708.431 42.6477 707.999 41.7517 707.615 40.6957C707.263 39.6717 706.975 38.5677 706.751 37.3837C706.527 36.1997 706.383 34.9997 706.319 33.7837C706.223 32.5357 706.271 31.1917 706.463 29.7517C706.623 28.3437 706.927 26.9037 707.375 25.4317C707.823 23.8957 708.415 22.5197 709.151 21.3037C709.855 20.1197 710.655 19.0477 711.551 18.0877C712.447 17.1277 713.407 16.3117 714.431 15.6397C715.583 14.8717 716.543 14.4397 717.311 14.3437L718.031 14.2477C718.159 14.2157 718.319 14.2157 718.511 14.2477Z"/>
<path d="M748.367 18.0877L748.175 18.0877C747.919 18.1517 747.487 18.3917 746.879 18.8077C746.079 19.3197 745.343 19.9437 744.671 20.6797C743.967 21.4157 743.327 22.2797 742.751 23.2717C742.175 24.1997 741.711 25.2717 741.359 26.4877C740.975 27.7677 740.703 29.0157 740.543 30.2317C740.415 31.4157 740.383 32.5197 740.447 33.5437C740.479 34.5997 740.591 35.6397 740.783 36.6637C740.975 37.6877 741.215 38.5997 741.503 39.3997C741.791 40.1677 742.095 40.7917 742.415 41.2717C742.735 41.7517 743.151 42.2237 743.663 42.6877C744.175 43.1517 744.783 43.5757 745.487 43.9597C746.223 44.3437 746.975 44.6317 747.743 44.8237C748.415 45.0157 749.391 45.0637 750.671 44.9677C751.855 44.8717 752.703 44.6797 753.215 44.3917C753.791 44.0717 754.255 43.7357 754.607 43.3837C754.991 42.9677 755.391 42.4397 755.807 41.7997C756.191 41.1597 756.543 40.4637 756.863 39.7117C757.183 38.9597 757.439 38.1517 757.631 37.2877C757.855 36.3597 758.031 35.4477 758.159 34.5517C758.255 33.6557 758.319 32.7757 758.351 31.9117C758.383 31.0797 758.303 30.0877 758.111 28.9357C757.951 27.8477 757.759 27.0157 757.535 26.4397C757.311 25.7997 757.055 25.2237 756.767 24.7117C756.447 24.1037 756.143 23.5597 755.855 23.0797C755.599 22.6317 755.343 22.2317 755.087 21.8797C754.799 21.5277 754.503 21.1837 754.199 20.8477C753.895 20.5117 753.599 20.1997 753.311 19.9117C753.023 19.6237 752.703 19.3517 752.351 19.0957C751.999 18.8397 751.695 18.6317 751.439 18.4717C751.183 18.3437 750.927 18.2317 750.671 18.1357C750.447 18.0397 750.207 17.9757 749.951 17.9437C749.823 17.9437 749.711 17.9437 749.615 17.9437L749.135 18.0397C748.879 18.1037 748.623 18.1197 748.367 18.0877ZM748.847 14.2477C749.391 14.1197 749.951 14.1037 750.527 14.1997C751.039 14.2957 751.535 14.4237 752.015 14.5837C752.431 14.7437 752.863 14.9517 753.311 15.2077C753.695 15.4317 754.143 15.7197 754.655 16.0717C755.103 16.4557 755.511 16.8157 755.879 17.1517C756.247 17.4877 756.623 17.8717 757.007 18.3037C757.391 18.7357 757.759 19.1597 758.111 19.5757C758.463 20.0557 758.799 20.5837 759.119 21.1597C759.439 21.7037 759.759 22.2797 760.079 22.8877C760.463 23.5597 760.799 24.2797 761.087 25.0477C761.407 25.8797 761.663 26.9997 761.855 28.4077C762.079 29.7517 762.175 30.9517 762.143 32.0077C762.111 32.9997 762.031 34.0077 761.903 35.0317C761.775 36.0557 761.583 37.0797 761.327 38.1037C761.103 39.1917 760.791 40.2077 760.391 41.1517C759.991 42.0957 759.519 42.9837 758.975 43.8157C758.463 44.6477 757.935 45.3677 757.391 45.9757C756.751 46.6477 755.967 47.2237 755.039 47.7037C754.047 48.2477 752.687 48.5997 750.959 48.7597C749.263 48.8877 747.871 48.8077 746.783 48.5197C745.727 48.2317 744.719 47.8317 743.759 47.3197C742.767 46.8077 741.895 46.2077 741.143 45.5197C740.391 44.8317 739.759 44.1197 739.247 43.3837C738.767 42.6477 738.335 41.7517 737.951 40.6957C737.599 39.6717 737.311 38.5677 737.087 37.3837C736.863 36.1997 736.719 34.9997 736.655 33.7837C736.559 32.5357 736.607 31.1917 736.799 29.7517C736.959 28.3437 737.263 26.9037 737.711 25.4317C738.159 23.8957 738.751 22.5197 739.487 21.3037C740.191 20.1197 740.991 19.0477 741.887 18.0877C742.783 17.1277 743.743 16.3117 744.767 15.6397C745.919 14.8717 746.879 14.4397 747.647 14.3437L748.367 14.2477C748.495 14.2157 748.655 14.2157 748.847 14.2477Z"/>
<path d="M769.163 16.5157C770.003 16.5557 770.883 16.5557 771.803 16.5157C772.803 16.5157 773.823 16.4957 774.863 16.4557C775.983 16.3757 776.823 16.3357 777.383 16.3357C777.983 16.2957 778.823 16.2557 779.903 16.2157C780.983 16.1757 782.003 16.1357 782.963 16.0957C783.923 16.0557 784.763 15.9957 785.483 15.9157C786.323 15.8357 786.983 15.7957 787.463 15.7957C787.983 15.7557 788.403 15.7357 788.723 15.7357L789.143 15.7357C789.783 15.7357 790.333 15.9757 790.793 16.4557C791.253 16.9357 791.483 17.4957 791.483 18.1357C791.483 18.7757 791.253 19.3257 790.793 19.7857C790.333 20.2457 789.783 20.4757 789.143 20.4757L788.723 20.4757C788.443 20.4757 788.083 20.4957 787.643 20.5357C787.243 20.5357 786.663 20.5757 785.903 20.6557C785.103 20.7357 784.203 20.7957 783.203 20.8357C782.323 20.8757 781.383 20.9157 780.383 20.9557L780.383 21.0157C780.463 21.8157 780.503 22.4357 780.503 22.8757C780.503 23.3157 780.523 23.9757 780.563 24.8557C780.603 25.7757 780.623 26.7157 780.623 27.6757L780.623 30.3757C780.623 31.2157 780.623 32.0357 780.623 32.8357C780.623 33.6357 780.583 34.4757 780.503 35.3557C780.463 36.1957 780.423 36.9757 780.383 37.6957C780.303 38.4557 780.263 39.1357 780.263 39.7357C780.223 40.3357 780.203 40.9157 780.203 41.4757L780.203 44.2957C780.203 44.6557 780.203 45.0357 780.203 45.4357C780.203 45.8357 780.203 46.1757 780.203 46.4557C780.243 46.7757 780.263 47.1157 780.263 47.4757L780.263 48.7957C780.263 49.4357 780.023 49.9857 779.543 50.4457C779.063 50.9057 778.503 51.1357 777.863 51.1357C777.223 51.1357 776.673 50.9057 776.213 50.4457C775.753 49.9857 775.523 49.4357 775.523 48.7957L775.523 47.4757C775.523 47.1557 775.503 46.8557 775.463 46.5757C775.463 46.2957 775.463 45.9357 775.463 45.4957C775.463 45.0957 775.463 44.6957 775.463 44.2957L775.463 41.4757C775.463 40.8357 775.483 40.1757 775.523 39.4957C775.563 38.8157 775.603 38.1157 775.643 37.3957C775.683 36.6357 775.723 35.8557 775.763 35.0557C775.843 34.2557 775.883 33.4957 775.883 32.7757C775.883 32.0157 775.883 31.2157 775.883 30.3757L775.883 27.6757C775.883 26.7957 775.863 25.9157 775.823 25.0357C775.783 24.1157 775.763 23.4357 775.763 22.9957C775.763 22.5957 775.743 22.0357 775.703 21.3157L775.643 21.1357C775.483 21.1357 775.303 21.1557 775.103 21.1957C774.023 21.2357 772.963 21.2557 771.923 21.2557C770.843 21.2957 769.823 21.2957 768.863 21.2557C768.783 21.2557 768.583 20.8457 768.263 20.0257C767.943 19.2057 767.713 18.4357 767.573 17.7157C767.433 16.9957 767.623 16.5757 768.143 16.4557L768.623 16.4557C768.783 16.4557 768.963 16.4757 769.163 16.5157Z"/>
<path d="M798.803 4.81567C799.323 4.41567 799.903 4.26567 800.543 4.36567C801.183 4.46567 801.703 4.77567 802.103 5.29567C802.503 5.81567 802.643 6.39567 802.523 7.03567L802.463 7.69567C802.423 7.97567 802.383 8.75567 802.343 10.0357C802.343 11.3957 802.323 12.9357 802.283 14.6557C802.243 16.3357 802.223 18.4757 802.223 21.0757C802.223 22.5157 802.223 23.8357 802.223 25.0357C802.543 24.7157 802.863 24.4157 803.183 24.1357C803.863 23.5357 804.743 22.9157 805.823 22.2757C806.903 21.6757 807.783 21.2557 808.463 21.0157C809.183 20.7357 809.883 20.5757 810.563 20.5357C811.243 20.4957 811.923 20.5157 812.603 20.5957C813.403 20.7157 814.283 21.0357 815.243 21.5557C816.123 22.0357 816.843 22.5157 817.403 22.9957C817.963 23.4357 818.443 23.8957 818.843 24.3757C819.323 24.8957 819.823 25.6557 820.343 26.6557C820.823 27.5757 821.183 28.3157 821.423 28.8757C821.663 29.5157 821.923 30.3357 822.203 31.3357C822.443 32.3357 822.623 33.1957 822.743 33.9157C822.863 34.6357 822.963 35.3157 823.043 35.9557C823.083 36.5557 823.143 37.2557 823.223 38.0557C823.303 38.8157 823.363 39.4557 823.403 39.9757C823.483 40.4957 823.543 41.0157 823.583 41.5357C823.623 42.0557 823.663 42.5157 823.703 42.9157C823.743 43.3157 823.763 43.6957 823.763 44.0557C823.803 44.5357 823.823 44.8957 823.823 45.1357C823.863 45.4557 823.883 45.7757 823.883 46.0957L823.883 48.9157C823.883 49.5557 823.643 50.1057 823.163 50.5657C822.683 51.0257 822.123 51.2557 821.483 51.2557C820.843 51.2557 820.293 51.0257 819.833 50.5657C819.373 50.1057 819.143 49.5557 819.143 48.9157L819.143 46.0957C819.143 45.8957 819.123 45.6757 819.083 45.4357C819.083 45.1957 819.063 44.8157 819.023 44.2957C819.023 43.9757 819.003 43.6557 818.963 43.3357C818.923 42.9357 818.883 42.4957 818.843 42.0157C818.803 41.4957 818.763 40.9757 818.723 40.4557C818.643 39.9757 818.563 39.3357 818.483 38.5357C818.403 37.7357 818.343 37.0357 818.303 36.4357C818.263 35.8757 818.183 35.2957 818.063 34.6957C817.983 34.0957 817.823 33.3757 817.583 32.5357C817.383 31.6957 817.203 31.0757 817.043 30.6757C816.883 30.2757 816.603 29.6957 816.203 28.9357C815.843 28.2557 815.543 27.7957 815.303 27.5557C815.023 27.2357 814.703 26.9157 814.343 26.5957C814.023 26.3557 813.583 26.0757 813.023 25.7557C812.543 25.4757 812.163 25.3157 811.883 25.2757C811.563 25.2357 811.263 25.2357 810.983 25.2757C810.703 25.2757 810.383 25.3357 810.023 25.4557C809.623 25.6157 809.023 25.9357 808.223 26.4157C807.383 26.8557 806.753 27.2757 806.333 27.6757C805.913 28.0757 805.543 28.4757 805.223 28.8757C804.863 29.3557 804.523 29.8357 804.203 30.3157C803.883 30.7957 803.623 31.2557 803.423 31.6957C803.263 32.0957 803.103 32.6557 802.943 33.3757C802.743 34.1757 802.643 34.8957 802.643 35.5357C802.603 36.2157 802.583 36.8357 802.583 37.3957C802.623 37.9957 802.663 38.6757 802.703 39.4357C802.743 40.1957 802.803 41.0357 802.883 41.9557C802.923 42.8757 802.963 43.8157 803.003 44.7757C803.083 45.7357 803.123 46.6357 803.123 47.4757C803.123 47.6357 802.723 47.8557 801.923 48.1357C801.123 48.4157 800.373 48.5957 799.673 48.6757C798.973 48.7557 798.543 48.6357 798.383 48.3157C798.383 47.9957 798.343 47.1557 798.263 45.7957C798.143 44.3957 798.043 42.9957 797.963 41.5957C797.843 40.1557 797.763 38.6757 797.723 37.1557C797.683 35.6757 797.643 34.1557 797.603 32.5957C797.603 31.0757 797.583 29.4357 797.543 27.6757C797.503 25.9157 797.483 23.7157 797.483 21.0757C797.483 18.4357 797.503 16.2557 797.543 14.5357C797.583 12.9357 797.603 11.4157 797.603 9.97567C797.643 8.49567 797.703 7.49567 797.783 6.97567L797.843 6.37567C797.963 5.73567 798.283 5.21567 798.803 4.81567Z"/>
</g>
</g>
</svg>
