<?xml version="1.0" encoding="UTF-8" standalone="no"?>
<!DOCTYPE svg PUBLIC "-//W3C//DTD SVG 1.1//EN" "http://www.w3.org/Graphics/SVG/1.1/DTD/svg11.dtd">
<!-- Created with Vectornator (http://vectornator.io/) -->
<svg height="100%" stroke-miterlimit="10" style="fill-rule:nonzero;clip-rule:evenodd;stroke-linecap:round;stroke-linejoin:round;" version="1.1" viewBox="0 0 120 20" width="100%" xml:space="preserve" xmlns="http://www.w3.org/2000/svg" xmlns:vectornator="http://vectornator.io" xmlns:xlink="http://www.w3.org/1999/xlink">
<defs>
<clipPath id="TextBounds">
<rect height="21.0348" width="60.5626" x="57.3859" y="1.91853"/>
</clipPath>
<clipPath id="TextBounds_2">
<rect height="19.8204" width="61.6107" x="2.99605" y="1.93503"/>
</clipPath>
<clipPath id="TextBounds_3">
<rect height="1" width="0" x="119.936" y="202.873"/>
</clipPath>
</defs>
<clipPath id="ArtboardFrame">
<rect height="20" width="120" x="0" y="0"/>
</clipPath>
<g clip-path="url(#ArtboardFrame)" id="Layer-1" vectornator:layerName="Layer 1">
<g fill="#ea1e1e" opacity="1" stroke="none">
<path clip-path="url(#TextBounds)" d="M71.1974 6.49616C71.1915 6.50551 69.8354 8.55929 68.469 10.4568C68.1869 10.4849 67.9129 10.4994 67.651 10.4994C67.4956 10.4994 67.3444 10.4943 67.1984 10.4839C68.1403 8.77303 69.4138 6.84452 70.8284 5.49433C71.3374 5.36148 72.4817 5.11012 73.5157 5.11012C74.5903 5.11012 75.5459 5.38155 75.5459 6.33954C75.5459 6.42021 75.5391 6.50574 75.5251 6.59639C75.2057 8.65806 70.9591 10.0574 69.2139 10.3556C70.4692 8.59074 71.6253 6.83912 71.6312 6.83028C71.64 6.81709 71.644 6.80215 71.644 6.78601C71.644 6.66064 71.4013 6.46352 71.2672 6.46352C71.2372 6.46352 71.2126 6.4734 71.1974 6.49616ZM68.8679 10.8391C70.4943 10.6637 72.356 10.0692 73.7646 9.26633C74.7416 8.71026 75.9971 7.76449 75.9971 6.64412C75.9971 6.37954 75.9271 6.10522 75.7668 5.82401C75.2748 4.96022 74.2219 4.7222 73.1889 4.7222C72.5961 4.7222 72.0098 4.80059 71.5398 4.88409C71.7776 4.70524 72.013 4.55439 72.2434 4.43745C72.2691 4.42433 72.2803 4.40324 72.2803 4.37751C72.2803 4.26136 72.0531 4.05059 71.9082 4.05059C71.8892 4.05059 71.8717 4.0542 71.8563 4.06208C71.1148 4.43942 70.4353 5.12238 70.4196 5.13123C69.0183 5.4958 64.6523 7.06857 64.498 8.61973C64.4958 8.64203 64.4947 8.66423 64.4947 8.68628C64.4947 9.09077 64.8549 9.44555 65.0466 9.44555C65.0611 9.44555 65.0747 9.44351 65.0871 9.43928C65.1623 9.41374 65.1411 9.30711 65.0399 9.20099C64.9459 9.10231 64.9029 8.99525 64.9029 8.88199C64.9029 7.74688 69.2212 5.9899 69.7622 5.81074C68.5977 7.10642 67.448 8.86246 66.622 10.4092C66.4603 10.3789 65.8902 10.2881 65.8902 10.0561C65.8902 9.67456 66.6632 9.21419 67.2652 8.92338C67.333 8.89046 67.302 8.77942 67.1954 8.67525C67.0893 8.5706 66.9478 8.51262 66.88 8.54554C66.1961 8.87572 65.7823 9.17199 65.5838 9.43093C65.4786 9.56821 65.4339 9.69749 65.4339 9.81747C65.4339 10.2626 66.0488 10.58 66.4668 10.705C66.2531 11.1192 65.4028 12.7327 65.4029 13.5555C65.4028 13.7185 65.4362 13.8505 65.5146 13.936C65.517 13.9354 65.5194 13.9351 65.5218 13.9351C65.5831 13.9351 65.6557 14.1306 65.8706 14.1306C66.0092 14.1306 66.207 14.0493 66.4992 13.7817C67.106 13.226 68.0283 12.0031 68.8679 10.8391ZM68.155 10.8892C67.616 11.6272 66.5813 13.1106 65.8295 13.6329C65.9091 13.117 66.3548 12.0596 67.0127 10.8263C67.2984 10.8713 67.6012 10.8927 67.9242 10.8927C68 10.8927 68.0769 10.8916 68.155 10.8892Z"/>
<path clip-path="url(#TextBounds)" d="M79.466 10.1268C79.1095 10.3577 78.0428 11.057 77.5943 11.057C77.5866 11.057 77.5792 11.0568 77.5719 11.0564C77.3636 10.5941 77.65 9.94892 77 9.58779C76.9277 9.54761 76.864 9.52864 76.8031 9.52864C76.7226 9.52864 76.647 9.56188 76.5627 9.62317C76.0974 9.96121 75.4602 10.9601 75.0892 11.4809C75.722 9.50427 77.2968 5.40748 77.3027 5.39274C77.3525 5.26267 77.0725 5.03784 76.9291 5.03784C76.8943 5.03784 76.8675 5.05111 76.8555 5.08221C76.8544 5.08532 74.3747 11.4209 74.3747 12.2014C74.3747 12.4004 74.5912 12.6209 74.7792 12.6209C74.8227 12.6209 74.8646 12.6091 74.902 12.5825C75.4208 12.0057 76.2699 10.4108 77.0089 9.95875C77.031 10.3803 77.0315 10.8982 77.3474 11.2131C77.5023 11.3676 77.6908 11.4298 77.8962 11.4298C78.5568 11.4298 79.3916 10.7861 79.841 10.4953C79.8633 10.4807 79.8731 10.4593 79.8731 10.434C79.8731 10.3157 79.6594 10.1113 79.5226 10.1113C79.5016 10.1113 79.4824 10.1161 79.466 10.1268Z"/>
<path clip-path="url(#TextBounds)" d="M80.1243 9.94008C80.2393 9.78937 80.6183 9.70575 80.7809 9.70575C80.8219 9.70575 80.8491 9.71106 80.8549 9.72193C80.8865 9.78001 80.8999 9.85192 80.8999 9.93153C80.8999 10.1853 80.7635 10.5174 80.6427 10.7302C80.3813 10.6741 80.1361 10.5395 80.0644 10.2884C80.1407 10.2277 80.2775 10.2104 80.2775 10.1339C80.2775 10.0923 80.237 10.0332 80.1243 9.94008ZM79.5961 9.98528C79.2447 10.2698 78.8207 10.8124 78.8207 11.2955C78.8207 11.5216 78.9135 11.7346 79.15 11.902C79.1405 11.9212 79.3655 12.0632 79.6959 12.0632C80.0691 12.0632 80.5769 11.8819 81.0333 11.137C81.0895 11.1421 81.148 11.1448 81.2084 11.1448C81.6888 11.1448 82.2924 10.9756 82.8637 10.5125C82.8827 10.4969 82.8911 10.4757 82.8911 10.4512C82.8911 10.3297 82.6855 10.1272 82.556 10.1272C82.5338 10.1272 82.5138 10.1331 82.4975 10.1464C82.0801 10.487 81.5752 10.6628 81.2372 10.7287C81.3083 10.5626 81.3428 10.3938 81.3428 10.2335C81.3428 9.97484 81.253 9.73839 81.0819 9.57158C80.9143 9.40805 80.6453 9.32482 80.3817 9.32482C79.9806 9.32482 79.592 9.51753 79.592 9.91339C79.592 9.93666 79.5934 9.96061 79.5961 9.98528ZM79.8359 10.5056L79.8359 10.5056C79.9902 10.6977 80.2073 10.8697 80.4741 10.9906C80.2242 11.3319 79.8092 11.7108 79.4551 11.7108C79.3902 11.7108 79.3273 11.6981 79.2679 11.6701C79.261 11.6485 79.262 11.5969 79.2674 11.5261C79.2944 11.1871 79.6045 10.7518 79.8359 10.5056Z"/>
<path clip-path="url(#TextBounds)" d="M84.2125 4.91025C84.2095 4.91861 83.8322 5.9966 83.3546 7.449C81.264 7.69369 79.4711 8.08725 79.4608 8.08971C79.3787 8.10739 79.3895 8.2091 79.4853 8.31671C79.5806 8.4243 79.7246 8.49654 79.8062 8.47884C79.816 8.47689 81.3485 8.14032 83.2092 7.89317C82.3685 10.4761 81.1466 13.9406 81.2208 14.8839C81.2276 14.9714 81.3352 15.0952 81.461 15.1606C81.5873 15.2264 81.6841 15.2087 81.6772 15.1213C81.601 14.1558 82.9267 10.4191 83.7801 7.82192C85.7455 7.59149 87.9295 7.50059 89.0389 8.00815C89.1632 8.06514 89.2492 8.03566 89.231 7.94279C89.2128 7.84993 89.0969 7.72857 88.9726 7.67157C87.8612 7.16305 85.8265 7.19645 83.9236 7.3871C84.3422 6.12533 84.6571 5.22422 84.6601 5.21636C84.6842 5.14757 84.6031 5.02327 84.4798 4.93875C84.356 4.85375 84.2361 4.84097 84.2125 4.91025Z"/>
<path clip-path="url(#TextBounds)" d="M84.9733 9.94008C85.0883 9.78937 85.4673 9.70575 85.6299 9.70575C85.6709 9.70575 85.6981 9.71106 85.7039 9.72193C85.7355 9.78001 85.7489 9.85192 85.7489 9.93153C85.7489 10.1853 85.6125 10.5174 85.4917 10.7302C85.2303 10.6741 84.9851 10.5395 84.9134 10.2884C84.9897 10.2277 85.1265 10.2104 85.1265 10.1339C85.1265 10.0923 85.086 10.0332 84.9733 9.94008ZM84.4451 9.98528C84.0937 10.2698 83.6697 10.8124 83.6697 11.2955C83.6697 11.5216 83.7625 11.7346 83.999 11.902C83.9895 11.9212 84.2145 12.0632 84.5449 12.0632C84.9181 12.0632 85.4259 11.8819 85.8823 11.137C85.9385 11.1421 85.997 11.1448 86.0574 11.1448C86.5378 11.1448 87.1414 10.9756 87.7127 10.5125C87.7317 10.4969 87.7401 10.4757 87.7401 10.4512C87.7401 10.3297 87.5345 10.1272 87.405 10.1272C87.3828 10.1272 87.3628 10.1331 87.3465 10.1464C86.9291 10.487 86.4242 10.6628 86.0862 10.7287C86.1573 10.5626 86.1918 10.3938 86.1918 10.2335C86.1918 9.97484 86.102 9.73839 85.9309 9.57158C85.7633 9.40805 85.4943 9.32482 85.2307 9.32482C84.8296 9.32482 84.441 9.51753 84.441 9.91339C84.441 9.93666 84.4424 9.96061 84.4451 9.98528ZM84.6849 10.5056L84.6849 10.5056C84.8392 10.6977 85.0563 10.8697 85.3231 10.9906C85.0732 11.3319 84.6582 11.7108 84.3041 11.7108C84.2392 11.7108 84.1763 11.6981 84.1169 11.6701C84.11 11.6485 84.111 11.5969 84.1164 11.5261C84.1434 11.1871 84.4535 10.7518 84.6849 10.5056Z"/>
<path clip-path="url(#TextBounds)" d="M92.2903 13.3253C92.8303 12.0252 94.6905 7.03712 95.203 6.58362C95.227 6.59116 95.2482 6.59464 95.2668 6.59464C95.3336 6.59464 95.3654 6.54954 95.3654 6.48706C95.3654 6.34635 95.2042 6.11751 94.9191 6.11751C94.7917 6.11751 94.6395 6.16322 94.466 6.28292C94.2508 6.4313 93.9751 6.66273 93.669 6.9541C92.7476 7.82967 90.2803 10.6194 90.2803 12.5034C90.2803 13.2044 90.6218 13.7799 91.5115 14.0849C91.8131 14.1884 92.1627 14.2359 92.5367 14.2359C93.1512 14.2359 93.8316 14.1077 94.4733 13.8893C95.4014 13.5735 97.1645 12.6011 97.1645 11.4521C97.1645 11.2067 97.0841 10.9534 96.8981 10.6966C96.6008 10.2859 96.1134 10.0687 95.6609 9.9547C96.763 9.55377 97.9594 9.03787 98.7775 8.42614C99.4201 7.94602 99.8701 7.27208 99.8701 6.55419C99.8701 6.46469 99.8631 6.37449 99.8486 6.28391C99.7125 5.43537 98.9583 4.81038 98.0763 4.54359C97.6711 4.42117 97.2067 4.3655 96.7077 4.3655C94.8314 4.3655 92.4665 5.15266 90.9229 6.13847C90.2319 6.57967 89.2857 7.33251 89.2857 8.12822C89.2857 8.1885 89.2911 8.24904 89.3025 8.3097C89.3949 8.80349 89.8145 9.25012 90.6591 9.59995C90.7028 9.61808 90.7378 9.62604 90.7647 9.62604C90.8144 9.62604 90.8368 9.59904 90.8368 9.5589C90.8368 9.47082 90.729 9.31946 90.5642 9.2511C90.0542 9.03982 89.8042 8.78777 89.7535 8.51901C89.7445 8.47091 89.7402 8.42258 89.7402 8.37412C89.7402 7.65357 90.6934 6.90748 91.3214 6.50649C92.8435 5.53419 95.1595 4.75274 96.967 4.75274C97.432 4.75274 97.8634 4.80446 98.239 4.91798C98.8811 5.11207 99.3002 5.47271 99.3956 6.06673C99.4082 6.14599 99.4143 6.22508 99.4143 6.30374C99.4143 6.97325 98.9725 7.61232 98.3702 8.06255C97.4022 8.7858 95.8889 9.38327 94.5308 9.8353C94.4977 9.84637 94.4835 9.86917 94.4835 9.89846C94.4835 10.0128 94.7005 10.2259 94.8586 10.2259C94.8631 10.2259 94.8675 10.2258 94.8718 10.2254C94.9308 10.2236 94.9902 10.2226 95.0496 10.2226C95.8572 10.2226 96.6725 10.4061 96.6725 11.1647C96.6725 11.3091 96.643 11.4743 96.5782 11.6631C96.1966 12.7762 93.8355 13.8682 92.2345 13.8682C91.399 13.8682 90.7705 13.5707 90.7387 12.8236C90.7375 12.7962 90.7369 12.7685 90.7369 12.7406C90.7369 11.0481 92.853 8.42858 94.2601 7.1462C93.5776 8.59123 92.5517 11.3226 91.8462 13.0113C91.8415 13.0223 91.8394 13.034 91.8394 13.0463C91.8393 13.1768 92.0859 13.3677 92.2176 13.3677C92.2515 13.3677 92.2778 13.355 92.2903 13.3253Z"/>
<path clip-path="url(#TextBounds)" d="M99.7153 9.94008C99.8303 9.78937 100.209 9.70575 100.372 9.70575C100.413 9.70575 100.44 9.71106 100.446 9.72193C100.477 9.78001 100.491 9.85192 100.491 9.93153C100.491 10.1853 100.354 10.5174 100.234 10.7302C99.9723 10.6741 99.7271 10.5395 99.6554 10.2884C99.7317 10.2277 99.8685 10.2104 99.8685 10.1339C99.8685 10.0923 99.828 10.0332 99.7153 9.94008ZM99.1871 9.98528C98.8357 10.2698 98.4117 10.8124 98.4117 11.2955C98.4117 11.5216 98.5045 11.7346 98.741 11.902C98.7315 11.9212 98.9565 12.0632 99.2869 12.0632C99.6601 12.0632 100.168 11.8819 100.624 11.137C100.68 11.1421 100.739 11.1448 100.799 11.1448C101.28 11.1448 101.883 10.9756 102.455 10.5125C102.474 10.4969 102.482 10.4757 102.482 10.4512C102.482 10.3297 102.276 10.1272 102.147 10.1272C102.125 10.1272 102.105 10.1331 102.089 10.1464C101.671 10.487 101.166 10.6628 100.828 10.7287C100.899 10.5626 100.934 10.3938 100.934 10.2335C100.934 9.97484 100.844 9.73839 100.673 9.57158C100.505 9.40805 100.236 9.32482 99.9727 9.32482C99.5716 9.32482 99.183 9.51753 99.183 9.91339C99.183 9.93666 99.1844 9.96061 99.1871 9.98528ZM99.4269 10.5056L99.4269 10.5056C99.5812 10.6977 99.7983 10.8697 100.065 10.9906C99.8152 11.3319 99.4002 11.7108 99.0461 11.7108C98.9812 11.7108 98.9183 11.6981 98.8589 11.6701C98.852 11.6485 98.853 11.5969 98.8584 11.5261C98.8854 11.1871 99.1955 10.7518 99.4269 10.5056Z"/>
<path clip-path="url(#TextBounds)" d="M102.757 9.94008C102.872 9.78937 103.251 9.70575 103.414 9.70575C103.455 9.70575 103.482 9.71106 103.488 9.72193C103.519 9.78001 103.533 9.85192 103.533 9.93153C103.533 10.1853 103.396 10.5174 103.276 10.7302C103.014 10.6741 102.769 10.5395 102.697 10.2884C102.774 10.2277 102.91 10.2104 102.91 10.1339C102.91 10.0923 102.87 10.0332 102.757 9.94008ZM102.229 9.98528C101.878 10.2698 101.454 10.8124 101.454 11.2955C101.454 11.5216 101.546 11.7346 101.783 11.902C101.774 11.9212 101.998 12.0632 102.329 12.0632C102.702 12.0632 103.21 11.8819 103.666 11.137C103.722 11.1421 103.781 11.1448 103.841 11.1448C104.322 11.1448 104.925 10.9756 105.497 10.5125C105.516 10.4969 105.524 10.4757 105.524 10.4512C105.524 10.3297 105.318 10.1272 105.189 10.1272C105.167 10.1272 105.147 10.1331 105.131 10.1464C104.713 10.487 104.208 10.6628 103.87 10.7287C103.941 10.5626 103.976 10.3938 103.976 10.2335C103.976 9.97484 103.886 9.73839 103.715 9.57158C103.547 9.40805 103.278 9.32482 103.015 9.32482C102.614 9.32482 102.225 9.51753 102.225 9.91339C102.225 9.93666 102.226 9.96061 102.229 9.98528ZM102.469 10.5056L102.469 10.5056C102.623 10.6977 102.84 10.8697 103.107 10.9906C102.857 11.3319 102.442 11.7108 102.088 11.7108C102.023 11.7108 101.96 11.6981 101.901 11.6701C101.894 11.6485 101.895 11.5969 101.9 11.5261C101.927 11.1871 102.237 10.7518 102.469 10.5056Z"/>
<path clip-path="url(#TextBounds)" d="M111.034 10.1799C110.67 10.4147 109.574 11.1345 109.139 11.1095C108.931 10.6471 109.218 10.002 108.567 9.64087C108.399 9.54751 108.278 9.56913 108.13 9.67624C107.665 10.0148 107.028 11.0132 106.656 11.534C107.098 10.1543 107.999 7.74234 108.505 6.40589C108.777 6.1612 108.983 5.89343 109.093 5.60156C109.119 5.53376 109.04 5.40946 108.917 5.32347C108.877 5.29547 108.836 5.27482 108.799 5.26255C108.681 5.13283 108.464 5.02768 108.423 5.13529C108.421 5.13971 108.28 5.50821 108.065 6.07521C107.726 6.37494 107.281 6.63928 106.785 6.87021C107.113 5.94501 107.341 5.32888 107.344 5.32248C107.369 5.25419 107.29 5.12988 107.166 5.04439C107.042 4.95841 106.921 4.94416 106.896 5.01245C106.893 5.02031 106.567 5.90325 106.13 7.14682C104.234 7.87646 101.995 8.18993 101.984 8.1919C101.898 8.20419 101.901 8.30245 101.993 8.41105C102.084 8.51963 102.229 8.59726 102.316 8.58448C102.326 8.5835 104.157 8.32654 105.927 7.73251C105.024 10.3371 103.829 14.0108 103.906 14.9876C103.913 15.0751 104.021 15.1994 104.147 15.2647C104.273 15.3301 104.369 15.3124 104.363 15.2249C104.283 14.2074 105.652 10.0968 106.562 7.50206C106.979 7.33845 107.379 7.1547 107.736 6.94882C107.014 8.87879 105.977 11.7246 105.943 12.2366C105.926 12.4857 106.266 12.7805 106.469 12.6356C106.988 12.0592 107.837 10.4639 108.576 10.0118C108.598 10.4334 108.599 10.9513 108.915 11.2662C109.567 11.9172 110.845 10.9296 111.434 10.5489C111.577 10.455 111.179 10.0845 111.034 10.1799Z"/>
</g>
<g fill="#ea1e1e" opacity="1" stroke="none">
<path clip-path="url(#TextBounds_2)" d="M4.59715 14.5844C4.60403 14.5819 5.61668 14.2852 7.01699 13.9923C7.01552 14.0272 7.01454 14.0596 7.01649 14.0881C7.02547 14.2386 7.27137 14.4066 7.39834 14.4066C7.44282 14.4066 7.4727 14.386 7.4727 14.3368C7.4727 14.3213 7.47138 14.3065 7.47139 14.2898C7.47139 14.1904 7.48994 14.0551 7.52405 13.8901C8.79887 13.6427 10.3069 13.4242 11.6566 13.4242C12.4242 13.4242 13.1405 13.4948 13.7336 13.671C13.7616 13.6793 13.7851 13.6831 13.8044 13.6831C13.855 13.6831 13.8771 13.6572 13.8771 13.6185C13.8771 13.5226 13.7415 13.3485 13.568 13.2971C12.9387 13.11 12.1828 13.0354 11.377 13.0354C10.1571 13.0354 8.82302 13.2065 7.64148 13.4175C8.32542 10.9671 10.8435 5.14626 10.8519 5.1266C10.8568 5.11543 10.8591 5.10347 10.8591 5.09093C10.8591 4.96107 10.613 4.76978 10.4812 4.76978C10.4476 4.76978 10.4215 4.78218 10.4087 4.81116C10.3999 4.83229 7.59972 11.3042 7.09364 13.5197C5.46632 13.838 4.24584 14.1957 4.23797 14.1982C4.20254 14.2086 4.18741 14.2316 4.18742 14.2615C4.18742 14.3755 4.40662 14.5896 4.55858 14.5896C4.57204 14.5896 4.58495 14.588 4.59715 14.5844Z"/>
<path clip-path="url(#TextBounds_2)" d="M12.2511 9.95659C12.366 9.80587 12.745 9.72226 12.9076 9.72226C12.9486 9.72226 12.9758 9.72756 12.9817 9.73843C13.0132 9.79651 13.0267 9.86842 13.0267 9.94803C13.0267 10.2018 12.8902 10.5339 12.7694 10.7467C12.508 10.6906 12.2628 10.556 12.1911 10.3049C12.2675 10.2442 12.4042 10.2269 12.4042 10.1504C12.4042 10.1088 12.3638 10.0497 12.2511 9.95659ZM11.7229 10.0018C11.3714 10.2863 10.9474 10.8289 10.9474 11.312C10.9474 11.5381 11.0402 11.7511 11.2767 11.9185C11.2673 11.9377 11.4922 12.0798 11.8226 12.0798C12.1959 12.0798 12.7037 11.8984 13.16 11.1535C13.2162 11.1586 13.2747 11.1613 13.3351 11.1613C13.8155 11.1613 14.4191 10.9921 14.9904 10.529C15.0095 10.5134 15.0179 10.4922 15.0179 10.4677C15.0179 10.3462 14.8122 10.1437 14.6827 10.1437C14.6605 10.1437 14.6406 10.1496 14.6243 10.1629C14.2069 10.5035 13.702 10.6793 13.3639 10.7452C13.435 10.5791 13.4695 10.4103 13.4695 10.25C13.4695 9.99135 13.3797 9.7549 13.2087 9.58808C13.041 9.42455 12.772 9.34132 12.5084 9.34132C12.1073 9.34132 11.7188 9.53404 11.7188 9.92989C11.7188 9.95316 11.7201 9.97711 11.7229 10.0018ZM11.9626 10.5221L11.9626 10.5221C12.1169 10.7142 12.3341 10.8862 12.6009 11.0071C12.3509 11.3484 11.936 11.7273 11.5818 11.7273C11.5169 11.7273 11.4541 11.7146 11.3947 11.6866C11.3878 11.665 11.3887 11.6134 11.3942 11.5426C11.4212 11.2036 11.7312 10.7683 11.9626 10.5221Z"/>
<path clip-path="url(#TextBounds_2)" d="M14.8553 9.40776C14.854 9.41134 14.3924 10.5927 14.3924 11.3616C14.3924 11.4372 14.3969 11.5089 14.4067 11.575C14.4506 11.8711 14.675 12.2217 15.0045 12.2217C15.007 12.2217 15.0095 12.2217 15.012 12.2217C15.5373 12.2133 16.434 10.9889 16.7514 10.4582C16.9472 10.6406 17.2049 10.7105 17.4892 10.7105C17.7834 10.7105 18.1063 10.6356 18.4189 10.5329C18.4569 10.5206 18.473 10.4941 18.473 10.4604C18.473 10.3442 18.2807 10.1426 18.1346 10.1426C18.1197 10.1426 18.1053 10.1447 18.0916 10.1492C17.9485 10.196 17.4441 10.3221 17.1478 10.3221C17.0587 10.3221 16.9883 10.3107 16.9523 10.2823C16.9482 10.2347 16.9461 10.1962 16.9461 10.1631C16.9461 10.0348 16.9775 9.98716 17.0427 9.79886C17.0616 9.5757 16.821 9.39759 16.6857 9.39759C16.6479 9.39759 16.6184 9.41148 16.605 9.44215C16.5809 9.42446 16.5106 9.81016 16.5087 9.83866C16.4099 10.0406 16.2482 10.302 16.0581 10.5698C15.7603 10.9889 15.2017 11.6674 14.8425 11.807C14.829 11.7389 14.823 11.6625 14.823 11.58C14.823 10.8669 15.2754 9.70748 15.2754 9.70748C15.2802 9.69506 15.2825 9.68199 15.2825 9.66848C15.2825 9.53463 15.062 9.3581 14.9347 9.3581C14.8979 9.3581 14.8689 9.37288 14.8553 9.40776Z"/>
<path clip-path="url(#TextBounds_2)" d="M18.1497 11.1972C18.1536 11.1957 19.55 10.6803 19.8669 10.1276C19.9111 10.0504 19.9308 9.97087 19.9308 9.89282C19.9308 9.57498 19.6055 9.28226 19.2932 9.28226C19.2844 9.28226 19.2757 9.28249 19.267 9.28296C18.5719 9.32064 17.6294 10.456 17.6294 11.2962C17.6294 11.727 17.8771 12.0802 18.5329 12.1681C18.5867 12.1753 18.6421 12.1788 18.6987 12.1788C19.9059 12.1788 21.6933 10.6117 21.6984 10.607C21.7168 10.591 21.7248 10.5686 21.7248 10.5424C21.7248 10.4104 21.5194 10.1818 21.3933 10.1818C21.3731 10.1818 21.3549 10.1877 21.3399 10.2008C20.7803 10.691 19.319 11.7893 18.4331 11.7893C18.3406 11.7893 18.2544 11.7773 18.1762 11.7514C18.0807 11.7199 18.0438 11.603 18.0438 11.4843C18.0438 11.3531 18.0888 11.2199 18.1497 11.1972ZM18.501 10.4971C18.7751 10.1423 19.1731 9.78462 19.4714 9.69716C19.3967 9.99589 18.866 10.3118 18.501 10.4971Z"/>
<path clip-path="url(#TextBounds_2)" d="M28.7743 4.81116C28.7728 4.8146 28.7104 4.95905 28.6033 5.20915C25.1974 5.60811 21.8056 6.13188 21.7875 6.13433C21.7431 6.14125 21.7244 6.16566 21.7244 6.19919C21.7244 6.31197 21.936 6.52784 22.0955 6.52784C22.104 6.52784 22.1124 6.52721 22.1206 6.52593C22.1373 6.52348 25.2032 6.04983 28.4122 5.65921C27.5378 7.7258 25.3808 12.9352 25.3809 14.0446C25.3808 14.2301 25.6127 14.4065 25.7634 14.4065C25.8082 14.4065 25.8383 14.3859 25.8383 14.3367C25.8383 14.3206 25.8369 14.3052 25.8369 14.2877C25.8369 13.1368 28.2984 7.27996 29.0205 5.58649C31.0814 5.34446 33.1258 5.15042 34.3894 5.15042C34.8597 5.15042 35.2219 5.17731 35.4363 5.23863C35.4629 5.24619 35.4854 5.24966 35.504 5.24966C35.5551 5.24966 35.5774 5.22357 35.5774 5.18472C35.5774 5.08791 35.4392 4.91179 35.2649 4.86226C35.03 4.79507 34.6357 4.76577 34.1264 4.76577C32.9302 4.76577 31.0999 4.92743 29.2121 5.13938L29.2175 5.1266C29.2224 5.11543 29.2247 5.10347 29.2247 5.09093C29.2247 4.96107 28.9785 4.76978 28.8468 4.76978C28.8132 4.76978 28.7871 4.78218 28.7743 4.81116Z"/>
<path clip-path="url(#TextBounds_2)" d="M33.3938 10.1433C33.0372 10.3742 31.9705 11.0735 31.522 11.0735C31.5144 11.0735 31.5069 11.0733 31.4997 11.0729C31.2913 10.6106 31.5778 9.96542 30.9277 9.60429C30.8554 9.56411 30.7918 9.54514 30.7309 9.54514C30.6503 9.54514 30.5747 9.57838 30.4905 9.63967C30.0252 9.97771 29.3879 10.9766 29.0169 11.4974C29.6498 9.52077 31.2245 5.42398 31.2304 5.40924C31.2802 5.27918 31.0002 5.05434 30.8569 5.05434C30.822 5.05434 30.7953 5.06761 30.7833 5.09871C30.7821 5.10182 28.3024 11.4374 28.3024 12.2179C28.3024 12.4169 28.519 12.6374 28.7069 12.6374C28.7504 12.6374 28.7923 12.6256 28.8297 12.599C29.3486 12.0222 30.1976 10.4273 30.9366 9.97525C30.9587 10.3968 30.9592 10.9147 31.2751 11.2296C31.43 11.3841 31.6186 11.4463 31.8239 11.4463C32.4845 11.4463 33.3193 10.8026 33.7687 10.5118C33.7911 10.4972 33.8008 10.4758 33.8008 10.4505C33.8008 10.3322 33.5872 10.1278 33.4504 10.1278C33.4293 10.1278 33.4101 10.1326 33.3938 10.1433Z"/>
<path clip-path="url(#TextBounds_2)" d="M33.8757 9.28395C33.379 9.99147 33.1662 10.4823 33.1166 10.8051C33.0906 10.9756 33.1097 11.1137 33.1589 11.2218C33.2891 11.5092 33.6242 11.7141 33.9381 11.6173C34.173 11.5451 34.5061 11.3446 34.882 10.9987C34.884 10.9968 34.8859 10.9953 34.8874 10.9948C34.9046 10.982 34.9631 10.9373 35.0594 10.8356C34.9586 11.2051 34.8584 11.5711 34.7508 11.9106C33.774 12.6162 30.6044 14.9584 32.0814 16.3641C33.6168 17.8288 34.9169 13.1031 35.1876 12.2526C36.1693 11.5451 37.1264 10.9619 37.605 10.6705C38.143 10.3428 37.4591 10.1467 37.3962 10.1856C36.7368 10.5929 36.0848 10.9913 35.4421 11.4272C35.6254 10.8164 35.7905 10.0755 36.0106 9.49473C36.0578 9.37189 35.8111 9.16455 35.6627 9.14146C35.6052 9.1277 35.5591 9.13655 35.5433 9.18175C35.3763 9.67014 34.8442 10.2941 34.4649 10.6435C34.2369 10.8533 33.8644 11.1525 33.5598 11.236C33.5426 10.7609 34.0502 9.98656 34.3071 9.62052C34.4029 9.4854 33.9706 9.14932 33.8757 9.28395ZM32.9176 15.9907C32.672 16.2482 32.4646 16.3597 32.326 16.2433C31.4407 15.2532 33.6704 13.4186 34.4575 12.8009C34.004 14.1182 33.461 15.4208 32.9176 15.9907Z"/>
<path clip-path="url(#TextBounds_2)" d="M46.9427 6.39917C46.9447 6.39723 47.5691 5.82262 47.5691 5.33138C47.5691 5.19989 47.5244 5.07438 47.411 4.9674C47.1961 4.76458 46.8914 4.70055 46.575 4.70055C46.2582 4.70055 45.9297 4.7647 45.6677 4.81804C44.4448 5.06666 43.1678 5.61696 42.1703 6.25962C41.547 6.66134 40.3213 7.56886 40.3213 8.4579C40.3213 8.6334 40.3691 8.80818 40.4787 8.97821C41.3865 10.3869 44.2641 10.1603 44.2641 11.5433C44.2641 12.6611 42.2898 13.7507 41.0187 13.7507C40.9098 13.7507 40.806 13.7427 40.7091 13.726C40.4983 13.6901 40.3396 13.6081 40.2728 13.469C40.201 13.3206 40.0167 13.219 39.911 13.219C39.8646 13.219 39.8334 13.2385 39.8334 13.2822C39.8334 13.3025 39.8401 13.3279 39.8552 13.359C40.0645 13.7933 40.4536 14.0316 40.9371 14.1147C41.0518 14.1344 41.1739 14.1439 41.3014 14.1439C42.6913 14.1439 44.7192 13.018 44.7192 11.795C44.7192 9.78165 41.0192 9.9819 40.7877 8.84457C40.7781 8.79715 40.7734 8.74911 40.7734 8.70063C40.7734 7.9056 42.0132 6.98799 42.5708 6.62862C43.554 5.9948 44.8108 5.45285 46.0121 5.20865C46.4082 5.12809 46.7171 5.07702 46.92 5.07702C47.1002 5.07702 47.1968 5.11726 47.1968 5.21284C47.1968 5.35367 46.9871 5.61461 46.5256 6.04393C46.5104 6.05812 46.5036 6.07612 46.5036 6.09653C46.5036 6.21712 46.7402 6.4217 46.8785 6.4217C46.9039 6.4217 46.926 6.41478 46.9427 6.39917Z"/>
<path clip-path="url(#TextBounds_2)" d="M46.1257 11.1972C46.1296 11.1957 47.526 10.6803 47.8429 10.1276C47.8871 10.0504 47.9068 9.97087 47.9068 9.89282C47.9068 9.57498 47.5815 9.28226 47.2692 9.28226C47.2604 9.28226 47.2517 9.28249 47.243 9.28296C46.5479 9.32064 45.6054 10.456 45.6054 11.2962C45.6054 11.727 45.8531 12.0802 46.5089 12.1681C46.5627 12.1753 46.6181 12.1788 46.6747 12.1788C47.8819 12.1788 49.6693 10.6117 49.6744 10.607C49.6928 10.591 49.7008 10.5686 49.7008 10.5424C49.7008 10.4104 49.4954 10.1818 49.3693 10.1818C49.3491 10.1818 49.3309 10.1877 49.3159 10.2008C48.7563 10.691 47.295 11.7893 46.4091 11.7893C46.3166 11.7893 46.2304 11.7773 46.1522 11.7514C46.0567 11.7199 46.0198 11.603 46.0198 11.4843C46.0198 11.3531 46.0648 11.2199 46.1257 11.1972ZM46.477 10.4971C46.7511 10.1423 47.1491 9.78462 47.4474 9.69716C47.3727 9.99589 46.842 10.3118 46.477 10.4971Z"/>
<path clip-path="url(#TextBounds_2)" d="M51.8967 10.1801C50.98 11.056 49.777 12.7302 49.0002 13.253C49.0169 12.0905 50.4841 8.54398 51.2805 6.6199C51.5128 6.05888 51.7632 5.60067 51.7632 5.4058C51.7632 5.27326 51.5153 5.08442 51.3839 5.08442C51.3483 5.08442 51.3213 5.09822 51.31 5.13065C51.2457 5.3154 51.0698 5.74041 50.8359 6.30594C50.0312 8.25136 48.5434 11.8456 48.5434 13.0254C48.5434 13.4632 48.719 13.7203 49.0971 13.7203C49.1112 13.7203 49.1256 13.7199 49.1403 13.7192C49.5776 13.6984 51.559 11.0842 52.2744 10.555C52.2905 10.5396 52.2977 10.5195 52.2977 10.4965C52.2977 10.3706 52.0845 10.1582 51.9557 10.1582C51.9328 10.1582 51.9126 10.165 51.8967 10.1801Z"/>
<path clip-path="url(#TextBounds_2)" d="M55.4854 10.1723C54.3791 11.2619 53.0326 11.975 51.7566 12.2738C51.9365 11.7235 52.1374 11.1579 52.3492 10.6067C53.21 10.0701 55.0879 7.99263 55.0879 6.82187C55.0879 6.66748 55.0552 6.52885 54.9833 6.41161C54.8712 6.22884 54.6718 6.07357 54.4787 6.03525C54.4556 6.03065 54.4322 6.02839 54.4085 6.02839C54.1713 6.02839 53.904 6.25538 53.6257 6.64402C52.4159 8.33444 50.463 13.5169 50.463 15.529C50.463 15.5655 50.4636 15.6011 50.4649 15.6355C50.4811 16.0713 50.816 16.5925 51.2387 16.5925C51.3041 16.5925 51.3715 16.58 51.4402 16.5528C51.9548 16.3489 52.3586 15.0732 52.3586 13.9579C52.3586 13.4769 52.2836 13.0258 52.1099 12.7032C53.409 12.4045 54.7534 11.6144 55.8884 10.503C55.9057 10.486 55.9133 10.4653 55.9133 10.4425C55.9133 10.3223 55.7011 10.1437 55.563 10.1437C55.5325 10.1437 55.5056 10.1524 55.4854 10.1723ZM51.6201 15.2218C51.5321 15.4842 51.3631 15.89 51.1474 16.0689C51.111 16.0988 51.0005 16.1956 50.9828 16.1146C50.9631 16.0272 50.9543 15.9216 50.9543 15.8022C50.9543 14.8975 51.4639 13.1985 51.6584 12.5809C51.8263 12.7923 51.8968 13.1602 51.8968 13.5828C51.8968 14.1097 51.7872 14.7217 51.6201 15.2218ZM52.8115 9.46725C53.128 8.73122 54.0414 6.74081 54.6025 6.47549C54.6055 6.50086 54.607 6.5272 54.607 6.55447C54.607 7.35911 53.3167 8.96017 52.8115 9.46725Z"/>
<path clip-path="url(#TextBounds_2)" d="M55.8706 9.29967C55.6696 9.72587 55.2514 10.6304 55.2514 11.2767C55.2514 11.4522 55.2823 11.6087 55.3566 11.7313C55.4588 11.8998 55.6411 12.0428 55.8318 12.0949C55.8877 12.1102 55.9456 12.1174 56.005 12.1174C56.733 12.1174 57.6872 11.0386 58.0724 10.568C58.0868 10.5504 58.0931 10.5274 58.0931 10.5011C58.0931 10.3619 57.9151 10.1318 57.8061 10.1318C57.7865 10.1318 57.7691 10.1393 57.7554 10.1561C57.4112 10.5782 56.332 11.7266 55.7343 11.7266C55.7292 11.7266 55.7242 11.7266 55.7193 11.7264C55.7034 11.6732 55.6962 11.6103 55.6962 11.5402C55.6962 10.9913 56.1368 9.99333 56.3133 9.61953C56.3188 9.6079 56.3214 9.59533 56.3214 9.58209C56.3214 9.45287 56.0755 9.25984 55.9429 9.25984C55.9099 9.25984 55.884 9.2718 55.8706 9.29967ZM56.5796 9.01862L57.1117 8.17302C57.1199 8.16003 57.1237 8.14544 57.1237 8.12976C57.1237 8.00384 56.8804 7.80752 56.7466 7.80752C56.7161 7.80752 56.6913 7.81774 56.6764 7.84137L56.1443 8.68647C56.136 8.69946 56.1322 8.71406 56.1322 8.72974C56.1322 8.85575 56.3759 9.05226 56.5096 9.05226C56.54 9.05226 56.5647 9.04209 56.5796 9.01862Z"/>
<path clip-path="url(#TextBounds_2)" d="M57.7867 11.1972C57.7906 11.1957 59.187 10.6803 59.5039 10.1276C59.5481 10.0504 59.5678 9.97087 59.5678 9.89282C59.5678 9.57498 59.2425 9.28226 58.9302 9.28226C58.9214 9.28226 58.9127 9.28249 58.904 9.28296C58.2089 9.32064 57.2664 10.456 57.2664 11.2962C57.2664 11.727 57.5141 12.0802 58.1699 12.1681C58.2237 12.1753 58.2791 12.1788 58.3357 12.1788C59.5429 12.1788 61.3303 10.6117 61.3354 10.607C61.3538 10.591 61.3618 10.5686 61.3618 10.5424C61.3618 10.4104 61.1564 10.1818 61.0303 10.1818C61.0101 10.1818 60.9919 10.1877 60.9769 10.2008C60.4173 10.691 58.956 11.7893 58.0701 11.7893C57.9776 11.7893 57.8914 11.7773 57.8132 11.7514C57.7177 11.7199 57.6808 11.603 57.6808 11.4843C57.6808 11.3531 57.7258 11.2199 57.7867 11.1972ZM58.138 10.4971C58.4121 10.1423 58.8101 9.78462 59.1084 9.69716C59.0337 9.99589 58.503 10.3118 58.138 10.4971Z"/>
</g>
<g fill="#ea1e1e" opacity="1" stroke="none"/>
</g>
</svg>
