<?xml version="1.0" encoding="UTF-8" standalone="no"?>
<!DOCTYPE svg PUBLIC "-//W3C//DTD SVG 1.1//EN" "http://www.w3.org/Graphics/SVG/1.1/DTD/svg11.dtd">
<!-- Created with Vectornator (http://vectornator.io/) -->
<svg height="100%" stroke-miterlimit="10" style="fill-rule:nonzero;clip-rule:evenodd;stroke-linecap:round;stroke-linejoin:round;" version="1.1" viewBox="0 0 148 75" width="100%" xml:space="preserve" xmlns="http://www.w3.org/2000/svg" xmlns:vectornator="http://vectornator.io" xmlns:xlink="http://www.w3.org/1999/xlink">
<defs>
<clipPath id="TextBounds">
<rect height="39.3437" width="128.143" x="10.1965" y="33.6916"/>
</clipPath>
<clipPath id="TextBounds_2">
<rect height="49.7796" width="146.621" x="1.53206" y="-0.603159"/>
</clipPath>
</defs>
<g id="Layer-1" vectornator:layerName="Layer 1">
<g fill="#000000" opacity="1" stroke="none">
<path clip-path="url(#TextBounds)" d="M31.193 44.2793C31.1776 44.3037 27.6308 49.6752 24.0571 54.638C23.3193 54.7114 22.6027 54.7494 21.9178 54.7494C21.5113 54.7494 21.116 54.736 20.734 54.7087C23.1975 50.2342 26.5283 45.1904 30.2279 41.6591C31.5591 41.3117 34.5518 40.6542 37.2564 40.6542C40.0668 40.6542 42.5661 41.3641 42.566 43.8697C42.5661 44.0806 42.5483 44.3043 42.5116 44.5414C41.6763 49.9335 30.5697 53.5933 26.0053 54.3733C29.2885 49.7574 32.3122 45.1762 32.3276 45.1531C32.3506 45.1186 32.3612 45.0795 32.3612 45.0373C32.3612 44.7095 31.7263 44.1939 31.3755 44.1939C31.297 44.1939 31.2327 44.2197 31.193 44.2793ZM25.1006 55.6377C29.3541 55.179 34.2231 53.6241 37.9073 51.5243C40.4625 50.07 43.746 47.5964 43.746 44.6662C43.746 43.9743 43.5629 43.2568 43.1438 42.5213C41.8571 40.2622 39.1033 39.6397 36.4016 39.6397C34.8511 39.6397 33.3177 39.8447 32.0886 40.0631C32.7106 39.5953 33.3261 39.2008 33.9288 38.895C33.996 38.8606 34.0252 38.8055 34.0252 38.7382C34.0252 38.4344 33.4309 37.8832 33.052 37.8832C33.0024 37.8832 32.9566 37.8926 32.9162 37.9132C30.977 38.9001 29.1999 40.6863 29.1587 40.7094C25.4938 41.6629 14.075 45.7763 13.6714 49.8332C13.6656 49.8915 13.6628 49.9496 13.6628 50.0073C13.6628 51.0652 14.605 51.9931 15.1063 51.9931C15.1443 51.9931 15.1798 51.9877 15.2122 51.9767C15.4088 51.9099 15.3535 51.631 15.0889 51.3534C14.843 51.0954 14.7306 50.8153 14.7306 50.5191C14.7306 47.5504 26.0244 42.9552 27.4394 42.4866C24.3938 45.8753 21.3868 50.468 19.2267 54.5133C18.8038 54.4342 17.3126 54.1965 17.3126 53.5898C17.3126 52.592 19.3342 51.388 20.9088 50.6274C21.0861 50.5413 21.0052 50.2509 20.7263 49.9784C20.4488 49.7047 20.0787 49.5531 19.9013 49.6392C18.1126 50.5027 17.0305 51.2776 16.5114 51.9548C16.2361 52.3139 16.1192 52.652 16.1192 52.9658C16.1192 54.13 17.7274 54.96 18.8206 55.2869C18.2618 56.3702 16.038 60.5901 16.038 62.7421C16.038 63.1686 16.1254 63.5138 16.3302 63.7373C16.3365 63.7357 16.3427 63.7349 16.3491 63.7349C16.5095 63.7349 16.6994 64.2462 17.2615 64.2462C17.624 64.2462 18.1413 64.0335 18.9054 63.3339C20.4925 61.8805 22.9045 58.682 25.1006 55.6377ZM23.236 55.7688C21.8263 57.699 19.12 61.5785 17.1539 62.9445C17.3621 61.5952 18.5276 58.8298 20.2483 55.6043C20.9956 55.7219 21.7875 55.778 22.6323 55.778C22.8306 55.778 23.0318 55.7749 23.236 55.7688Z"/>
<path clip-path="url(#TextBounds)" d="M52.8187 53.7748C51.8862 54.3787 49.0964 56.2077 47.9233 56.2077C47.9033 56.2077 47.8838 56.2071 47.8648 56.2061C47.32 54.9969 48.0692 53.3096 46.3691 52.3651C46.1799 52.26 46.0134 52.2104 45.8542 52.2104C45.6435 52.2104 45.4457 52.2973 45.2254 52.4576C44.0084 53.3417 42.3417 55.9542 41.3715 57.3163C43.0267 52.1466 47.1452 41.4319 47.1606 41.3934C47.2909 41.0532 46.5585 40.4652 46.1836 40.4652C46.0926 40.4652 46.0226 40.4999 45.9912 40.5812C45.9881 40.5894 39.5028 57.1595 39.5028 59.2007C39.5028 59.7212 40.0691 60.2977 40.5607 60.2977C40.6744 60.2977 40.7842 60.2669 40.8819 60.1974C42.2389 58.6888 44.4595 54.5175 46.3922 53.3353C46.45 54.4378 46.4513 55.7923 47.2776 56.616C47.6826 57.0199 48.1758 57.1826 48.713 57.1826C50.4406 57.1826 52.624 55.4992 53.7992 54.7385C53.8577 54.7004 53.8832 54.6445 53.8832 54.5784C53.8832 54.2688 53.3245 53.7341 52.9667 53.7341C52.9117 53.7341 52.8614 53.7468 52.8187 53.7748Z"/>
<path clip-path="url(#TextBounds)" d="M54.5403 53.2865C54.841 52.8923 55.8322 52.6736 56.2575 52.6736C56.3647 52.6736 56.4359 52.6875 56.4511 52.7159C56.5337 52.8678 56.5688 53.0559 56.5689 53.2641C56.5688 53.9277 56.212 54.7962 55.896 55.3528C55.2124 55.2063 54.5711 54.8542 54.3835 54.1976C54.5833 54.0386 54.9409 53.9934 54.9409 53.7934C54.9409 53.6846 54.8351 53.5301 54.5403 53.2865ZM53.1589 53.4047C52.2397 54.1488 51.1308 55.568 51.1308 56.8315C51.1308 57.4227 51.3736 57.9797 51.9921 58.4176C51.9673 58.4677 52.5557 58.8393 53.4197 58.8393C54.3959 58.8393 55.724 58.365 56.9176 56.4168C57.0646 56.4302 57.2176 56.4372 57.3756 56.4372C58.632 56.4372 60.2106 55.9947 61.7048 54.7836C61.7547 54.7428 61.7766 54.6873 61.7766 54.6232C61.7766 54.3054 61.2388 53.7759 60.9 53.7759C60.842 53.7759 60.7898 53.7914 60.7472 53.8262C59.6555 54.7168 58.335 55.1767 57.4509 55.3489C57.6368 54.9147 57.7271 54.4731 57.7271 54.0537C57.7271 53.3774 57.4923 52.759 57.0449 52.3227C56.6063 51.895 55.9028 51.6773 55.2134 51.6773C54.1644 51.6773 53.1482 52.1813 53.1482 53.2166C53.1482 53.2775 53.1517 53.3401 53.1589 53.4047ZM53.786 54.7655L53.786 54.7655C54.1895 55.268 54.7575 55.7178 55.4553 56.0339C54.8014 56.9266 53.7162 57.9176 52.79 57.9176C52.6203 57.9176 52.4559 57.8843 52.3005 57.8111C52.2825 57.7545 52.2851 57.6196 52.2992 57.4346C52.3699 56.5479 53.1807 55.4093 53.786 54.7655Z"/>
<path clip-path="url(#TextBounds)" d="M65.2325 40.1315C65.2248 40.1534 64.2378 42.9727 62.9888 46.7713C57.521 47.4113 52.8318 48.4406 52.8048 48.447C52.5903 48.4933 52.6185 48.7593 52.8691 49.0407C53.1184 49.3221 53.4949 49.511 53.7082 49.4647C53.7339 49.4596 57.742 48.5794 62.6084 47.933C60.4097 54.6885 57.2139 63.7493 57.4079 66.2165C57.4259 66.4453 57.7073 66.7691 58.0363 66.94C58.3666 67.1122 58.6197 67.066 58.6017 66.8372C58.4025 64.3121 61.8695 54.5394 64.1016 47.7466C69.2418 47.144 74.9538 46.9062 77.8554 48.2337C78.1805 48.3828 78.4054 48.3057 78.3579 48.0628C78.3103 47.8199 78.007 47.5025 77.6819 47.3534C74.7752 46.0234 69.4538 46.1108 64.4769 46.6094C65.5717 43.3094 66.3954 40.9527 66.4032 40.9321C66.4661 40.7522 66.2541 40.4271 65.9315 40.2061C65.6077 39.9837 65.2942 39.9503 65.2325 40.1315Z"/>
<path clip-path="url(#TextBounds)" d="M67.2223 53.2865C67.523 52.8923 68.5142 52.6736 68.9395 52.6736C69.0467 52.6736 69.1179 52.6875 69.1331 52.7159C69.2157 52.8678 69.2508 53.0559 69.2509 53.2641C69.2508 53.9277 68.894 54.7962 68.578 55.3528C67.8944 55.2063 67.2531 54.8542 67.0655 54.1976C67.2653 54.0386 67.6229 53.9934 67.6229 53.7934C67.6229 53.6846 67.5171 53.5301 67.2223 53.2865ZM65.8409 53.4047C64.9217 54.1488 63.8128 55.568 63.8128 56.8315C63.8128 57.4227 64.0556 57.9797 64.6741 58.4176C64.6493 58.4677 65.2377 58.8393 66.1017 58.8393C67.0779 58.8393 68.406 58.365 69.5996 56.4168C69.7466 56.4302 69.8996 56.4372 70.0576 56.4372C71.314 56.4372 72.8926 55.9947 74.3868 54.7836C74.4367 54.7428 74.4586 54.6873 74.4586 54.6232C74.4586 54.3054 73.9208 53.7759 73.582 53.7759C73.524 53.7759 73.4718 53.7914 73.4292 53.8262C72.3375 54.7168 71.017 55.1767 70.1329 55.3489C70.3188 54.9147 70.4091 54.4731 70.4091 54.0537C70.4091 53.3774 70.1743 52.759 69.7269 52.3227C69.2883 51.895 68.5848 51.6773 67.8954 51.6773C66.8464 51.6773 65.8302 52.1813 65.8302 53.2166C65.8302 53.2775 65.8337 53.3401 65.8409 53.4047ZM66.468 54.7655L66.468 54.7655C66.8715 55.268 67.4395 55.7178 68.1373 56.0339C67.4834 56.9266 66.3982 57.9176 65.472 57.9176C65.3023 57.9176 65.1379 57.8843 64.9825 57.8111C64.9645 57.7545 64.9671 57.6196 64.9812 57.4346C65.0519 56.5479 65.8627 55.4093 66.468 54.7655Z"/>
<path clip-path="url(#TextBounds)" d="M86.3591 62.14C87.7714 58.7398 92.6365 45.6941 93.9768 44.508C94.0396 44.5277 94.0952 44.5368 94.1437 44.5368C94.3185 44.5368 94.4017 44.4189 94.4016 44.2555C94.4017 43.8875 93.98 43.289 93.2344 43.289C92.9012 43.289 92.5032 43.4085 92.0493 43.7216C91.4864 44.1096 90.7655 44.7149 89.9649 45.477C87.5551 47.7669 81.1021 55.0632 81.1021 59.9906C81.1021 61.8238 81.9953 63.3291 84.3223 64.1267C85.111 64.3975 86.0252 64.5217 87.0034 64.5217C88.6105 64.5217 90.3902 64.1864 92.0685 63.6153C94.4957 62.7893 99.107 60.246 99.107 57.2409C99.107 56.5993 98.8968 55.9366 98.4102 55.2651C97.6328 54.1908 96.358 53.6228 95.1745 53.3247C98.0568 52.2761 101.186 50.9268 103.325 49.3269C105.006 48.0712 106.183 46.3086 106.183 44.4311C106.183 44.197 106.165 43.9611 106.127 43.7242C105.771 41.5049 103.798 39.8703 101.492 39.1725C100.432 38.8524 99.2172 38.7068 97.9122 38.7068C93.0049 38.7068 86.8198 40.7655 82.7829 43.3438C80.9755 44.4977 78.5008 46.4666 78.5008 48.5477C78.5008 48.7054 78.515 48.8637 78.5448 49.0224C78.7864 50.3138 79.8838 51.4819 82.0928 52.3969C82.2072 52.4443 82.2987 52.4651 82.3691 52.4651C82.4989 52.4651 82.5575 52.3945 82.5575 52.2895C82.5575 52.0591 82.2755 51.6633 81.8448 51.4845C80.5109 50.9319 79.8568 50.2727 79.7244 49.5698C79.7009 49.444 79.6896 49.3176 79.6896 49.1909C79.6896 47.3063 82.1827 45.355 83.825 44.3063C87.806 41.7633 93.8632 39.7196 98.5904 39.7196C99.8067 39.7196 100.935 39.8548 101.917 40.1517C103.597 40.6593 104.693 41.6025 104.942 43.1562C104.975 43.3634 104.991 43.5703 104.991 43.776C104.991 45.5271 103.836 47.1985 102.26 48.376C99.7287 50.2676 95.7708 51.8302 92.2189 53.0124C92.1323 53.0414 92.095 53.101 92.095 53.1776C92.095 53.4766 92.6627 54.0341 93.0762 54.0341C93.0878 54.0341 93.0994 54.0336 93.1107 54.0327C93.265 54.028 93.4203 54.0254 93.5756 54.0254C95.6878 54.0254 97.8202 54.5053 97.8202 56.4894C97.8202 56.867 97.743 57.2991 97.5736 57.7928C96.5756 60.7041 90.4002 63.56 86.2132 63.56C84.0279 63.56 82.3843 62.782 82.301 60.828C82.2979 60.7563 82.2964 60.684 82.2964 60.611C82.2964 56.1844 87.8308 49.3333 91.5108 45.9794C89.7259 49.7587 87.0427 56.9022 85.1974 61.3189C85.1853 61.3476 85.1797 61.3783 85.1797 61.4103C85.1796 61.7518 85.8244 62.251 86.1688 62.251C86.2577 62.251 86.3265 62.2178 86.3591 62.14Z"/>
<path clip-path="url(#TextBounds)" d="M105.778 53.2865C106.079 52.8923 107.07 52.6736 107.496 52.6736C107.603 52.6736 107.674 52.6875 107.689 52.7159C107.772 52.8678 107.807 53.0559 107.807 53.2641C107.807 53.9277 107.45 54.7962 107.134 55.3528C106.45 55.2063 105.809 54.8542 105.622 54.1976C105.821 54.0386 106.179 53.9934 106.179 53.7934C106.179 53.6846 106.073 53.5301 105.778 53.2865ZM104.397 53.4047C103.478 54.1488 102.369 55.568 102.369 56.8315C102.369 57.4227 102.612 57.9797 103.23 58.4176C103.205 58.4677 103.794 58.8393 104.658 58.8393C105.634 58.8393 106.962 58.365 108.156 56.4168C108.303 56.4302 108.456 56.4372 108.614 56.4372C109.87 56.4372 111.449 55.9947 112.943 54.7836C112.993 54.7428 113.015 54.6873 113.015 54.6232C113.015 54.3054 112.477 53.7759 112.138 53.7759C112.08 53.7759 112.028 53.7914 111.985 53.8262C110.894 54.7168 109.573 55.1767 108.689 55.3489C108.875 54.9147 108.965 54.4731 108.965 54.0537C108.965 53.3774 108.73 52.759 108.283 52.3227C107.844 51.895 107.141 51.6773 106.451 51.6773C105.402 51.6773 104.386 52.1813 104.386 53.2166C104.386 53.2775 104.39 53.3401 104.397 53.4047ZM105.024 54.7655L105.024 54.7655C105.427 55.268 105.995 55.7178 106.693 56.0339C106.039 56.9266 104.954 57.9176 104.028 57.9176C103.858 57.9176 103.694 57.8843 103.538 57.8111C103.52 57.7545 103.523 57.6196 103.537 57.4346C103.608 56.5479 104.419 55.4093 105.024 54.7655Z"/>
<path clip-path="url(#TextBounds)" d="M113.734 53.2865C114.035 52.8923 115.026 52.6736 115.452 52.6736C115.559 52.6736 115.63 52.6875 115.645 52.7159C115.728 52.8678 115.763 53.0559 115.763 53.2641C115.763 53.9277 115.406 54.7962 115.09 55.3528C114.406 55.2063 113.765 54.8542 113.578 54.1976C113.777 54.0386 114.135 53.9934 114.135 53.7934C114.135 53.6846 114.029 53.5301 113.734 53.2865ZM112.353 53.4047C111.434 54.1488 110.325 55.568 110.325 56.8315C110.325 57.4227 110.568 57.9797 111.186 58.4176C111.161 58.4677 111.75 58.8393 112.614 58.8393C113.59 58.8393 114.918 58.365 116.112 56.4168C116.259 56.4302 116.412 56.4372 116.57 56.4372C117.826 56.4372 119.405 55.9947 120.899 54.7836C120.949 54.7428 120.971 54.6873 120.971 54.6232C120.971 54.3054 120.433 53.7759 120.094 53.7759C120.036 53.7759 119.984 53.7914 119.941 53.8262C118.85 54.7168 117.529 55.1767 116.645 55.3489C116.831 54.9147 116.921 54.4731 116.921 54.0537C116.921 53.3774 116.686 52.759 116.239 52.3227C115.8 51.895 115.097 51.6773 114.407 51.6773C113.358 51.6773 112.342 52.1813 112.342 53.2166C112.342 53.2775 112.346 53.3401 112.353 53.4047ZM112.98 54.7655L112.98 54.7655C113.383 55.268 113.951 55.7178 114.649 56.0339C113.995 56.9266 112.91 57.9176 111.984 57.9176C111.814 57.9176 111.65 57.8843 111.494 57.8111C111.476 57.7545 111.479 57.6196 111.493 57.4346C111.564 56.5479 112.375 55.4093 112.98 54.7655Z"/>
<path clip-path="url(#TextBounds)" d="M135.38 53.9136C134.43 54.5278 131.562 56.4104 130.426 56.3449C129.881 55.1356 130.63 53.4484 128.929 52.5039C128.491 52.2597 128.172 52.3163 127.786 52.5964C126.57 53.4818 124.903 56.093 123.931 57.4551C125.087 53.8468 127.442 47.5385 128.766 44.0432C129.479 43.4032 130.017 42.7029 130.305 41.9396C130.373 41.7622 130.166 41.4371 129.844 41.2122C129.738 41.139 129.632 41.085 129.537 41.0529C129.227 40.7136 128.66 40.4386 128.552 40.7201C128.547 40.7316 128.177 41.6954 127.616 43.1783C126.729 43.9622 125.565 44.6536 124.268 45.2575C125.126 42.8378 125.723 41.2264 125.729 41.2097C125.796 41.0311 125.588 40.7059 125.265 40.4823C124.941 40.2575 124.625 40.2202 124.558 40.3988C124.551 40.4194 123.697 42.7286 122.556 45.981C117.597 47.8893 111.74 48.7091 111.712 48.7143C111.486 48.7464 111.496 49.0034 111.735 49.2874C111.974 49.5714 112.353 49.7745 112.579 49.741C112.605 49.7385 117.396 49.0664 122.023 47.5128C119.664 54.3248 116.537 63.933 116.739 66.4877C116.757 66.7164 117.038 67.0415 117.369 67.2124C117.698 67.3833 117.951 67.3371 117.933 67.1084C117.723 64.447 121.305 53.6964 123.685 46.9101C124.776 46.4822 125.823 46.0016 126.756 45.4631C124.868 50.5108 122.154 57.9537 122.065 59.2927C122.022 59.9442 122.91 60.7153 123.443 60.3362C124.8 58.8289 127.021 54.6563 128.953 53.4741C129.011 54.5766 129.012 55.9311 129.839 56.7548C131.545 58.4575 134.888 55.8745 136.428 54.8786C136.802 54.6332 135.76 53.6643 135.38 53.9136Z"/>
</g>
<g fill="#000000" opacity="1" stroke="none">
<path clip-path="url(#TextBounds_2)" d="M-1.53794 31.0951C-1.51994 31.0887 1.12854 30.3126 4.79088 29.5467C4.78703 29.6379 4.78447 29.7227 4.78958 29.7972C4.81306 30.1907 5.45617 30.6301 5.78827 30.6301C5.90458 30.6301 5.98274 30.5762 5.98274 30.4476C5.98274 30.4071 5.97928 30.3684 5.97932 30.3247C5.97932 30.0647 6.02783 29.7107 6.11704 29.2794C9.45117 28.6322 13.3953 28.0607 16.9254 28.0607C18.9327 28.0607 20.8061 28.2455 22.3574 28.7062C22.4306 28.728 22.4921 28.7379 22.5427 28.7379C22.675 28.7379 22.7327 28.6701 22.7327 28.5689C22.7327 28.3182 22.378 27.8628 21.9243 27.7283C20.2785 27.2392 18.3014 27.044 16.1941 27.044C13.0035 27.044 9.51436 27.4914 6.42417 28.0432C8.21293 21.6347 14.7988 6.41082 14.8206 6.35942C14.8335 6.3302 14.8395 6.29892 14.8395 6.26612C14.8395 5.92648 14.1957 5.42618 13.851 5.42618C13.7633 5.42618 13.6949 5.45862 13.6615 5.53442C13.6384 5.58967 6.31494 22.5162 4.99136 28.3105C0.735283 29.1432-2.45673 30.0787-2.47732 30.0851C-2.56999 30.1123-2.60957 30.1725-2.60953 30.2508C-2.60953 30.5488-2.03625 31.1089-1.63881 31.1089C-1.60361 31.1089-1.56984 31.1045-1.53794 31.0951Z"/>
<path clip-path="url(#TextBounds_2)" d="M18.48 18.9917C18.7807 18.5975 19.7719 18.3788 20.1972 18.3788C20.3043 18.3788 20.3756 18.3927 20.3908 18.4211C20.4734 18.573 20.5085 18.7611 20.5085 18.9693C20.5085 19.6329 20.1516 20.5015 19.8357 21.058C19.152 20.9115 18.5108 20.5594 18.3232 19.9028C18.5229 19.7438 18.8806 19.6986 18.8806 19.4986C18.8806 19.3899 18.7747 19.2353 18.48 18.9917ZM17.0985 19.1099C16.1793 19.854 15.0705 21.2732 15.0705 22.5367C15.0705 23.1279 15.3132 23.6849 15.9317 24.1228C15.907 24.1729 16.4953 24.5446 17.3594 24.5446C18.3356 24.5446 19.6637 24.0702 20.8573 22.122C21.0043 22.1354 21.1572 22.1424 21.3152 22.1424C22.5716 22.1424 24.1503 21.6999 25.6445 20.4888C25.6943 20.448 25.7162 20.3925 25.7163 20.3284C25.7163 20.0106 25.1784 19.4811 24.8397 19.4811C24.7817 19.4811 24.7295 19.4966 24.6869 19.5314C23.5952 20.422 22.2747 20.882 21.3906 21.0542C21.5765 20.6199 21.6667 20.1783 21.6668 19.759C21.6668 19.0826 21.4319 18.4642 20.9845 18.0279C20.546 17.6002 19.8425 17.3825 19.1531 17.3825C18.1041 17.3825 17.0878 17.8865 17.0878 18.9219C17.0878 18.9827 17.0913 19.0454 17.0985 19.1099ZM17.7256 20.4707L17.7257 20.4707C18.1291 20.9732 18.6971 21.423 19.3949 21.7391C18.7411 22.6318 17.6559 23.6228 16.7296 23.6228C16.5599 23.6228 16.3955 23.5895 16.2401 23.5163C16.2222 23.4598 16.2247 23.3248 16.2389 23.1398C16.3095 22.2531 17.1204 21.1146 17.7256 20.4707Z"/>
<path clip-path="url(#TextBounds_2)" d="M25.2911 17.5563C25.2876 17.5656 24.0805 20.6554 24.0805 22.6663C24.0805 22.8642 24.0922 23.0516 24.1178 23.2246C24.2326 23.9987 24.8195 24.9159 25.6813 24.9159C25.6878 24.9159 25.6944 24.9158 25.701 24.9157C27.0747 24.8939 29.4199 21.6915 30.25 20.3037C30.7623 20.7805 31.4361 20.9634 32.1798 20.9634C32.9493 20.9634 33.7936 20.7676 34.6111 20.499C34.7106 20.4667 34.7527 20.3974 34.7528 20.3094C34.7527 20.0054 34.2499 19.4781 33.8678 19.4781C33.8288 19.4781 33.7911 19.4836 33.7553 19.4954C33.3809 19.6179 32.0618 19.9478 31.2868 19.9478C31.0537 19.9478 30.8698 19.9179 30.7756 19.8436C30.7648 19.7191 30.7593 19.6185 30.7594 19.5319C30.7593 19.1961 30.8414 19.0716 31.0121 18.5792C31.0613 17.9955 30.432 17.5297 30.0782 17.5297C29.9795 17.5297 29.9022 17.566 29.8671 17.6462C29.8041 17.6 29.6204 18.6087 29.6152 18.6833C29.3569 19.2114 28.9342 19.8951 28.4368 20.5954C27.6581 21.6915 26.197 23.4662 25.2577 23.8311C25.2224 23.6532 25.2066 23.4532 25.2066 23.2376C25.2066 21.3726 26.3898 18.3402 26.3898 18.3402C26.4024 18.3077 26.4082 18.2735 26.4082 18.2382C26.4082 17.8881 25.8316 17.4264 25.4988 17.4264C25.4025 17.4264 25.3266 17.4651 25.2911 17.5563Z"/>
<path clip-path="url(#TextBounds_2)" d="M33.9071 22.2364C33.9174 22.2325 37.5695 20.8845 38.3984 19.4389C38.5141 19.2371 38.5654 19.029 38.5654 18.8249C38.5654 17.9936 37.7146 17.2281 36.8978 17.2281C36.8749 17.2281 36.8521 17.2287 36.8293 17.2299C35.0114 17.3284 32.5465 20.2978 32.5465 22.4953C32.5465 23.6219 33.1944 24.5457 34.9095 24.7756C35.0502 24.7945 35.1949 24.8035 35.343 24.8035C38.5003 24.8035 43.175 20.7051 43.1885 20.6928C43.2364 20.6509 43.2575 20.5923 43.2576 20.5239C43.2576 20.1786 42.7203 19.5806 42.3906 19.5806C42.3376 19.5806 42.2901 19.596 42.2509 19.6303C40.7873 20.9124 36.9652 23.7848 34.6483 23.7848C34.4065 23.7848 34.1811 23.7536 33.9765 23.6859C33.7268 23.6035 33.6302 23.2976 33.6302 22.9871C33.6302 22.6442 33.748 22.2957 33.9071 22.2364ZM34.826 20.4052C35.543 19.4774 36.5839 18.5419 37.3639 18.3132C37.1686 19.0945 35.7807 19.9208 34.826 20.4052Z"/>
<path clip-path="url(#TextBounds_2)" d="M61.6946 5.53442C61.6907 5.54342 61.5275 5.9212 61.2474 6.5753C52.3395 7.61875 43.4689 8.98861 43.4214 8.99502C43.3054 9.01311 43.2565 9.07696 43.2565 9.16465C43.2565 9.45959 43.8099 10.0242 44.2269 10.0242C44.2492 10.0242 44.2712 10.0226 44.2926 10.0192C44.3363 10.0128 52.3549 8.77402 60.7475 7.75239C58.4608 13.1573 52.8194 26.7819 52.8195 29.6834C52.8194 30.1685 53.4259 30.63 53.8199 30.63C53.937 30.63 54.0158 30.5761 54.0158 30.4475C54.0158 30.4053 54.0121 30.3649 54.0121 30.3192C54.0121 27.3091 60.45 11.9913 62.3384 7.5622C67.7285 6.92918 73.0756 6.42171 76.3801 6.42171C77.6103 6.42171 78.5575 6.49203 79.1184 6.6524C79.188 6.67219 79.2467 6.68126 79.2954 6.68126C79.4291 6.68126 79.4873 6.61302 79.4873 6.51142C79.4873 6.25821 79.1259 5.79759 78.67 5.66806C78.0556 5.49232 77.0243 5.41569 75.6925 5.41569C72.564 5.41569 67.777 5.83849 62.8395 6.39282L62.8537 6.35942C62.8665 6.3302 62.8725 6.29892 62.8725 6.26612C62.8725 5.92648 62.2288 5.42618 61.8842 5.42618C61.7964 5.42618 61.728 5.45862 61.6946 5.53442Z"/>
<path clip-path="url(#TextBounds_2)" d="M73.7763 19.48C72.8438 20.0839 70.054 21.9129 68.881 21.9129C68.861 21.9129 68.8415 21.9124 68.8225 21.9113C68.2776 20.7021 69.0268 19.0148 67.3267 18.0703C67.1376 17.9652 66.971 17.9156 66.8118 17.9156C66.6012 17.9156 66.4034 18.0025 66.183 18.1628C64.9661 19.0469 63.2994 21.6594 62.3292 23.0215C63.9843 17.8518 68.1029 7.13717 68.1183 7.09862C68.2486 6.75845 67.5162 6.17043 67.1413 6.17043C67.0503 6.17043 66.9803 6.20512 66.9489 6.28647C66.9458 6.2946 60.4605 22.8647 60.4605 24.906C60.4605 25.4264 61.0268 26.003 61.5184 26.003C61.6321 26.003 61.7418 25.9721 61.8396 25.9026C63.1966 24.394 65.4171 20.2228 67.3498 19.0405C67.4077 20.1431 67.409 21.4975 68.2352 22.3212C68.6403 22.7251 69.1334 22.8878 69.6706 22.8878C71.3983 22.8878 73.5816 21.2044 74.7569 20.4438C74.8154 20.4056 74.8409 20.3497 74.8409 20.2836C74.8409 19.9741 74.2822 19.4394 73.9243 19.4394C73.8693 19.4394 73.819 19.452 73.7763 19.48Z"/>
<path clip-path="url(#TextBounds_2)" d="M75.0368 17.2325C73.7377 19.0829 73.1812 20.3667 73.0515 21.2109C72.9833 21.6569 73.0335 22.0179 73.162 22.3007C73.5025 23.0524 74.3789 23.5883 75.2 23.3351C75.8143 23.1462 76.6855 22.6219 77.6686 21.7173C77.6737 21.7121 77.6789 21.7083 77.6827 21.707C77.7277 21.6736 77.8806 21.5566 78.1325 21.2906C77.8691 22.257 77.6069 23.2143 77.3255 24.1023C74.7708 25.9476 66.481 32.0734 70.3439 35.7499C74.3596 39.5806 77.7598 27.2211 78.4679 24.9967C81.0354 23.1462 83.5387 21.6209 84.7903 20.8589C86.1974 20.0017 84.4086 19.489 84.2441 19.5905C82.5196 20.6558 80.8144 21.698 79.1335 22.8378C79.6129 21.2405 80.0446 19.3027 80.6203 17.7837C80.7437 17.4625 80.0986 16.9202 79.7105 16.8598C79.5602 16.8238 79.4394 16.847 79.3983 16.9652C78.9613 18.2425 77.5696 19.8745 76.5776 20.7882C75.9813 21.3369 75.0073 22.1195 74.2105 22.3379C74.1656 21.0953 75.493 19.0701 76.1651 18.1127C76.4157 17.7593 75.2848 16.8804 75.0368 17.2325ZM72.531 34.7733C71.8885 35.4466 71.3462 35.7383 70.9838 35.4338C68.6682 32.8444 74.4997 28.0461 76.5583 26.4308C75.3722 29.876 73.9523 33.2826 72.531 34.7733Z"/>
<path clip-path="url(#TextBounds_2)" d="M109.212 9.68767C109.217 9.68259 110.85 8.17978 110.85 6.89498C110.85 6.5511 110.733 6.22282 110.437 5.94305C109.875 5.4126 109.078 5.24512 108.25 5.24512C107.422 5.24512 106.563 5.4129 105.877 5.55242C102.679 6.20263 99.339 7.64189 96.7304 9.3227C95.1003 10.3733 91.8944 12.7469 91.8944 15.0721C91.8945 15.5311 92.0194 15.9882 92.306 16.4328C94.6804 20.1172 102.206 19.5246 102.206 23.1414C102.206 26.0651 97.0428 28.9147 93.7184 28.9147C93.4335 28.9147 93.1622 28.8938 92.9087 28.8502C92.3574 28.7564 91.9424 28.5418 91.7676 28.1781C91.5798 27.7898 91.0977 27.5242 90.8213 27.5242C90.7001 27.5242 90.6184 27.5752 90.6185 27.6895C90.6185 27.7424 90.636 27.8089 90.6753 27.8902C91.2227 29.0262 92.2405 29.6495 93.505 29.8666C93.8049 29.9182 94.1243 29.943 94.4577 29.943C98.0928 29.943 103.397 26.9985 103.397 23.7999C103.397 18.5341 93.7198 19.0579 93.1143 16.0833C93.089 15.9593 93.077 15.8337 93.077 15.7069C93.077 13.6275 96.3195 11.2277 97.7777 10.2878C100.349 8.63008 103.636 7.21267 106.778 6.57401C107.814 6.3633 108.622 6.22973 109.153 6.22973C109.624 6.22973 109.877 6.33498 109.877 6.58497C109.877 6.95329 109.328 7.63575 108.121 8.75858C108.081 8.7957 108.064 8.84278 108.064 8.89614C108.064 9.21153 108.682 9.7466 109.044 9.7466C109.111 9.7466 109.168 9.72851 109.212 9.68767Z"/>
<path clip-path="url(#TextBounds_2)" d="M107.075 22.2364C107.085 22.2325 110.738 20.8845 111.566 19.4389C111.682 19.2371 111.733 19.029 111.733 18.8249C111.733 17.9936 110.883 17.2281 110.066 17.2281C110.043 17.2281 110.02 17.2287 109.997 17.2299C108.179 17.3284 105.714 20.2978 105.714 22.4953C105.714 23.6219 106.362 24.5457 108.077 24.7756C108.218 24.7945 108.363 24.8035 108.511 24.8035C111.668 24.8035 116.343 20.7051 116.356 20.6928C116.404 20.6509 116.426 20.5923 116.426 20.5239C116.426 20.1786 115.888 19.5806 115.559 19.5806C115.506 19.5806 115.458 19.596 115.419 19.6303C113.955 20.9124 110.133 23.7848 107.816 23.7848C107.575 23.7848 107.349 23.7536 107.145 23.6859C106.895 23.6035 106.798 23.2976 106.798 22.9871C106.798 22.6442 106.916 22.2957 107.075 22.2364ZM107.994 20.4052C108.711 19.4774 109.752 18.5419 110.532 18.3132C110.337 19.0945 108.949 19.9208 107.994 20.4052Z"/>
<path clip-path="url(#TextBounds_2)" d="M122.169 19.5764C119.771 21.8671 116.625 26.2457 114.593 27.613C114.637 24.5726 118.474 15.2972 120.557 10.265C121.164 8.79769 121.819 7.59929 121.819 7.08962C121.819 6.74298 121.171 6.24908 120.827 6.24908C120.734 6.24908 120.664 6.28518 120.634 6.37001C120.466 6.85318 120.006 7.96476 119.394 9.44382C117.29 14.5319 113.398 23.9323 113.398 27.0177C113.398 28.1628 113.858 28.8352 114.846 28.8352C114.883 28.8352 114.921 28.8343 114.959 28.8325C116.103 28.778 121.285 21.9408 123.156 20.5568C123.199 20.5166 123.217 20.4639 123.217 20.4036C123.217 20.0746 122.66 19.519 122.323 19.519C122.263 19.519 122.21 19.5367 122.169 19.5764Z"/>
<path clip-path="url(#TextBounds_2)" d="M131.554 19.5559C128.661 22.4056 125.14 24.2707 121.802 25.052C122.273 23.6128 122.798 22.1337 123.352 20.6919C125.603 19.2886 130.515 13.8552 130.515 10.7932C130.515 10.3894 130.429 10.0268 130.241 9.7202C129.948 9.24218 129.426 8.8361 128.921 8.73586C128.861 8.72385 128.8 8.71794 128.738 8.71794C128.118 8.71794 127.418 9.31161 126.691 10.3281C123.527 14.7491 118.419 28.3033 118.419 33.5656C118.419 33.6613 118.421 33.7542 118.424 33.8443C118.466 34.9839 119.342 36.3471 120.448 36.3471C120.619 36.3471 120.795 36.3145 120.975 36.2434C122.321 35.7101 123.377 32.3737 123.377 29.4565C123.377 28.1987 123.18 27.0188 122.726 26.1751C126.124 25.3938 129.64 23.3276 132.608 20.4208C132.654 20.3764 132.674 20.3222 132.674 20.2625C132.674 19.9481 132.119 19.4812 131.757 19.4812C131.678 19.4812 131.607 19.5039 131.554 19.5559ZM121.445 32.7623C121.215 33.4485 120.773 34.5099 120.209 34.9777C120.114 35.056 119.825 35.3092 119.778 35.0972C119.727 34.8686 119.704 34.5925 119.704 34.2803C119.704 31.9141 121.037 27.4706 121.545 25.8552C121.985 26.4082 122.169 27.3703 122.169 28.4756C122.169 29.8537 121.882 31.4544 121.445 32.7623ZM124.561 17.7119C125.389 15.7869 127.778 10.5812 129.245 9.88728C129.253 9.95362 129.257 10.0225 129.257 10.0938C129.257 12.1983 125.882 16.3857 124.561 17.7119Z"/>
<path clip-path="url(#TextBounds_2)" d="M132.562 17.2736C132.036 18.3883 130.942 20.7541 130.942 22.4444C130.942 22.9033 131.023 23.3125 131.218 23.6332C131.485 24.074 131.962 24.4479 132.46 24.5841C132.607 24.6241 132.758 24.6429 132.913 24.6429C134.817 24.6429 137.313 21.8217 138.32 20.5908C138.358 20.5448 138.375 20.4845 138.375 20.4158C138.375 20.0519 137.909 19.4499 137.624 19.4499C137.573 19.4499 137.527 19.4694 137.491 19.5134C136.591 20.6174 133.769 23.621 132.205 23.621C132.192 23.621 132.179 23.6208 132.166 23.6204C132.125 23.4812 132.106 23.3169 132.106 23.1334C132.106 21.698 133.258 19.0878 133.72 18.1101C133.734 18.0797 133.741 18.0469 133.741 18.0122C133.741 17.6743 133.098 17.1694 132.751 17.1694C132.665 17.1694 132.597 17.2007 132.562 17.2736ZM134.416 16.5385L135.808 14.327C135.829 14.293 135.839 14.2548 135.839 14.2138C135.839 13.8845 135.203 13.3711 134.853 13.3711C134.773 13.3711 134.708 13.3978 134.669 13.4596L133.278 15.6698C133.256 15.7038 133.246 15.742 133.246 15.783C133.246 16.1126 133.883 16.6265 134.233 16.6265C134.313 16.6265 134.377 16.5999 134.416 16.5385Z"/>
<path clip-path="url(#TextBounds_2)" d="M137.573 22.2364C137.583 22.2325 141.236 20.8845 142.064 19.4389C142.18 19.2371 142.231 19.029 142.231 18.8249C142.231 17.9936 141.381 17.2281 140.564 17.2281C140.541 17.2281 140.518 17.2287 140.495 17.2299C138.677 17.3284 136.212 20.2978 136.212 22.4953C136.212 23.6219 136.86 24.5457 138.575 24.7756C138.716 24.7945 138.861 24.8035 139.009 24.8035C142.166 24.8035 146.841 20.7051 146.854 20.6928C146.902 20.6509 146.924 20.5923 146.924 20.5239C146.924 20.1786 146.386 19.5806 146.057 19.5806C146.004 19.5806 145.956 19.596 145.917 19.6303C144.453 20.9124 140.631 23.7848 138.314 23.7848C138.073 23.7848 137.847 23.7536 137.643 23.6859C137.393 23.6035 137.296 23.2976 137.296 22.9871C137.296 22.6442 137.414 22.2957 137.573 22.2364ZM138.492 20.4052C139.209 19.4774 140.25 18.5419 141.03 18.3132C140.835 19.0945 139.447 19.9208 138.492 20.4052Z"/>
</g>
</g>
</svg>
