<?xml version="1.0" encoding="UTF-8" standalone="no"?>
<!DOCTYPE svg PUBLIC "-//W3C//DTD SVG 1.1//EN" "http://www.w3.org/Graphics/SVG/1.1/DTD/svg11.dtd">
<!-- Created with Vectornator (http://vectornator.io/) -->
<svg height="100%" stroke-miterlimit="10" style="fill-rule:nonzero;clip-rule:evenodd;stroke-linecap:round;stroke-linejoin:round;" version="1.1" viewBox="0 0 496.125 155.925" width="100%" xml:space="preserve" xmlns="http://www.w3.org/2000/svg" xmlns:vectornator="http://vectornator.io" xmlns:xlink="http://www.w3.org/1999/xlink">
<defs/>
<g id="Layer-1" vectornator:layerName="Layer 1">
<g fill="#fff9f4" opacity="1" stroke="none">
<path d="M20.7947 7.02659C21.2747 6.54659 21.8347 6.30659 22.4747 6.30659C23.1147 6.30659 23.6747 6.53659 24.1547 6.99659C24.6347 7.45659 24.8747 8.00659 24.8747 8.64659L24.8747 9.72659C24.8747 10.4066 24.8947 11.2866 24.9347 12.3666C24.9747 13.4466 24.9947 14.9266 24.9947 16.8066L24.9947 25.8066C24.9947 27.2866 24.9947 28.7266 24.9947 30.1266C25.0347 31.5666 25.0547 32.8866 25.0547 34.0866C25.0947 35.3266 25.1147 36.5266 25.1147 37.6866C25.1147 38.8466 25.0947 39.9466 25.0547 40.9866C25.0547 41.9866 25.0347 42.9266 24.9947 43.8066C24.9947 44.6866 24.9847 45.4466 24.9647 46.0866C24.9447 46.7266 24.9347 47.2866 24.9347 47.7666C24.8947 48.2466 24.8747 48.7466 24.8747 49.2666C24.8347 49.6666 24.8147 49.9866 24.8147 50.2266L24.8147 50.4066C25.0547 50.4466 25.2747 50.4666 25.4747 50.4666C26.0747 50.4666 26.7747 50.4766 27.5747 50.4966C28.3747 50.5166 29.1747 50.5266 29.9747 50.5266L32.4947 50.5266C33.3747 50.5266 34.2147 50.5166 35.0147 50.4966C35.8147 50.4766 36.5747 50.4466 37.2947 50.4066C38.0147 50.3666 38.6547 50.3266 39.2147 50.2866C39.7347 50.2866 40.1147 50.2666 40.3547 50.2266C40.6747 50.2266 40.9947 50.2266 41.3147 50.2266L41.7347 50.2266C42.3747 50.2266 42.9247 50.4566 43.3847 50.9166C43.8447 51.3766 44.0747 51.9266 44.0747 52.5666C44.0747 53.2066 43.8447 53.7666 43.3847 54.2466C42.9247 54.7266 42.3747 54.9666 41.7347 54.9666L41.3147 54.9666C41.1147 54.9666 40.9147 54.9666 40.7147 54.9666C40.4347 54.9666 40.0147 54.9866 39.4547 55.0266C38.9347 55.0666 38.3147 55.1066 37.5947 55.1466C36.7947 55.1866 35.9747 55.2266 35.1347 55.2666C34.2947 55.2666 33.4147 55.2666 32.4947 55.2666L29.9747 55.2666C29.1347 55.2666 28.3047 55.2566 27.4847 55.2366C26.6647 55.2166 25.9547 55.2066 25.3547 55.2066C24.6347 55.1666 23.8547 55.0666 23.0147 54.9066C21.0547 54.5066 20.0747 53.5066 20.0747 51.9066L20.0747 50.2266C20.0747 49.9066 20.0947 49.4866 20.1347 48.9666C20.1347 48.5266 20.1547 48.0666 20.1947 47.5866C20.1947 47.1066 20.2047 46.5566 20.2247 45.9366C20.2447 45.3166 20.2647 44.5766 20.2847 43.7166C20.3047 42.8566 20.3147 41.9066 20.3147 40.8666C20.3547 39.8666 20.3747 38.7966 20.3747 37.6566C20.3747 36.5166 20.3547 35.3466 20.3147 34.1466C20.3147 32.9466 20.2947 31.6266 20.2547 30.1866C20.2547 28.7466 20.2547 27.2866 20.2547 25.8066L20.2547 16.8066C20.2547 14.9666 20.2347 13.5266 20.1947 12.4866C20.1547 11.3666 20.1347 10.4666 20.1347 9.78659L20.1347 8.70659C20.1347 8.06659 20.3547 7.50659 20.7947 7.02659Z"/>
<path d="M72.3347 46.9266C72.3347 46.9266 72.3547 46.9066 72.3947 46.8666C72.5547 46.5466 72.8347 46.0466 73.2347 45.3666C73.6347 44.6066 74.0747 43.9066 74.5547 43.2666C74.9547 42.7066 75.3347 42.1666 75.6947 41.6466C76.0147 41.1666 76.3547 40.6466 76.7147 40.0866C77.0747 39.4866 77.4747 38.9066 77.9147 38.3466C78.3147 37.7866 78.7147 37.2266 79.1147 36.6666C79.4747 36.1466 79.7347 35.7866 79.8947 35.5866C80.0547 35.3466 80.2747 35.0066 80.5547 34.5666C80.8747 34.0466 81.2147 33.4666 81.5747 32.8266C81.9347 32.2666 82.2147 31.7466 82.4147 31.2666C82.6147 30.8266 82.7547 30.3666 82.8347 29.8866C82.9547 29.4466 83.0347 29.0066 83.0747 28.5666C83.0747 28.0866 83.0747 27.5866 83.0747 27.0666C83.0347 26.5866 82.9747 26.2066 82.8947 25.9266C82.8547 25.6866 82.7747 25.4566 82.6547 25.2366C82.5347 25.0166 82.4147 24.8466 82.2947 24.7266C82.2547 24.6466 82.2147 24.5866 82.1747 24.5466C82.0947 24.5066 81.9747 24.4666 81.8147 24.4266C81.6147 24.3866 81.4147 24.3466 81.2147 24.3066C80.9347 24.3066 80.5947 24.3066 80.1947 24.3066C79.7547 24.3066 79.3747 24.3266 79.0547 24.3666C78.8147 24.4066 78.4947 24.4666 78.0947 24.5466C77.6947 24.6266 77.2947 24.7266 76.8947 24.8466C76.5347 25.0066 76.1747 25.1966 75.8147 25.4166C75.4547 25.6366 75.1747 25.8466 74.9747 26.0466C74.6547 26.3666 74.3747 26.6666 74.1347 26.9466C73.9347 27.1466 73.7647 27.3766 73.6247 27.6366C73.4847 27.8966 73.3747 28.1666 73.2947 28.4466C73.1347 28.8066 73.0147 29.1866 72.9347 29.5866C72.7747 30.0666 72.6147 30.5666 72.4547 31.0866C72.2947 31.5666 72.1547 32.0266 72.0347 32.4666C71.9947 32.5466 71.9347 32.6366 71.8547 32.7366C71.7747 32.8366 71.6247 33.0066 71.4047 33.2466C71.1847 33.4866 70.9547 33.7066 70.7147 33.9066C70.4747 34.1066 70.1947 34.2866 69.8747 34.4466C69.5547 34.6066 69.2547 34.6866 68.9747 34.6866C68.6947 34.6866 68.4047 34.5766 68.1047 34.3566C67.8047 34.1366 67.5147 33.7866 67.2347 33.3066C67.1147 33.0266 66.9747 32.7066 66.8147 32.3466C66.6547 32.0666 66.4547 31.7066 66.2147 31.2666C65.9747 30.7866 65.7347 30.2866 65.4947 29.7666C65.2547 29.2866 64.9747 28.7466 64.6547 28.1466C64.4147 27.7066 64.0647 27.1966 63.6047 26.6166C63.1447 26.0366 62.7747 25.6466 62.4947 25.4466C62.2147 25.2066 61.9347 25.0066 61.6547 24.8466C61.4147 24.6866 61.0947 24.5466 60.6947 24.4266C60.2947 24.3066 59.8647 24.2166 59.4047 24.1566C58.9447 24.0966 58.4747 24.0766 57.9947 24.0966C57.5147 24.1166 57.0547 24.1866 56.6147 24.3066C56.2947 24.3466 56.0147 24.4466 55.7747 24.6066C55.4947 24.7266 55.2947 24.8666 55.1747 25.0266C55.0947 25.1066 55.0347 25.1866 54.9947 25.2666C54.9147 25.4266 54.8547 25.7266 54.8147 26.1666C54.7747 26.6066 54.7947 26.9466 54.8747 27.1866C54.9547 27.5866 55.1347 28.1666 55.4147 28.9266C55.6547 29.6066 55.9747 30.2666 56.3747 30.9066C56.8147 31.6666 57.2547 32.3466 57.6947 32.9466C58.1747 33.6266 58.6347 34.2866 59.0747 34.9266C59.5147 35.4866 59.9347 36.0066 60.3347 36.4866C60.8147 37.0066 61.2947 37.5466 61.7747 38.1066C62.2147 38.6266 62.6947 39.1266 63.2147 39.6066C63.6947 40.0866 64.0547 40.4266 64.2947 40.6266C64.6147 40.9066 65.0747 41.3066 65.6747 41.8266C66.2347 42.3066 66.7747 42.7566 67.2947 43.1766C67.8147 43.5966 68.3947 44.0466 69.0347 44.5266C69.5947 44.9666 70.1547 45.3866 70.7147 45.7866C71.2347 46.1866 71.7747 46.5666 72.3347 46.9266ZM75.7547 50.5266C75.7547 51.0466 75.6147 51.5266 75.3347 51.9666C74.9747 52.4866 74.4647 52.7966 73.8047 52.8966C73.1447 52.9966 72.5547 52.8666 72.0347 52.5066L71.3747 52.0266C70.9347 51.7066 70.3947 51.3466 69.7547 50.9466C69.1147 50.5066 68.4947 50.0466 67.8947 49.5666C67.2947 49.1266 66.7047 48.6866 66.1247 48.2466C65.5447 47.8066 64.9547 47.3666 64.3547 46.9266C63.7547 46.4466 63.1547 45.9266 62.5547 45.3666C61.9947 44.8866 61.5747 44.5266 61.2947 44.2866C60.9347 43.9666 60.4547 43.5266 59.8547 42.9666C59.2947 42.4066 58.7547 41.8466 58.2347 41.2866C57.7547 40.7266 57.2747 40.1666 56.7947 39.6066C56.2747 39.0466 55.7747 38.4066 55.2947 37.6866C54.8147 37.0466 54.3347 36.3866 53.8547 35.7066C53.2947 34.9866 52.7747 34.2066 52.2947 33.3666C51.7347 32.4466 51.2947 31.5066 50.9747 30.5466C50.6147 29.6266 50.3747 28.8866 50.2547 28.3266C50.0947 27.5666 50.0547 26.7066 50.1347 25.7466C50.2147 24.7466 50.3947 23.9266 50.6747 23.2866C50.9547 22.6866 51.3347 22.1466 51.8147 21.6666C52.2547 21.2266 52.7947 20.8266 53.4347 20.4666C54.0747 20.1066 54.7947 19.8466 55.5947 19.6866C56.2747 19.5266 57.0047 19.4266 57.7847 19.3866C58.5647 19.3466 59.3147 19.3766 60.0347 19.4766C60.7547 19.5766 61.4547 19.7266 62.1347 19.9266C62.8547 20.1666 63.4747 20.4266 63.9947 20.7066C64.5147 20.9866 65.0147 21.3466 65.4947 21.7866C66.0147 22.1866 66.6147 22.7966 67.2947 23.6166C67.9747 24.4366 68.4947 25.2266 68.8547 25.9866L69.0347 26.2866C69.1947 25.8866 69.3747 25.5466 69.5747 25.2666C69.8547 24.7866 70.1747 24.3266 70.5347 23.8866C70.8547 23.4866 71.2147 23.0866 71.6147 22.6866C72.0947 22.2066 72.6547 21.7866 73.2947 21.4266C73.8947 21.0266 74.5347 20.6866 75.2147 20.4066C75.8547 20.1666 76.4947 19.9866 77.1347 19.8666C77.7347 19.7466 78.2347 19.6666 78.6347 19.6266C78.9947 19.5866 79.4547 19.5666 80.0147 19.5666C80.6147 19.5266 81.1547 19.5466 81.6347 19.6266C82.1547 19.6666 82.6547 19.7466 83.1347 19.8666C83.6547 20.0266 84.1347 20.2266 84.5747 20.4666C85.0547 20.7466 85.4947 21.1266 85.8947 21.6066C86.2147 22.0066 86.5247 22.4766 86.8247 23.0166C87.1247 23.5566 87.3547 24.1466 87.5147 24.7866C87.6747 25.3466 87.7747 26.0066 87.8147 26.7666C87.8547 27.4866 87.8547 28.1666 87.8147 28.8066C87.7347 29.5266 87.6147 30.2466 87.4547 30.9666C87.2947 31.6866 87.0547 32.4066 86.7347 33.1266C86.4547 33.8066 86.0947 34.5066 85.6547 35.2266C85.2547 35.9066 84.8947 36.5066 84.5747 37.0266C84.2547 37.5466 83.9947 37.9466 83.7947 38.2266C83.6347 38.5066 83.3347 38.9266 82.8947 39.4866C82.5747 39.9666 82.1947 40.5066 81.7547 41.1066C81.3547 41.6266 81.0147 42.1266 80.7347 42.6066C80.3747 43.2066 80.0047 43.7866 79.6247 44.3466C79.2447 44.9066 78.8347 45.4666 78.3947 46.0266C78.0347 46.5466 77.6947 47.1066 77.3747 47.7066C76.9747 48.3866 76.6747 48.9066 76.4747 49.2666C76.2747 49.5866 76.1147 49.8666 75.9947 50.1066C75.9147 50.2266 75.8347 50.3666 75.7547 50.5266Z"/>
<path d="M93.8747 21.6666C94.0747 21.0266 94.4547 20.5466 95.0147 20.2266C95.5747 19.9066 96.1747 19.8366 96.8147 20.0166C97.4547 20.1966 97.9347 20.5666 98.2547 21.1266L99.1547 22.7466C99.7947 23.8266 100.415 25.0066 101.015 26.2866C101.615 27.4866 102.215 28.7066 102.815 29.9466C103.415 31.1866 103.985 32.4166 104.525 33.6366C105.065 34.8566 105.595 36.0466 106.115 37.2066C106.595 38.3266 107.035 39.4066 107.435 40.4466C107.875 41.4866 108.275 42.4866 108.635 43.4466C108.675 43.4866 108.715 43.5666 108.755 43.6866C108.835 43.3666 108.915 43.0866 108.995 42.8466C109.395 41.6866 109.815 40.5266 110.255 39.3666C110.695 38.2866 111.095 37.2466 111.455 36.2466C111.815 35.2066 112.135 34.2466 112.415 33.3666C112.735 32.3666 113.075 31.3866 113.435 30.4266C113.835 29.4666 114.195 28.5866 114.515 27.7866C114.835 26.9866 115.115 26.2666 115.355 25.6266C115.595 25.0266 115.795 24.4866 115.955 24.0066C116.115 23.4866 116.275 22.9966 116.435 22.5366C116.595 22.0766 116.715 21.6866 116.795 21.3666C116.875 21.1266 116.935 20.9266 116.975 20.7666L117.035 20.3466C117.155 19.7066 117.495 19.2066 118.055 18.8466C118.615 18.4866 119.205 18.3666 119.825 18.4866C120.445 18.6066 120.945 18.9366 121.325 19.4766C121.705 20.0166 121.835 20.6066 121.715 21.2466L121.595 21.6666C121.555 22.0266 121.455 22.4066 121.295 22.8066C121.215 23.1266 121.095 23.5266 120.935 24.0066C120.775 24.4866 120.615 24.9666 120.455 25.4466C120.295 26.0066 120.075 26.6266 119.795 27.3066C119.555 27.9866 119.255 28.7266 118.895 29.5266C118.575 30.3266 118.235 31.2066 117.875 32.1666C117.515 33.0466 117.195 33.9266 116.915 34.8066C116.635 35.7266 116.295 36.7266 115.895 37.8066C115.535 38.8866 115.135 40.0066 114.695 41.1666C114.255 42.2066 113.865 43.2466 113.525 44.2866C113.185 45.3266 112.875 46.3066 112.595 47.2266C112.275 48.3466 111.975 49.3266 111.695 50.1666C111.415 51.0066 111.215 51.6066 111.095 51.9666C110.935 52.4066 110.495 52.7366 109.775 52.9566C109.055 53.1766 108.325 53.1766 107.585 52.9566C106.845 52.7366 106.415 52.2866 106.295 51.6066C106.215 51.3266 106.115 50.9666 105.995 50.5266C105.875 50.0866 105.775 49.6866 105.695 49.3266C105.575 48.9666 105.385 48.3966 105.125 47.6166C104.865 46.8366 104.575 46.0066 104.255 45.1266C103.895 44.2066 103.495 43.2466 103.055 42.2466C102.655 41.2466 102.215 40.1866 101.735 39.0666C101.255 37.9466 100.745 36.7966 100.205 35.6166C99.6647 34.4366 99.1147 33.2266 98.5547 31.9866C97.9547 30.8266 97.3547 29.6066 96.7547 28.3266C96.1947 27.1666 95.6147 26.0866 95.0147 25.0866L94.1147 23.4666C93.7947 22.9066 93.7147 22.3066 93.8747 21.6666Z"/>
<path d="M128.375 21.8466C128.295 21.2066 128.455 20.6266 128.855 20.1066C129.255 19.5866 129.775 19.2866 130.415 19.2066L130.955 19.0866C131.355 19.0466 131.915 19.0066 132.635 18.9666C133.395 18.8866 134.035 18.8466 134.555 18.8466C135.075 18.8066 135.915 18.7666 137.075 18.7266C138.235 18.6866 139.335 18.6266 140.375 18.5466C141.415 18.4666 142.355 18.3866 143.195 18.3066C144.075 18.2666 144.875 18.2266 145.595 18.1866C146.355 18.1466 146.975 18.1266 147.455 18.1266C148.015 18.0866 148.475 18.0666 148.835 18.0666L149.375 18.0666C150.015 18.0666 150.565 18.2966 151.025 18.7566C151.485 19.2166 151.715 19.7766 151.715 20.4366C151.715 21.0966 151.485 21.6566 151.025 22.1166C150.565 22.5766 150.015 22.8066 149.375 22.8066L148.835 22.8066C148.515 22.8066 148.115 22.8066 147.635 22.8066C147.155 22.8466 146.555 22.8866 145.835 22.9266C145.155 22.9266 144.395 22.9666 143.555 23.0466C142.715 23.1266 141.755 23.1966 140.675 23.2566C139.595 23.3166 138.475 23.3866 137.315 23.4666C136.115 23.5066 135.275 23.5466 134.795 23.5866C134.275 23.5866 133.675 23.6266 132.995 23.7066C132.835 23.7066 132.655 23.7066 132.455 23.7066L132.695 24.7266C132.935 25.6866 133.095 26.4866 133.175 27.1266C133.255 27.7266 133.395 28.7466 133.595 30.1866C133.835 31.5866 134.055 33.0266 134.255 34.5066C134.255 34.5466 134.255 34.5866 134.255 34.6266L134.435 34.6266C134.875 34.5866 135.445 34.5266 136.145 34.4466C136.845 34.3666 137.615 34.2666 138.455 34.1466C139.335 34.0266 140.215 33.9466 141.095 33.9066C141.935 33.8266 142.755 33.7866 143.555 33.7866C144.275 33.7866 144.835 33.7866 145.235 33.7866L145.895 33.7266C146.575 33.6866 147.155 33.8966 147.635 34.3566C148.115 34.8166 148.365 35.3666 148.385 36.0066C148.405 36.6466 148.195 37.2066 147.755 37.6866C147.315 38.1666 146.775 38.4266 146.135 38.4666L145.415 38.5266C144.935 38.5266 144.315 38.5266 143.555 38.5266C142.915 38.5266 142.195 38.5466 141.395 38.5866C140.595 38.6666 139.815 38.7466 139.055 38.8266C138.255 38.9466 137.455 39.0466 136.655 39.1266C135.975 39.2066 135.415 39.2666 134.975 39.3066C135.135 40.4266 135.255 41.4466 135.335 42.3666C135.455 43.4066 135.555 44.3466 135.635 45.1866C135.755 45.9466 135.835 46.5466 135.875 46.9866C135.875 47.3066 135.915 47.7666 135.995 48.3666C136.035 48.6866 136.075 48.9666 136.115 49.2066C136.475 49.2066 136.875 49.2066 137.315 49.2066C138.075 49.2066 138.905 49.1966 139.805 49.1766C140.705 49.1566 141.705 49.1266 142.805 49.0866C143.905 49.0466 145.035 48.9866 146.195 48.9066C147.315 48.8266 148.355 48.7466 149.315 48.6666C150.315 48.5866 151.135 48.5466 151.775 48.5466L153.035 48.5466L153.515 48.5466C154.155 48.5466 154.705 48.7766 155.165 49.2366C155.625 49.6966 155.855 50.2466 155.855 50.8866C155.855 51.5266 155.625 52.0866 155.165 52.5666C154.705 53.0466 154.155 53.2866 153.515 53.2866L153.035 53.2866L151.775 53.2866C151.295 53.2866 150.615 53.3266 149.735 53.4066C148.735 53.4866 147.655 53.5666 146.495 53.6466C145.335 53.6866 144.185 53.7366 143.045 53.7966C141.905 53.8566 140.865 53.8966 139.925 53.9166C138.985 53.9366 138.115 53.9466 137.315 53.9466C136.515 53.9466 135.815 53.9266 135.215 53.8866L134.375 53.8266C133.335 53.7866 132.635 53.2666 132.275 52.2666C131.835 51.8666 131.575 51.3666 131.495 50.7666L131.495 50.3466C131.455 50.0266 131.395 49.5666 131.315 48.9666C131.235 48.2866 131.175 47.7466 131.135 47.3466C131.095 47.0266 131.035 46.4666 130.955 45.6666C130.875 44.8666 130.775 43.9466 130.655 42.9066C130.535 41.8666 130.375 40.7066 130.175 39.4266C129.975 38.0666 129.775 36.6466 129.575 35.1666C129.335 33.7266 129.115 32.2866 128.915 30.8466C128.715 29.4066 128.575 28.3866 128.495 27.7866C128.415 27.2666 128.275 26.6066 128.075 25.8066L127.775 24.4266C127.575 23.5866 127.795 22.8466 128.435 22.2066C128.435 22.0866 128.415 21.9666 128.375 21.8466Z"/>
<path d="M189.635 10.8666C189.155 10.4266 188.895 9.87659 188.855 9.21659C188.815 8.55659 189.015 7.98659 189.455 7.50659C189.895 7.02659 190.435 6.76659 191.075 6.72659L191.915 6.66659C192.515 6.62659 193.175 6.60659 193.895 6.60659L215.915 6.60659C216.435 6.60659 216.855 6.60659 217.175 6.60659L217.595 6.66659C218.235 6.70659 218.775 6.97659 219.215 7.47659C219.655 7.97659 219.855 8.54659 219.815 9.18659C219.775 9.82659 219.505 10.3666 219.005 10.8066C218.505 11.2466 217.935 11.4466 217.295 11.4066L216.875 11.3466C216.635 11.3466 216.315 11.3466 215.915 11.3466L206.315 11.3466C206.315 11.4266 206.315 11.5266 206.315 11.6466L206.135 12.5466C206.055 13.0266 206.035 13.7866 206.075 14.8266C206.075 15.9866 206.075 16.8966 206.075 17.5566C206.075 18.2166 206.095 19.2466 206.135 20.6466C206.175 22.0866 206.195 23.5666 206.195 25.0866C206.195 26.5266 206.215 28.0466 206.255 29.6466C206.255 31.2066 206.275 32.8066 206.315 34.4466C206.355 36.0466 206.395 37.5266 206.435 38.8866C206.515 40.2866 206.555 41.6066 206.555 42.8466C206.555 44.0466 206.595 45.1266 206.675 46.0866C206.755 47.2066 206.795 48.0866 206.795 48.7266C206.835 49.4066 206.855 49.9066 206.855 50.2266L206.855 51.7866C206.855 52.4266 206.625 52.9866 206.165 53.4666C205.705 53.9466 205.155 54.1866 204.515 54.1866C203.875 54.1866 203.315 53.9466 202.835 53.4666C202.355 52.9866 202.115 52.4266 202.115 51.7866L202.115 50.2266C202.115 49.9866 202.105 49.5566 202.085 48.9366C202.065 48.3166 202.015 47.4766 201.935 46.4166C201.855 45.3566 201.815 44.1866 201.815 42.9066C201.815 41.7066 201.775 40.4266 201.695 39.0666C201.655 37.7066 201.615 36.1966 201.575 34.5366C201.535 32.8766 201.515 31.2666 201.515 29.7066C201.475 28.1466 201.455 26.6066 201.455 25.0866C201.455 23.6066 201.435 22.1666 201.395 20.7666C201.355 19.3266 201.335 18.2666 201.335 17.5866C201.335 16.9066 201.335 15.9866 201.335 14.8266C201.295 13.5066 201.335 12.5066 201.455 11.8266L201.575 11.3466L193.895 11.3466C193.295 11.3466 192.735 11.3666 192.215 11.4066L191.375 11.4066C190.735 11.4466 190.155 11.2666 189.635 10.8666Z"/>
<path d="M227.135 7.56659C227.655 7.16659 228.235 7.01659 228.875 7.11659C229.515 7.21659 230.035 7.52659 230.435 8.04659C230.835 8.56659 230.975 9.14659 230.855 9.78659L230.795 10.4466C230.755 10.7266 230.715 11.5066 230.675 12.7866C230.675 14.1466 230.655 15.6866 230.615 17.4066C230.575 19.0866 230.555 21.2266 230.555 23.8266C230.555 25.2666 230.555 26.5866 230.555 27.7866C230.875 27.4666 231.195 27.1666 231.515 26.8866C232.195 26.2866 233.075 25.6666 234.155 25.0266C235.235 24.4266 236.115 24.0066 236.795 23.7666C237.515 23.4866 238.215 23.3266 238.895 23.2866C239.575 23.2466 240.255 23.2666 240.935 23.3466C241.735 23.4666 242.615 23.7866 243.575 24.3066C244.455 24.7866 245.175 25.2666 245.735 25.7466C246.295 26.1866 246.775 26.6466 247.175 27.1266C247.655 27.6466 248.155 28.4066 248.675 29.4066C249.155 30.3266 249.515 31.0666 249.755 31.6266C249.995 32.2666 250.255 33.0866 250.535 34.0866C250.775 35.0866 250.955 35.9466 251.075 36.6666C251.195 37.3866 251.295 38.0666 251.375 38.7066C251.415 39.3066 251.475 40.0066 251.555 40.8066C251.635 41.5666 251.695 42.2066 251.735 42.7266C251.815 43.2466 251.875 43.7666 251.915 44.2866C251.955 44.8066 251.995 45.2666 252.035 45.6666C252.075 46.0666 252.095 46.4466 252.095 46.8066C252.135 47.2866 252.155 47.6466 252.155 47.8866C252.195 48.2066 252.215 48.5266 252.215 48.8466L252.215 51.6666C252.215 52.3066 251.975 52.8566 251.495 53.3166C251.015 53.7766 250.455 54.0066 249.815 54.0066C249.175 54.0066 248.625 53.7766 248.165 53.3166C247.705 52.8566 247.475 52.3066 247.475 51.6666L247.475 48.8466C247.475 48.6466 247.455 48.4266 247.415 48.1866C247.415 47.9466 247.395 47.5666 247.355 47.0466C247.355 46.7266 247.335 46.4066 247.295 46.0866C247.255 45.6866 247.215 45.2466 247.175 44.7666C247.135 44.2466 247.095 43.7266 247.055 43.2066C246.975 42.7266 246.895 42.0866 246.815 41.2866C246.735 40.4866 246.675 39.7866 246.635 39.1866C246.595 38.6266 246.515 38.0466 246.395 37.4466C246.315 36.8466 246.155 36.1266 245.915 35.2866C245.715 34.4466 245.535 33.8266 245.375 33.4266C245.215 33.0266 244.935 32.4466 244.535 31.6866C244.175 31.0066 243.875 30.5466 243.635 30.3066C243.355 29.9866 243.035 29.6666 242.675 29.3466C242.355 29.1066 241.915 28.8266 241.355 28.5066C240.875 28.2266 240.495 28.0666 240.215 28.0266C239.895 27.9866 239.595 27.9866 239.315 28.0266C239.035 28.0266 238.715 28.0866 238.355 28.2066C237.955 28.3666 237.355 28.6866 236.555 29.1666C235.715 29.6066 235.085 30.0266 234.665 30.4266C234.245 30.8266 233.875 31.2266 233.555 31.6266C233.195 32.1066 232.855 32.5866 232.535 33.0666C232.215 33.5466 231.955 34.0066 231.755 34.4466C231.595 34.8466 231.435 35.4066 231.275 36.1266C231.075 36.9266 230.975 37.6466 230.975 38.2866C230.935 38.9666 230.915 39.5866 230.915 40.1466C230.955 40.7466 230.995 41.4266 231.035 42.1866C231.075 42.9466 231.135 43.7866 231.215 44.7066C231.255 45.6266 231.295 46.5666 231.335 47.5266C231.415 48.4866 231.455 49.3866 231.455 50.2266C231.455 50.3866 231.055 50.6066 230.255 50.8866C229.455 51.1666 228.705 51.3466 228.005 51.4266C227.305 51.5066 226.875 51.3866 226.715 51.0666C226.715 50.7466 226.675 49.9066 226.595 48.5466C226.475 47.1466 226.375 45.7466 226.295 44.3466C226.175 42.9066 226.095 41.4266 226.055 39.9066C226.015 38.4266 225.975 36.9066 225.935 35.3466C225.935 33.8266 225.915 32.1866 225.875 30.4266C225.835 28.6666 225.815 26.4666 225.815 23.8266C225.815 21.1866 225.835 19.0066 225.875 17.2866C225.915 15.6866 225.935 14.1666 225.935 12.7266C225.975 11.2466 226.035 10.2466 226.115 9.72659L226.175 9.12659C226.295 8.48659 226.615 7.96659 227.135 7.56659Z"/>
<path d="M283.295 31.5066L283.355 32.1066C283.435 33.5066 283.515 34.9866 283.595 36.5466C283.675 38.1466 283.745 40.2366 283.805 42.8166C283.865 45.3966 283.895 47.4666 283.895 49.0266C283.935 50.6266 283.895 52.5466 283.775 54.7866C283.615 57.1466 283.385 58.9366 283.085 60.1566C282.785 61.3766 282.335 62.6066 281.735 63.8466C281.135 65.1666 280.515 66.1866 279.875 66.9066C279.275 67.6266 278.655 68.2266 278.015 68.7066C277.335 69.2666 276.475 69.7666 275.435 70.2066C274.275 70.7266 273.255 70.9666 272.375 70.9266C271.655 70.9266 270.775 70.7466 269.735 70.3866C268.455 69.9466 267.395 69.1866 266.555 68.1066C265.755 67.1066 265.255 65.9266 265.055 64.5666C264.895 63.4866 264.855 62.5266 264.935 61.6866L264.995 60.7866C265.035 60.1466 265.305 59.6066 265.805 59.1666C266.305 58.7266 266.885 58.5366 267.545 58.5966C268.205 58.6566 268.745 58.9366 269.165 59.4366C269.585 59.9366 269.775 60.5066 269.735 61.1466L269.615 62.1066C269.575 62.5466 269.615 63.1466 269.735 63.9066C269.815 64.3866 269.995 64.8266 270.275 65.2266C270.555 65.5466 270.875 65.7666 271.235 65.8866C271.795 66.0866 272.215 66.1866 272.495 66.1866C272.695 66.1866 273.055 66.0666 273.575 65.8266C274.215 65.5466 274.735 65.2666 275.135 64.9866C275.495 64.6666 275.875 64.2866 276.275 63.8466C276.635 63.4466 277.035 62.7866 277.475 61.8666C277.915 60.8666 278.255 59.9066 278.495 58.9866C278.735 58.0666 278.915 56.5866 279.035 54.5466C279.115 52.3866 279.155 50.5466 279.155 49.0266C279.155 47.5066 279.135 45.4666 279.095 42.9066C279.055 42.5866 279.035 42.2466 279.035 41.8866C278.675 42.3666 278.275 42.8466 277.835 43.3266C276.875 44.3666 276.075 45.1466 275.435 45.6666C274.715 46.3066 273.875 46.8066 272.915 47.1666C271.995 47.5266 270.915 47.7666 269.675 47.8866C268.435 47.9666 267.395 47.8866 266.555 47.6466C265.715 47.4466 264.935 47.1266 264.215 46.6866C263.455 46.2066 262.715 45.5466 261.995 44.7066C261.315 43.9066 260.775 43.0866 260.375 42.2466C260.015 41.4466 259.655 40.4066 259.295 39.1266C258.975 37.8866 258.735 36.8066 258.575 35.8866C258.415 34.9666 258.295 34.0066 258.215 33.0066C258.175 32.0066 258.155 31.0066 258.155 30.0066C258.155 28.9666 258.255 27.7666 258.455 26.4066C258.615 25.0066 258.815 23.9266 259.055 23.1666C259.335 22.4066 259.595 21.8066 259.835 21.3666L260.135 20.9466C260.455 20.3866 260.935 20.0266 261.575 19.8666C262.215 19.7066 262.815 19.7966 263.375 20.1366C263.935 20.4766 264.295 20.9666 264.455 21.6066C264.615 22.2466 264.515 22.8466 264.155 23.4066L263.915 23.8266C263.835 23.9466 263.715 24.2266 263.555 24.6666C263.435 25.1466 263.295 25.9466 263.135 27.0666C262.975 28.2266 262.895 29.2266 262.895 30.0666C262.895 30.9466 262.915 31.8266 262.955 32.7066C262.995 33.5466 263.095 34.3466 263.255 35.1066C263.375 35.9066 263.575 36.8466 263.855 37.9266C264.135 38.9266 264.395 39.6866 264.635 40.2066C264.875 40.6866 265.195 41.1666 265.595 41.6466C265.995 42.0866 266.335 42.4066 266.615 42.6066C266.975 42.8066 267.355 42.9666 267.755 43.0866C268.115 43.1666 268.635 43.1866 269.315 43.1466C270.075 43.1066 270.695 42.9866 271.175 42.7866C271.655 42.5866 272.075 42.3466 272.435 42.0666C272.875 41.6666 273.515 41.0066 274.355 40.0866C275.115 39.2466 275.675 38.5266 276.035 37.9266C276.435 37.2066 276.855 36.2866 277.295 35.1666C277.775 34.0466 278.095 33.1466 278.255 32.4666C278.375 32.0666 278.475 31.6866 278.555 31.3266C278.515 30.8466 278.415 29.7466 278.255 28.0266C278.135 26.4666 278.035 25.3466 277.955 24.6666C277.875 23.9466 277.815 23.3066 277.775 22.7466C277.815 22.7066 277.855 22.6566 277.895 22.5966C277.935 22.5366 278.035 22.4066 278.195 22.2066C278.355 22.0066 278.515 21.8166 278.675 21.6366C278.835 21.4566 279.025 21.2666 279.245 21.0666C279.465 20.8666 279.685 20.6966 279.905 20.5566C280.125 20.4166 280.355 20.3066 280.595 20.2266C280.835 20.1466 281.065 20.1166 281.285 20.1366C281.505 20.1566 281.715 20.2566 281.915 20.4366C282.115 20.6166 282.275 20.8866 282.395 21.2466C282.595 21.6066 282.755 22.1266 282.875 22.8066C282.995 23.3666 283.095 23.9266 283.175 24.4866C283.255 25.0066 283.335 25.5466 283.415 26.1066C283.455 26.6666 283.475 27.4066 283.475 28.3266C283.515 29.3266 283.475 30.2466 283.355 31.0866C283.355 31.2066 283.335 31.3466 283.295 31.5066Z"/>
<path d="M341.735 9.90659C341.895 10.5466 341.805 11.1366 341.465 11.6766C341.125 12.2166 340.635 12.5666 339.995 12.7266C339.355 12.8866 338.755 12.7866 338.195 12.4266L337.835 12.1866C337.715 12.1466 337.535 12.1066 337.295 12.0666C336.855 12.0266 336.235 12.0266 335.435 12.0666C334.635 12.1066 333.795 12.2466 332.915 12.4866C331.995 12.7266 331.155 13.0066 330.395 13.3266C329.675 13.6466 328.915 14.1066 328.115 14.7066C327.275 15.2666 326.515 15.9266 325.835 16.6866C325.155 17.4066 324.575 18.1466 324.095 18.9066C323.695 19.5866 323.455 20.2266 323.375 20.8266C323.255 21.3866 323.255 21.9066 323.375 22.3866C323.455 22.7866 323.595 23.1266 323.795 23.4066C324.115 23.7666 324.675 24.1866 325.475 24.6666C326.395 25.2266 327.395 25.6866 328.475 26.0466C329.715 26.4466 330.915 26.8066 332.075 27.1266C333.315 27.4866 334.495 27.8866 335.615 28.3266C336.895 28.8066 338.245 29.5666 339.665 30.6066C341.085 31.6466 342.215 32.6866 343.055 33.7266C343.815 34.6866 344.395 35.4466 344.795 36.0066C345.235 36.6466 345.695 37.5266 346.175 38.6466C346.695 39.8866 347.035 41.0666 347.195 42.1866C347.355 43.3866 347.335 44.4866 347.135 45.4866C346.935 46.4466 346.615 47.2866 346.175 48.0066C345.775 48.6866 345.295 49.3066 344.735 49.8666C344.175 50.4266 343.435 50.9466 342.515 51.4266C341.635 51.9066 340.625 52.3266 339.485 52.6866C338.345 53.0466 337.155 53.2666 335.915 53.3466C334.755 53.4266 333.615 53.4266 332.495 53.3466C331.335 53.2266 330.195 53.0066 329.075 52.6866C327.995 52.4066 326.915 52.0466 325.835 51.6066C324.675 51.1266 323.375 50.3866 321.935 49.3866C320.535 48.3866 319.555 47.6066 318.995 47.0466C318.435 46.5266 318.015 46.0866 317.735 45.7266L317.435 45.3066C317.035 44.8266 316.865 44.2566 316.925 43.5966C316.985 42.9366 317.265 42.3966 317.765 41.9766C318.265 41.5566 318.845 41.3866 319.505 41.4666C320.165 41.5466 320.695 41.8266 321.095 42.3066L321.455 42.7266C321.615 42.9266 321.895 43.2466 322.295 43.6866C322.695 44.0866 323.495 44.6866 324.695 45.4866C325.815 46.2866 326.775 46.8666 327.575 47.2266C328.495 47.5866 329.415 47.8866 330.335 48.1266C331.175 48.3666 332.035 48.5266 332.915 48.6066C333.795 48.6866 334.695 48.7066 335.615 48.6666C336.455 48.5866 337.275 48.4266 338.075 48.1866C338.875 47.9066 339.595 47.6066 340.235 47.2866C340.755 47.0066 341.155 46.7266 341.435 46.4466C341.675 46.2066 341.895 45.9266 342.095 45.6066C342.255 45.3266 342.395 44.9466 342.515 44.4666C342.595 44.0266 342.595 43.4866 342.515 42.8466C342.395 42.1266 342.175 41.3666 341.855 40.5666C341.455 39.6866 341.135 39.0666 340.895 38.7066C340.575 38.2666 340.075 37.6066 339.395 36.7266C338.795 36.0066 337.945 35.2466 336.845 34.4466C335.745 33.6466 334.775 33.0666 333.935 32.7066C332.935 32.3466 331.895 32.0066 330.815 31.6866C329.575 31.3266 328.315 30.9466 327.035 30.5466C325.595 30.0666 324.275 29.4666 323.075 28.7466C321.795 27.9866 320.815 27.2066 320.135 26.4066C319.415 25.5666 318.935 24.5466 318.695 23.3466C318.495 22.2266 318.495 21.1066 318.695 19.9866C318.895 18.8266 319.335 17.6666 320.015 16.5066C320.655 15.4266 321.435 14.4066 322.355 13.4466C323.275 12.4466 324.275 11.5666 325.355 10.8066C326.435 10.0466 327.495 9.44659 328.535 9.00659C329.495 8.56659 330.555 8.20659 331.715 7.92659C332.915 7.60659 334.055 7.40659 335.135 7.32659C336.255 7.24659 337.215 7.26659 338.015 7.38659C338.975 7.54659 339.735 7.80659 340.295 8.16659L340.715 8.40659C341.275 8.76659 341.615 9.26659 341.735 9.90659Z"/>
<path d="M353.915 21.8466C353.835 21.2066 353.995 20.6266 354.395 20.1066C354.795 19.5866 355.315 19.2866 355.955 19.2066L356.495 19.0866C356.895 19.0466 357.455 19.0066 358.175 18.9666C358.935 18.8866 359.575 18.8466 360.095 18.8466C360.615 18.8066 361.455 18.7666 362.615 18.7266C363.775 18.6866 364.875 18.6266 365.915 18.5466C366.955 18.4666 367.895 18.3866 368.735 18.3066C369.615 18.2666 370.415 18.2266 371.135 18.1866C371.895 18.1466 372.515 18.1266 372.995 18.1266C373.555 18.0866 374.015 18.0666 374.375 18.0666L374.915 18.0666C375.555 18.0666 376.105 18.2966 376.565 18.7566C377.025 19.2166 377.255 19.7766 377.255 20.4366C377.255 21.0966 377.025 21.6566 376.565 22.1166C376.105 22.5766 375.555 22.8066 374.915 22.8066L374.375 22.8066C374.055 22.8066 373.655 22.8066 373.175 22.8066C372.695 22.8466 372.095 22.8866 371.375 22.9266C370.695 22.9266 369.935 22.9666 369.095 23.0466C368.255 23.1266 367.295 23.1966 366.215 23.2566C365.135 23.3166 364.015 23.3866 362.855 23.4666C361.655 23.5066 360.815 23.5466 360.335 23.5866C359.815 23.5866 359.215 23.6266 358.535 23.7066C358.375 23.7066 358.195 23.7066 357.995 23.7066L358.235 24.7266C358.475 25.6866 358.635 26.4866 358.715 27.1266C358.795 27.7266 358.935 28.7466 359.135 30.1866C359.375 31.5866 359.595 33.0266 359.795 34.5066C359.795 34.5466 359.795 34.5866 359.795 34.6266L359.975 34.6266C360.415 34.5866 360.985 34.5266 361.685 34.4466C362.385 34.3666 363.155 34.2666 363.995 34.1466C364.875 34.0266 365.755 33.9466 366.635 33.9066C367.475 33.8266 368.295 33.7866 369.095 33.7866C369.815 33.7866 370.375 33.7866 370.775 33.7866L371.435 33.7266C372.115 33.6866 372.695 33.8966 373.175 34.3566C373.655 34.8166 373.905 35.3666 373.925 36.0066C373.945 36.6466 373.735 37.2066 373.295 37.6866C372.855 38.1666 372.315 38.4266 371.675 38.4666L370.955 38.5266C370.475 38.5266 369.855 38.5266 369.095 38.5266C368.455 38.5266 367.735 38.5466 366.935 38.5866C366.135 38.6666 365.355 38.7466 364.595 38.8266C363.795 38.9466 362.995 39.0466 362.195 39.1266C361.515 39.2066 360.955 39.2666 360.515 39.3066C360.675 40.4266 360.795 41.4466 360.875 42.3666C360.995 43.4066 361.095 44.3466 361.175 45.1866C361.295 45.9466 361.375 46.5466 361.415 46.9866C361.415 47.3066 361.455 47.7666 361.535 48.3666C361.575 48.6866 361.615 48.9666 361.655 49.2066C362.015 49.2066 362.415 49.2066 362.855 49.2066C363.615 49.2066 364.445 49.1966 365.345 49.1766C366.245 49.1566 367.245 49.1266 368.345 49.0866C369.445 49.0466 370.575 48.9866 371.735 48.9066C372.855 48.8266 373.895 48.7466 374.855 48.6666C375.855 48.5866 376.675 48.5466 377.315 48.5466L378.575 48.5466L379.055 48.5466C379.695 48.5466 380.245 48.7766 380.705 49.2366C381.165 49.6966 381.395 50.2466 381.395 50.8866C381.395 51.5266 381.165 52.0866 380.705 52.5666C380.245 53.0466 379.695 53.2866 379.055 53.2866L378.575 53.2866L377.315 53.2866C376.835 53.2866 376.155 53.3266 375.275 53.4066C374.275 53.4866 373.195 53.5666 372.035 53.6466C370.875 53.6866 369.725 53.7366 368.585 53.7966C367.445 53.8566 366.405 53.8966 365.465 53.9166C364.525 53.9366 363.655 53.9466 362.855 53.9466C362.055 53.9466 361.355 53.9266 360.755 53.8866L359.915 53.8266C358.875 53.7866 358.175 53.2666 357.815 52.2666C357.375 51.8666 357.115 51.3666 357.035 50.7666L357.035 50.3466C356.995 50.0266 356.935 49.5666 356.855 48.9666C356.775 48.2866 356.715 47.7466 356.675 47.3466C356.635 47.0266 356.575 46.4666 356.495 45.6666C356.415 44.8666 356.315 43.9466 356.195 42.9066C356.075 41.8666 355.915 40.7066 355.715 39.4266C355.515 38.0666 355.315 36.6466 355.115 35.1666C354.875 33.7266 354.655 32.2866 354.455 30.8466C354.255 29.4066 354.115 28.3866 354.035 27.7866C353.955 27.2666 353.815 26.6066 353.615 25.8066L353.315 24.4266C353.115 23.5866 353.335 22.8466 353.975 22.2066C353.975 22.0866 353.955 21.9666 353.915 21.8466Z"/>
<path d="M388.415 8.40659C388.895 7.92659 389.455 7.68659 390.095 7.68659C390.735 7.68659 391.285 7.91659 391.745 8.37659C392.205 8.83659 392.435 9.38659 392.435 10.0266L392.435 10.8666C392.435 11.4266 392.435 12.0866 392.435 12.8466C392.435 13.6066 392.435 14.1866 392.435 14.5866L392.435 23.8866C392.435 24.3266 392.415 25.0066 392.375 25.9266C392.375 26.8866 392.355 27.8066 392.315 28.6866C392.315 29.5266 392.295 30.4266 392.255 31.3866C392.255 32.3466 392.235 33.0466 392.195 33.4866C392.195 33.9266 392.195 34.5466 392.195 35.3466L392.195 37.7466C392.195 38.5066 392.195 39.2466 392.195 39.9666C392.235 40.7666 392.235 41.5066 392.195 42.1866C392.195 42.7466 392.195 43.1066 392.195 43.2666C392.235 43.5866 392.255 44.0466 392.255 44.6466L392.255 47.6466C392.255 48.0866 392.235 48.5266 392.195 48.9666C392.195 49.3266 392.195 49.6666 392.195 49.9866C392.195 50.3866 392.175 50.7466 392.135 51.0666L392.135 51.5466C392.095 52.1866 391.825 52.7266 391.325 53.1666C390.825 53.6066 390.255 53.8066 389.615 53.7666C388.975 53.7266 388.435 53.4566 387.995 52.9566C387.555 52.4566 387.355 51.8866 387.395 51.2466L387.455 50.7666C387.455 50.5266 387.455 50.2666 387.455 49.9866C387.455 49.5866 387.455 49.1666 387.455 48.7266C387.495 48.3666 387.515 48.0066 387.515 47.6466L387.515 44.6466C387.515 44.2066 387.495 43.8866 387.455 43.6866C387.455 43.3266 387.455 42.7866 387.455 42.0666C387.495 41.4666 387.495 40.8066 387.455 40.0866C387.455 39.3266 387.455 38.5466 387.455 37.7466L387.455 35.3466C387.455 34.5066 387.455 33.8466 387.455 33.3666C387.495 32.9266 387.525 32.2366 387.545 31.2966C387.565 30.3566 387.575 29.4466 387.575 28.5666C387.615 27.6866 387.645 26.7866 387.665 25.8666C387.685 24.9466 387.695 24.2866 387.695 23.8866L387.695 14.5866C387.695 14.1466 387.695 13.5266 387.695 12.7266C387.695 12.0066 387.695 11.3866 387.695 10.8666L387.695 10.0266C387.695 9.38659 387.935 8.84659 388.415 8.40659Z"/>
<path d="M399.395 35.9466C398.875 35.5466 398.565 35.0266 398.465 34.3866C398.365 33.7466 398.515 33.1566 398.915 32.6166C399.315 32.0766 399.835 31.7666 400.475 31.6866L400.835 31.6266C401.115 31.5866 401.515 31.5466 402.035 31.5066C402.435 31.4666 403.175 31.3666 404.255 31.2066C404.695 31.1266 405.135 31.0466 405.575 30.9666C405.575 30.8466 405.575 30.7066 405.575 30.5466C405.535 29.7066 405.475 28.8266 405.395 27.9066C405.355 26.8666 405.335 25.8866 405.335 24.9666C405.335 24.0466 405.335 23.1666 405.335 22.3266C405.335 21.4866 405.355 20.8066 405.395 20.2866C405.435 19.7666 405.495 19.0266 405.575 18.0666C405.695 16.9866 405.895 15.9766 406.175 15.0366C406.455 14.0966 406.765 13.2966 407.105 12.6366C407.445 11.9766 407.855 11.3666 408.335 10.8066C408.855 10.1666 409.475 9.66659 410.195 9.30659C410.755 8.98659 411.335 8.74659 411.935 8.58659C412.535 8.42659 413.155 8.34659 413.795 8.34659C414.515 8.30659 415.295 8.38659 416.135 8.58659C416.935 8.78659 417.655 9.04659 418.295 9.36659C418.855 9.68659 419.395 10.0466 419.915 10.4466C420.475 10.8466 420.955 11.3066 421.355 11.8266C421.715 12.3066 422.055 12.8266 422.375 13.3866C422.655 13.8266 422.915 14.2666 423.155 14.7066C423.355 15.1066 423.575 15.5466 423.815 16.0266C424.095 16.5466 424.355 17.1066 424.595 17.7066C424.835 18.3066 425.035 18.8666 425.195 19.3866C425.315 19.8666 425.435 20.4466 425.555 21.1266L425.735 22.0266C425.855 22.6666 425.725 23.2566 425.345 23.7966C424.965 24.3366 424.455 24.6666 423.815 24.7866C423.175 24.9066 422.585 24.7766 422.045 24.3966C421.505 24.0166 421.175 23.5066 421.055 22.8666L420.875 21.9666C420.795 21.4466 420.715 21.0066 420.635 20.6466C420.515 20.3266 420.375 19.9266 420.215 19.4466C420.015 19.0066 419.815 18.5666 419.615 18.1266C419.375 17.7266 419.155 17.3366 418.955 16.9566C418.755 16.5766 418.535 16.1666 418.295 15.7266C418.095 15.3666 417.875 15.0666 417.635 14.8266C417.475 14.5866 417.275 14.3666 417.035 14.1666C416.715 13.9266 416.395 13.7266 416.075 13.5666C415.755 13.4066 415.395 13.2666 414.995 13.1466C414.635 13.0666 414.315 13.0266 414.035 13.0266C413.715 13.0666 413.425 13.1166 413.165 13.1766C412.905 13.2366 412.635 13.3466 412.355 13.5066C412.235 13.5466 412.115 13.6666 411.995 13.8666C411.715 14.1466 411.495 14.4666 411.335 14.8266C411.135 15.2266 410.935 15.7566 410.735 16.4166C410.535 17.0766 410.395 17.7866 410.315 18.5466C410.235 19.4666 410.175 20.1366 410.135 20.5566C410.095 20.9766 410.075 21.5866 410.075 22.3866C410.075 23.2266 410.075 24.0866 410.075 24.9666C410.075 25.8066 410.095 26.6666 410.135 27.5466C410.215 28.5466 410.275 29.4666 410.315 30.3066C410.315 30.3466 410.315 30.3866 410.315 30.4266C410.635 30.3866 410.955 30.3666 411.275 30.3666C412.315 30.2866 413.195 30.2466 413.915 30.2466C414.555 30.2066 415.035 30.1666 415.355 30.1266L415.895 30.0666C416.535 30.0266 417.105 30.2166 417.605 30.6366C418.105 31.0566 418.385 31.5866 418.445 32.2266C418.505 32.8666 418.335 33.4366 417.935 33.9366C417.535 34.4366 416.995 34.7266 416.315 34.8066L415.835 34.8666C415.435 34.9066 414.875 34.9466 414.155 34.9866C413.475 34.9866 412.595 35.0266 411.515 35.1066C411.155 35.1066 410.795 35.1266 410.435 35.1666C410.435 35.3266 410.435 35.4866 410.435 35.6466C410.475 36.6466 410.515 37.5866 410.555 38.4666C410.595 39.4266 410.615 40.3266 410.615 41.1666L410.615 45.1866C410.615 45.6266 410.595 46.1466 410.555 46.7466C410.515 47.3866 410.475 47.9466 410.435 48.4266C410.395 48.7866 410.375 49.0666 410.375 49.2666L410.375 52.5066C410.375 53.1866 410.145 53.7566 409.685 54.2166C409.225 54.6766 408.665 54.9066 408.005 54.9066C407.345 54.9066 406.785 54.6766 406.325 54.2166C405.865 53.7566 405.635 53.1866 405.635 52.5066L405.635 49.2666C405.635 48.8666 405.675 48.4066 405.755 47.8866C405.795 47.5266 405.815 47.0866 405.815 46.5666C405.855 46.0066 405.875 45.5466 405.875 45.1866L405.875 41.1666C405.875 40.3666 405.855 39.5066 405.815 38.5866C405.775 37.7066 405.735 36.7866 405.695 35.8266C405.695 35.7866 405.695 35.7666 405.695 35.7666C405.455 35.8066 405.215 35.8466 404.975 35.8866C403.855 36.0466 403.035 36.1666 402.515 36.2466C402.035 36.2866 401.695 36.3266 401.495 36.3666L401.135 36.3666C400.495 36.4866 399.915 36.3466 399.395 35.9466Z"/>
<path d="M439.055 15.3066C438.335 16.0666 437.515 16.3266 436.595 16.0866L436.115 15.9066C435.515 15.7466 434.975 15.4866 434.495 15.1266C434.095 14.8466 433.625 14.3766 433.085 13.7166C432.545 13.0566 432.155 12.4866 431.915 12.0066C431.515 11.0866 431.705 10.2166 432.485 9.39659C433.265 8.57659 434.035 8.22659 434.795 8.34659C435.155 8.42659 435.555 8.56659 435.995 8.76659C436.595 8.12659 437.225 7.83659 437.885 7.89659C438.545 7.95659 439.115 8.15659 439.595 8.49659C440.075 8.83659 440.415 9.18659 440.615 9.54659C441.015 10.4666 441.095 11.4066 440.855 12.3666C440.695 13.0866 440.455 13.6866 440.135 14.1666L439.895 14.5266C439.695 14.8466 439.415 15.1066 439.055 15.3066ZM435.755 21.0066C436.155 20.4866 436.675 20.1866 437.315 20.1066C437.955 20.0266 438.535 20.1866 439.055 20.5866C439.575 20.9866 439.875 21.5066 439.955 22.1466L440.075 22.6866C440.115 23.0466 440.155 23.4066 440.195 23.7666C440.235 24.1266 440.295 24.7266 440.375 25.5666C440.415 26.3666 440.455 27.1866 440.495 28.0266C440.535 28.8666 440.555 29.5266 440.555 30.0066C440.595 30.5266 440.615 31.2866 440.615 32.2866C440.615 33.2066 440.615 33.9066 440.615 34.3866C440.655 34.9066 440.695 35.6866 440.735 36.7266C440.735 37.6866 440.755 38.6266 440.795 39.5466C440.835 40.4266 440.855 41.1066 440.855 41.5866C440.895 42.1066 440.915 42.8266 440.915 43.7466C440.915 44.6666 440.915 45.3066 440.915 45.6666L440.915 52.5066C440.915 53.1466 440.685 53.6966 440.225 54.1566C439.765 54.6166 439.205 54.8466 438.545 54.8466C437.885 54.8466 437.325 54.6166 436.865 54.1566C436.405 53.6966 436.175 53.1466 436.175 52.5066L436.175 45.6666C436.175 45.3466 436.175 44.7266 436.175 43.8066C436.175 42.9266 436.155 42.2666 436.115 41.8266C436.115 41.3466 436.095 40.6266 436.055 39.6666C436.015 38.7866 435.995 37.8466 435.995 36.8466C435.955 35.8466 435.915 35.1066 435.875 34.6266C435.875 34.0666 435.875 33.2866 435.875 32.2866C435.875 31.3666 435.855 30.6666 435.815 30.1866C435.815 29.7466 435.795 29.1066 435.755 28.2666C435.715 27.4266 435.675 26.6266 435.635 25.8666C435.595 25.1466 435.555 24.6466 435.515 24.3666C435.435 24.0466 435.375 23.6866 435.335 23.2866L435.275 22.7466C435.195 22.1066 435.355 21.5266 435.755 21.0066Z"/>
<path d="M447.575 21.8466C447.495 21.2066 447.655 20.6266 448.055 20.1066C448.455 19.5866 448.975 19.2866 449.615 19.2066L450.155 19.0866C450.555 19.0466 451.115 19.0066 451.835 18.9666C452.595 18.8866 453.235 18.8466 453.755 18.8466C454.275 18.8066 455.115 18.7666 456.275 18.7266C457.435 18.6866 458.535 18.6266 459.575 18.5466C460.615 18.4666 461.555 18.3866 462.395 18.3066C463.275 18.2666 464.075 18.2266 464.795 18.1866C465.555 18.1466 466.175 18.1266 466.655 18.1266C467.215 18.0866 467.675 18.0666 468.035 18.0666L468.575 18.0666C469.215 18.0666 469.765 18.2966 470.225 18.7566C470.685 19.2166 470.915 19.7766 470.915 20.4366C470.915 21.0966 470.685 21.6566 470.225 22.1166C469.765 22.5766 469.215 22.8066 468.575 22.8066L468.035 22.8066C467.715 22.8066 467.315 22.8066 466.835 22.8066C466.355 22.8466 465.755 22.8866 465.035 22.9266C464.355 22.9266 463.595 22.9666 462.755 23.0466C461.915 23.1266 460.955 23.1966 459.875 23.2566C458.795 23.3166 457.675 23.3866 456.515 23.4666C455.315 23.5066 454.475 23.5466 453.995 23.5866C453.475 23.5866 452.875 23.6266 452.195 23.7066C452.035 23.7066 451.855 23.7066 451.655 23.7066L451.895 24.7266C452.135 25.6866 452.295 26.4866 452.375 27.1266C452.455 27.7266 452.595 28.7466 452.795 30.1866C453.035 31.5866 453.255 33.0266 453.455 34.5066C453.455 34.5466 453.455 34.5866 453.455 34.6266L453.635 34.6266C454.075 34.5866 454.645 34.5266 455.345 34.4466C456.045 34.3666 456.815 34.2666 457.655 34.1466C458.535 34.0266 459.415 33.9466 460.295 33.9066C461.135 33.8266 461.955 33.7866 462.755 33.7866C463.475 33.7866 464.035 33.7866 464.435 33.7866L465.095 33.7266C465.775 33.6866 466.355 33.8966 466.835 34.3566C467.315 34.8166 467.565 35.3666 467.585 36.0066C467.605 36.6466 467.395 37.2066 466.955 37.6866C466.515 38.1666 465.975 38.4266 465.335 38.4666L464.615 38.5266C464.135 38.5266 463.515 38.5266 462.755 38.5266C462.115 38.5266 461.395 38.5466 460.595 38.5866C459.795 38.6666 459.015 38.7466 458.255 38.8266C457.455 38.9466 456.655 39.0466 455.855 39.1266C455.175 39.2066 454.615 39.2666 454.175 39.3066C454.335 40.4266 454.455 41.4466 454.535 42.3666C454.655 43.4066 454.755 44.3466 454.835 45.1866C454.955 45.9466 455.035 46.5466 455.075 46.9866C455.075 47.3066 455.115 47.7666 455.195 48.3666C455.235 48.6866 455.275 48.9666 455.315 49.2066C455.675 49.2066 456.075 49.2066 456.515 49.2066C457.275 49.2066 458.105 49.1966 459.005 49.1766C459.905 49.1566 460.905 49.1266 462.005 49.0866C463.105 49.0466 464.235 48.9866 465.395 48.9066C466.515 48.8266 467.555 48.7466 468.515 48.6666C469.515 48.5866 470.335 48.5466 470.975 48.5466L472.235 48.5466L472.715 48.5466C473.355 48.5466 473.905 48.7766 474.365 49.2366C474.825 49.6966 475.055 50.2466 475.055 50.8866C475.055 51.5266 474.825 52.0866 474.365 52.5666C473.905 53.0466 473.355 53.2866 472.715 53.2866L472.235 53.2866L470.975 53.2866C470.495 53.2866 469.815 53.3266 468.935 53.4066C467.935 53.4866 466.855 53.5666 465.695 53.6466C464.535 53.6866 463.385 53.7366 462.245 53.7966C461.105 53.8566 460.065 53.8966 459.125 53.9166C458.185 53.9366 457.315 53.9466 456.515 53.9466C455.715 53.9466 455.015 53.9266 454.415 53.8866L453.575 53.8266C452.535 53.7866 451.835 53.2666 451.475 52.2666C451.035 51.8666 450.775 51.3666 450.695 50.7666L450.695 50.3466C450.655 50.0266 450.595 49.5666 450.515 48.9666C450.435 48.2866 450.375 47.7466 450.335 47.3466C450.295 47.0266 450.235 46.4666 450.155 45.6666C450.075 44.8666 449.975 43.9466 449.855 42.9066C449.735 41.8666 449.575 40.7066 449.375 39.4266C449.175 38.0666 448.975 36.6466 448.775 35.1666C448.535 33.7266 448.315 32.2866 448.115 30.8466C447.915 29.4066 447.775 28.3866 447.695 27.7866C447.615 27.2666 447.475 26.6066 447.275 25.8066L446.975 24.4266C446.775 23.5866 446.995 22.8466 447.635 22.2066C447.635 22.0866 447.615 21.9666 447.575 21.8466Z"/>
<path d="M69.4847 79.5264C70.2847 79.5264 70.9447 79.8664 71.4647 80.5464C71.8247 80.3864 72.2647 80.2264 72.7847 80.0664C73.8247 79.8264 75.0747 79.7164 76.5347 79.7364C77.9947 79.7564 79.2247 79.9264 80.2247 80.2464C81.1447 80.5664 82.0247 80.9464 82.8647 81.3864C83.6247 81.8264 84.3647 82.3064 85.0847 82.8264C85.8847 83.3864 86.5847 84.0064 87.1847 84.6864C87.7447 85.3264 88.2647 86.0064 88.7447 86.7264C89.3047 87.5264 89.7647 88.3864 90.1247 89.3064C90.5247 90.1864 90.8247 91.0864 91.0247 92.0064C91.2247 93.0064 91.3047 94.1464 91.2647 95.4264C91.2247 96.6664 91.0847 97.7264 90.8447 98.6064C90.6047 99.3664 90.3247 100.106 90.0047 100.826C89.6847 101.586 89.3447 102.266 88.9847 102.866C88.6247 103.426 88.2647 103.946 87.9047 104.426C87.5447 104.906 87.0347 105.446 86.3747 106.046C85.7147 106.646 85.1247 107.116 84.6047 107.456C84.0847 107.796 83.5047 108.106 82.8647 108.386C82.3047 108.626 81.7447 108.846 81.1847 109.046C80.5447 109.246 79.8847 109.386 79.2047 109.466C78.6447 109.546 78.0647 109.606 77.4647 109.646C76.8247 109.646 76.0247 109.586 75.0647 109.466C74.1447 109.306 73.3847 109.146 72.7847 108.986C72.7047 108.946 72.6247 108.906 72.5447 108.866C72.5447 109.866 72.5447 110.806 72.5447 111.686C72.5447 112.726 72.5447 113.846 72.5447 115.046C72.5447 116.246 72.5647 117.366 72.6047 118.406C72.6047 119.526 72.6047 120.466 72.6047 121.226L72.6047 123.506C72.6047 124.226 72.6147 124.976 72.6347 125.756C72.6547 126.536 72.6647 127.106 72.6647 127.466C72.7047 127.946 72.7247 128.326 72.7247 128.606L72.7247 128.966C72.7247 129.606 72.4847 130.166 72.0047 130.646C71.5247 131.126 70.9647 131.366 70.3247 131.366C69.6847 131.366 69.1347 131.126 68.6747 130.646C68.2147 130.166 67.9847 129.606 67.9847 128.966L67.9847 128.606C67.9847 128.366 67.9647 128.066 67.9247 127.706C67.9247 127.306 67.9147 126.696 67.8947 125.876C67.8747 125.056 67.8647 124.266 67.8647 123.506L67.8647 121.226C67.8647 120.466 67.8647 119.566 67.8647 118.526C67.8247 117.446 67.8047 116.286 67.8047 115.046C67.8047 113.806 67.8047 112.686 67.8047 111.686C67.8047 110.686 67.8047 109.646 67.8047 108.566C67.7647 107.486 67.7247 106.246 67.6847 104.846C67.6447 103.446 67.6047 102.016 67.5647 100.556C67.5247 99.0964 67.5047 97.7364 67.5047 96.4764C67.5047 95.2164 67.5047 94.0064 67.5047 92.8464C67.5047 91.7264 67.4647 90.6264 67.3847 89.5464C67.3047 88.5064 67.2647 87.4864 67.2647 86.4864C66.6647 85.6464 66.6447 84.7864 67.2047 83.9064C67.2047 83.7064 67.2047 83.5064 67.2047 83.3064L67.1447 81.9864C67.1447 81.3464 67.3747 80.7864 67.8347 80.3064C68.2947 79.8264 68.8447 79.5664 69.4847 79.5264ZM72.4247 103.706L72.5447 103.766C73.2647 104.126 73.8047 104.356 74.1647 104.456C74.5247 104.556 75.0647 104.666 75.7847 104.786C76.4247 104.866 76.9447 104.906 77.3447 104.906C77.7847 104.866 78.2247 104.826 78.6647 104.786C79.0247 104.746 79.3647 104.666 79.6847 104.546C80.0847 104.426 80.5047 104.246 80.9447 104.006C81.3447 103.846 81.6947 103.666 81.9947 103.466C82.2947 103.266 82.6747 102.956 83.1347 102.536C83.5947 102.116 83.9447 101.766 84.1847 101.486C84.4247 101.166 84.6847 100.806 84.9647 100.406C85.2047 99.9664 85.4447 99.4764 85.6847 98.9364C85.9247 98.3964 86.1247 97.8464 86.2847 97.2864C86.4047 96.8464 86.4847 96.1764 86.5247 95.2764C86.5647 94.3764 86.5047 93.6264 86.3447 93.0264C86.2247 92.3864 86.0247 91.7464 85.7447 91.1064C85.5047 90.5064 85.2047 89.9464 84.8447 89.4264C84.4447 88.8264 84.0247 88.2864 83.5847 87.8064C83.2647 87.4064 82.8447 87.0264 82.3247 86.6664C81.7647 86.2264 81.1647 85.8464 80.5247 85.5264C80.0047 85.2064 79.4247 84.9464 78.7847 84.7464C78.2247 84.5864 77.4347 84.4964 76.4147 84.4764C75.3947 84.4564 74.6047 84.5264 74.0447 84.6864C73.4047 84.8464 72.8447 85.0464 72.3647 85.2864C72.2047 85.3664 72.0647 85.4464 71.9447 85.5264C71.9847 85.7264 72.0047 85.9264 72.0047 86.1264C72.0047 87.1264 72.0447 88.1664 72.1247 89.2464C72.2047 90.4064 72.2447 91.6064 72.2447 92.8464C72.2447 94.0064 72.2447 95.2064 72.2447 96.4464C72.2447 97.6864 72.2647 99.0264 72.3047 100.466C72.3447 101.546 72.3847 102.626 72.4247 103.706Z"/>
<path d="M98.5847 80.9664C99.1047 80.5664 99.6847 80.4164 100.325 80.5164C100.965 80.6164 101.485 80.9264 101.885 81.4464C102.285 81.9664 102.425 82.5464 102.305 83.1864L102.245 83.8464C102.205 84.1264 102.165 84.9064 102.125 86.1864C102.125 87.5464 102.105 89.0864 102.065 90.8064C102.025 92.4864 102.005 94.6264 102.005 97.2264C102.005 98.6664 102.005 99.9864 102.005 101.186C102.325 100.866 102.645 100.566 102.965 100.286C103.645 99.6864 104.525 99.0664 105.605 98.4264C106.685 97.8264 107.565 97.4064 108.245 97.1664C108.965 96.8864 109.665 96.7264 110.345 96.6864C111.025 96.6464 111.705 96.6664 112.385 96.7464C113.185 96.8664 114.065 97.1864 115.025 97.7064C115.905 98.1864 116.625 98.6664 117.185 99.1464C117.745 99.5864 118.225 100.046 118.625 100.526C119.105 101.046 119.605 101.806 120.125 102.806C120.605 103.726 120.965 104.466 121.205 105.026C121.445 105.666 121.705 106.486 121.985 107.486C122.225 108.486 122.405 109.346 122.525 110.066C122.645 110.786 122.745 111.466 122.825 112.106C122.865 112.706 122.925 113.406 123.005 114.206C123.085 114.966 123.145 115.606 123.185 116.126C123.265 116.646 123.325 117.166 123.365 117.686C123.405 118.206 123.445 118.666 123.485 119.066C123.525 119.466 123.545 119.846 123.545 120.206C123.585 120.686 123.605 121.046 123.605 121.286C123.645 121.606 123.665 121.926 123.665 122.246L123.665 125.066C123.665 125.706 123.425 126.256 122.945 126.716C122.465 127.176 121.905 127.406 121.265 127.406C120.625 127.406 120.075 127.176 119.615 126.716C119.155 126.256 118.925 125.706 118.925 125.066L118.925 122.246C118.925 122.046 118.905 121.826 118.865 121.586C118.865 121.346 118.845 120.966 118.805 120.446C118.805 120.126 118.785 119.806 118.745 119.486C118.705 119.086 118.665 118.646 118.625 118.166C118.585 117.646 118.545 117.126 118.505 116.606C118.425 116.126 118.345 115.486 118.265 114.686C118.185 113.886 118.125 113.186 118.085 112.586C118.045 112.026 117.965 111.446 117.845 110.846C117.765 110.246 117.605 109.526 117.365 108.686C117.165 107.846 116.985 107.226 116.825 106.826C116.665 106.426 116.385 105.846 115.985 105.086C115.625 104.406 115.325 103.946 115.085 103.706C114.805 103.386 114.485 103.066 114.125 102.746C113.805 102.506 113.365 102.226 112.805 101.906C112.325 101.626 111.945 101.466 111.665 101.426C111.345 101.386 111.045 101.386 110.765 101.426C110.485 101.426 110.165 101.486 109.805 101.606C109.405 101.766 108.805 102.086 108.005 102.566C107.165 103.006 106.535 103.426 106.115 103.826C105.695 104.226 105.325 104.626 105.005 105.026C104.645 105.506 104.305 105.986 103.985 106.466C103.665 106.946 103.405 107.406 103.205 107.846C103.045 108.246 102.885 108.806 102.725 109.526C102.525 110.326 102.425 111.046 102.425 111.686C102.385 112.366 102.365 112.986 102.365 113.546C102.405 114.146 102.445 114.826 102.485 115.586C102.525 116.346 102.585 117.186 102.665 118.106C102.705 119.026 102.745 119.966 102.785 120.926C102.865 121.886 102.905 122.786 102.905 123.626C102.905 123.786 102.505 124.006 101.705 124.286C100.905 124.566 100.155 124.746 99.4547 124.826C98.7547 124.906 98.3247 124.786 98.1647 124.466C98.1647 124.146 98.1247 123.306 98.0447 121.946C97.9247 120.546 97.8247 119.146 97.7447 117.746C97.6247 116.306 97.5447 114.826 97.5047 113.306C97.4647 111.826 97.4247 110.306 97.3847 108.746C97.3847 107.226 97.3647 105.586 97.3247 103.826C97.2847 102.066 97.2647 99.8664 97.2647 97.2264C97.2647 94.5864 97.2847 92.4064 97.3247 90.6864C97.3647 89.0864 97.3847 87.5664 97.3847 86.1264C97.4247 84.6464 97.4847 83.6464 97.5647 83.1264L97.6247 82.5264C97.7447 81.8864 98.0647 81.3664 98.5847 80.9664Z"/>
<path d="M144.305 86.5464L144.065 86.5464C143.745 86.6264 143.205 86.9264 142.445 87.4464C141.445 88.0864 140.525 88.8664 139.685 89.7864C138.805 90.7064 138.005 91.7864 137.285 93.0264C136.565 94.1864 135.985 95.5264 135.545 97.0464C135.065 98.6464 134.725 100.206 134.525 101.726C134.365 103.206 134.325 104.586 134.405 105.866C134.445 107.186 134.585 108.486 134.825 109.766C135.065 111.046 135.365 112.186 135.725 113.186C136.085 114.146 136.465 114.926 136.865 115.526C137.265 116.126 137.785 116.716 138.425 117.296C139.065 117.876 139.825 118.406 140.705 118.886C141.625 119.366 142.565 119.726 143.525 119.966C144.365 120.206 145.585 120.266 147.185 120.146C148.665 120.026 149.725 119.786 150.365 119.426C151.085 119.026 151.665 118.606 152.105 118.166C152.585 117.646 153.085 116.986 153.605 116.186C154.085 115.386 154.525 114.516 154.925 113.576C155.325 112.636 155.645 111.626 155.885 110.546C156.165 109.386 156.385 108.246 156.545 107.126C156.665 106.006 156.745 104.906 156.785 103.826C156.825 102.786 156.725 101.546 156.485 100.106C156.285 98.7464 156.045 97.7064 155.765 96.9864C155.485 96.1864 155.165 95.4664 154.805 94.8264C154.405 94.0664 154.025 93.3864 153.665 92.7864C153.345 92.2264 153.025 91.7264 152.705 91.2864C152.345 90.8464 151.975 90.4164 151.595 89.9964C151.215 89.5764 150.845 89.1864 150.485 88.8264C150.125 88.4664 149.725 88.1264 149.285 87.8064C148.845 87.4864 148.465 87.2264 148.145 87.0264C147.825 86.8664 147.505 86.7264 147.185 86.6064C146.905 86.4864 146.605 86.4064 146.285 86.3664C146.125 86.3664 145.985 86.3664 145.865 86.3664L145.265 86.4864C144.945 86.5664 144.625 86.5864 144.305 86.5464ZM144.905 81.7464C145.585 81.5864 146.285 81.5664 147.005 81.6864C147.645 81.8064 148.265 81.9664 148.865 82.1664C149.385 82.3664 149.925 82.6264 150.485 82.9464C150.965 83.2264 151.525 83.5864 152.165 84.0264C152.725 84.5064 153.235 84.9564 153.695 85.3764C154.155 85.7964 154.625 86.2764 155.105 86.8164C155.585 87.3564 156.045 87.8864 156.485 88.4064C156.925 89.0064 157.345 89.6664 157.745 90.3864C158.145 91.0664 158.545 91.7864 158.945 92.5464C159.425 93.3864 159.845 94.2864 160.205 95.2464C160.605 96.2864 160.925 97.6864 161.165 99.4464C161.445 101.126 161.565 102.626 161.525 103.946C161.485 105.186 161.385 106.446 161.225 107.726C161.065 109.006 160.825 110.286 160.505 111.566C160.225 112.926 159.835 114.196 159.335 115.376C158.835 116.556 158.245 117.666 157.565 118.706C156.925 119.746 156.265 120.646 155.585 121.406C154.785 122.246 153.805 122.966 152.645 123.566C151.405 124.246 149.705 124.686 147.545 124.886C145.425 125.046 143.685 124.946 142.325 124.586C141.005 124.226 139.745 123.726 138.545 123.086C137.305 122.446 136.215 121.696 135.275 120.836C134.335 119.976 133.545 119.086 132.905 118.166C132.305 117.246 131.765 116.126 131.285 114.806C130.845 113.526 130.485 112.146 130.205 110.666C129.925 109.186 129.745 107.686 129.665 106.166C129.545 104.606 129.605 102.926 129.845 101.126C130.045 99.3664 130.425 97.5664 130.985 95.7264C131.545 93.8064 132.285 92.0864 133.205 90.5664C134.085 89.0864 135.085 87.7464 136.205 86.5464C137.325 85.3464 138.525 84.3264 139.805 83.4864C141.245 82.5264 142.445 81.9864 143.405 81.8664L144.305 81.7464C144.465 81.7064 144.665 81.7064 144.905 81.7464Z"/>
<path d="M169.145 92.6664C169.985 92.7064 170.865 92.7064 171.785 92.6664C172.785 92.6664 173.805 92.6464 174.845 92.6064C175.965 92.5264 176.805 92.4864 177.365 92.4864C177.965 92.4464 178.805 92.4064 179.885 92.3664C180.965 92.3264 181.985 92.2864 182.945 92.2464C183.905 92.2064 184.745 92.1464 185.465 92.0664C186.305 91.9864 186.965 91.9464 187.445 91.9464C187.965 91.9064 188.385 91.8864 188.705 91.8864L189.125 91.8864C189.765 91.8864 190.315 92.1264 190.775 92.6064C191.235 93.0864 191.465 93.6464 191.465 94.2864C191.465 94.9264 191.235 95.4764 190.775 95.9364C190.315 96.3964 189.765 96.6264 189.125 96.6264L188.705 96.6264C188.425 96.6264 188.065 96.6464 187.625 96.6864C187.225 96.6864 186.645 96.7264 185.885 96.8064C185.085 96.8864 184.185 96.9464 183.185 96.9864C182.305 97.0264 181.365 97.0664 180.365 97.1064L180.365 97.1664C180.445 97.9664 180.485 98.5864 180.485 99.0264C180.485 99.4664 180.505 100.126 180.545 101.006C180.585 101.926 180.605 102.866 180.605 103.826L180.605 106.526C180.605 107.366 180.605 108.186 180.605 108.986C180.605 109.786 180.565 110.626 180.485 111.506C180.445 112.346 180.405 113.126 180.365 113.846C180.285 114.606 180.245 115.286 180.245 115.886C180.205 116.486 180.185 117.066 180.185 117.626L180.185 120.446C180.185 120.806 180.185 121.186 180.185 121.586C180.185 121.986 180.185 122.326 180.185 122.606C180.225 122.926 180.245 123.266 180.245 123.626L180.245 124.946C180.245 125.586 180.005 126.136 179.525 126.596C179.045 127.056 178.485 127.286 177.845 127.286C177.205 127.286 176.655 127.056 176.195 126.596C175.735 126.136 175.505 125.586 175.505 124.946L175.505 123.626C175.505 123.306 175.485 123.006 175.445 122.726C175.445 122.446 175.445 122.086 175.445 121.646C175.445 121.246 175.445 120.846 175.445 120.446L175.445 117.626C175.445 116.986 175.465 116.326 175.505 115.646C175.545 114.966 175.585 114.266 175.625 113.546C175.665 112.786 175.705 112.006 175.745 111.206C175.825 110.406 175.865 109.646 175.865 108.926C175.865 108.166 175.865 107.366 175.865 106.526L175.865 103.826C175.865 102.946 175.845 102.066 175.805 101.186C175.765 100.266 175.745 99.5864 175.745 99.1464C175.745 98.7464 175.725 98.1864 175.685 97.4664L175.625 97.2864C175.465 97.2864 175.285 97.3064 175.085 97.3464C174.005 97.3864 172.945 97.4064 171.905 97.4064C170.825 97.4464 169.805 97.4464 168.845 97.4064C168.765 97.4064 168.565 96.9964 168.245 96.1764C167.925 95.3564 167.695 94.5864 167.555 93.8664C167.415 93.1464 167.605 92.7264 168.125 92.6064L168.605 92.6064C168.765 92.6064 168.945 92.6264 169.145 92.6664Z"/>
<path d="M212.165 86.5464L211.925 86.5464C211.605 86.6264 211.065 86.9264 210.305 87.4464C209.305 88.0864 208.385 88.8664 207.545 89.7864C206.665 90.7064 205.865 91.7864 205.145 93.0264C204.425 94.1864 203.845 95.5264 203.405 97.0464C202.925 98.6464 202.585 100.206 202.385 101.726C202.225 103.206 202.185 104.586 202.265 105.866C202.305 107.186 202.445 108.486 202.685 109.766C202.925 111.046 203.225 112.186 203.585 113.186C203.945 114.146 204.325 114.926 204.725 115.526C205.125 116.126 205.645 116.716 206.285 117.296C206.925 117.876 207.685 118.406 208.565 118.886C209.485 119.366 210.425 119.726 211.385 119.966C212.225 120.206 213.445 120.266 215.045 120.146C216.525 120.026 217.585 119.786 218.225 119.426C218.945 119.026 219.525 118.606 219.965 118.166C220.445 117.646 220.945 116.986 221.465 116.186C221.945 115.386 222.385 114.516 222.785 113.576C223.185 112.636 223.505 111.626 223.745 110.546C224.025 109.386 224.245 108.246 224.405 107.126C224.525 106.006 224.605 104.906 224.645 103.826C224.685 102.786 224.585 101.546 224.345 100.106C224.145 98.7464 223.905 97.7064 223.625 96.9864C223.345 96.1864 223.025 95.4664 222.665 94.8264C222.265 94.0664 221.885 93.3864 221.525 92.7864C221.205 92.2264 220.885 91.7264 220.565 91.2864C220.205 90.8464 219.835 90.4164 219.455 89.9964C219.075 89.5764 218.705 89.1864 218.345 88.8264C217.985 88.4664 217.585 88.1264 217.145 87.8064C216.705 87.4864 216.325 87.2264 216.005 87.0264C215.685 86.8664 215.365 86.7264 215.045 86.6064C214.765 86.4864 214.465 86.4064 214.145 86.3664C213.985 86.3664 213.845 86.3664 213.725 86.3664L213.125 86.4864C212.805 86.5664 212.485 86.5864 212.165 86.5464ZM212.765 81.7464C213.445 81.5864 214.145 81.5664 214.865 81.6864C215.505 81.8064 216.125 81.9664 216.725 82.1664C217.245 82.3664 217.785 82.6264 218.345 82.9464C218.825 83.2264 219.385 83.5864 220.025 84.0264C220.585 84.5064 221.095 84.9564 221.555 85.3764C222.015 85.7964 222.485 86.2764 222.965 86.8164C223.445 87.3564 223.905 87.8864 224.345 88.4064C224.785 89.0064 225.205 89.6664 225.605 90.3864C226.005 91.0664 226.405 91.7864 226.805 92.5464C227.285 93.3864 227.705 94.2864 228.065 95.2464C228.465 96.2864 228.785 97.6864 229.025 99.4464C229.305 101.126 229.425 102.626 229.385 103.946C229.345 105.186 229.245 106.446 229.085 107.726C228.925 109.006 228.685 110.286 228.365 111.566C228.085 112.926 227.695 114.196 227.195 115.376C226.695 116.556 226.105 117.666 225.425 118.706C224.785 119.746 224.125 120.646 223.445 121.406C222.645 122.246 221.665 122.966 220.505 123.566C219.265 124.246 217.565 124.686 215.405 124.886C213.285 125.046 211.545 124.946 210.185 124.586C208.865 124.226 207.605 123.726 206.405 123.086C205.165 122.446 204.075 121.696 203.135 120.836C202.195 119.976 201.405 119.086 200.765 118.166C200.165 117.246 199.625 116.126 199.145 114.806C198.705 113.526 198.345 112.146 198.065 110.666C197.785 109.186 197.605 107.686 197.525 106.166C197.405 104.606 197.465 102.926 197.705 101.126C197.905 99.3664 198.285 97.5664 198.845 95.7264C199.405 93.8064 200.145 92.0864 201.065 90.5664C201.945 89.0864 202.945 87.7464 204.065 86.5464C205.185 85.3464 206.385 84.3264 207.665 83.4864C209.105 82.5264 210.305 81.9864 211.265 81.8664L212.165 81.7464C212.325 81.7064 212.525 81.7064 212.765 81.7464Z"/>
<path d="M262.925 82.1064C263.365 81.5864 263.905 81.2964 264.545 81.2364C265.185 81.1764 265.755 81.3564 266.255 81.7764C266.755 82.1964 267.045 82.7264 267.125 83.3664L267.185 84.3864C267.825 83.9064 268.545 83.4864 269.345 83.1264C270.305 82.6064 271.405 82.2364 272.645 82.0164C273.885 81.7964 275.105 81.7264 276.305 81.8064C277.545 81.9264 278.745 82.2264 279.905 82.7064C281.065 83.1864 282.095 83.7864 282.995 84.5064C283.895 85.2264 284.825 86.2664 285.785 87.6264C286.825 89.0264 287.485 90.3864 287.765 91.7064C288.045 92.9864 288.105 94.2864 287.945 95.6064C287.825 96.9264 287.525 98.1264 287.045 99.2064C286.645 100.286 286.125 101.306 285.485 102.266C284.925 103.106 284.065 103.986 282.905 104.906C283.145 104.986 283.365 105.066 283.565 105.146C284.565 105.586 285.445 106.106 286.205 106.706C286.965 107.306 287.645 108.006 288.245 108.806C288.845 109.646 289.345 110.666 289.745 111.866C290.145 113.146 290.285 114.306 290.165 115.346C290.045 116.226 289.865 117.046 289.625 117.806C289.425 118.566 289.125 119.326 288.725 120.086C288.325 120.926 287.845 121.666 287.285 122.306C286.765 122.986 286.005 123.666 285.005 124.346C283.965 125.106 282.985 125.626 282.065 125.906C281.185 126.146 280.065 126.266 278.705 126.266C277.385 126.266 276.245 126.166 275.285 125.966C274.405 125.766 273.565 125.506 272.765 125.186C271.965 124.906 271.005 124.506 269.885 123.986C269.165 123.626 268.525 123.306 267.965 123.026L267.965 124.346C267.965 124.986 267.735 125.536 267.275 125.996C266.815 126.456 266.265 126.686 265.625 126.686C264.985 126.686 264.425 126.456 263.945 125.996C263.465 125.536 263.225 124.986 263.225 124.346L263.225 119.246C263.225 118.446 263.245 117.566 263.285 116.606C263.325 115.726 263.345 114.726 263.345 113.606C263.385 112.366 263.405 110.726 263.405 108.686C263.445 106.646 263.445 104.966 263.405 103.646C263.405 102.286 263.365 100.866 263.285 99.3864C263.205 97.9064 263.135 96.4464 263.075 95.0064C263.015 93.5664 262.945 92.2064 262.865 90.9264C262.825 89.6864 262.765 88.5464 262.685 87.5064C262.645 86.4664 262.585 85.6064 262.505 84.9264L262.385 83.8464C262.345 83.2064 262.525 82.6264 262.925 82.1064ZM268.025 117.206L268.445 117.566C268.845 117.886 269.305 118.226 269.825 118.586C270.305 118.906 271.005 119.286 271.925 119.726C272.885 120.166 273.685 120.506 274.325 120.746C274.965 120.986 275.625 121.186 276.305 121.346C276.945 121.466 277.745 121.526 278.705 121.526C279.585 121.526 280.265 121.466 280.745 121.346C281.145 121.226 281.645 120.946 282.245 120.506C282.885 120.066 283.345 119.666 283.625 119.306C283.945 118.946 284.225 118.526 284.465 118.046C284.745 117.486 284.965 116.946 285.125 116.426C285.285 115.906 285.385 115.366 285.425 114.806C285.505 114.446 285.425 113.946 285.185 113.306C284.985 112.586 284.745 112.026 284.465 111.626C284.145 111.186 283.755 110.786 283.295 110.426C282.835 110.066 282.305 109.766 281.705 109.526C281.105 109.246 280.425 109.046 279.665 108.926C279.265 108.846 278.845 108.786 278.405 108.746C278.005 108.706 277.585 108.686 277.145 108.686C276.705 108.686 276.265 108.686 275.825 108.686C275.465 108.806 275.125 108.906 274.805 108.986C273.805 109.266 272.905 109.466 272.105 109.586C271.345 109.706 270.705 109.806 270.185 109.886C269.665 109.926 269.165 109.946 268.685 109.946C268.485 109.946 268.305 109.946 268.145 109.946C268.145 111.386 268.125 112.606 268.085 113.606C268.085 114.806 268.065 115.866 268.025 116.786C268.025 116.946 268.025 117.086 268.025 117.206ZM268.205 106.886L269.705 104.786C271.225 104.466 272.565 104.246 273.725 104.126C274.125 104.046 274.525 104.006 274.925 104.006C275.365 103.846 275.825 103.666 276.305 103.466C276.585 103.346 276.885 103.206 277.205 103.046C277.885 102.686 278.625 102.226 279.425 101.666C280.425 100.906 281.125 100.226 281.525 99.6264C282.005 98.9464 282.385 98.2264 282.665 97.4664C282.945 96.7464 283.145 95.9664 283.265 95.1264C283.345 94.2864 283.305 93.4864 283.145 92.7264C282.985 92.0464 282.585 91.2464 281.945 90.3264C281.225 89.3664 280.595 88.6564 280.055 88.1964C279.515 87.7364 278.875 87.3664 278.135 87.0864C277.395 86.8064 276.645 86.6264 275.885 86.5464C275.125 86.4664 274.345 86.5064 273.545 86.6664C272.745 86.8264 272.045 87.0464 271.445 87.3264C270.805 87.6464 270.265 88.0064 269.825 88.4064C269.465 88.6864 269.145 89.0464 268.865 89.4864L268.265 90.6264C268.105 90.9064 267.905 91.1464 267.665 91.3464C267.705 92.4264 267.745 93.5664 267.785 94.7664C267.865 96.2064 267.945 97.6664 268.025 99.1464C268.105 100.706 268.145 102.166 268.145 103.526C268.185 104.486 268.205 105.606 268.205 106.886Z"/>
<path d="M310.865 86.5464L310.625 86.5464C310.305 86.6264 309.765 86.9264 309.005 87.4464C308.005 88.0864 307.085 88.8664 306.245 89.7864C305.365 90.7064 304.565 91.7864 303.845 93.0264C303.125 94.1864 302.545 95.5264 302.105 97.0464C301.625 98.6464 301.285 100.206 301.085 101.726C300.925 103.206 300.885 104.586 300.965 105.866C301.005 107.186 301.145 108.486 301.385 109.766C301.625 111.046 301.925 112.186 302.285 113.186C302.645 114.146 303.025 114.926 303.425 115.526C303.825 116.126 304.345 116.716 304.985 117.296C305.625 117.876 306.385 118.406 307.265 118.886C308.185 119.366 309.125 119.726 310.085 119.966C310.925 120.206 312.145 120.266 313.745 120.146C315.225 120.026 316.285 119.786 316.925 119.426C317.645 119.026 318.225 118.606 318.665 118.166C319.145 117.646 319.645 116.986 320.165 116.186C320.645 115.386 321.085 114.516 321.485 113.576C321.885 112.636 322.205 111.626 322.445 110.546C322.725 109.386 322.945 108.246 323.105 107.126C323.225 106.006 323.305 104.906 323.345 103.826C323.385 102.786 323.285 101.546 323.045 100.106C322.845 98.7464 322.605 97.7064 322.325 96.9864C322.045 96.1864 321.725 95.4664 321.365 94.8264C320.965 94.0664 320.585 93.3864 320.225 92.7864C319.905 92.2264 319.585 91.7264 319.265 91.2864C318.905 90.8464 318.535 90.4164 318.155 89.9964C317.775 89.5764 317.405 89.1864 317.045 88.8264C316.685 88.4664 316.285 88.1264 315.845 87.8064C315.405 87.4864 315.025 87.2264 314.705 87.0264C314.385 86.8664 314.065 86.7264 313.745 86.6064C313.465 86.4864 313.165 86.4064 312.845 86.3664C312.685 86.3664 312.545 86.3664 312.425 86.3664L311.825 86.4864C311.505 86.5664 311.185 86.5864 310.865 86.5464ZM311.465 81.7464C312.145 81.5864 312.845 81.5664 313.565 81.6864C314.205 81.8064 314.825 81.9664 315.425 82.1664C315.945 82.3664 316.485 82.6264 317.045 82.9464C317.525 83.2264 318.085 83.5864 318.725 84.0264C319.285 84.5064 319.795 84.9564 320.255 85.3764C320.715 85.7964 321.185 86.2764 321.665 86.8164C322.145 87.3564 322.605 87.8864 323.045 88.4064C323.485 89.0064 323.905 89.6664 324.305 90.3864C324.705 91.0664 325.105 91.7864 325.505 92.5464C325.985 93.3864 326.405 94.2864 326.765 95.2464C327.165 96.2864 327.485 97.6864 327.725 99.4464C328.005 101.126 328.125 102.626 328.085 103.946C328.045 105.186 327.945 106.446 327.785 107.726C327.625 109.006 327.385 110.286 327.065 111.566C326.785 112.926 326.395 114.196 325.895 115.376C325.395 116.556 324.805 117.666 324.125 118.706C323.485 119.746 322.825 120.646 322.145 121.406C321.345 122.246 320.365 122.966 319.205 123.566C317.965 124.246 316.265 124.686 314.105 124.886C311.985 125.046 310.245 124.946 308.885 124.586C307.565 124.226 306.305 123.726 305.105 123.086C303.865 122.446 302.775 121.696 301.835 120.836C300.895 119.976 300.105 119.086 299.465 118.166C298.865 117.246 298.325 116.126 297.845 114.806C297.405 113.526 297.045 112.146 296.765 110.666C296.485 109.186 296.305 107.686 296.225 106.166C296.105 104.606 296.165 102.926 296.405 101.126C296.605 99.3664 296.985 97.5664 297.545 95.7264C298.105 93.8064 298.845 92.0864 299.765 90.5664C300.645 89.0864 301.645 87.7464 302.765 86.5464C303.885 85.3464 305.085 84.3264 306.365 83.4864C307.805 82.5264 309.005 81.9864 309.965 81.8664L310.865 81.7464C311.025 81.7064 311.225 81.7064 311.465 81.7464Z"/>
<path d="M348.785 86.5464L348.545 86.5464C348.225 86.6264 347.685 86.9264 346.925 87.4464C345.925 88.0864 345.005 88.8664 344.165 89.7864C343.285 90.7064 342.485 91.7864 341.765 93.0264C341.045 94.1864 340.465 95.5264 340.025 97.0464C339.545 98.6464 339.205 100.206 339.005 101.726C338.845 103.206 338.805 104.586 338.885 105.866C338.925 107.186 339.065 108.486 339.305 109.766C339.545 111.046 339.845 112.186 340.205 113.186C340.565 114.146 340.945 114.926 341.345 115.526C341.745 116.126 342.265 116.716 342.905 117.296C343.545 117.876 344.305 118.406 345.185 118.886C346.105 119.366 347.045 119.726 348.005 119.966C348.845 120.206 350.065 120.266 351.665 120.146C353.145 120.026 354.205 119.786 354.845 119.426C355.565 119.026 356.145 118.606 356.585 118.166C357.065 117.646 357.565 116.986 358.085 116.186C358.565 115.386 359.005 114.516 359.405 113.576C359.805 112.636 360.125 111.626 360.365 110.546C360.645 109.386 360.865 108.246 361.025 107.126C361.145 106.006 361.225 104.906 361.265 103.826C361.305 102.786 361.205 101.546 360.965 100.106C360.765 98.7464 360.525 97.7064 360.245 96.9864C359.965 96.1864 359.645 95.4664 359.285 94.8264C358.885 94.0664 358.505 93.3864 358.145 92.7864C357.825 92.2264 357.505 91.7264 357.185 91.2864C356.825 90.8464 356.455 90.4164 356.075 89.9964C355.695 89.5764 355.325 89.1864 354.965 88.8264C354.605 88.4664 354.205 88.1264 353.765 87.8064C353.325 87.4864 352.945 87.2264 352.625 87.0264C352.305 86.8664 351.985 86.7264 351.665 86.6064C351.385 86.4864 351.085 86.4064 350.765 86.3664C350.605 86.3664 350.465 86.3664 350.345 86.3664L349.745 86.4864C349.425 86.5664 349.105 86.5864 348.785 86.5464ZM349.385 81.7464C350.065 81.5864 350.765 81.5664 351.485 81.6864C352.125 81.8064 352.745 81.9664 353.345 82.1664C353.865 82.3664 354.405 82.6264 354.965 82.9464C355.445 83.2264 356.005 83.5864 356.645 84.0264C357.205 84.5064 357.715 84.9564 358.175 85.3764C358.635 85.7964 359.105 86.2764 359.585 86.8164C360.065 87.3564 360.525 87.8864 360.965 88.4064C361.405 89.0064 361.825 89.6664 362.225 90.3864C362.625 91.0664 363.025 91.7864 363.425 92.5464C363.905 93.3864 364.325 94.2864 364.685 95.2464C365.085 96.2864 365.405 97.6864 365.645 99.4464C365.925 101.126 366.045 102.626 366.005 103.946C365.965 105.186 365.865 106.446 365.705 107.726C365.545 109.006 365.305 110.286 364.985 111.566C364.705 112.926 364.315 114.196 363.815 115.376C363.315 116.556 362.725 117.666 362.045 118.706C361.405 119.746 360.745 120.646 360.065 121.406C359.265 122.246 358.285 122.966 357.125 123.566C355.885 124.246 354.185 124.686 352.025 124.886C349.905 125.046 348.165 124.946 346.805 124.586C345.485 124.226 344.225 123.726 343.025 123.086C341.785 122.446 340.695 121.696 339.755 120.836C338.815 119.976 338.025 119.086 337.385 118.166C336.785 117.246 336.245 116.126 335.765 114.806C335.325 113.526 334.965 112.146 334.685 110.666C334.405 109.186 334.225 107.686 334.145 106.166C334.025 104.606 334.085 102.926 334.325 101.126C334.525 99.3664 334.905 97.5664 335.465 95.7264C336.025 93.8064 336.765 92.0864 337.685 90.5664C338.565 89.0864 339.565 87.7464 340.685 86.5464C341.805 85.3464 343.005 84.3264 344.285 83.4864C345.725 82.5264 346.925 81.9864 347.885 81.8664L348.785 81.7464C348.945 81.7064 349.145 81.7064 349.385 81.7464Z"/>
<path d="M373.625 92.6664C374.465 92.7064 375.345 92.7064 376.265 92.6664C377.265 92.6664 378.285 92.6464 379.325 92.6064C380.445 92.5264 381.285 92.4864 381.845 92.4864C382.445 92.4464 383.285 92.4064 384.365 92.3664C385.445 92.3264 386.465 92.2864 387.425 92.2464C388.385 92.2064 389.225 92.1464 389.945 92.0664C390.785 91.9864 391.445 91.9464 391.925 91.9464C392.445 91.9064 392.865 91.8864 393.185 91.8864L393.605 91.8864C394.245 91.8864 394.795 92.1264 395.255 92.6064C395.715 93.0864 395.945 93.6464 395.945 94.2864C395.945 94.9264 395.715 95.4764 395.255 95.9364C394.795 96.3964 394.245 96.6264 393.605 96.6264L393.185 96.6264C392.905 96.6264 392.545 96.6464 392.105 96.6864C391.705 96.6864 391.125 96.7264 390.365 96.8064C389.565 96.8864 388.665 96.9464 387.665 96.9864C386.785 97.0264 385.845 97.0664 384.845 97.1064L384.845 97.1664C384.925 97.9664 384.965 98.5864 384.965 99.0264C384.965 99.4664 384.985 100.126 385.025 101.006C385.065 101.926 385.085 102.866 385.085 103.826L385.085 106.526C385.085 107.366 385.085 108.186 385.085 108.986C385.085 109.786 385.045 110.626 384.965 111.506C384.925 112.346 384.885 113.126 384.845 113.846C384.765 114.606 384.725 115.286 384.725 115.886C384.685 116.486 384.665 117.066 384.665 117.626L384.665 120.446C384.665 120.806 384.665 121.186 384.665 121.586C384.665 121.986 384.665 122.326 384.665 122.606C384.705 122.926 384.725 123.266 384.725 123.626L384.725 124.946C384.725 125.586 384.485 126.136 384.005 126.596C383.525 127.056 382.965 127.286 382.325 127.286C381.685 127.286 381.135 127.056 380.675 126.596C380.215 126.136 379.985 125.586 379.985 124.946L379.985 123.626C379.985 123.306 379.965 123.006 379.925 122.726C379.925 122.446 379.925 122.086 379.925 121.646C379.925 121.246 379.925 120.846 379.925 120.446L379.925 117.626C379.925 116.986 379.945 116.326 379.985 115.646C380.025 114.966 380.065 114.266 380.105 113.546C380.145 112.786 380.185 112.006 380.225 111.206C380.305 110.406 380.345 109.646 380.345 108.926C380.345 108.166 380.345 107.366 380.345 106.526L380.345 103.826C380.345 102.946 380.325 102.066 380.285 101.186C380.245 100.266 380.225 99.5864 380.225 99.1464C380.225 98.7464 380.205 98.1864 380.165 97.4664L380.105 97.2864C379.945 97.2864 379.765 97.3064 379.565 97.3464C378.485 97.3864 377.425 97.4064 376.385 97.4064C375.305 97.4464 374.285 97.4464 373.325 97.4064C373.245 97.4064 373.045 96.9964 372.725 96.1764C372.405 95.3564 372.175 94.5864 372.035 93.8664C371.895 93.1464 372.085 92.7264 372.605 92.6064L373.085 92.6064C373.245 92.6064 373.425 92.6264 373.625 92.6664Z"/>
<path d="M403.265 80.9664C403.785 80.5664 404.365 80.4164 405.005 80.5164C405.645 80.6164 406.165 80.9264 406.565 81.4464C406.965 81.9664 407.105 82.5464 406.985 83.1864L406.925 83.8464C406.885 84.1264 406.845 84.9064 406.805 86.1864C406.805 87.5464 406.785 89.0864 406.745 90.8064C406.705 92.4864 406.685 94.6264 406.685 97.2264C406.685 98.6664 406.685 99.9864 406.685 101.186C407.005 100.866 407.325 100.566 407.645 100.286C408.325 99.6864 409.205 99.0664 410.285 98.4264C411.365 97.8264 412.245 97.4064 412.925 97.1664C413.645 96.8864 414.345 96.7264 415.025 96.6864C415.705 96.6464 416.385 96.6664 417.065 96.7464C417.865 96.8664 418.745 97.1864 419.705 97.7064C420.585 98.1864 421.305 98.6664 421.865 99.1464C422.425 99.5864 422.905 100.046 423.305 100.526C423.785 101.046 424.285 101.806 424.805 102.806C425.285 103.726 425.645 104.466 425.885 105.026C426.125 105.666 426.385 106.486 426.665 107.486C426.905 108.486 427.085 109.346 427.205 110.066C427.325 110.786 427.425 111.466 427.505 112.106C427.545 112.706 427.605 113.406 427.685 114.206C427.765 114.966 427.825 115.606 427.865 116.126C427.945 116.646 428.005 117.166 428.045 117.686C428.085 118.206 428.125 118.666 428.165 119.066C428.205 119.466 428.225 119.846 428.225 120.206C428.265 120.686 428.285 121.046 428.285 121.286C428.325 121.606 428.345 121.926 428.345 122.246L428.345 125.066C428.345 125.706 428.105 126.256 427.625 126.716C427.145 127.176 426.585 127.406 425.945 127.406C425.305 127.406 424.755 127.176 424.295 126.716C423.835 126.256 423.605 125.706 423.605 125.066L423.605 122.246C423.605 122.046 423.585 121.826 423.545 121.586C423.545 121.346 423.525 120.966 423.485 120.446C423.485 120.126 423.465 119.806 423.425 119.486C423.385 119.086 423.345 118.646 423.305 118.166C423.265 117.646 423.225 117.126 423.185 116.606C423.105 116.126 423.025 115.486 422.945 114.686C422.865 113.886 422.805 113.186 422.765 112.586C422.725 112.026 422.645 111.446 422.525 110.846C422.445 110.246 422.285 109.526 422.045 108.686C421.845 107.846 421.665 107.226 421.505 106.826C421.345 106.426 421.065 105.846 420.665 105.086C420.305 104.406 420.005 103.946 419.765 103.706C419.485 103.386 419.165 103.066 418.805 102.746C418.485 102.506 418.045 102.226 417.485 101.906C417.005 101.626 416.625 101.466 416.345 101.426C416.025 101.386 415.725 101.386 415.445 101.426C415.165 101.426 414.845 101.486 414.485 101.606C414.085 101.766 413.485 102.086 412.685 102.566C411.845 103.006 411.215 103.426 410.795 103.826C410.375 104.226 410.005 104.626 409.685 105.026C409.325 105.506 408.985 105.986 408.665 106.466C408.345 106.946 408.085 107.406 407.885 107.846C407.725 108.246 407.565 108.806 407.405 109.526C407.205 110.326 407.105 111.046 407.105 111.686C407.065 112.366 407.045 112.986 407.045 113.546C407.085 114.146 407.125 114.826 407.165 115.586C407.205 116.346 407.265 117.186 407.345 118.106C407.385 119.026 407.425 119.966 407.465 120.926C407.545 121.886 407.585 122.786 407.585 123.626C407.585 123.786 407.185 124.006 406.385 124.286C405.585 124.566 404.835 124.746 404.135 124.826C403.435 124.906 403.005 124.786 402.845 124.466C402.845 124.146 402.805 123.306 402.725 121.946C402.605 120.546 402.505 119.146 402.425 117.746C402.305 116.306 402.225 114.826 402.185 113.306C402.145 111.826 402.105 110.306 402.065 108.746C402.065 107.226 402.045 105.586 402.005 103.826C401.965 102.066 401.945 99.8664 401.945 97.2264C401.945 94.5864 401.965 92.4064 402.005 90.6864C402.045 89.0864 402.065 87.5664 402.065 86.1264C402.105 84.6464 402.165 83.6464 402.245 83.1264L402.305 82.5264C402.425 81.8864 402.745 81.3664 403.265 80.9664Z"/>
</g>
</g>
</svg>
