<?xml version="1.0" encoding="UTF-8" standalone="no"?>
<!DOCTYPE svg PUBLIC "-//W3C//DTD SVG 1.1//EN" "http://www.w3.org/Graphics/SVG/1.1/DTD/svg11.dtd">
<!-- Created with Vectornator (http://vectornator.io/) -->
<svg height="100%" stroke-miterlimit="10" style="fill-rule:nonzero;clip-rule:evenodd;stroke-linecap:round;stroke-linejoin:round;" version="1.1" viewBox="0 0 496.125 155.925" width="100%" xml:space="preserve" xmlns="http://www.w3.org/2000/svg" xmlns:vectornator="http://vectornator.io" xmlns:xlink="http://www.w3.org/1999/xlink">
<defs/>
<g id="Layer-1" vectornator:layerName="Layer 1">
<g fill="#fff9f4" opacity="1" stroke="none">
<path d="M20.7947 7.02659C21.2747 6.54659 21.8347 6.30659 22.4747 6.30659C23.1147 6.30659 23.6747 6.53659 24.1547 6.99659C24.6347 7.45659 24.8747 8.00659 24.8747 8.64659L24.8747 9.72659C24.8747 10.4066 24.8947 11.2866 24.9347 12.3666C24.9747 13.4466 24.9947 14.9266 24.9947 16.8066L24.9947 25.8066C24.9947 27.2866 24.9947 28.7266 24.9947 30.1266C25.0347 31.5666 25.0547 32.8866 25.0547 34.0866C25.0947 35.3266 25.1147 36.5266 25.1147 37.6866C25.1147 38.8466 25.0947 39.9466 25.0547 40.9866C25.0547 41.9866 25.0347 42.9266 24.9947 43.8066C24.9947 44.6866 24.9847 45.4466 24.9647 46.0866C24.9447 46.7266 24.9347 47.2866 24.9347 47.7666C24.8947 48.2466 24.8747 48.7466 24.8747 49.2666C24.8347 49.6666 24.8147 49.9866 24.8147 50.2266L24.8147 50.4066C25.0547 50.4466 25.2747 50.4666 25.4747 50.4666C26.0747 50.4666 26.7747 50.4766 27.5747 50.4966C28.3747 50.5166 29.1747 50.5266 29.9747 50.5266L32.4947 50.5266C33.3747 50.5266 34.2147 50.5166 35.0147 50.4966C35.8147 50.4766 36.5747 50.4466 37.2947 50.4066C38.0147 50.3666 38.6547 50.3266 39.2147 50.2866C39.7347 50.2866 40.1147 50.2666 40.3547 50.2266C40.6747 50.2266 40.9947 50.2266 41.3147 50.2266L41.7347 50.2266C42.3747 50.2266 42.9247 50.4566 43.3847 50.9166C43.8447 51.3766 44.0747 51.9266 44.0747 52.5666C44.0747 53.2066 43.8447 53.7666 43.3847 54.2466C42.9247 54.7266 42.3747 54.9666 41.7347 54.9666L41.3147 54.9666C41.1147 54.9666 40.9147 54.9666 40.7147 54.9666C40.4347 54.9666 40.0147 54.9866 39.4547 55.0266C38.9347 55.0666 38.3147 55.1066 37.5947 55.1466C36.7947 55.1866 35.9747 55.2266 35.1347 55.2666C34.2947 55.2666 33.4147 55.2666 32.4947 55.2666L29.9747 55.2666C29.1347 55.2666 28.3047 55.2566 27.4847 55.2366C26.6647 55.2166 25.9547 55.2066 25.3547 55.2066C24.6347 55.1666 23.8547 55.0666 23.0147 54.9066C21.0547 54.5066 20.0747 53.5066 20.0747 51.9066L20.0747 50.2266C20.0747 49.9066 20.0947 49.4866 20.1347 48.9666C20.1347 48.5266 20.1547 48.0666 20.1947 47.5866C20.1947 47.1066 20.2047 46.5566 20.2247 45.9366C20.2447 45.3166 20.2647 44.5766 20.2847 43.7166C20.3047 42.8566 20.3147 41.9066 20.3147 40.8666C20.3547 39.8666 20.3747 38.7966 20.3747 37.6566C20.3747 36.5166 20.3547 35.3466 20.3147 34.1466C20.3147 32.9466 20.2947 31.6266 20.2547 30.1866C20.2547 28.7466 20.2547 27.2866 20.2547 25.8066L20.2547 16.8066C20.2547 14.9666 20.2347 13.5266 20.1947 12.4866C20.1547 11.3666 20.1347 10.4666 20.1347 9.78659L20.1347 8.70659C20.1347 8.06659 20.3547 7.50659 20.7947 7.02659Z"/>
<path d="M72.3347 46.9266C72.3347 46.9266 72.3547 46.9066 72.3947 46.8666C72.5547 46.5466 72.8347 46.0466 73.2347 45.3666C73.6347 44.6066 74.0747 43.9066 74.5547 43.2666C74.9547 42.7066 75.3347 42.1666 75.6947 41.6466C76.0147 41.1666 76.3547 40.6466 76.7147 40.0866C77.0747 39.4866 77.4747 38.9066 77.9147 38.3466C78.3147 37.7866 78.7147 37.2266 79.1147 36.6666C79.4747 36.1466 79.7347 35.7866 79.8947 35.5866C80.0547 35.3466 80.2747 35.0066 80.5547 34.5666C80.8747 34.0466 81.2147 33.4666 81.5747 32.8266C81.9347 32.2666 82.2147 31.7466 82.4147 31.2666C82.6147 30.8266 82.7547 30.3666 82.8347 29.8866C82.9547 29.4466 83.0347 29.0066 83.0747 28.5666C83.0747 28.0866 83.0747 27.5866 83.0747 27.0666C83.0347 26.5866 82.9747 26.2066 82.8947 25.9266C82.8547 25.6866 82.7747 25.4566 82.6547 25.2366C82.5347 25.0166 82.4147 24.8466 82.2947 24.7266C82.2547 24.6466 82.2147 24.5866 82.1747 24.5466C82.0947 24.5066 81.9747 24.4666 81.8147 24.4266C81.6147 24.3866 81.4147 24.3466 81.2147 24.3066C80.9347 24.3066 80.5947 24.3066 80.1947 24.3066C79.7547 24.3066 79.3747 24.3266 79.0547 24.3666C78.8147 24.4066 78.4947 24.4666 78.0947 24.5466C77.6947 24.6266 77.2947 24.7266 76.8947 24.8466C76.5347 25.0066 76.1747 25.1966 75.8147 25.4166C75.4547 25.6366 75.1747 25.8466 74.9747 26.0466C74.6547 26.3666 74.3747 26.6666 74.1347 26.9466C73.9347 27.1466 73.7647 27.3766 73.6247 27.6366C73.4847 27.8966 73.3747 28.1666 73.2947 28.4466C73.1347 28.8066 73.0147 29.1866 72.9347 29.5866C72.7747 30.0666 72.6147 30.5666 72.4547 31.0866C72.2947 31.5666 72.1547 32.0266 72.0347 32.4666C71.9947 32.5466 71.9347 32.6366 71.8547 32.7366C71.7747 32.8366 71.6247 33.0066 71.4047 33.2466C71.1847 33.4866 70.9547 33.7066 70.7147 33.9066C70.4747 34.1066 70.1947 34.2866 69.8747 34.4466C69.5547 34.6066 69.2547 34.6866 68.9747 34.6866C68.6947 34.6866 68.4047 34.5766 68.1047 34.3566C67.8047 34.1366 67.5147 33.7866 67.2347 33.3066C67.1147 33.0266 66.9747 32.7066 66.8147 32.3466C66.6547 32.0666 66.4547 31.7066 66.2147 31.2666C65.9747 30.7866 65.7347 30.2866 65.4947 29.7666C65.2547 29.2866 64.9747 28.7466 64.6547 28.1466C64.4147 27.7066 64.0647 27.1966 63.6047 26.6166C63.1447 26.0366 62.7747 25.6466 62.4947 25.4466C62.2147 25.2066 61.9347 25.0066 61.6547 24.8466C61.4147 24.6866 61.0947 24.5466 60.6947 24.4266C60.2947 24.3066 59.8647 24.2166 59.4047 24.1566C58.9447 24.0966 58.4747 24.0766 57.9947 24.0966C57.5147 24.1166 57.0547 24.1866 56.6147 24.3066C56.2947 24.3466 56.0147 24.4466 55.7747 24.6066C55.4947 24.7266 55.2947 24.8666 55.1747 25.0266C55.0947 25.1066 55.0347 25.1866 54.9947 25.2666C54.9147 25.4266 54.8547 25.7266 54.8147 26.1666C54.7747 26.6066 54.7947 26.9466 54.8747 27.1866C54.9547 27.5866 55.1347 28.1666 55.4147 28.9266C55.6547 29.6066 55.9747 30.2666 56.3747 30.9066C56.8147 31.6666 57.2547 32.3466 57.6947 32.9466C58.1747 33.6266 58.6347 34.2866 59.0747 34.9266C59.5147 35.4866 59.9347 36.0066 60.3347 36.4866C60.8147 37.0066 61.2947 37.5466 61.7747 38.1066C62.2147 38.6266 62.6947 39.1266 63.2147 39.6066C63.6947 40.0866 64.0547 40.4266 64.2947 40.6266C64.6147 40.9066 65.0747 41.3066 65.6747 41.8266C66.2347 42.3066 66.7747 42.7566 67.2947 43.1766C67.8147 43.5966 68.3947 44.0466 69.0347 44.5266C69.5947 44.9666 70.1547 45.3866 70.7147 45.7866C71.2347 46.1866 71.7747 46.5666 72.3347 46.9266ZM75.7547 50.5266C75.7547 51.0466 75.6147 51.5266 75.3347 51.9666C74.9747 52.4866 74.4647 52.7966 73.8047 52.8966C73.1447 52.9966 72.5547 52.8666 72.0347 52.5066L71.3747 52.0266C70.9347 51.7066 70.3947 51.3466 69.7547 50.9466C69.1147 50.5066 68.4947 50.0466 67.8947 49.5666C67.2947 49.1266 66.7047 48.6866 66.1247 48.2466C65.5447 47.8066 64.9547 47.3666 64.3547 46.9266C63.7547 46.4466 63.1547 45.9266 62.5547 45.3666C61.9947 44.8866 61.5747 44.5266 61.2947 44.2866C60.9347 43.9666 60.4547 43.5266 59.8547 42.9666C59.2947 42.4066 58.7547 41.8466 58.2347 41.2866C57.7547 40.7266 57.2747 40.1666 56.7947 39.6066C56.2747 39.0466 55.7747 38.4066 55.2947 37.6866C54.8147 37.0466 54.3347 36.3866 53.8547 35.7066C53.2947 34.9866 52.7747 34.2066 52.2947 33.3666C51.7347 32.4466 51.2947 31.5066 50.9747 30.5466C50.6147 29.6266 50.3747 28.8866 50.2547 28.3266C50.0947 27.5666 50.0547 26.7066 50.1347 25.7466C50.2147 24.7466 50.3947 23.9266 50.6747 23.2866C50.9547 22.6866 51.3347 22.1466 51.8147 21.6666C52.2547 21.2266 52.7947 20.8266 53.4347 20.4666C54.0747 20.1066 54.7947 19.8466 55.5947 19.6866C56.2747 19.5266 57.0047 19.4266 57.7847 19.3866C58.5647 19.3466 59.3147 19.3766 60.0347 19.4766C60.7547 19.5766 61.4547 19.7266 62.1347 19.9266C62.8547 20.1666 63.4747 20.4266 63.9947 20.7066C64.5147 20.9866 65.0147 21.3466 65.4947 21.7866C66.0147 22.1866 66.6147 22.7966 67.2947 23.6166C67.9747 24.4366 68.4947 25.2266 68.8547 25.9866L69.0347 26.2866C69.1947 25.8866 69.3747 25.5466 69.5747 25.2666C69.8547 24.7866 70.1747 24.3266 70.5347 23.8866C70.8547 23.4866 71.2147 23.0866 71.6147 22.6866C72.0947 22.2066 72.6547 21.7866 73.2947 21.4266C73.8947 21.0266 74.5347 20.6866 75.2147 20.4066C75.8547 20.1666 76.4947 19.9866 77.1347 19.8666C77.7347 19.7466 78.2347 19.6666 78.6347 19.6266C78.9947 19.5866 79.4547 19.5666 80.0147 19.5666C80.6147 19.5266 81.1547 19.5466 81.6347 19.6266C82.1547 19.6666 82.6547 19.7466 83.1347 19.8666C83.6547 20.0266 84.1347 20.2266 84.5747 20.4666C85.0547 20.7466 85.4947 21.1266 85.8947 21.6066C86.2147 22.0066 86.5247 22.4766 86.8247 23.0166C87.1247 23.5566 87.3547 24.1466 87.5147 24.7866C87.6747 25.3466 87.7747 26.0066 87.8147 26.7666C87.8547 27.4866 87.8547 28.1666 87.8147 28.8066C87.7347 29.5266 87.6147 30.2466 87.4547 30.9666C87.2947 31.6866 87.0547 32.4066 86.7347 33.1266C86.4547 33.8066 86.0947 34.5066 85.6547 35.2266C85.2547 35.9066 84.8947 36.5066 84.5747 37.0266C84.2547 37.5466 83.9947 37.9466 83.7947 38.2266C83.6347 38.5066 83.3347 38.9266 82.8947 39.4866C82.5747 39.9666 82.1947 40.5066 81.7547 41.1066C81.3547 41.6266 81.0147 42.1266 80.7347 42.6066C80.3747 43.2066 80.0047 43.7866 79.6247 44.3466C79.2447 44.9066 78.8347 45.4666 78.3947 46.0266C78.0347 46.5466 77.6947 47.1066 77.3747 47.7066C76.9747 48.3866 76.6747 48.9066 76.4747 49.2666C76.2747 49.5866 76.1147 49.8666 75.9947 50.1066C75.9147 50.2266 75.8347 50.3666 75.7547 50.5266Z"/>
<path d="M93.8747 21.6666C94.0747 21.0266 94.4547 20.5466 95.0147 20.2266C95.5747 19.9066 96.1747 19.8366 96.8147 20.0166C97.4547 20.1966 97.9347 20.5666 98.2547 21.1266L99.1547 22.7466C99.7947 23.8266 100.415 25.0066 101.015 26.2866C101.615 27.4866 102.215 28.7066 102.815 29.9466C103.415 31.1866 103.985 32.4166 104.525 33.6366C105.065 34.8566 105.595 36.0466 106.115 37.2066C106.595 38.3266 107.035 39.4066 107.435 40.4466C107.875 41.4866 108.275 42.4866 108.635 43.4466C108.675 43.4866 108.715 43.5666 108.755 43.6866C108.835 43.3666 108.915 43.0866 108.995 42.8466C109.395 41.6866 109.815 40.5266 110.255 39.3666C110.695 38.2866 111.095 37.2466 111.455 36.2466C111.815 35.2066 112.135 34.2466 112.415 33.3666C112.735 32.3666 113.075 31.3866 113.435 30.4266C113.835 29.4666 114.195 28.5866 114.515 27.7866C114.835 26.9866 115.115 26.2666 115.355 25.6266C115.595 25.0266 115.795 24.4866 115.955 24.0066C116.115 23.4866 116.275 22.9966 116.435 22.5366C116.595 22.0766 116.715 21.6866 116.795 21.3666C116.875 21.1266 116.935 20.9266 116.975 20.7666L117.035 20.3466C117.155 19.7066 117.495 19.2066 118.055 18.8466C118.615 18.4866 119.205 18.3666 119.825 18.4866C120.445 18.6066 120.945 18.9366 121.325 19.4766C121.705 20.0166 121.835 20.6066 121.715 21.2466L121.595 21.6666C121.555 22.0266 121.455 22.4066 121.295 22.8066C121.215 23.1266 121.095 23.5266 120.935 24.0066C120.775 24.4866 120.615 24.9666 120.455 25.4466C120.295 26.0066 120.075 26.6266 119.795 27.3066C119.555 27.9866 119.255 28.7266 118.895 29.5266C118.575 30.3266 118.235 31.2066 117.875 32.1666C117.515 33.0466 117.195 33.9266 116.915 34.8066C116.635 35.7266 116.295 36.7266 115.895 37.8066C115.535 38.8866 115.135 40.0066 114.695 41.1666C114.255 42.2066 113.865 43.2466 113.525 44.2866C113.185 45.3266 112.875 46.3066 112.595 47.2266C112.275 48.3466 111.975 49.3266 111.695 50.1666C111.415 51.0066 111.215 51.6066 111.095 51.9666C110.935 52.4066 110.495 52.7366 109.775 52.9566C109.055 53.1766 108.325 53.1766 107.585 52.9566C106.845 52.7366 106.415 52.2866 106.295 51.6066C106.215 51.3266 106.115 50.9666 105.995 50.5266C105.875 50.0866 105.775 49.6866 105.695 49.3266C105.575 48.9666 105.385 48.3966 105.125 47.6166C104.865 46.8366 104.575 46.0066 104.255 45.1266C103.895 44.2066 103.495 43.2466 103.055 42.2466C102.655 41.2466 102.215 40.1866 101.735 39.0666C101.255 37.9466 100.745 36.7966 100.205 35.6166C99.6647 34.4366 99.1147 33.2266 98.5547 31.9866C97.9547 30.8266 97.3547 29.6066 96.7547 28.3266C96.1947 27.1666 95.6147 26.0866 95.0147 25.0866L94.1147 23.4666C93.7947 22.9066 93.7147 22.3066 93.8747 21.6666Z"/>
<path d="M128.375 21.8466C128.295 21.2066 128.455 20.6266 128.855 20.1066C129.255 19.5866 129.775 19.2866 130.415 19.2066L130.955 19.0866C131.355 19.0466 131.915 19.0066 132.635 18.9666C133.395 18.8866 134.035 18.8466 134.555 18.8466C135.075 18.8066 135.915 18.7666 137.075 18.7266C138.235 18.6866 139.335 18.6266 140.375 18.5466C141.415 18.4666 142.355 18.3866 143.195 18.3066C144.075 18.2666 144.875 18.2266 145.595 18.1866C146.355 18.1466 146.975 18.1266 147.455 18.1266C148.015 18.0866 148.475 18.0666 148.835 18.0666L149.375 18.0666C150.015 18.0666 150.565 18.2966 151.025 18.7566C151.485 19.2166 151.715 19.7766 151.715 20.4366C151.715 21.0966 151.485 21.6566 151.025 22.1166C150.565 22.5766 150.015 22.8066 149.375 22.8066L148.835 22.8066C148.515 22.8066 148.115 22.8066 147.635 22.8066C147.155 22.8466 146.555 22.8866 145.835 22.9266C145.155 22.9266 144.395 22.9666 143.555 23.0466C142.715 23.1266 141.755 23.1966 140.675 23.2566C139.595 23.3166 138.475 23.3866 137.315 23.4666C136.115 23.5066 135.275 23.5466 134.795 23.5866C134.275 23.5866 133.675 23.6266 132.995 23.7066C132.835 23.7066 132.655 23.7066 132.455 23.7066L132.695 24.7266C132.935 25.6866 133.095 26.4866 133.175 27.1266C133.255 27.7266 133.395 28.7466 133.595 30.1866C133.835 31.5866 134.055 33.0266 134.255 34.5066C134.255 34.5466 134.255 34.5866 134.255 34.6266L134.435 34.6266C134.875 34.5866 135.445 34.5266 136.145 34.4466C136.845 34.3666 137.615 34.2666 138.455 34.1466C139.335 34.0266 140.215 33.9466 141.095 33.9066C141.935 33.8266 142.755 33.7866 143.555 33.7866C144.275 33.7866 144.835 33.7866 145.235 33.7866L145.895 33.7266C146.575 33.6866 147.155 33.8966 147.635 34.3566C148.115 34.8166 148.365 35.3666 148.385 36.0066C148.405 36.6466 148.195 37.2066 147.755 37.6866C147.315 38.1666 146.775 38.4266 146.135 38.4666L145.415 38.5266C144.935 38.5266 144.315 38.5266 143.555 38.5266C142.915 38.5266 142.195 38.5466 141.395 38.5866C140.595 38.6666 139.815 38.7466 139.055 38.8266C138.255 38.9466 137.455 39.0466 136.655 39.1266C135.975 39.2066 135.415 39.2666 134.975 39.3066C135.135 40.4266 135.255 41.4466 135.335 42.3666C135.455 43.4066 135.555 44.3466 135.635 45.1866C135.755 45.9466 135.835 46.5466 135.875 46.9866C135.875 47.3066 135.915 47.7666 135.995 48.3666C136.035 48.6866 136.075 48.9666 136.115 49.2066C136.475 49.2066 136.875 49.2066 137.315 49.2066C138.075 49.2066 138.905 49.1966 139.805 49.1766C140.705 49.1566 141.705 49.1266 142.805 49.0866C143.905 49.0466 145.035 48.9866 146.195 48.9066C147.315 48.8266 148.355 48.7466 149.315 48.6666C150.315 48.5866 151.135 48.5466 151.775 48.5466L153.035 48.5466L153.515 48.5466C154.155 48.5466 154.705 48.7766 155.165 49.2366C155.625 49.6966 155.855 50.2466 155.855 50.8866C155.855 51.5266 155.625 52.0866 155.165 52.5666C154.705 53.0466 154.155 53.2866 153.515 53.2866L153.035 53.2866L151.775 53.2866C151.295 53.2866 150.615 53.3266 149.735 53.4066C148.735 53.4866 147.655 53.5666 146.495 53.6466C145.335 53.6866 144.185 53.7366 143.045 53.7966C141.905 53.8566 140.865 53.8966 139.925 53.9166C138.985 53.9366 138.115 53.9466 137.315 53.9466C136.515 53.9466 135.815 53.9266 135.215 53.8866L134.375 53.8266C133.335 53.7866 132.635 53.2666 132.275 52.2666C131.835 51.8666 131.575 51.3666 131.495 50.7666L131.495 50.3466C131.455 50.0266 131.395 49.5666 131.315 48.9666C131.235 48.2866 131.175 47.7466 131.135 47.3466C131.095 47.0266 131.035 46.4666 130.955 45.6666C130.875 44.8666 130.775 43.9466 130.655 42.9066C130.535 41.8666 130.375 40.7066 130.175 39.4266C129.975 38.0666 129.775 36.6466 129.575 35.1666C129.335 33.7266 129.115 32.2866 128.915 30.8466C128.715 29.4066 128.575 28.3866 128.495 27.7866C128.415 27.2666 128.275 26.6066 128.075 25.8066L127.775 24.4266C127.575 23.5866 127.795 22.8466 128.435 22.2066C128.435 22.0866 128.415 21.9666 128.375 21.8466Z"/>
<path d="M189.635 10.8666C189.155 10.4266 188.895 9.87659 188.855 9.21659C188.815 8.55659 189.015 7.98659 189.455 7.50659C189.895 7.02659 190.435 6.76659 191.075 6.72659L191.915 6.66659C192.515 6.62659 193.175 6.60659 193.895 6.60659L215.915 6.60659C216.435 6.60659 216.855 6.60659 217.175 6.60659L217.595 6.66659C218.235 6.70659 218.775 6.97659 219.215 7.47659C219.655 7.97659 219.855 8.54659 219.815 9.18659C219.775 9.82659 219.505 10.3666 219.005 10.8066C218.505 11.2466 217.935 11.4466 217.295 11.4066L216.875 11.3466C216.635 11.3466 216.315 11.3466 215.915 11.3466L206.315 11.3466C206.315 11.4266 206.315 11.5266 206.315 11.6466L206.135 12.5466C206.055 13.0266 206.035 13.7866 206.075 14.8266C206.075 15.9866 206.075 16.8966 206.075 17.5566C206.075 18.2166 206.095 19.2466 206.135 20.6466C206.175 22.0866 206.195 23.5666 206.195 25.0866C206.195 26.5266 206.215 28.0466 206.255 29.6466C206.255 31.2066 206.275 32.8066 206.315 34.4466C206.355 36.0466 206.395 37.5266 206.435 38.8866C206.515 40.2866 206.555 41.6066 206.555 42.8466C206.555 44.0466 206.595 45.1266 206.675 46.0866C206.755 47.2066 206.795 48.0866 206.795 48.7266C206.835 49.4066 206.855 49.9066 206.855 50.2266L206.855 51.7866C206.855 52.4266 206.625 52.9866 206.165 53.4666C205.705 53.9466 205.155 54.1866 204.515 54.1866C203.875 54.1866 203.315 53.9466 202.835 53.4666C202.355 52.9866 202.115 52.4266 202.115 51.7866L202.115 50.2266C202.115 49.9866 202.105 49.5566 202.085 48.9366C202.065 48.3166 202.015 47.4766 201.935 46.4166C201.855 45.3566 201.815 44.1866 201.815 42.9066C201.815 41.7066 201.775 40.4266 201.695 39.0666C201.655 37.7066 201.615 36.1966 201.575 34.5366C201.535 32.8766 201.515 31.2666 201.515 29.7066C201.475 28.1466 201.455 26.6066 201.455 25.0866C201.455 23.6066 201.435 22.1666 201.395 20.7666C201.355 19.3266 201.335 18.2666 201.335 17.5866C201.335 16.9066 201.335 15.9866 201.335 14.8266C201.295 13.5066 201.335 12.5066 201.455 11.8266L201.575 11.3466L193.895 11.3466C193.295 11.3466 192.735 11.3666 192.215 11.4066L191.375 11.4066C190.735 11.4466 190.155 11.2666 189.635 10.8666Z"/>
<path d="M227.135 7.56659C227.655 7.16659 228.235 7.01659 228.875 7.11659C229.515 7.21659 230.035 7.52659 230.435 8.04659C230.835 8.56659 230.975 9.14659 230.855 9.78659L230.795 10.4466C230.755 10.7266 230.715 11.5066 230.675 12.7866C230.675 14.1466 230.655 15.6866 230.615 17.4066C230.575 19.0866 230.555 21.2266 230.555 23.8266C230.555 25.2666 230.555 26.5866 230.555 27.7866C230.875 27.4666 231.195 27.1666 231.515 26.8866C232.195 26.2866 233.075 25.6666 234.155 25.0266C235.235 24.4266 236.115 24.0066 236.795 23.7666C237.515 23.4866 238.215 23.3266 238.895 23.2866C239.575 23.2466 240.255 23.2666 240.935 23.3466C241.735 23.4666 242.615 23.7866 243.575 24.3066C244.455 24.7866 245.175 25.2666 245.735 25.7466C246.295 26.1866 246.775 26.6466 247.175 27.1266C247.655 27.6466 248.155 28.4066 248.675 29.4066C249.155 30.3266 249.515 31.0666 249.755 31.6266C249.995 32.2666 250.255 33.0866 250.535 34.0866C250.775 35.0866 250.955 35.9466 251.075 36.6666C251.195 37.3866 251.295 38.0666 251.375 38.7066C251.415 39.3066 251.475 40.0066 251.555 40.8066C251.635 41.5666 251.695 42.2066 251.735 42.7266C251.815 43.2466 251.875 43.7666 251.915 44.2866C251.955 44.8066 251.995 45.2666 252.035 45.6666C252.075 46.0666 252.095 46.4466 252.095 46.8066C252.135 47.2866 252.155 47.6466 252.155 47.8866C252.195 48.2066 252.215 48.5266 252.215 48.8466L252.215 51.6666C252.215 52.3066 251.975 52.8566 251.495 53.3166C251.015 53.7766 250.455 54.0066 249.815 54.0066C249.175 54.0066 248.625 53.7766 248.165 53.3166C247.705 52.8566 247.475 52.3066 247.475 51.6666L247.475 48.8466C247.475 48.6466 247.455 48.4266 247.415 48.1866C247.415 47.9466 247.395 47.5666 247.355 47.0466C247.355 46.7266 247.335 46.4066 247.295 46.0866C247.255 45.6866 247.215 45.2466 247.175 44.7666C247.135 44.2466 247.095 43.7266 247.055 43.2066C246.975 42.7266 246.895 42.0866 246.815 41.2866C246.735 40.4866 246.675 39.7866 246.635 39.1866C246.595 38.6266 246.515 38.0466 246.395 37.4466C246.315 36.8466 246.155 36.1266 245.915 35.2866C245.715 34.4466 245.535 33.8266 245.375 33.4266C245.215 33.0266 244.935 32.4466 244.535 31.6866C244.175 31.0066 243.875 30.5466 243.635 30.3066C243.355 29.9866 243.035 29.6666 242.675 29.3466C242.355 29.1066 241.915 28.8266 241.355 28.5066C240.875 28.2266 240.495 28.0666 240.215 28.0266C239.895 27.9866 239.595 27.9866 239.315 28.0266C239.035 28.0266 238.715 28.0866 238.355 28.2066C237.955 28.3666 237.355 28.6866 236.555 29.1666C235.715 29.6066 235.085 30.0266 234.665 30.4266C234.245 30.8266 233.875 31.2266 233.555 31.6266C233.195 32.1066 232.855 32.5866 232.535 33.0666C232.215 33.5466 231.955 34.0066 231.755 34.4466C231.595 34.8466 231.435 35.4066 231.275 36.1266C231.075 36.9266 230.975 37.6466 230.975 38.2866C230.935 38.9666 230.915 39.5866 230.915 40.1466C230.955 40.7466 230.995 41.4266 231.035 42.1866C231.075 42.9466 231.135 43.7866 231.215 44.7066C231.255 45.6266 231.295 46.5666 231.335 47.5266C231.415 48.4866 231.455 49.3866 231.455 50.2266C231.455 50.3866 231.055 50.6066 230.255 50.8866C229.455 51.1666 228.705 51.3466 228.005 51.4266C227.305 51.5066 226.875 51.3866 226.715 51.0666C226.715 50.7466 226.675 49.9066 226.595 48.5466C226.475 47.1466 226.375 45.7466 226.295 44.3466C226.175 42.9066 226.095 41.4266 226.055 39.9066C226.015 38.4266 225.975 36.9066 225.935 35.3466C225.935 33.8266 225.915 32.1866 225.875 30.4266C225.835 28.6666 225.815 26.4666 225.815 23.8266C225.815 21.1866 225.835 19.0066 225.875 17.2866C225.915 15.6866 225.935 14.1666 225.935 12.7266C225.975 11.2466 226.035 10.2466 226.115 9.72659L226.175 9.12659C226.295 8.48659 226.615 7.96659 227.135 7.56659Z"/>
<path d="M283.295 31.5066L283.355 32.1066C283.435 33.5066 283.515 34.9866 283.595 36.5466C283.675 38.1466 283.745 40.2366 283.805 42.8166C283.865 45.3966 283.895 47.4666 283.895 49.0266C283.935 50.6266 283.895 52.5466 283.775 54.7866C283.615 57.1466 283.385 58.9366 283.085 60.1566C282.785 61.3766 282.335 62.6066 281.735 63.8466C281.135 65.1666 280.515 66.1866 279.875 66.9066C279.275 67.6266 278.655 68.2266 278.015 68.7066C277.335 69.2666 276.475 69.7666 275.435 70.2066C274.275 70.7266 273.255 70.9666 272.375 70.9266C271.655 70.9266 270.775 70.7466 269.735 70.3866C268.455 69.9466 267.395 69.1866 266.555 68.1066C265.755 67.1066 265.255 65.9266 265.055 64.5666C264.895 63.4866 264.855 62.5266 264.935 61.6866L264.995 60.7866C265.035 60.1466 265.305 59.6066 265.805 59.1666C266.305 58.7266 266.885 58.5366 267.545 58.5966C268.205 58.6566 268.745 58.9366 269.165 59.4366C269.585 59.9366 269.775 60.5066 269.735 61.1466L269.615 62.1066C269.575 62.5466 269.615 63.1466 269.735 63.9066C269.815 64.3866 269.995 64.8266 270.275 65.2266C270.555 65.5466 270.875 65.7666 271.235 65.8866C271.795 66.0866 272.215 66.1866 272.495 66.1866C272.695 66.1866 273.055 66.0666 273.575 65.8266C274.215 65.5466 274.735 65.2666 275.135 64.9866C275.495 64.6666 275.875 64.2866 276.275 63.8466C276.635 63.4466 277.035 62.7866 277.475 61.8666C277.915 60.8666 278.255 59.9066 278.495 58.9866C278.735 58.0666 278.915 56.5866 279.035 54.5466C279.115 52.3866 279.155 50.5466 279.155 49.0266C279.155 47.5066 279.135 45.4666 279.095 42.9066C279.055 42.5866 279.035 42.2466 279.035 41.8866C278.675 42.3666 278.275 42.8466 277.835 43.3266C276.875 44.3666 276.075 45.1466 275.435 45.6666C274.715 46.3066 273.875 46.8066 272.915 47.1666C271.995 47.5266 270.915 47.7666 269.675 47.8866C268.435 47.9666 267.395 47.8866 266.555 47.6466C265.715 47.4466 264.935 47.1266 264.215 46.6866C263.455 46.2066 262.715 45.5466 261.995 44.7066C261.315 43.9066 260.775 43.0866 260.375 42.2466C260.015 41.4466 259.655 40.4066 259.295 39.1266C258.975 37.8866 258.735 36.8066 258.575 35.8866C258.415 34.9666 258.295 34.0066 258.215 33.0066C258.175 32.0066 258.155 31.0066 258.155 30.0066C258.155 28.9666 258.255 27.7666 258.455 26.4066C258.615 25.0066 258.815 23.9266 259.055 23.1666C259.335 22.4066 259.595 21.8066 259.835 21.3666L260.135 20.9466C260.455 20.3866 260.935 20.0266 261.575 19.8666C262.215 19.7066 262.815 19.7966 263.375 20.1366C263.935 20.4766 264.295 20.9666 264.455 21.6066C264.615 22.2466 264.515 22.8466 264.155 23.4066L263.915 23.8266C263.835 23.9466 263.715 24.2266 263.555 24.6666C263.435 25.1466 263.295 25.9466 263.135 27.0666C262.975 28.2266 262.895 29.2266 262.895 30.0666C262.895 30.9466 262.915 31.8266 262.955 32.7066C262.995 33.5466 263.095 34.3466 263.255 35.1066C263.375 35.9066 263.575 36.8466 263.855 37.9266C264.135 38.9266 264.395 39.6866 264.635 40.2066C264.875 40.6866 265.195 41.1666 265.595 41.6466C265.995 42.0866 266.335 42.4066 266.615 42.6066C266.975 42.8066 267.355 42.9666 267.755 43.0866C268.115 43.1666 268.635 43.1866 269.315 43.1466C270.075 43.1066 270.695 42.9866 271.175 42.7866C271.655 42.5866 272.075 42.3466 272.435 42.0666C272.875 41.6666 273.515 41.0066 274.355 40.0866C275.115 39.2466 275.675 38.5266 276.035 37.9266C276.435 37.2066 276.855 36.2866 277.295 35.1666C277.775 34.0466 278.095 33.1466 278.255 32.4666C278.375 32.0666 278.475 31.6866 278.555 31.3266C278.515 30.8466 278.415 29.7466 278.255 28.0266C278.135 26.4666 278.035 25.3466 277.955 24.6666C277.875 23.9466 277.815 23.3066 277.775 22.7466C277.815 22.7066 277.855 22.6566 277.895 22.5966C277.935 22.5366 278.035 22.4066 278.195 22.2066C278.355 22.0066 278.515 21.8166 278.675 21.6366C278.835 21.4566 279.025 21.2666 279.245 21.0666C279.465 20.8666 279.685 20.6966 279.905 20.5566C280.125 20.4166 280.355 20.3066 280.595 20.2266C280.835 20.1466 281.065 20.1166 281.285 20.1366C281.505 20.1566 281.715 20.2566 281.915 20.4366C282.115 20.6166 282.275 20.8866 282.395 21.2466C282.595 21.6066 282.755 22.1266 282.875 22.8066C282.995 23.3666 283.095 23.9266 283.175 24.4866C283.255 25.0066 283.335 25.5466 283.415 26.1066C283.455 26.6666 283.475 27.4066 283.475 28.3266C283.515 29.3266 283.475 30.2466 283.355 31.0866C283.355 31.2066 283.335 31.3466 283.295 31.5066Z"/>
<path d="M341.735 9.90659C341.895 10.5466 341.805 11.1366 341.465 11.6766C341.125 12.2166 340.635 12.5666 339.995 12.7266C339.355 12.8866 338.755 12.7866 338.195 12.4266L337.835 12.1866C337.715 12.1466 337.535 12.1066 337.295 12.0666C336.855 12.0266 336.235 12.0266 335.435 12.0666C334.635 12.1066 333.795 12.2466 332.915 12.4866C331.995 12.7266 331.155 13.0066 330.395 13.3266C329.675 13.6466 328.915 14.1066 328.115 14.7066C327.275 15.2666 326.515 15.9266 325.835 16.6866C325.155 17.4066 324.575 18.1466 324.095 18.9066C323.695 19.5866 323.455 20.2266 323.375 20.8266C323.255 21.3866 323.255 21.9066 323.375 22.3866C323.455 22.7866 323.595 23.1266 323.795 23.4066C324.115 23.7666 324.675 24.1866 325.475 24.6666C326.395 25.2266 327.395 25.6866 328.475 26.0466C329.715 26.4466 330.915 26.8066 332.075 27.1266C333.315 27.4866 334.495 27.8866 335.615 28.3266C336.895 28.8066 338.245 29.5666 339.665 30.6066C341.085 31.6466 342.215 32.6866 343.055 33.7266C343.815 34.6866 344.395 35.4466 344.795 36.0066C345.235 36.6466 345.695 37.5266 346.175 38.6466C346.695 39.8866 347.035 41.0666 347.195 42.1866C347.355 43.3866 347.335 44.4866 347.135 45.4866C346.935 46.4466 346.615 47.2866 346.175 48.0066C345.775 48.6866 345.295 49.3066 344.735 49.8666C344.175 50.4266 343.435 50.9466 342.515 51.4266C341.635 51.9066 340.625 52.3266 339.485 52.6866C338.345 53.0466 337.155 53.2666 335.915 53.3466C334.755 53.4266 333.615 53.4266 332.495 53.3466C331.335 53.2266 330.195 53.0066 329.075 52.6866C327.995 52.4066 326.915 52.0466 325.835 51.6066C324.675 51.1266 323.375 50.3866 321.935 49.3866C320.535 48.3866 319.555 47.6066 318.995 47.0466C318.435 46.5266 318.015 46.0866 317.735 45.7266L317.435 45.3066C317.035 44.8266 316.865 44.2566 316.925 43.5966C316.985 42.9366 317.265 42.3966 317.765 41.9766C318.265 41.5566 318.845 41.3866 319.505 41.4666C320.165 41.5466 320.695 41.8266 321.095 42.3066L321.455 42.7266C321.615 42.9266 321.895 43.2466 322.295 43.6866C322.695 44.0866 323.495 44.6866 324.695 45.4866C325.815 46.2866 326.775 46.8666 327.575 47.2266C328.495 47.5866 329.415 47.8866 330.335 48.1266C331.175 48.3666 332.035 48.5266 332.915 48.6066C333.795 48.6866 334.695 48.7066 335.615 48.6666C336.455 48.5866 337.275 48.4266 338.075 48.1866C338.875 47.9066 339.595 47.6066 340.235 47.2866C340.755 47.0066 341.155 46.7266 341.435 46.4466C341.675 46.2066 341.895 45.9266 342.095 45.6066C342.255 45.3266 342.395 44.9466 342.515 44.4666C342.595 44.0266 342.595 43.4866 342.515 42.8466C342.395 42.1266 342.175 41.3666 341.855 40.5666C341.455 39.6866 341.135 39.0666 340.895 38.7066C340.575 38.2666 340.075 37.6066 339.395 36.7266C338.795 36.0066 337.945 35.2466 336.845 34.4466C335.745 33.6466 334.775 33.0666 333.935 32.7066C332.935 32.3466 331.895 32.0066 330.815 31.6866C329.575 31.3266 328.315 30.9466 327.035 30.5466C325.595 30.0666 324.275 29.4666 323.075 28.7466C321.795 27.9866 320.815 27.2066 320.135 26.4066C319.415 25.5666 318.935 24.5466 318.695 23.3466C318.495 22.2266 318.495 21.1066 318.695 19.9866C318.895 18.8266 319.335 17.6666 320.015 16.5066C320.655 15.4266 321.435 14.4066 322.355 13.4466C323.275 12.4466 324.275 11.5666 325.355 10.8066C326.435 10.0466 327.495 9.44659 328.535 9.00659C329.495 8.56659 330.555 8.20659 331.715 7.92659C332.915 7.60659 334.055 7.40659 335.135 7.32659C336.255 7.24659 337.215 7.26659 338.015 7.38659C338.975 7.54659 339.735 7.80659 340.295 8.16659L340.715 8.40659C341.275 8.76659 341.615 9.26659 341.735 9.90659Z"/>
<path d="M353.915 21.8466C353.835 21.2066 353.995 20.6266 354.395 20.1066C354.795 19.5866 355.315 19.2866 355.955 19.2066L356.495 19.0866C356.895 19.0466 357.455 19.0066 358.175 18.9666C358.935 18.8866 359.575 18.8466 360.095 18.8466C360.615 18.8066 361.455 18.7666 362.615 18.7266C363.775 18.6866 364.875 18.6266 365.915 18.5466C366.955 18.4666 367.895 18.3866 368.735 18.3066C369.615 18.2666 370.415 18.2266 371.135 18.1866C371.895 18.1466 372.515 18.1266 372.995 18.1266C373.555 18.0866 374.015 18.0666 374.375 18.0666L374.915 18.0666C375.555 18.0666 376.105 18.2966 376.565 18.7566C377.025 19.2166 377.255 19.7766 377.255 20.4366C377.255 21.0966 377.025 21.6566 376.565 22.1166C376.105 22.5766 375.555 22.8066 374.915 22.8066L374.375 22.8066C374.055 22.8066 373.655 22.8066 373.175 22.8066C372.695 22.8466 372.095 22.8866 371.375 22.9266C370.695 22.9266 369.935 22.9666 369.095 23.0466C368.255 23.1266 367.295 23.1966 366.215 23.2566C365.135 23.3166 364.015 23.3866 362.855 23.4666C361.655 23.5066 360.815 23.5466 360.335 23.5866C359.815 23.5866 359.215 23.6266 358.535 23.7066C358.375 23.7066 358.195 23.7066 357.995 23.7066L358.235 24.7266C358.475 25.6866 358.635 26.4866 358.715 27.1266C358.795 27.7266 358.935 28.7466 359.135 30.1866C359.375 31.5866 359.595 33.0266 359.795 34.5066C359.795 34.5466 359.795 34.5866 359.795 34.6266L359.975 34.6266C360.415 34.5866 360.985 34.5266 361.685 34.4466C362.385 34.3666 363.155 34.2666 363.995 34.1466C364.875 34.0266 365.755 33.9466 366.635 33.9066C367.475 33.8266 368.295 33.7866 369.095 33.7866C369.815 33.7866 370.375 33.7866 370.775 33.7866L371.435 33.7266C372.115 33.6866 372.695 33.8966 373.175 34.3566C373.655 34.8166 373.905 35.3666 373.925 36.0066C373.945 36.6466 373.735 37.2066 373.295 37.6866C372.855 38.1666 372.315 38.4266 371.675 38.4666L370.955 38.5266C370.475 38.5266 369.855 38.5266 369.095 38.5266C368.455 38.5266 367.735 38.5466 366.935 38.5866C366.135 38.6666 365.355 38.7466 364.595 38.8266C363.795 38.9466 362.995 39.0466 362.195 39.1266C361.515 39.2066 360.955 39.2666 360.515 39.3066C360.675 40.4266 360.795 41.4466 360.875 42.3666C360.995 43.4066 361.095 44.3466 361.175 45.1866C361.295 45.9466 361.375 46.5466 361.415 46.9866C361.415 47.3066 361.455 47.7666 361.535 48.3666C361.575 48.6866 361.615 48.9666 361.655 49.2066C362.015 49.2066 362.415 49.2066 362.855 49.2066C363.615 49.2066 364.445 49.1966 365.345 49.1766C366.245 49.1566 367.245 49.1266 368.345 49.0866C369.445 49.0466 370.575 48.9866 371.735 48.9066C372.855 48.8266 373.895 48.7466 374.855 48.6666C375.855 48.5866 376.675 48.5466 377.315 48.5466L378.575 48.5466L379.055 48.5466C379.695 48.5466 380.245 48.7766 380.705 49.2366C381.165 49.6966 381.395 50.2466 381.395 50.8866C381.395 51.5266 381.165 52.0866 380.705 52.5666C380.245 53.0466 379.695 53.2866 379.055 53.2866L378.575 53.2866L377.315 53.2866C376.835 53.2866 376.155 53.3266 375.275 53.4066C374.275 53.4866 373.195 53.5666 372.035 53.6466C370.875 53.6866 369.725 53.7366 368.585 53.7966C367.445 53.8566 366.405 53.8966 365.465 53.9166C364.525 53.9366 363.655 53.9466 362.855 53.9466C362.055 53.9466 361.355 53.9266 360.755 53.8866L359.915 53.8266C358.875 53.7866 358.175 53.2666 357.815 52.2666C357.375 51.8666 357.115 51.3666 357.035 50.7666L357.035 50.3466C356.995 50.0266 356.935 49.5666 356.855 48.9666C356.775 48.2866 356.715 47.7466 356.675 47.3466C356.635 47.0266 356.575 46.4666 356.495 45.6666C356.415 44.8666 356.315 43.9466 356.195 42.9066C356.075 41.8666 355.915 40.7066 355.715 39.4266C355.515 38.0666 355.315 36.6466 355.115 35.1666C354.875 33.7266 354.655 32.2866 354.455 30.8466C354.255 29.4066 354.115 28.3866 354.035 27.7866C353.955 27.2666 353.815 26.6066 353.615 25.8066L353.315 24.4266C353.115 23.5866 353.335 22.8466 353.975 22.2066C353.975 22.0866 353.955 21.9666 353.915 21.8466Z"/>
<path d="M388.415 8.40659C388.895 7.92659 389.455 7.68659 390.095 7.68659C390.735 7.68659 391.285 7.91659 391.745 8.37659C392.205 8.83659 392.435 9.38659 392.435 10.0266L392.435 10.8666C392.435 11.4266 392.435 12.0866 392.435 12.8466C392.435 13.6066 392.435 14.1866 392.435 14.5866L392.435 23.8866C392.435 24.3266 392.415 25.0066 392.375 25.9266C392.375 26.8866 392.355 27.8066 392.315 28.6866C392.315 29.5266 392.295 30.4266 392.255 31.3866C392.255 32.3466 392.235 33.0466 392.195 33.4866C392.195 33.9266 392.195 34.5466 392.195 35.3466L392.195 37.7466C392.195 38.5066 392.195 39.2466 392.195 39.9666C392.235 40.7666 392.235 41.5066 392.195 42.1866C392.195 42.7466 392.195 43.1066 392.195 43.2666C392.235 43.5866 392.255 44.0466 392.255 44.6466L392.255 47.6466C392.255 48.0866 392.235 48.5266 392.195 48.9666C392.195 49.3266 392.195 49.6666 392.195 49.9866C392.195 50.3866 392.175 50.7466 392.135 51.0666L392.135 51.5466C392.095 52.1866 391.825 52.7266 391.325 53.1666C390.825 53.6066 390.255 53.8066 389.615 53.7666C388.975 53.7266 388.435 53.4566 387.995 52.9566C387.555 52.4566 387.355 51.8866 387.395 51.2466L387.455 50.7666C387.455 50.5266 387.455 50.2666 387.455 49.9866C387.455 49.5866 387.455 49.1666 387.455 48.7266C387.495 48.3666 387.515 48.0066 387.515 47.6466L387.515 44.6466C387.515 44.2066 387.495 43.8866 387.455 43.6866C387.455 43.3266 387.455 42.7866 387.455 42.0666C387.495 41.4666 387.495 40.8066 387.455 40.0866C387.455 39.3266 387.455 38.5466 387.455 37.7466L387.455 35.3466C387.455 34.5066 387.455 33.8466 387.455 33.3666C387.495 32.9266 387.525 32.2366 387.545 31.2966C387.565 30.3566 387.575 29.4466 387.575 28.5666C387.615 27.6866 387.645 26.7866 387.665 25.8666C387.685 24.9466 387.695 24.2866 387.695 23.8866L387.695 14.5866C387.695 14.1466 387.695 13.5266 387.695 12.7266C387.695 12.0066 387.695 11.3866 387.695 10.8666L387.695 10.0266C387.695 9.38659 387.935 8.84659 388.415 8.40659Z"/>
<path d="M399.395 35.9466C398.875 35.5466 398.565 35.0266 398.465 34.3866C398.365 33.7466 398.515 33.1566 398.915 32.6166C399.315 32.0766 399.835 31.7666 400.475 31.6866L400.835 31.6266C401.115 31.5866 401.515 31.5466 402.035 31.5066C402.435 31.4666 403.175 31.3666 404.255 31.2066C404.695 31.1266 405.135 31.0466 405.575 30.9666C405.575 30.8466 405.575 30.7066 405.575 30.5466C405.535 29.7066 405.475 28.8266 405.395 27.9066C405.355 26.8666 405.335 25.8866 405.335 24.9666C405.335 24.0466 405.335 23.1666 405.335 22.3266C405.335 21.4866 405.355 20.8066 405.395 20.2866C405.435 19.7666 405.495 19.0266 405.575 18.0666C405.695 16.9866 405.895 15.9766 406.175 15.0366C406.455 14.0966 406.765 13.2966 407.105 12.6366C407.445 11.9766 407.855 11.3666 408.335 10.8066C408.855 10.1666 409.475 9.66659 410.195 9.30659C410.755 8.98659 411.335 8.74659 411.935 8.58659C412.535 8.42659 413.155 8.34659 413.795 8.34659C414.515 8.30659 415.295 8.38659 416.135 8.58659C416.935 8.78659 417.655 9.04659 418.295 9.36659C418.855 9.68659 419.395 10.0466 419.915 10.4466C420.475 10.8466 420.955 11.3066 421.355 11.8266C421.715 12.3066 422.055 12.8266 422.375 13.3866C422.655 13.8266 422.915 14.2666 423.155 14.7066C423.355 15.1066 423.575 15.5466 423.815 16.0266C424.095 16.5466 424.355 17.1066 424.595 17.7066C424.835 18.3066 425.035 18.8666 425.195 19.3866C425.315 19.8666 425.435 20.4466 425.555 21.1266L425.735 22.0266C425.855 22.6666 425.725 23.2566 425.345 23.7966C424.965 24.3366 424.455 24.6666 423.815 24.7866C423.175 24.9066 422.585 24.7766 422.045 24.3966C421.505 24.0166 421.175 23.5066 421.055 22.8666L420.875 21.9666C420.795 21.4466 420.715 21.0066 420.635 20.6466C420.515 20.3266 420.375 19.9266 420.215 19.4466C420.015 19.0066 419.815 18.5666 419.615 18.1266C419.375 17.7266 419.155 17.3366 418.955 16.9566C418.755 16.5766 418.535 16.1666 418.295 15.7266C418.095 15.3666 417.875 15.0666 417.635 14.8266C417.475 14.5866 417.275 14.3666 417.035 14.1666C416.715 13.9266 416.395 13.7266 416.075 13.5666C415.755 13.4066 415.395 13.2666 414.995 13.1466C414.635 13.0666 414.315 13.0266 414.035 13.0266C413.715 13.0666 413.425 13.1166 413.165 13.1766C412.905 13.2366 412.635 13.3466 412.355 13.5066C412.235 13.5466 412.115 13.6666 411.995 13.8666C411.715 14.1466 411.495 14.4666 411.335 14.8266C411.135 15.2266 410.935 15.7566 410.735 16.4166C410.535 17.0766 410.395 17.7866 410.315 18.5466C410.235 19.4666 410.175 20.1366 410.135 20.5566C410.095 20.9766 410.075 21.5866 410.075 22.3866C410.075 23.2266 410.075 24.0866 410.075 24.9666C410.075 25.8066 410.095 26.6666 410.135 27.5466C410.215 28.5466 410.275 29.4666 410.315 30.3066C410.315 30.3466 410.315 30.3866 410.315 30.4266C410.635 30.3866 410.955 30.3666 411.275 30.3666C412.315 30.2866 413.195 30.2466 413.915 30.2466C414.555 30.2066 415.035 30.1666 415.355 30.1266L415.895 30.0666C416.535 30.0266 417.105 30.2166 417.605 30.6366C418.105 31.0566 418.385 31.5866 418.445 32.2266C418.505 32.8666 418.335 33.4366 417.935 33.9366C417.535 34.4366 416.995 34.7266 416.315 34.8066L415.835 34.8666C415.435 34.9066 414.875 34.9466 414.155 34.9866C413.475 34.9866 412.595 35.0266 411.515 35.1066C411.155 35.1066 410.795 35.1266 410.435 35.1666C410.435 35.3266 410.435 35.4866 410.435 35.6466C410.475 36.6466 410.515 37.5866 410.555 38.4666C410.595 39.4266 410.615 40.3266 410.615 41.1666L410.615 45.1866C410.615 45.6266 410.595 46.1466 410.555 46.7466C410.515 47.3866 410.475 47.9466 410.435 48.4266C410.395 48.7866 410.375 49.0666 410.375 49.2666L410.375 52.5066C410.375 53.1866 410.145 53.7566 409.685 54.2166C409.225 54.6766 408.665 54.9066 408.005 54.9066C407.345 54.9066 406.785 54.6766 406.325 54.2166C405.865 53.7566 405.635 53.1866 405.635 52.5066L405.635 49.2666C405.635 48.8666 405.675 48.4066 405.755 47.8866C405.795 47.5266 405.815 47.0866 405.815 46.5666C405.855 46.0066 405.875 45.5466 405.875 45.1866L405.875 41.1666C405.875 40.3666 405.855 39.5066 405.815 38.5866C405.775 37.7066 405.735 36.7866 405.695 35.8266C405.695 35.7866 405.695 35.7666 405.695 35.7666C405.455 35.8066 405.215 35.8466 404.975 35.8866C403.855 36.0466 403.035 36.1666 402.515 36.2466C402.035 36.2866 401.695 36.3266 401.495 36.3666L401.135 36.3666C400.495 36.4866 399.915 36.3466 399.395 35.9466Z"/>
<path d="M439.055 15.3066C438.335 16.0666 437.515 16.3266 436.595 16.0866L436.115 15.9066C435.515 15.7466 434.975 15.4866 434.495 15.1266C434.095 14.8466 433.625 14.3766 433.085 13.7166C432.545 13.0566 432.155 12.4866 431.915 12.0066C431.515 11.0866 431.705 10.2166 432.485 9.39659C433.265 8.57659 434.035 8.22659 434.795 8.34659C435.155 8.42659 435.555 8.56659 435.995 8.76659C436.595 8.12659 437.225 7.83659 437.885 7.89659C438.545 7.95659 439.115 8.15659 439.595 8.49659C440.075 8.83659 440.415 9.18659 440.615 9.54659C441.015 10.4666 441.095 11.4066 440.855 12.3666C440.695 13.0866 440.455 13.6866 440.135 14.1666L439.895 14.5266C439.695 14.8466 439.415 15.1066 439.055 15.3066ZM435.755 21.0066C436.155 20.4866 436.675 20.1866 437.315 20.1066C437.955 20.0266 438.535 20.1866 439.055 20.5866C439.575 20.9866 439.875 21.5066 439.955 22.1466L440.075 22.6866C440.115 23.0466 440.155 23.4066 440.195 23.7666C440.235 24.1266 440.295 24.7266 440.375 25.5666C440.415 26.3666 440.455 27.1866 440.495 28.0266C440.535 28.8666 440.555 29.5266 440.555 30.0066C440.595 30.5266 440.615 31.2866 440.615 32.2866C440.615 33.2066 440.615 33.9066 440.615 34.3866C440.655 34.9066 440.695 35.6866 440.735 36.7266C440.735 37.6866 440.755 38.6266 440.795 39.5466C440.835 40.4266 440.855 41.1066 440.855 41.5866C440.895 42.1066 440.915 42.8266 440.915 43.7466C440.915 44.6666 440.915 45.3066 440.915 45.6666L440.915 52.5066C440.915 53.1466 440.685 53.6966 440.225 54.1566C439.765 54.6166 439.205 54.8466 438.545 54.8466C437.885 54.8466 437.325 54.6166 436.865 54.1566C436.405 53.6966 436.175 53.1466 436.175 52.5066L436.175 45.6666C436.175 45.3466 436.175 44.7266 436.175 43.8066C436.175 42.9266 436.155 42.2666 436.115 41.8266C436.115 41.3466 436.095 40.6266 436.055 39.6666C436.015 38.7866 435.995 37.8466 435.995 36.8466C435.955 35.8466 435.915 35.1066 435.875 34.6266C435.875 34.0666 435.875 33.2866 435.875 32.2866C435.875 31.3666 435.855 30.6666 435.815 30.1866C435.815 29.7466 435.795 29.1066 435.755 28.2666C435.715 27.4266 435.675 26.6266 435.635 25.8666C435.595 25.1466 435.555 24.6466 435.515 24.3666C435.435 24.0466 435.375 23.6866 435.335 23.2866L435.275 22.7466C435.195 22.1066 435.355 21.5266 435.755 21.0066Z"/>
<path d="M447.575 21.8466C447.495 21.2066 447.655 20.6266 448.055 20.1066C448.455 19.5866 448.975 19.2866 449.615 19.2066L450.155 19.0866C450.555 19.0466 451.115 19.0066 451.835 18.9666C452.595 18.8866 453.235 18.8466 453.755 18.8466C454.275 18.8066 455.115 18.7666 456.275 18.7266C457.435 18.6866 458.535 18.6266 459.575 18.5466C460.615 18.4666 461.555 18.3866 462.395 18.3066C463.275 18.2666 464.075 18.2266 464.795 18.1866C465.555 18.1466 466.175 18.1266 466.655 18.1266C467.215 18.0866 467.675 18.0666 468.035 18.0666L468.575 18.0666C469.215 18.0666 469.765 18.2966 470.225 18.7566C470.685 19.2166 470.915 19.7766 470.915 20.4366C470.915 21.0966 470.685 21.6566 470.225 22.1166C469.765 22.5766 469.215 22.8066 468.575 22.8066L468.035 22.8066C467.715 22.8066 467.315 22.8066 466.835 22.8066C466.355 22.8466 465.755 22.8866 465.035 22.9266C464.355 22.9266 463.595 22.9666 462.755 23.0466C461.915 23.1266 460.955 23.1966 459.875 23.2566C458.795 23.3166 457.675 23.3866 456.515 23.4666C455.315 23.5066 454.475 23.5466 453.995 23.5866C453.475 23.5866 452.875 23.6266 452.195 23.7066C452.035 23.7066 451.855 23.7066 451.655 23.7066L451.895 24.7266C452.135 25.6866 452.295 26.4866 452.375 27.1266C452.455 27.7266 452.595 28.7466 452.795 30.1866C453.035 31.5866 453.255 33.0266 453.455 34.5066C453.455 34.5466 453.455 34.5866 453.455 34.6266L453.635 34.6266C454.075 34.5866 454.645 34.5266 455.345 34.4466C456.045 34.3666 456.815 34.2666 457.655 34.1466C458.535 34.0266 459.415 33.9466 460.295 33.9066C461.135 33.8266 461.955 33.7866 462.755 33.7866C463.475 33.7866 464.035 33.7866 464.435 33.7866L465.095 33.7266C465.775 33.6866 466.355 33.8966 466.835 34.3566C467.315 34.8166 467.565 35.3666 467.585 36.0066C467.605 36.6466 467.395 37.2066 466.955 37.6866C466.515 38.1666 465.975 38.4266 465.335 38.4666L464.615 38.5266C464.135 38.5266 463.515 38.5266 462.755 38.5266C462.115 38.5266 461.395 38.5466 460.595 38.5866C459.795 38.6666 459.015 38.7466 458.255 38.8266C457.455 38.9466 456.655 39.0466 455.855 39.1266C455.175 39.2066 454.615 39.2666 454.175 39.3066C454.335 40.4266 454.455 41.4466 454.535 42.3666C454.655 43.4066 454.755 44.3466 454.835 45.1866C454.955 45.9466 455.035 46.5466 455.075 46.9866C455.075 47.3066 455.115 47.7666 455.195 48.3666C455.235 48.6866 455.275 48.9666 455.315 49.2066C455.675 49.2066 456.075 49.2066 456.515 49.2066C457.275 49.2066 458.105 49.1966 459.005 49.1766C459.905 49.1566 460.905 49.1266 462.005 49.0866C463.105 49.0466 464.235 48.9866 465.395 48.9066C466.515 48.8266 467.555 48.7466 468.515 48.6666C469.515 48.5866 470.335 48.5466 470.975 48.5466L472.235 48.5466L472.715 48.5466C473.355 48.5466 473.905 48.7766 474.365 49.2366C474.825 49.6966 475.055 50.2466 475.055 50.8866C475.055 51.5266 474.825 52.0866 474.365 52.5666C473.905 53.0466 473.355 53.2866 472.715 53.2866L472.235 53.2866L470.975 53.2866C470.495 53.2866 469.815 53.3266 468.935 53.4066C467.935 53.4866 466.855 53.5666 465.695 53.6466C464.535 53.6866 463.385 53.7366 462.245 53.7966C461.105 53.8566 460.065 53.8966 459.125 53.9166C458.185 53.9366 457.315 53.9466 456.515 53.9466C455.715 53.9466 455.015 53.9266 454.415 53.8866L453.575 53.8266C452.535 53.7866 451.835 53.2666 451.475 52.2666C451.035 51.8666 450.775 51.3666 450.695 50.7666L450.695 50.3466C450.655 50.0266 450.595 49.5666 450.515 48.9666C450.435 48.2866 450.375 47.7466 450.335 47.3466C450.295 47.0266 450.235 46.4666 450.155 45.6666C450.075 44.8666 449.975 43.9466 449.855 42.9066C449.735 41.8666 449.575 40.7066 449.375 39.4266C449.175 38.0666 448.975 36.6466 448.775 35.1666C448.535 33.7266 448.315 32.2866 448.115 30.8466C447.915 29.4066 447.775 28.3866 447.695 27.7866C447.615 27.2666 447.475 26.6066 447.275 25.8066L446.975 24.4266C446.775 23.5866 446.995 22.8466 447.635 22.2066C447.635 22.0866 447.615 21.9666 447.575 21.8466Z"/>
<path d="M84.6527 79.5264C85.4527 79.5264 86.1127 79.8664 86.6327 80.5464C86.9927 80.3864 87.4327 80.2264 87.9527 80.0664C88.9927 79.8264 90.2427 79.7164 91.7027 79.7364C93.1627 79.7564 94.3927 79.9264 95.3927 80.2464C96.3127 80.5664 97.1927 80.9464 98.0327 81.3864C98.7927 81.8264 99.5327 82.3064 100.253 82.8264C101.053 83.3864 101.753 84.0064 102.353 84.6864C102.913 85.3264 103.433 86.0064 103.913 86.7264C104.473 87.5264 104.933 88.3864 105.293 89.3064C105.693 90.1864 105.993 91.0864 106.193 92.0064C106.393 93.0064 106.473 94.1464 106.433 95.4264C106.393 96.6664 106.253 97.7264 106.013 98.6064C105.773 99.3664 105.493 100.106 105.173 100.826C104.853 101.586 104.513 102.266 104.153 102.866C103.793 103.426 103.433 103.946 103.073 104.426C102.713 104.906 102.203 105.446 101.543 106.046C100.883 106.646 100.293 107.116 99.7727 107.456C99.2527 107.796 98.6727 108.106 98.0327 108.386C97.4727 108.626 96.9127 108.846 96.3527 109.046C95.7127 109.246 95.0527 109.386 94.3727 109.466C93.8127 109.546 93.2327 109.606 92.6327 109.646C91.9927 109.646 91.1927 109.586 90.2327 109.466C89.3127 109.306 88.5527 109.146 87.9527 108.986C87.8727 108.946 87.7927 108.906 87.7127 108.866C87.7127 109.866 87.7127 110.806 87.7127 111.686C87.7127 112.726 87.7127 113.846 87.7127 115.046C87.7127 116.246 87.7327 117.366 87.7727 118.406C87.7727 119.526 87.7727 120.466 87.7727 121.226L87.7727 123.506C87.7727 124.226 87.7827 124.976 87.8027 125.756C87.8227 126.536 87.8327 127.106 87.8327 127.466C87.8727 127.946 87.8927 128.326 87.8927 128.606L87.8927 128.966C87.8927 129.606 87.6527 130.166 87.1727 130.646C86.6927 131.126 86.1327 131.366 85.4927 131.366C84.8527 131.366 84.3027 131.126 83.8427 130.646C83.3827 130.166 83.1527 129.606 83.1527 128.966L83.1527 128.606C83.1527 128.366 83.1327 128.066 83.0927 127.706C83.0927 127.306 83.0827 126.696 83.0627 125.876C83.0427 125.056 83.0327 124.266 83.0327 123.506L83.0327 121.226C83.0327 120.466 83.0327 119.566 83.0327 118.526C82.9927 117.446 82.9727 116.286 82.9727 115.046C82.9727 113.806 82.9727 112.686 82.9727 111.686C82.9727 110.686 82.9727 109.646 82.9727 108.566C82.9327 107.486 82.8927 106.246 82.8527 104.846C82.8127 103.446 82.7727 102.016 82.7327 100.556C82.6927 99.0964 82.6727 97.7364 82.6727 96.4764C82.6727 95.2164 82.6727 94.0064 82.6727 92.8464C82.6727 91.7264 82.6327 90.6264 82.5527 89.5464C82.4727 88.5064 82.4327 87.4864 82.4327 86.4864C81.8327 85.6464 81.8127 84.7864 82.3727 83.9064C82.3727 83.7064 82.3727 83.5064 82.3727 83.3064L82.3127 81.9864C82.3127 81.3464 82.5427 80.7864 83.0027 80.3064C83.4627 79.8264 84.0127 79.5664 84.6527 79.5264ZM87.5927 103.706L87.7127 103.766C88.4327 104.126 88.9727 104.356 89.3327 104.456C89.6927 104.556 90.2327 104.666 90.9527 104.786C91.5927 104.866 92.1127 104.906 92.5127 104.906C92.9527 104.866 93.3927 104.826 93.8327 104.786C94.1927 104.746 94.5327 104.666 94.8527 104.546C95.2527 104.426 95.6727 104.246 96.1127 104.006C96.5127 103.846 96.8627 103.666 97.1627 103.466C97.4627 103.266 97.8427 102.956 98.3027 102.536C98.7627 102.116 99.1127 101.766 99.3527 101.486C99.5927 101.166 99.8527 100.806 100.133 100.406C100.373 99.9664 100.613 99.4764 100.853 98.9364C101.093 98.3964 101.293 97.8464 101.453 97.2864C101.573 96.8464 101.653 96.1764 101.693 95.2764C101.733 94.3764 101.673 93.6264 101.513 93.0264C101.393 92.3864 101.193 91.7464 100.913 91.1064C100.673 90.5064 100.373 89.9464 100.013 89.4264C99.6127 88.8264 99.1927 88.2864 98.7527 87.8064C98.4327 87.4064 98.0127 87.0264 97.4927 86.6664C96.9327 86.2264 96.3327 85.8464 95.6927 85.5264C95.1727 85.2064 94.5927 84.9464 93.9527 84.7464C93.3927 84.5864 92.6027 84.4964 91.5827 84.4764C90.5627 84.4564 89.7727 84.5264 89.2127 84.6864C88.5727 84.8464 88.0127 85.0464 87.5327 85.2864C87.3727 85.3664 87.2327 85.4464 87.1127 85.5264C87.1527 85.7264 87.1727 85.9264 87.1727 86.1264C87.1727 87.1264 87.2127 88.1664 87.2927 89.2464C87.3727 90.4064 87.4127 91.6064 87.4127 92.8464C87.4127 94.0064 87.4127 95.2064 87.4127 96.4464C87.4127 97.6864 87.4327 99.0264 87.4727 100.466C87.5127 101.546 87.5527 102.626 87.5927 103.706Z"/>
<path d="M113.753 80.9664C114.273 80.5664 114.853 80.4164 115.493 80.5164C116.133 80.6164 116.653 80.9264 117.053 81.4464C117.453 81.9664 117.593 82.5464 117.473 83.1864L117.413 83.8464C117.373 84.1264 117.333 84.9064 117.293 86.1864C117.293 87.5464 117.273 89.0864 117.233 90.8064C117.193 92.4864 117.173 94.6264 117.173 97.2264C117.173 98.6664 117.173 99.9864 117.173 101.186C117.493 100.866 117.813 100.566 118.133 100.286C118.813 99.6864 119.693 99.0664 120.773 98.4264C121.853 97.8264 122.733 97.4064 123.413 97.1664C124.133 96.8864 124.833 96.7264 125.513 96.6864C126.193 96.6464 126.873 96.6664 127.553 96.7464C128.353 96.8664 129.233 97.1864 130.193 97.7064C131.073 98.1864 131.793 98.6664 132.353 99.1464C132.913 99.5864 133.393 100.046 133.793 100.526C134.273 101.046 134.773 101.806 135.293 102.806C135.773 103.726 136.133 104.466 136.373 105.026C136.613 105.666 136.873 106.486 137.153 107.486C137.393 108.486 137.573 109.346 137.693 110.066C137.813 110.786 137.913 111.466 137.993 112.106C138.033 112.706 138.093 113.406 138.173 114.206C138.253 114.966 138.313 115.606 138.353 116.126C138.433 116.646 138.493 117.166 138.533 117.686C138.573 118.206 138.613 118.666 138.653 119.066C138.693 119.466 138.713 119.846 138.713 120.206C138.753 120.686 138.773 121.046 138.773 121.286C138.813 121.606 138.833 121.926 138.833 122.246L138.833 125.066C138.833 125.706 138.593 126.256 138.113 126.716C137.633 127.176 137.073 127.406 136.433 127.406C135.793 127.406 135.243 127.176 134.783 126.716C134.323 126.256 134.093 125.706 134.093 125.066L134.093 122.246C134.093 122.046 134.073 121.826 134.033 121.586C134.033 121.346 134.013 120.966 133.973 120.446C133.973 120.126 133.953 119.806 133.913 119.486C133.873 119.086 133.833 118.646 133.793 118.166C133.753 117.646 133.713 117.126 133.673 116.606C133.593 116.126 133.513 115.486 133.433 114.686C133.353 113.886 133.293 113.186 133.253 112.586C133.213 112.026 133.133 111.446 133.013 110.846C132.933 110.246 132.773 109.526 132.533 108.686C132.333 107.846 132.153 107.226 131.993 106.826C131.833 106.426 131.553 105.846 131.153 105.086C130.793 104.406 130.493 103.946 130.253 103.706C129.973 103.386 129.653 103.066 129.293 102.746C128.973 102.506 128.533 102.226 127.973 101.906C127.493 101.626 127.113 101.466 126.833 101.426C126.513 101.386 126.213 101.386 125.933 101.426C125.653 101.426 125.333 101.486 124.973 101.606C124.573 101.766 123.973 102.086 123.173 102.566C122.333 103.006 121.703 103.426 121.283 103.826C120.863 104.226 120.493 104.626 120.173 105.026C119.813 105.506 119.473 105.986 119.153 106.466C118.833 106.946 118.573 107.406 118.373 107.846C118.213 108.246 118.053 108.806 117.893 109.526C117.693 110.326 117.593 111.046 117.593 111.686C117.553 112.366 117.533 112.986 117.533 113.546C117.573 114.146 117.613 114.826 117.653 115.586C117.693 116.346 117.753 117.186 117.833 118.106C117.873 119.026 117.913 119.966 117.953 120.926C118.033 121.886 118.073 122.786 118.073 123.626C118.073 123.786 117.673 124.006 116.873 124.286C116.073 124.566 115.323 124.746 114.623 124.826C113.923 124.906 113.493 124.786 113.333 124.466C113.333 124.146 113.293 123.306 113.213 121.946C113.093 120.546 112.993 119.146 112.913 117.746C112.793 116.306 112.713 114.826 112.673 113.306C112.633 111.826 112.593 110.306 112.553 108.746C112.553 107.226 112.533 105.586 112.493 103.826C112.453 102.066 112.433 99.8664 112.433 97.2264C112.433 94.5864 112.453 92.4064 112.493 90.6864C112.533 89.0864 112.553 87.5664 112.553 86.1264C112.593 84.6464 112.653 83.6464 112.733 83.1264L112.793 82.5264C112.913 81.8864 113.233 81.3664 113.753 80.9664Z"/>
<path d="M155.933 94.2384L155.741 94.2384C155.485 94.3024 155.053 94.5424 154.445 94.9584C153.645 95.4704 152.909 96.0944 152.237 96.8304C151.533 97.5664 150.893 98.4304 150.317 99.4224C149.741 100.35 149.277 101.422 148.925 102.638C148.541 103.918 148.269 105.166 148.109 106.382C147.981 107.566 147.949 108.67 148.013 109.694C148.045 110.75 148.157 111.79 148.349 112.814C148.541 113.838 148.781 114.75 149.069 115.55C149.357 116.318 149.661 116.942 149.981 117.422C150.301 117.902 150.717 118.374 151.229 118.838C151.741 119.302 152.349 119.726 153.053 120.11C153.789 120.494 154.541 120.782 155.309 120.974C155.981 121.166 156.957 121.214 158.237 121.118C159.421 121.022 160.269 120.83 160.781 120.542C161.357 120.222 161.821 119.886 162.173 119.534C162.557 119.118 162.957 118.59 163.373 117.95C163.757 117.31 164.109 116.614 164.429 115.862C164.749 115.11 165.005 114.302 165.197 113.438C165.421 112.51 165.597 111.598 165.725 110.702C165.821 109.806 165.885 108.926 165.917 108.062C165.949 107.23 165.869 106.238 165.677 105.086C165.517 103.998 165.325 103.166 165.101 102.59C164.877 101.95 164.621 101.374 164.333 100.862C164.013 100.254 163.709 99.7104 163.421 99.2304C163.165 98.7824 162.909 98.3824 162.653 98.0304C162.365 97.6784 162.069 97.3344 161.765 96.9984C161.461 96.6624 161.165 96.3504 160.877 96.0624C160.589 95.7744 160.269 95.5024 159.917 95.2464C159.565 94.9904 159.261 94.7824 159.005 94.6224C158.749 94.4944 158.493 94.3824 158.237 94.2864C158.013 94.1904 157.773 94.1264 157.517 94.0944C157.389 94.0944 157.277 94.0944 157.181 94.0944L156.701 94.1904C156.445 94.2544 156.189 94.2704 155.933 94.2384ZM156.413 90.3984C156.957 90.2704 157.517 90.2544 158.093 90.3504C158.605 90.4464 159.101 90.5744 159.581 90.7344C159.997 90.8944 160.429 91.1024 160.877 91.3584C161.261 91.5824 161.709 91.8704 162.221 92.2224C162.669 92.6064 163.077 92.9664 163.445 93.3024C163.813 93.6384 164.189 94.0224 164.573 94.4544C164.957 94.8864 165.325 95.3104 165.677 95.7264C166.029 96.2064 166.365 96.7344 166.685 97.3104C167.005 97.8544 167.325 98.4304 167.645 99.0384C168.029 99.7104 168.365 100.43 168.653 101.198C168.973 102.03 169.229 103.15 169.421 104.558C169.645 105.902 169.741 107.102 169.709 108.158C169.677 109.15 169.597 110.158 169.469 111.182C169.341 112.206 169.149 113.23 168.893 114.254C168.669 115.342 168.357 116.358 167.957 117.302C167.557 118.246 167.085 119.134 166.541 119.966C166.029 120.798 165.501 121.518 164.957 122.126C164.317 122.798 163.533 123.374 162.605 123.854C161.613 124.398 160.253 124.75 158.525 124.91C156.829 125.038 155.437 124.958 154.349 124.67C153.293 124.382 152.285 123.982 151.325 123.47C150.333 122.958 149.461 122.358 148.709 121.67C147.957 120.982 147.325 120.27 146.813 119.534C146.333 118.798 145.901 117.902 145.517 116.846C145.165 115.822 144.877 114.718 144.653 113.534C144.429 112.35 144.285 111.15 144.221 109.934C144.125 108.686 144.173 107.342 144.365 105.902C144.525 104.494 144.829 103.054 145.277 101.582C145.725 100.046 146.317 98.6704 147.053 97.4544C147.757 96.2704 148.557 95.1984 149.453 94.2384C150.349 93.2784 151.309 92.4624 152.333 91.7904C153.485 91.0224 154.445 90.5904 155.213 90.4944L155.933 90.3984C156.061 90.3664 156.221 90.3664 156.413 90.3984Z"/>
<path d="M176.729 92.6664C177.569 92.7064 178.449 92.7064 179.369 92.6664C180.369 92.6664 181.389 92.6464 182.429 92.6064C183.549 92.5264 184.389 92.4864 184.949 92.4864C185.549 92.4464 186.389 92.4064 187.469 92.3664C188.549 92.3264 189.569 92.2864 190.529 92.2464C191.489 92.2064 192.329 92.1464 193.049 92.0664C193.889 91.9864 194.549 91.9464 195.029 91.9464C195.549 91.9064 195.969 91.8864 196.289 91.8864L196.709 91.8864C197.349 91.8864 197.899 92.1264 198.359 92.6064C198.819 93.0864 199.049 93.6464 199.049 94.2864C199.049 94.9264 198.819 95.4764 198.359 95.9364C197.899 96.3964 197.349 96.6264 196.709 96.6264L196.289 96.6264C196.009 96.6264 195.649 96.6464 195.209 96.6864C194.809 96.6864 194.229 96.7264 193.469 96.8064C192.669 96.8864 191.769 96.9464 190.769 96.9864C189.889 97.0264 188.949 97.0664 187.949 97.1064L187.949 97.1664C188.029 97.9664 188.069 98.5864 188.069 99.0264C188.069 99.4664 188.089 100.126 188.129 101.006C188.169 101.926 188.189 102.866 188.189 103.826L188.189 106.526C188.189 107.366 188.189 108.186 188.189 108.986C188.189 109.786 188.149 110.626 188.069 111.506C188.029 112.346 187.989 113.126 187.949 113.846C187.869 114.606 187.829 115.286 187.829 115.886C187.789 116.486 187.769 117.066 187.769 117.626L187.769 120.446C187.769 120.806 187.769 121.186 187.769 121.586C187.769 121.986 187.769 122.326 187.769 122.606C187.809 122.926 187.829 123.266 187.829 123.626L187.829 124.946C187.829 125.586 187.589 126.136 187.109 126.596C186.629 127.056 186.069 127.286 185.429 127.286C184.789 127.286 184.239 127.056 183.779 126.596C183.319 126.136 183.089 125.586 183.089 124.946L183.089 123.626C183.089 123.306 183.069 123.006 183.029 122.726C183.029 122.446 183.029 122.086 183.029 121.646C183.029 121.246 183.029 120.846 183.029 120.446L183.029 117.626C183.029 116.986 183.049 116.326 183.089 115.646C183.129 114.966 183.169 114.266 183.209 113.546C183.249 112.786 183.289 112.006 183.329 111.206C183.409 110.406 183.449 109.646 183.449 108.926C183.449 108.166 183.449 107.366 183.449 106.526L183.449 103.826C183.449 102.946 183.429 102.066 183.389 101.186C183.349 100.266 183.329 99.5864 183.329 99.1464C183.329 98.7464 183.309 98.1864 183.269 97.4664L183.209 97.2864C183.049 97.2864 182.869 97.3064 182.669 97.3464C181.589 97.3864 180.529 97.4064 179.489 97.4064C178.409 97.4464 177.389 97.4464 176.429 97.4064C176.349 97.4064 176.149 96.9964 175.829 96.1764C175.509 95.3564 175.279 94.5864 175.139 93.8664C174.999 93.1464 175.189 92.7264 175.709 92.6064L176.189 92.6064C176.349 92.6064 176.529 92.6264 176.729 92.6664Z"/>
<path d="M216.209 94.2384L216.017 94.2384C215.761 94.3024 215.329 94.5424 214.721 94.9584C213.921 95.4704 213.185 96.0944 212.513 96.8304C211.809 97.5664 211.169 98.4304 210.593 99.4224C210.017 100.35 209.553 101.422 209.201 102.638C208.817 103.918 208.545 105.166 208.385 106.382C208.257 107.566 208.225 108.67 208.289 109.694C208.321 110.75 208.433 111.79 208.625 112.814C208.817 113.838 209.057 114.75 209.345 115.55C209.633 116.318 209.937 116.942 210.257 117.422C210.577 117.902 210.993 118.374 211.505 118.838C212.017 119.302 212.625 119.726 213.329 120.11C214.065 120.494 214.817 120.782 215.585 120.974C216.257 121.166 217.233 121.214 218.513 121.118C219.697 121.022 220.545 120.83 221.057 120.542C221.633 120.222 222.097 119.886 222.449 119.534C222.833 119.118 223.233 118.59 223.649 117.95C224.033 117.31 224.385 116.614 224.705 115.862C225.025 115.11 225.281 114.302 225.473 113.438C225.697 112.51 225.873 111.598 226.001 110.702C226.097 109.806 226.161 108.926 226.193 108.062C226.225 107.23 226.145 106.238 225.953 105.086C225.793 103.998 225.601 103.166 225.377 102.59C225.153 101.95 224.897 101.374 224.609 100.862C224.289 100.254 223.985 99.7104 223.697 99.2304C223.441 98.7824 223.185 98.3824 222.929 98.0304C222.641 97.6784 222.345 97.3344 222.041 96.9984C221.737 96.6624 221.441 96.3504 221.153 96.0624C220.865 95.7744 220.545 95.5024 220.193 95.2464C219.841 94.9904 219.537 94.7824 219.281 94.6224C219.025 94.4944 218.769 94.3824 218.513 94.2864C218.289 94.1904 218.049 94.1264 217.793 94.0944C217.665 94.0944 217.553 94.0944 217.457 94.0944L216.977 94.1904C216.721 94.2544 216.465 94.2704 216.209 94.2384ZM216.689 90.3984C217.233 90.2704 217.793 90.2544 218.369 90.3504C218.881 90.4464 219.377 90.5744 219.857 90.7344C220.273 90.8944 220.705 91.1024 221.153 91.3584C221.537 91.5824 221.985 91.8704 222.497 92.2224C222.945 92.6064 223.353 92.9664 223.721 93.3024C224.089 93.6384 224.465 94.0224 224.849 94.4544C225.233 94.8864 225.601 95.3104 225.953 95.7264C226.305 96.2064 226.641 96.7344 226.961 97.3104C227.281 97.8544 227.601 98.4304 227.921 99.0384C228.305 99.7104 228.641 100.43 228.929 101.198C229.249 102.03 229.505 103.15 229.697 104.558C229.921 105.902 230.017 107.102 229.985 108.158C229.953 109.15 229.873 110.158 229.745 111.182C229.617 112.206 229.425 113.23 229.169 114.254C228.945 115.342 228.633 116.358 228.233 117.302C227.833 118.246 227.361 119.134 226.817 119.966C226.305 120.798 225.777 121.518 225.233 122.126C224.593 122.798 223.809 123.374 222.881 123.854C221.889 124.398 220.529 124.75 218.801 124.91C217.105 125.038 215.713 124.958 214.625 124.67C213.569 124.382 212.561 123.982 211.601 123.47C210.609 122.958 209.737 122.358 208.985 121.67C208.233 120.982 207.601 120.27 207.089 119.534C206.609 118.798 206.177 117.902 205.793 116.846C205.441 115.822 205.153 114.718 204.929 113.534C204.705 112.35 204.561 111.15 204.497 109.934C204.401 108.686 204.449 107.342 204.641 105.902C204.801 104.494 205.105 103.054 205.553 101.582C206.001 100.046 206.593 98.6704 207.329 97.4544C208.033 96.2704 208.833 95.1984 209.729 94.2384C210.625 93.2784 211.585 92.4624 212.609 91.7904C213.761 91.0224 214.721 90.5904 215.489 90.4944L216.209 90.3984C216.337 90.3664 216.497 90.3664 216.689 90.3984Z"/>
<path d="M262.925 82.1064C263.365 81.5864 263.905 81.2964 264.545 81.2364C265.185 81.1764 265.755 81.3564 266.255 81.7764C266.755 82.1964 267.045 82.7264 267.125 83.3664L267.185 84.3864C267.825 83.9064 268.545 83.4864 269.345 83.1264C270.305 82.6064 271.405 82.2364 272.645 82.0164C273.885 81.7964 275.105 81.7264 276.305 81.8064C277.545 81.9264 278.745 82.2264 279.905 82.7064C281.065 83.1864 282.095 83.7864 282.995 84.5064C283.895 85.2264 284.825 86.2664 285.785 87.6264C286.825 89.0264 287.485 90.3864 287.765 91.7064C288.045 92.9864 288.105 94.2864 287.945 95.6064C287.825 96.9264 287.525 98.1264 287.045 99.2064C286.645 100.286 286.125 101.306 285.485 102.266C284.925 103.106 284.065 103.986 282.905 104.906C283.145 104.986 283.365 105.066 283.565 105.146C284.565 105.586 285.445 106.106 286.205 106.706C286.965 107.306 287.645 108.006 288.245 108.806C288.845 109.646 289.345 110.666 289.745 111.866C290.145 113.146 290.285 114.306 290.165 115.346C290.045 116.226 289.865 117.046 289.625 117.806C289.425 118.566 289.125 119.326 288.725 120.086C288.325 120.926 287.845 121.666 287.285 122.306C286.765 122.986 286.005 123.666 285.005 124.346C283.965 125.106 282.985 125.626 282.065 125.906C281.185 126.146 280.065 126.266 278.705 126.266C277.385 126.266 276.245 126.166 275.285 125.966C274.405 125.766 273.565 125.506 272.765 125.186C271.965 124.906 271.005 124.506 269.885 123.986C269.165 123.626 268.525 123.306 267.965 123.026L267.965 124.346C267.965 124.986 267.735 125.536 267.275 125.996C266.815 126.456 266.265 126.686 265.625 126.686C264.985 126.686 264.425 126.456 263.945 125.996C263.465 125.536 263.225 124.986 263.225 124.346L263.225 119.246C263.225 118.446 263.245 117.566 263.285 116.606C263.325 115.726 263.345 114.726 263.345 113.606C263.385 112.366 263.405 110.726 263.405 108.686C263.445 106.646 263.445 104.966 263.405 103.646C263.405 102.286 263.365 100.866 263.285 99.3864C263.205 97.9064 263.135 96.4464 263.075 95.0064C263.015 93.5664 262.945 92.2064 262.865 90.9264C262.825 89.6864 262.765 88.5464 262.685 87.5064C262.645 86.4664 262.585 85.6064 262.505 84.9264L262.385 83.8464C262.345 83.2064 262.525 82.6264 262.925 82.1064ZM268.025 117.206L268.445 117.566C268.845 117.886 269.305 118.226 269.825 118.586C270.305 118.906 271.005 119.286 271.925 119.726C272.885 120.166 273.685 120.506 274.325 120.746C274.965 120.986 275.625 121.186 276.305 121.346C276.945 121.466 277.745 121.526 278.705 121.526C279.585 121.526 280.265 121.466 280.745 121.346C281.145 121.226 281.645 120.946 282.245 120.506C282.885 120.066 283.345 119.666 283.625 119.306C283.945 118.946 284.225 118.526 284.465 118.046C284.745 117.486 284.965 116.946 285.125 116.426C285.285 115.906 285.385 115.366 285.425 114.806C285.505 114.446 285.425 113.946 285.185 113.306C284.985 112.586 284.745 112.026 284.465 111.626C284.145 111.186 283.755 110.786 283.295 110.426C282.835 110.066 282.305 109.766 281.705 109.526C281.105 109.246 280.425 109.046 279.665 108.926C279.265 108.846 278.845 108.786 278.405 108.746C278.005 108.706 277.585 108.686 277.145 108.686C276.705 108.686 276.265 108.686 275.825 108.686C275.465 108.806 275.125 108.906 274.805 108.986C273.805 109.266 272.905 109.466 272.105 109.586C271.345 109.706 270.705 109.806 270.185 109.886C269.665 109.926 269.165 109.946 268.685 109.946C268.485 109.946 268.305 109.946 268.145 109.946C268.145 111.386 268.125 112.606 268.085 113.606C268.085 114.806 268.065 115.866 268.025 116.786C268.025 116.946 268.025 117.086 268.025 117.206ZM268.205 106.886L269.705 104.786C271.225 104.466 272.565 104.246 273.725 104.126C274.125 104.046 274.525 104.006 274.925 104.006C275.365 103.846 275.825 103.666 276.305 103.466C276.585 103.346 276.885 103.206 277.205 103.046C277.885 102.686 278.625 102.226 279.425 101.666C280.425 100.906 281.125 100.226 281.525 99.6264C282.005 98.9464 282.385 98.2264 282.665 97.4664C282.945 96.7464 283.145 95.9664 283.265 95.1264C283.345 94.2864 283.305 93.4864 283.145 92.7264C282.985 92.0464 282.585 91.2464 281.945 90.3264C281.225 89.3664 280.595 88.6564 280.055 88.1964C279.515 87.7364 278.875 87.3664 278.135 87.0864C277.395 86.8064 276.645 86.6264 275.885 86.5464C275.125 86.4664 274.345 86.5064 273.545 86.6664C272.745 86.8264 272.045 87.0464 271.445 87.3264C270.805 87.6464 270.265 88.0064 269.825 88.4064C269.465 88.6864 269.145 89.0464 268.865 89.4864L268.265 90.6264C268.105 90.9064 267.905 91.1464 267.665 91.3464C267.705 92.4264 267.745 93.5664 267.785 94.7664C267.865 96.2064 267.945 97.6664 268.025 99.1464C268.105 100.706 268.145 102.166 268.145 103.526C268.185 104.486 268.205 105.606 268.205 106.886Z"/>
<path d="M307.325 94.2384L307.133 94.2384C306.877 94.3024 306.445 94.5424 305.837 94.9584C305.037 95.4704 304.301 96.0944 303.629 96.8304C302.925 97.5664 302.285 98.4304 301.709 99.4224C301.133 100.35 300.669 101.422 300.317 102.638C299.933 103.918 299.661 105.166 299.501 106.382C299.373 107.566 299.341 108.67 299.405 109.694C299.437 110.75 299.549 111.79 299.741 112.814C299.933 113.838 300.173 114.75 300.461 115.55C300.749 116.318 301.053 116.942 301.373 117.422C301.693 117.902 302.109 118.374 302.621 118.838C303.133 119.302 303.741 119.726 304.445 120.11C305.181 120.494 305.933 120.782 306.701 120.974C307.373 121.166 308.349 121.214 309.629 121.118C310.813 121.022 311.661 120.83 312.173 120.542C312.749 120.222 313.213 119.886 313.565 119.534C313.949 119.118 314.349 118.59 314.765 117.95C315.149 117.31 315.501 116.614 315.821 115.862C316.141 115.11 316.397 114.302 316.589 113.438C316.813 112.51 316.989 111.598 317.117 110.702C317.213 109.806 317.277 108.926 317.309 108.062C317.341 107.23 317.261 106.238 317.069 105.086C316.909 103.998 316.717 103.166 316.493 102.59C316.269 101.95 316.013 101.374 315.725 100.862C315.405 100.254 315.101 99.7104 314.813 99.2304C314.557 98.7824 314.301 98.3824 314.045 98.0304C313.757 97.6784 313.461 97.3344 313.157 96.9984C312.853 96.6624 312.557 96.3504 312.269 96.0624C311.981 95.7744 311.661 95.5024 311.309 95.2464C310.957 94.9904 310.653 94.7824 310.397 94.6224C310.141 94.4944 309.885 94.3824 309.629 94.2864C309.405 94.1904 309.165 94.1264 308.909 94.0944C308.781 94.0944 308.669 94.0944 308.573 94.0944L308.093 94.1904C307.837 94.2544 307.581 94.2704 307.325 94.2384ZM307.805 90.3984C308.349 90.2704 308.909 90.2544 309.485 90.3504C309.997 90.4464 310.493 90.5744 310.973 90.7344C311.389 90.8944 311.821 91.1024 312.269 91.3584C312.653 91.5824 313.101 91.8704 313.613 92.2224C314.061 92.6064 314.469 92.9664 314.837 93.3024C315.205 93.6384 315.581 94.0224 315.965 94.4544C316.349 94.8864 316.717 95.3104 317.069 95.7264C317.421 96.2064 317.757 96.7344 318.077 97.3104C318.397 97.8544 318.717 98.4304 319.037 99.0384C319.421 99.7104 319.757 100.43 320.045 101.198C320.365 102.03 320.621 103.15 320.813 104.558C321.037 105.902 321.133 107.102 321.101 108.158C321.069 109.15 320.989 110.158 320.861 111.182C320.733 112.206 320.541 113.23 320.285 114.254C320.061 115.342 319.749 116.358 319.349 117.302C318.949 118.246 318.477 119.134 317.933 119.966C317.421 120.798 316.893 121.518 316.349 122.126C315.709 122.798 314.925 123.374 313.997 123.854C313.005 124.398 311.645 124.75 309.917 124.91C308.221 125.038 306.829 124.958 305.741 124.67C304.685 124.382 303.677 123.982 302.717 123.47C301.725 122.958 300.853 122.358 300.101 121.67C299.349 120.982 298.717 120.27 298.205 119.534C297.725 118.798 297.293 117.902 296.909 116.846C296.557 115.822 296.269 114.718 296.045 113.534C295.821 112.35 295.677 111.15 295.613 109.934C295.517 108.686 295.565 107.342 295.757 105.902C295.917 104.494 296.221 103.054 296.669 101.582C297.117 100.046 297.709 98.6704 298.445 97.4544C299.149 96.2704 299.949 95.1984 300.845 94.2384C301.741 93.2784 302.701 92.4624 303.725 91.7904C304.877 91.0224 305.837 90.5904 306.605 90.4944L307.325 90.3984C307.453 90.3664 307.613 90.3664 307.805 90.3984Z"/>
<path d="M337.661 94.2384L337.469 94.2384C337.213 94.3024 336.781 94.5424 336.173 94.9584C335.373 95.4704 334.637 96.0944 333.965 96.8304C333.261 97.5664 332.621 98.4304 332.045 99.4224C331.469 100.35 331.005 101.422 330.653 102.638C330.269 103.918 329.997 105.166 329.837 106.382C329.709 107.566 329.677 108.67 329.741 109.694C329.773 110.75 329.885 111.79 330.077 112.814C330.269 113.838 330.509 114.75 330.797 115.55C331.085 116.318 331.389 116.942 331.709 117.422C332.029 117.902 332.445 118.374 332.957 118.838C333.469 119.302 334.077 119.726 334.781 120.11C335.517 120.494 336.269 120.782 337.037 120.974C337.709 121.166 338.685 121.214 339.965 121.118C341.149 121.022 341.997 120.83 342.509 120.542C343.085 120.222 343.549 119.886 343.901 119.534C344.285 119.118 344.685 118.59 345.101 117.95C345.485 117.31 345.837 116.614 346.157 115.862C346.477 115.11 346.733 114.302 346.925 113.438C347.149 112.51 347.325 111.598 347.453 110.702C347.549 109.806 347.613 108.926 347.645 108.062C347.677 107.23 347.597 106.238 347.405 105.086C347.245 103.998 347.053 103.166 346.829 102.59C346.605 101.95 346.349 101.374 346.061 100.862C345.741 100.254 345.437 99.7104 345.149 99.2304C344.893 98.7824 344.637 98.3824 344.381 98.0304C344.093 97.6784 343.797 97.3344 343.493 96.9984C343.189 96.6624 342.893 96.3504 342.605 96.0624C342.317 95.7744 341.997 95.5024 341.645 95.2464C341.293 94.9904 340.989 94.7824 340.733 94.6224C340.477 94.4944 340.221 94.3824 339.965 94.2864C339.741 94.1904 339.501 94.1264 339.245 94.0944C339.117 94.0944 339.005 94.0944 338.909 94.0944L338.429 94.1904C338.173 94.2544 337.917 94.2704 337.661 94.2384ZM338.141 90.3984C338.685 90.2704 339.245 90.2544 339.821 90.3504C340.333 90.4464 340.829 90.5744 341.309 90.7344C341.725 90.8944 342.157 91.1024 342.605 91.3584C342.989 91.5824 343.437 91.8704 343.949 92.2224C344.397 92.6064 344.805 92.9664 345.173 93.3024C345.541 93.6384 345.917 94.0224 346.301 94.4544C346.685 94.8864 347.053 95.3104 347.405 95.7264C347.757 96.2064 348.093 96.7344 348.413 97.3104C348.733 97.8544 349.053 98.4304 349.373 99.0384C349.757 99.7104 350.093 100.43 350.381 101.198C350.701 102.03 350.957 103.15 351.149 104.558C351.373 105.902 351.469 107.102 351.437 108.158C351.405 109.15 351.325 110.158 351.197 111.182C351.069 112.206 350.877 113.23 350.621 114.254C350.397 115.342 350.085 116.358 349.685 117.302C349.285 118.246 348.813 119.134 348.269 119.966C347.757 120.798 347.229 121.518 346.685 122.126C346.045 122.798 345.261 123.374 344.333 123.854C343.341 124.398 341.981 124.75 340.253 124.91C338.557 125.038 337.165 124.958 336.077 124.67C335.021 124.382 334.013 123.982 333.053 123.47C332.061 122.958 331.189 122.358 330.437 121.67C329.685 120.982 329.053 120.27 328.541 119.534C328.061 118.798 327.629 117.902 327.245 116.846C326.893 115.822 326.605 114.718 326.381 113.534C326.157 112.35 326.013 111.15 325.949 109.934C325.853 108.686 325.901 107.342 326.093 105.902C326.253 104.494 326.557 103.054 327.005 101.582C327.453 100.046 328.045 98.6704 328.781 97.4544C329.485 96.2704 330.285 95.1984 331.181 94.2384C332.077 93.2784 333.037 92.4624 334.061 91.7904C335.213 91.0224 336.173 90.5904 336.941 90.4944L337.661 90.3984C337.789 90.3664 337.949 90.3664 338.141 90.3984Z"/>
<path d="M358.457 92.6664C359.297 92.7064 360.177 92.7064 361.097 92.6664C362.097 92.6664 363.117 92.6464 364.157 92.6064C365.277 92.5264 366.117 92.4864 366.677 92.4864C367.277 92.4464 368.117 92.4064 369.197 92.3664C370.277 92.3264 371.297 92.2864 372.257 92.2464C373.217 92.2064 374.057 92.1464 374.777 92.0664C375.617 91.9864 376.277 91.9464 376.757 91.9464C377.277 91.9064 377.697 91.8864 378.017 91.8864L378.437 91.8864C379.077 91.8864 379.627 92.1264 380.087 92.6064C380.547 93.0864 380.777 93.6464 380.777 94.2864C380.777 94.9264 380.547 95.4764 380.087 95.9364C379.627 96.3964 379.077 96.6264 378.437 96.6264L378.017 96.6264C377.737 96.6264 377.377 96.6464 376.937 96.6864C376.537 96.6864 375.957 96.7264 375.197 96.8064C374.397 96.8864 373.497 96.9464 372.497 96.9864C371.617 97.0264 370.677 97.0664 369.677 97.1064L369.677 97.1664C369.757 97.9664 369.797 98.5864 369.797 99.0264C369.797 99.4664 369.817 100.126 369.857 101.006C369.897 101.926 369.917 102.866 369.917 103.826L369.917 106.526C369.917 107.366 369.917 108.186 369.917 108.986C369.917 109.786 369.877 110.626 369.797 111.506C369.757 112.346 369.717 113.126 369.677 113.846C369.597 114.606 369.557 115.286 369.557 115.886C369.517 116.486 369.497 117.066 369.497 117.626L369.497 120.446C369.497 120.806 369.497 121.186 369.497 121.586C369.497 121.986 369.497 122.326 369.497 122.606C369.537 122.926 369.557 123.266 369.557 123.626L369.557 124.946C369.557 125.586 369.317 126.136 368.837 126.596C368.357 127.056 367.797 127.286 367.157 127.286C366.517 127.286 365.967 127.056 365.507 126.596C365.047 126.136 364.817 125.586 364.817 124.946L364.817 123.626C364.817 123.306 364.797 123.006 364.757 122.726C364.757 122.446 364.757 122.086 364.757 121.646C364.757 121.246 364.757 120.846 364.757 120.446L364.757 117.626C364.757 116.986 364.777 116.326 364.817 115.646C364.857 114.966 364.897 114.266 364.937 113.546C364.977 112.786 365.017 112.006 365.057 111.206C365.137 110.406 365.177 109.646 365.177 108.926C365.177 108.166 365.177 107.366 365.177 106.526L365.177 103.826C365.177 102.946 365.157 102.066 365.117 101.186C365.077 100.266 365.057 99.5864 365.057 99.1464C365.057 98.7464 365.037 98.1864 364.997 97.4664L364.937 97.2864C364.777 97.2864 364.597 97.3064 364.397 97.3464C363.317 97.3864 362.257 97.4064 361.217 97.4064C360.137 97.4464 359.117 97.4464 358.157 97.4064C358.077 97.4064 357.877 96.9964 357.557 96.1764C357.237 95.3564 357.007 94.5864 356.867 93.8664C356.727 93.1464 356.917 92.7264 357.437 92.6064L357.917 92.6064C358.077 92.6064 358.257 92.6264 358.457 92.6664Z"/>
<path d="M388.097 80.9664C388.617 80.5664 389.197 80.4164 389.837 80.5164C390.477 80.6164 390.997 80.9264 391.397 81.4464C391.797 81.9664 391.937 82.5464 391.817 83.1864L391.757 83.8464C391.717 84.1264 391.677 84.9064 391.637 86.1864C391.637 87.5464 391.617 89.0864 391.577 90.8064C391.537 92.4864 391.517 94.6264 391.517 97.2264C391.517 98.6664 391.517 99.9864 391.517 101.186C391.837 100.866 392.157 100.566 392.477 100.286C393.157 99.6864 394.037 99.0664 395.117 98.4264C396.197 97.8264 397.077 97.4064 397.757 97.1664C398.477 96.8864 399.177 96.7264 399.857 96.6864C400.537 96.6464 401.217 96.6664 401.897 96.7464C402.697 96.8664 403.577 97.1864 404.537 97.7064C405.417 98.1864 406.137 98.6664 406.697 99.1464C407.257 99.5864 407.737 100.046 408.137 100.526C408.617 101.046 409.117 101.806 409.637 102.806C410.117 103.726 410.477 104.466 410.717 105.026C410.957 105.666 411.217 106.486 411.497 107.486C411.737 108.486 411.917 109.346 412.037 110.066C412.157 110.786 412.257 111.466 412.337 112.106C412.377 112.706 412.437 113.406 412.517 114.206C412.597 114.966 412.657 115.606 412.697 116.126C412.777 116.646 412.837 117.166 412.877 117.686C412.917 118.206 412.957 118.666 412.997 119.066C413.037 119.466 413.057 119.846 413.057 120.206C413.097 120.686 413.117 121.046 413.117 121.286C413.157 121.606 413.177 121.926 413.177 122.246L413.177 125.066C413.177 125.706 412.937 126.256 412.457 126.716C411.977 127.176 411.417 127.406 410.777 127.406C410.137 127.406 409.587 127.176 409.127 126.716C408.667 126.256 408.437 125.706 408.437 125.066L408.437 122.246C408.437 122.046 408.417 121.826 408.377 121.586C408.377 121.346 408.357 120.966 408.317 120.446C408.317 120.126 408.297 119.806 408.257 119.486C408.217 119.086 408.177 118.646 408.137 118.166C408.097 117.646 408.057 117.126 408.017 116.606C407.937 116.126 407.857 115.486 407.777 114.686C407.697 113.886 407.637 113.186 407.597 112.586C407.557 112.026 407.477 111.446 407.357 110.846C407.277 110.246 407.117 109.526 406.877 108.686C406.677 107.846 406.497 107.226 406.337 106.826C406.177 106.426 405.897 105.846 405.497 105.086C405.137 104.406 404.837 103.946 404.597 103.706C404.317 103.386 403.997 103.066 403.637 102.746C403.317 102.506 402.877 102.226 402.317 101.906C401.837 101.626 401.457 101.466 401.177 101.426C400.857 101.386 400.557 101.386 400.277 101.426C399.997 101.426 399.677 101.486 399.317 101.606C398.917 101.766 398.317 102.086 397.517 102.566C396.677 103.006 396.047 103.426 395.627 103.826C395.207 104.226 394.837 104.626 394.517 105.026C394.157 105.506 393.817 105.986 393.497 106.466C393.177 106.946 392.917 107.406 392.717 107.846C392.557 108.246 392.397 108.806 392.237 109.526C392.037 110.326 391.937 111.046 391.937 111.686C391.897 112.366 391.877 112.986 391.877 113.546C391.917 114.146 391.957 114.826 391.997 115.586C392.037 116.346 392.097 117.186 392.177 118.106C392.217 119.026 392.257 119.966 392.297 120.926C392.377 121.886 392.417 122.786 392.417 123.626C392.417 123.786 392.017 124.006 391.217 124.286C390.417 124.566 389.667 124.746 388.967 124.826C388.267 124.906 387.837 124.786 387.677 124.466C387.677 124.146 387.637 123.306 387.557 121.946C387.437 120.546 387.337 119.146 387.257 117.746C387.137 116.306 387.057 114.826 387.017 113.306C386.977 111.826 386.937 110.306 386.897 108.746C386.897 107.226 386.877 105.586 386.837 103.826C386.797 102.066 386.777 99.8664 386.777 97.2264C386.777 94.5864 386.797 92.4064 386.837 90.6864C386.877 89.0864 386.897 87.5664 386.897 86.1264C386.937 84.6464 386.997 83.6464 387.077 83.1264L387.137 82.5264C387.257 81.8864 387.577 81.3664 388.097 80.9664Z"/>
</g>
</g>
</svg>
