<?xml version="1.0" encoding="UTF-8" standalone="no"?>
<!DOCTYPE svg PUBLIC "-//W3C//DTD SVG 1.1//EN" "http://www.w3.org/Graphics/SVG/1.1/DTD/svg11.dtd">
<!-- Created with Vectornator (http://vectornator.io/) -->
<svg height="100%" stroke-miterlimit="10" style="fill-rule:nonzero;clip-rule:evenodd;stroke-linecap:round;stroke-linejoin:round;" version="1.1" viewBox="0 0 419.58 297.675" width="100%" xml:space="preserve" xmlns="http://www.w3.org/2000/svg" xmlns:vectornator="http://vectornator.io" xmlns:xlink="http://www.w3.org/1999/xlink">
<defs>
<clipPath id="TextBounds">
<rect height="222.169" width="180.478" x="166.169" y="-45.5839"/>
</clipPath>
<clipPath id="TextBounds_2">
<rect height="135.835" width="208.541" x="-8.9485" y="0.779593"/>
</clipPath>
<clipPath id="TextBounds_3">
<rect height="1" width="0" x="120.936" y="201.873"/>
</clipPath>
</defs>
<g id="Layer-1" vectornator:layerName="Layer 1">
<g fill="#ffffff" opacity="1" stroke="none">
<path clip-path="url(#TextBounds)" d="M205.731 15.578C205.713 15.6068 201.54 21.9261 197.336 27.7648C196.468 27.8511 195.625 27.8958 194.819 27.8958C194.341 27.8958 193.876 27.88 193.426 27.8479C196.325 22.5838 200.243 16.6499 204.596 12.4955C206.162 12.0867 209.683 11.3133 212.864 11.3133C216.171 11.3133 219.111 12.1485 219.111 15.0961C219.111 15.3443 219.09 15.6075 219.047 15.8864C218.064 22.23 204.998 26.5357 199.628 27.4533C203.491 22.0229 207.048 16.6333 207.066 16.6061C207.093 16.5655 207.105 16.5195 207.105 16.4699C207.105 16.0841 206.359 15.4776 205.946 15.4776C205.853 15.4776 205.778 15.508 205.731 15.578ZM198.564 28.9409C203.568 28.4013 209.296 26.572 213.63 24.1016C216.636 22.3907 220.499 19.4806 220.499 16.0333C220.499 15.2192 220.284 14.3752 219.791 13.5099C218.277 10.8521 215.037 10.1197 211.859 10.1197C210.035 10.1197 208.231 10.3609 206.785 10.6178C207.516 10.0675 208.241 9.60336 208.95 9.24356C209.029 9.20316 209.063 9.13828 209.063 9.0591C209.063 8.70172 208.364 8.0532 207.918 8.0532C207.86 8.0532 207.806 8.0643 207.758 8.08856C205.477 9.24961 203.386 11.351 203.338 11.3782C199.026 12.5 185.592 17.3393 185.117 22.1121C185.111 22.1807 185.107 22.249 185.107 22.3169C185.107 23.5614 186.216 24.6531 186.805 24.6531C186.85 24.6531 186.892 24.6468 186.93 24.6338C187.161 24.5552 187.096 24.2271 186.785 23.9006C186.496 23.597 186.364 23.2675 186.364 22.9191C186.363 19.4264 199.65 14.0203 201.315 13.4691C197.732 17.4557 194.194 22.8589 191.653 27.6181C191.156 27.525 189.401 27.2454 189.401 26.5316C189.401 25.3577 191.78 23.9412 193.632 23.0464C193.841 22.9451 193.745 22.6034 193.417 22.2829C193.091 21.9609 192.655 21.7825 192.447 21.8838C190.342 22.8998 189.069 23.8114 188.459 24.6081C188.135 25.0305 187.997 25.4283 187.997 25.7975C187.997 27.1671 189.889 28.1436 191.175 28.5282C190.518 29.8027 187.902 34.7673 187.902 37.2991C187.902 37.8007 188.004 38.2069 188.245 38.4699C188.253 38.4679 188.26 38.467 188.268 38.467C188.456 38.467 188.68 39.0685 189.341 39.0685C189.768 39.0685 190.376 38.8183 191.275 37.9952C193.142 36.2853 195.98 32.5224 198.564 28.9409ZM196.37 29.0952C194.711 31.3659 191.528 35.93 189.214 37.5371C189.459 35.9497 190.831 32.6963 192.855 28.9016C193.734 29.04 194.666 29.106 195.66 29.106C195.893 29.106 196.13 29.1023 196.37 29.0952Z"/>
<path clip-path="url(#TextBounds)" d="M231.173 26.7492C230.076 27.4597 226.794 29.6114 225.414 29.6114C225.39 29.6114 225.367 29.6108 225.345 29.6096C224.704 28.187 225.585 26.2019 223.585 25.0907C223.363 24.9671 223.167 24.9088 222.979 24.9088C222.732 24.9088 222.499 25.011 222.24 25.1996C220.808 26.2397 218.847 29.3132 217.706 30.9157C219.653 24.8338 224.498 12.2282 224.517 12.1829C224.67 11.7827 223.808 11.0909 223.367 11.0909C223.26 11.0909 223.178 11.1317 223.141 11.2274C223.137 11.237 215.507 30.7312 215.507 33.1327C215.507 33.745 216.174 34.4233 216.752 34.4233C216.886 34.4233 217.015 34.387 217.13 34.3052C218.726 32.5304 221.339 27.623 223.612 26.2321C223.68 27.5293 223.682 29.1227 224.654 30.0918C225.131 30.567 225.711 30.7584 226.343 30.7584C228.375 30.7584 230.944 28.778 232.327 27.883C232.395 27.8382 232.425 27.7724 232.425 27.6946C232.425 27.3305 231.768 26.7014 231.347 26.7014C231.282 26.7014 231.223 26.7163 231.173 26.7492Z"/>
<path clip-path="url(#TextBounds)" d="M233.198 26.1747C233.552 25.711 234.718 25.4537 235.219 25.4537C235.345 25.4537 235.429 25.47 235.447 25.5035C235.544 25.6822 235.585 25.9034 235.585 26.1484C235.585 26.9291 235.165 27.9509 234.793 28.6057C233.989 28.4334 233.235 28.0191 233.014 27.2466C233.249 27.0596 233.67 27.0064 233.67 26.7711C233.67 26.6432 233.545 26.4613 233.198 26.1747ZM231.573 26.3138C230.492 27.1892 229.187 28.8589 229.187 30.3454C229.187 31.0409 229.473 31.6962 230.201 32.2114C230.171 32.2703 230.864 32.7075 231.88 32.7075C233.029 32.7075 234.591 32.1495 235.995 29.8575C236.168 29.8732 236.348 29.8814 236.534 29.8814C238.012 29.8814 239.869 29.3609 241.627 27.9361C241.686 27.8881 241.712 27.8228 241.712 27.7473C241.712 27.3734 241.079 26.7505 240.681 26.7505C240.612 26.7505 240.551 26.7688 240.501 26.8097C239.216 27.8575 237.663 28.3986 236.623 28.6012C236.841 28.0903 236.948 27.5707 236.948 27.0774C236.948 26.2817 236.671 25.5541 236.145 25.0409C235.629 24.5377 234.801 24.2816 233.99 24.2816C232.756 24.2816 231.561 24.8746 231.561 26.0926C231.561 26.1642 231.565 26.2379 231.573 26.3138ZM232.311 27.9148L232.311 27.9148C232.786 28.5059 233.454 29.0351 234.275 29.407C233.506 30.4573 232.229 31.6231 231.139 31.6231C230.94 31.6231 230.746 31.5839 230.563 31.4978C230.542 31.4313 230.545 31.2725 230.562 31.0548C230.645 30.0117 231.599 28.6722 232.311 27.9148Z"/>
<path clip-path="url(#TextBounds)" d="M245.778 10.6983C245.768 10.724 244.607 14.0409 243.138 18.5098C236.705 19.2627 231.189 20.4737 231.157 20.4813C230.904 20.5357 230.938 20.8486 231.232 21.1797C231.526 21.5108 231.969 21.733 232.22 21.6786C232.25 21.6726 236.965 20.637 242.69 19.8765C240.104 27.8241 236.344 38.4839 236.572 41.3866C236.593 41.6557 236.924 42.0367 237.311 42.2377C237.7 42.4403 237.998 42.3859 237.977 42.1168C237.742 39.1461 241.821 27.6488 244.447 19.6573C250.494 18.9483 257.214 18.6686 260.628 20.2303C261.011 20.4057 261.275 20.315 261.219 20.0292C261.163 19.7435 260.806 19.3701 260.424 19.1947C257.004 17.63 250.744 17.7328 244.889 18.3194C246.177 14.437 247.146 11.6644 247.155 11.6402C247.229 11.4285 246.979 11.0461 246.6 10.786C246.219 10.5245 245.85 10.4852 245.778 10.6983Z"/>
<path clip-path="url(#TextBounds)" d="M248.118 26.1747C248.472 25.711 249.638 25.4537 250.139 25.4537C250.265 25.4537 250.349 25.47 250.367 25.5035C250.464 25.6822 250.505 25.9034 250.505 26.1484C250.505 26.9291 250.085 27.9509 249.713 28.6057C248.909 28.4334 248.155 28.0191 247.934 27.2466C248.169 27.0596 248.59 27.0064 248.59 26.7711C248.59 26.6432 248.465 26.4613 248.118 26.1747ZM246.493 26.3138C245.412 27.1892 244.107 28.8589 244.107 30.3454C244.107 31.0409 244.393 31.6962 245.121 32.2114C245.091 32.2703 245.784 32.7075 246.8 32.7075C247.949 32.7075 249.511 32.1495 250.915 29.8575C251.088 29.8732 251.268 29.8814 251.454 29.8814C252.932 29.8814 254.789 29.3609 256.547 27.9361C256.606 27.8881 256.632 27.8228 256.632 27.7473C256.632 27.3734 255.999 26.7505 255.601 26.7505C255.532 26.7505 255.471 26.7688 255.421 26.8097C254.136 27.8575 252.583 28.3986 251.543 28.6012C251.761 28.0903 251.868 27.5707 251.868 27.0774C251.868 26.2817 251.591 25.5541 251.065 25.0409C250.549 24.5377 249.721 24.2816 248.91 24.2816C247.676 24.2816 246.481 24.8746 246.481 26.0926C246.481 26.1642 246.485 26.2379 246.493 26.3138ZM247.231 27.9148L247.231 27.9148C247.706 28.5059 248.374 29.0351 249.195 29.407C248.426 30.4573 247.149 31.6231 246.059 31.6231C245.86 31.6231 245.666 31.5839 245.483 31.4978C245.462 31.4313 245.465 31.2725 245.482 31.0548C245.565 30.0117 246.519 28.6722 247.231 27.9148Z"/>
<path clip-path="url(#TextBounds)" d="M270.632 36.5907C272.294 32.5905 278.018 17.2425 279.594 15.8471C279.668 15.8704 279.734 15.8811 279.791 15.8811C279.996 15.8811 280.094 15.7423 280.094 15.55C280.094 15.1171 279.598 14.413 278.721 14.413C278.329 14.413 277.861 14.5536 277.327 14.9219C276.664 15.3785 275.816 16.0905 274.874 16.9871C272.039 19.6811 264.448 28.265 264.448 34.0619C264.448 36.2186 265.499 37.9896 268.236 38.928C269.164 39.2466 270.24 39.3927 271.39 39.3927C273.281 39.3927 275.375 38.9982 277.349 38.3263C280.205 37.3545 285.63 34.3624 285.63 30.827C285.63 30.0721 285.383 29.2925 284.81 28.5025C283.895 27.2387 282.396 26.5704 281.003 26.2197C284.394 24.9861 288.076 23.3987 290.593 21.5164C292.57 20.0391 293.955 17.9655 293.955 15.7566C293.955 15.4812 293.933 15.2037 293.889 14.925C293.47 12.3141 291.149 10.391 288.435 9.57012C287.189 9.19344 285.76 9.02215 284.224 9.02215C278.451 9.02215 271.174 11.4442 266.425 14.4775C264.299 15.835 261.387 18.1514 261.387 20.5998C261.387 20.7852 261.404 20.9715 261.439 21.1582C261.723 22.6775 263.014 24.0518 265.613 25.1282C265.748 25.1839 265.855 25.2084 265.938 25.2084C266.091 25.2084 266.16 25.1254 266.16 25.0018C266.16 24.7308 265.828 24.2651 265.321 24.0548C263.752 23.4047 262.983 22.6291 262.827 21.8022C262.799 21.6542 262.786 21.5055 262.786 21.3564C262.786 19.1393 265.719 16.8436 267.651 15.6098C272.335 12.6181 279.461 10.2137 285.022 10.2137C286.453 10.2137 287.78 10.3728 288.936 10.7221C290.912 11.3193 292.201 12.4289 292.495 14.2567C292.534 14.5006 292.552 14.7439 292.552 14.986C292.552 17.046 291.193 19.0124 289.34 20.3977C286.361 22.6231 281.705 24.4614 277.526 25.8523C277.424 25.8864 277.38 25.9565 277.381 26.0466C277.381 26.3984 278.048 27.0543 278.535 27.0543C278.548 27.0543 278.562 27.0538 278.575 27.0527C278.757 27.0471 278.94 27.044 279.122 27.044C281.607 27.044 284.116 27.6087 284.116 29.9429C284.116 30.3871 284.025 30.8955 283.826 31.4763C282.652 34.9014 275.387 38.2612 270.461 38.2612C267.89 38.2612 265.956 37.346 265.858 35.0471C265.854 34.9628 265.853 34.8777 265.853 34.7918C265.853 29.584 272.364 21.5239 276.693 17.5782C274.593 22.0244 271.437 30.4286 269.266 35.6247C269.251 35.6585 269.245 35.6945 269.245 35.7322C269.245 36.1339 270.003 36.7213 270.408 36.7213C270.513 36.7213 270.594 36.6822 270.632 36.5907Z"/>
<path clip-path="url(#TextBounds)" d="M293.478 26.1747C293.832 25.711 294.998 25.4537 295.499 25.4537C295.625 25.4537 295.709 25.47 295.727 25.5035C295.824 25.6822 295.865 25.9034 295.865 26.1484C295.865 26.9291 295.445 27.9509 295.073 28.6057C294.269 28.4334 293.515 28.0191 293.294 27.2466C293.529 27.0596 293.95 27.0064 293.95 26.7711C293.95 26.6432 293.825 26.4613 293.478 26.1747ZM291.853 26.3138C290.772 27.1892 289.467 28.8589 289.467 30.3454C289.467 31.0409 289.753 31.6962 290.481 32.2114C290.451 32.2703 291.144 32.7075 292.16 32.7075C293.309 32.7075 294.871 32.1495 296.275 29.8575C296.448 29.8732 296.628 29.8814 296.814 29.8814C298.292 29.8814 300.149 29.3609 301.907 27.9361C301.966 27.8881 301.992 27.8228 301.992 27.7473C301.992 27.3734 301.359 26.7505 300.961 26.7505C300.892 26.7505 300.831 26.7688 300.781 26.8097C299.496 27.8575 297.943 28.3986 296.903 28.6012C297.121 28.0903 297.228 27.5707 297.228 27.0774C297.228 26.2817 296.951 25.5541 296.425 25.0409C295.909 24.5377 295.081 24.2816 294.27 24.2816C293.036 24.2816 291.841 24.8746 291.841 26.0926C291.841 26.1642 291.845 26.2379 291.853 26.3138ZM292.591 27.9148L292.591 27.9148C293.066 28.5059 293.734 29.0351 294.555 29.407C293.786 30.4573 292.509 31.6231 291.419 31.6231C291.22 31.6231 291.026 31.5839 290.843 31.4978C290.822 31.4313 290.825 31.2725 290.842 31.0548C290.925 30.0117 291.879 28.6722 292.591 27.9148Z"/>
<path clip-path="url(#TextBounds)" d="M302.838 26.1747C303.192 25.711 304.358 25.4537 304.859 25.4537C304.985 25.4537 305.069 25.47 305.087 25.5035C305.184 25.6822 305.225 25.9034 305.225 26.1484C305.225 26.9291 304.805 27.9509 304.433 28.6057C303.629 28.4334 302.875 28.0191 302.654 27.2466C302.889 27.0596 303.31 27.0064 303.31 26.7711C303.31 26.6432 303.185 26.4613 302.838 26.1747ZM301.213 26.3138C300.132 27.1892 298.827 28.8589 298.827 30.3454C298.827 31.0409 299.113 31.6962 299.841 32.2114C299.811 32.2703 300.504 32.7075 301.52 32.7075C302.669 32.7075 304.231 32.1495 305.635 29.8575C305.808 29.8732 305.988 29.8814 306.174 29.8814C307.652 29.8814 309.509 29.3609 311.267 27.9361C311.326 27.8881 311.352 27.8228 311.352 27.7473C311.352 27.3734 310.719 26.7505 310.321 26.7505C310.252 26.7505 310.191 26.7688 310.141 26.8097C308.856 27.8575 307.303 28.3986 306.263 28.6012C306.481 28.0903 306.588 27.5707 306.588 27.0774C306.588 26.2817 306.311 25.5541 305.785 25.0409C305.269 24.5377 304.441 24.2816 303.63 24.2816C302.396 24.2816 301.201 24.8746 301.201 26.0926C301.201 26.1642 301.205 26.2379 301.213 26.3138ZM301.951 27.9148L301.951 27.9148C302.426 28.5059 303.094 29.0351 303.915 29.407C303.146 30.4573 301.869 31.6231 300.779 31.6231C300.58 31.6231 300.386 31.5839 300.203 31.4978C300.182 31.4313 300.185 31.2725 300.202 31.0548C300.285 30.0117 301.239 28.6722 301.951 27.9148Z"/>
<path clip-path="url(#TextBounds)" d="M328.304 26.9125C327.186 27.6352 323.812 29.85 322.476 29.7729C321.835 28.3502 322.716 26.3652 320.714 25.2541C320.199 24.9668 319.824 25.0333 319.37 25.3629C317.939 26.4045 315.978 29.4765 314.835 31.0791C316.194 26.8339 318.965 19.4124 320.522 15.3003C321.361 14.5474 321.995 13.7235 322.334 12.8254C322.414 12.6168 322.17 12.2343 321.791 11.9698C321.667 11.8836 321.541 11.8201 321.43 11.7823C321.065 11.3832 320.398 11.0596 320.271 11.3907C320.265 11.4043 319.83 12.5382 319.169 14.2828C318.126 15.205 316.757 16.0184 315.231 16.7289C316.241 13.8822 316.942 11.9864 316.95 11.9667C317.029 11.7566 316.784 11.3741 316.404 11.1111C316.023 10.8465 315.651 10.8027 315.573 11.0128C315.564 11.037 314.56 13.7537 313.217 17.5801C307.383 19.8251 300.492 20.7896 300.459 20.7957C300.193 20.8335 300.205 21.1359 300.486 21.47C300.768 21.8041 301.214 22.043 301.48 22.0036C301.51 22.0006 307.146 21.21 312.59 19.3822C309.814 27.3963 306.136 38.7001 306.373 41.7056C306.395 41.9747 306.726 42.3571 307.114 42.5582C307.501 42.7593 307.799 42.7049 307.778 42.4358C307.531 39.3048 311.745 26.657 314.545 18.6731C315.828 18.1697 317.06 17.6043 318.158 16.9708C315.937 22.9092 312.744 31.6656 312.64 33.2409C312.588 34.0074 313.633 34.9145 314.261 34.4685C315.857 32.6952 318.469 27.7863 320.743 26.3955C320.811 27.6926 320.813 29.2861 321.785 30.2551C323.793 32.2583 327.725 29.2195 329.537 28.0479C329.977 27.7591 328.751 26.6192 328.304 26.9125Z"/>
</g>
<g fill="#ffffff" opacity="1" stroke="none">
<path clip-path="url(#TextBounds_2)" d="M5.46247 38.7776C5.48364 38.77 8.5995 37.8569 12.9081 36.9558C12.9036 37.0632 12.9006 37.163 12.9066 37.2506C12.9342 37.7136 13.6908 38.2305 14.0815 38.2305C14.2184 38.2305 14.3103 38.1671 14.3103 38.0157C14.3103 37.9681 14.3063 37.9226 14.3063 37.8712C14.3063 37.5653 14.3634 37.1489 14.4683 36.6414C18.3908 35.88 23.031 35.2077 27.184 35.2077C29.5456 35.2077 31.7496 35.4251 33.5746 35.9671C33.6608 35.9927 33.7331 36.0044 33.7926 36.0044C33.9483 36.0044 34.0162 35.9246 34.0162 35.8056C34.0162 35.5106 33.5989 34.9748 33.0651 34.8166C31.1288 34.2412 28.8028 34.0115 26.3236 34.0115C22.57 34.0115 18.4652 34.5379 14.8297 35.1871C16.9341 27.6476 24.6821 9.73721 24.7078 9.67674C24.7229 9.64237 24.73 9.60557 24.73 9.56698C24.73 9.16741 23.9727 8.57881 23.5672 8.57881C23.4639 8.57881 23.3835 8.61698 23.3442 8.70616C23.317 8.77116 14.7011 28.6847 13.144 35.5015C8.13685 36.4812 4.38153 37.5817 4.35731 37.5893C4.24829 37.6214 4.20173 37.6922 4.20177 37.7842C4.20177 38.1349 4.87622 38.7938 5.3438 38.7938C5.3852 38.7938 5.42493 38.7886 5.46247 38.7776Z"/>
<path clip-path="url(#TextBounds_2)" d="M29.0129 24.5382C29.3667 24.0745 30.5329 23.8172 31.0332 23.8172C31.1592 23.8172 31.2431 23.8335 31.261 23.867C31.3581 24.0457 31.3994 24.2669 31.3995 24.5119C31.3994 25.2926 30.9796 26.3144 30.6079 26.9692C29.8036 26.7969 29.0492 26.3826 28.8285 25.6101C29.0635 25.4231 29.4843 25.3699 29.4843 25.1346C29.4843 25.0067 29.3597 24.8248 29.0129 24.5382ZM27.3877 24.6773C26.3063 25.5527 25.0018 27.2224 25.0018 28.7089C25.0018 29.4044 25.2874 30.0597 26.015 30.5749C25.9859 30.6338 26.6781 31.071 27.6946 31.071C28.8431 31.071 30.4056 30.513 31.8098 28.221C31.9827 28.2367 32.1627 28.2449 32.3486 28.2449C33.8267 28.2449 35.6839 27.7244 37.4418 26.2996C37.5004 26.2516 37.5262 26.1863 37.5262 26.1108C37.5262 25.7369 36.8935 25.114 36.495 25.114C36.4267 25.114 36.3653 25.1322 36.3152 25.1732C35.0309 26.221 33.4773 26.7621 32.4372 26.9647C32.6559 26.4538 32.7621 25.9342 32.7621 25.4409C32.7621 24.6452 32.4858 23.9176 31.9595 23.4044C31.4436 22.9012 30.6159 22.6451 29.8048 22.6451C28.5707 22.6451 27.3751 23.2381 27.3751 24.4561C27.3751 24.5277 27.3793 24.6014 27.3877 24.6773ZM28.1255 26.2783L28.1255 26.2783C28.6002 26.8694 29.2684 27.3986 30.0893 27.7705C29.3202 28.8208 28.0434 29.9866 26.9537 29.9866C26.7541 29.9866 26.5607 29.9474 26.3779 29.8613C26.3567 29.7948 26.3597 29.636 26.3763 29.4183C26.4595 28.3752 27.4134 27.0357 28.1255 26.2783Z"/>
<path clip-path="url(#TextBounds_2)" d="M37.026 22.8495C37.0219 22.8605 35.6018 26.4955 35.6018 28.8613C35.6018 29.0941 35.6155 29.3146 35.6457 29.5181C35.7808 30.4289 36.4713 31.5079 37.4851 31.5079C37.4928 31.5079 37.5005 31.5078 37.5083 31.5077C39.1244 31.482 41.8834 27.7145 42.8601 26.0818C43.4627 26.6428 44.2554 26.8579 45.1304 26.8579C46.0357 26.8579 47.029 26.6276 47.9908 26.3116C48.1078 26.2735 48.1574 26.192 48.1574 26.0885C48.1574 25.7308 47.5658 25.1105 47.1163 25.1105C47.0704 25.1105 47.026 25.117 46.9839 25.1308C46.5434 25.2749 44.9916 25.663 44.0798 25.663C43.8056 25.663 43.5892 25.6279 43.4784 25.5405C43.4657 25.394 43.4593 25.2756 43.4593 25.1738C43.4593 24.7787 43.5558 24.6323 43.7566 24.0529C43.8145 23.3663 43.0742 22.8182 42.658 22.8182C42.5418 22.8182 42.4508 22.861 42.4096 22.9553C42.3355 22.9009 42.1193 24.0877 42.1133 24.1754C41.8094 24.7967 41.312 25.601 40.7269 26.4249C39.8108 27.7145 38.0918 29.8023 36.9867 30.2317C36.9452 30.0224 36.9266 29.7871 36.9266 29.5334C36.9266 27.3393 38.3186 23.7717 38.3186 23.7717C38.3334 23.7335 38.3403 23.6933 38.3403 23.6517C38.3403 23.2399 37.6619 22.6967 37.2704 22.6967C37.1571 22.6967 37.0679 22.7422 37.026 22.8495Z"/>
<path clip-path="url(#TextBounds_2)" d="M47.1625 28.3555C47.1747 28.351 51.4712 26.7651 52.4463 25.0643C52.5825 24.827 52.6428 24.5822 52.6428 24.342C52.6429 23.364 51.642 22.4634 50.6809 22.4634C50.654 22.4634 50.6272 22.4641 50.6004 22.4655C48.4617 22.5815 45.5618 26.0749 45.5618 28.6601C45.5618 29.9856 46.324 31.0723 48.3418 31.3429C48.5074 31.3651 48.6776 31.3757 48.8518 31.3757C52.5663 31.3757 58.0659 26.554 58.0818 26.5396C58.1382 26.4902 58.163 26.4214 58.1631 26.3408C58.1631 25.9346 57.531 25.2311 57.1431 25.2311C57.0808 25.2311 57.0248 25.2492 56.9788 25.2896C55.2569 26.798 50.7603 30.1772 48.0345 30.1772C47.7501 30.1772 47.4849 30.1405 47.2442 30.0609C46.9504 29.9639 46.8368 29.604 46.8368 29.2387C46.8368 28.8353 46.9753 28.4253 47.1625 28.3555ZM48.2435 26.2012C49.0871 25.1097 50.3117 24.0091 51.2293 23.74C50.9995 24.6592 49.3668 25.6313 48.2435 26.2012Z"/>
<path clip-path="url(#TextBounds_2)" d="M79.8537 8.70616C79.8491 8.71674 79.6571 9.16119 79.3276 9.93073C68.8477 11.1583 58.4117 12.7699 58.3558 12.7774C58.2193 12.7987 58.1618 12.8739 58.1618 12.977C58.1618 13.324 58.8128 13.9882 59.3035 13.9882C59.3297 13.9882 59.3556 13.9863 59.3808 13.9824C59.4322 13.9748 68.8658 12.5174 78.7395 11.3155C76.0492 17.6743 69.4123 33.7032 69.4124 37.1167C69.4123 37.6874 70.1258 38.2304 70.5894 38.2304C70.7271 38.2304 70.8198 38.1669 70.8198 38.0156C70.8198 37.966 70.8154 37.9185 70.8154 37.8647C70.8154 34.3234 78.3895 16.3024 80.6111 11.0918C86.9524 10.3471 93.2431 9.75002 97.1308 9.75002C98.5781 9.75002 99.6924 9.83276 100.352 10.0214C100.434 10.0447 100.503 10.0554 100.561 10.0554C100.718 10.0554 100.786 9.9751 100.786 9.85557C100.786 9.55768 100.361 9.01577 99.8247 8.86338C99.102 8.65662 97.8887 8.56647 96.3218 8.56647C92.6412 8.56647 87.0094 9.06389 81.2007 9.71604L81.2173 9.67674C81.2324 9.64237 81.2395 9.60557 81.2395 9.56698C81.2395 9.16741 80.4822 8.57881 80.0767 8.57881C79.9734 8.57881 79.893 8.61698 79.8537 8.70616Z"/>
<path clip-path="url(#TextBounds_2)" d="M94.0675 25.1127C92.9704 25.8232 89.6883 27.9749 88.3083 27.9749C88.2847 27.9749 88.2618 27.9743 88.2394 27.9731C87.5984 26.5505 88.4798 24.5654 86.4797 23.4542C86.2572 23.3306 86.0613 23.2722 85.874 23.2722C85.6261 23.2722 85.3934 23.3745 85.1342 23.5631C83.7025 24.6032 81.7417 27.6767 80.6002 29.2792C82.5475 23.1972 87.3928 10.5917 87.411 10.5464C87.5642 10.1462 86.7026 9.4544 86.2616 9.4544C86.1545 9.4544 86.0721 9.49522 86.0352 9.59092C86.0316 9.60049 78.4018 29.0947 78.4018 31.4962C78.4018 32.1085 79.068 32.7868 79.6464 32.7868C79.7802 32.7868 79.9092 32.7505 80.0243 32.6687C81.6207 30.8939 84.2331 25.9865 86.5069 24.5956C86.5749 25.8928 86.5765 27.4862 87.5485 28.4553C88.0251 28.9305 88.6052 29.1219 89.2372 29.1219C91.2698 29.1219 93.8384 27.1415 95.2211 26.2465C95.2899 26.2017 95.3199 26.1359 95.3199 26.0581C95.3199 25.694 94.6626 25.0649 94.2416 25.0649C94.1769 25.0649 94.1177 25.0797 94.0675 25.1127Z"/>
<path clip-path="url(#TextBounds_2)" d="M95.5504 22.4686C94.022 24.6456 93.3674 26.1559 93.2147 27.1491C93.1345 27.6737 93.1935 28.0985 93.3447 28.4312C93.7453 29.3156 94.7764 29.946 95.7424 29.6481C96.4651 29.4259 97.4901 28.8091 98.6466 27.7448C98.6527 27.7387 98.6587 27.7342 98.6633 27.7327C98.7161 27.6934 98.8961 27.5558 99.1924 27.2429C98.8825 28.3797 98.5741 29.506 98.243 30.5507C95.2375 32.7217 85.4848 39.9285 90.0293 44.2538C94.7537 48.7605 98.754 34.2199 99.587 31.6029C102.608 29.4259 105.553 27.6314 107.025 26.7349C108.681 25.7265 106.576 25.1233 106.383 25.2428C104.354 26.496 102.348 27.7221 100.37 29.0631C100.934 27.1839 101.442 24.9041 102.119 23.1171C102.264 22.7392 101.505 22.1012 101.049 22.0301C100.872 21.9878 100.73 22.015 100.682 22.1541C100.168 23.6569 98.5302 25.5769 97.3631 26.6517C96.6616 27.2973 95.5157 28.218 94.5783 28.475C94.5254 27.0131 96.0871 24.6305 96.8778 23.5042C97.1726 23.0884 95.8422 22.0543 95.5504 22.4686ZM92.6024 43.1048C91.8465 43.897 91.2085 44.2402 90.7822 43.8819C88.0579 40.8356 94.9185 35.1905 97.3404 33.2901C95.945 37.3433 94.2745 41.3511 92.6024 43.1048Z"/>
<path clip-path="url(#TextBounds_2)" d="M135.757 13.5923C135.763 13.5864 137.684 11.8183 137.684 10.3068C137.684 9.90225 137.546 9.51604 137.197 9.1869C136.536 8.56284 135.599 8.3658 134.625 8.3658C133.65 8.3658 132.64 8.56319 131.833 8.72733C128.07 9.49229 124.141 11.1855 121.072 13.163C119.154 14.399 115.383 17.1914 115.383 19.9269C115.383 20.4669 115.53 21.0047 115.867 21.5278C118.661 25.8624 127.515 25.1652 127.515 29.4203C127.515 32.8599 121.44 36.2124 117.529 36.2124C117.194 36.2124 116.874 36.1878 116.576 36.1365C115.928 36.0261 115.439 35.7736 115.234 35.3458C115.013 34.889 114.446 34.5764 114.12 34.5764C113.978 34.5764 113.882 34.6365 113.882 34.7709C113.882 34.8332 113.902 34.9115 113.949 35.0071C114.593 36.3436 115.79 37.0768 117.278 37.3323C117.631 37.393 118.006 37.4221 118.398 37.4221C122.675 37.4221 128.915 33.9581 128.915 30.1949C128.915 23.9999 117.53 24.6161 116.818 21.1166C116.788 20.9707 116.774 20.8229 116.774 20.6737C116.774 18.2275 120.589 15.4041 122.304 14.2983C125.33 12.3481 129.197 10.6806 132.893 9.9292C134.112 9.68131 135.062 9.52416 135.687 9.52416C136.241 9.52416 136.538 9.64799 136.538 9.94209C136.538 10.3754 135.893 11.1783 134.473 12.4993C134.426 12.543 134.405 12.5983 134.405 12.6611C134.405 13.0322 135.134 13.6617 135.559 13.6617C135.637 13.6617 135.705 13.6404 135.757 13.5923Z"/>
<path clip-path="url(#TextBounds_2)" d="M133.243 28.3555C133.255 28.351 137.551 26.7651 138.526 25.0643C138.662 24.827 138.723 24.5822 138.723 24.342C138.723 23.364 137.722 22.4634 136.761 22.4634C136.734 22.4634 136.707 22.4641 136.68 22.4655C134.542 22.5815 131.642 26.0749 131.642 28.6601C131.642 29.9856 132.404 31.0723 134.422 31.3429C134.587 31.3651 134.758 31.3757 134.932 31.3757C138.646 31.3757 144.146 26.554 144.162 26.5396C144.218 26.4902 144.243 26.4214 144.243 26.3408C144.243 25.9346 143.611 25.2311 143.223 25.2311C143.161 25.2311 143.105 25.2492 143.059 25.2896C141.337 26.798 136.84 30.1772 134.115 30.1772C133.83 30.1772 133.565 30.1405 133.324 30.0609C133.03 29.9639 132.917 29.604 132.917 29.2387C132.917 28.8353 133.055 28.4253 133.243 28.3555ZM134.324 26.2012C135.167 25.1097 136.392 24.0091 137.309 23.74C137.08 24.6592 135.447 25.6313 134.324 26.2012Z"/>
<path clip-path="url(#TextBounds_2)" d="M151 25.2261C148.179 27.921 144.478 33.0724 142.087 34.681C142.139 31.104 146.653 20.1917 149.104 14.2715C149.818 12.5453 150.589 11.1354 150.589 10.5358C150.589 10.128 149.826 9.54694 149.422 9.54694C149.312 9.54694 149.229 9.5894 149.194 9.6892C148.996 10.2576 148.455 11.5654 147.735 13.3055C145.26 19.2914 140.682 30.3507 140.682 33.9806C140.682 35.3278 141.222 36.1189 142.385 36.1189C142.429 36.1189 142.473 36.1178 142.518 36.1156C143.864 36.0515 149.961 28.0078 152.162 26.3796C152.211 26.3322 152.233 26.2703 152.233 26.1994C152.233 25.8122 151.577 25.1587 151.181 25.1587C151.111 25.1587 151.048 25.1794 151 25.2261Z"/>
<path clip-path="url(#TextBounds_2)" d="M162.042 25.202C158.638 28.5546 154.495 30.7489 150.569 31.668C151.122 29.9748 151.74 28.2347 152.392 26.5385C155.04 24.8876 160.819 18.4953 160.819 14.893C160.819 14.4179 160.718 13.9914 160.497 13.6306C160.152 13.0682 159.538 12.5905 158.944 12.4726C158.873 12.4584 158.801 12.4515 158.728 12.4515C157.998 12.4515 157.176 13.1499 156.32 14.3457C152.597 19.547 146.588 35.4931 146.588 41.684C146.588 41.7965 146.59 41.9059 146.594 42.0119C146.644 43.3526 147.674 44.9564 148.975 44.9564C149.176 44.9564 149.384 44.918 149.595 44.8344C151.178 44.2069 152.421 40.2818 152.421 36.8498C152.421 35.37 152.19 33.9819 151.656 32.9894C155.653 32.0702 159.79 29.6393 163.282 26.2196C163.335 26.1673 163.358 26.1035 163.358 26.0333C163.358 25.6634 162.705 25.1141 162.28 25.1141C162.187 25.1141 162.104 25.1408 162.042 25.202ZM150.148 40.7389C149.878 41.5462 149.358 42.795 148.694 43.3453C148.582 43.4375 148.242 43.7353 148.188 43.4859C148.127 43.2169 148.1 42.8921 148.1 42.5248C148.1 39.7411 149.668 34.5134 150.266 32.6129C150.783 33.2636 151 34.3955 151 35.6957C151 37.3171 150.663 39.2003 150.148 40.7389ZM153.814 23.0326C154.788 20.7679 157.599 14.6435 159.325 13.8272C159.334 13.9052 159.339 13.9863 159.339 14.0702C159.339 16.546 155.369 21.4723 153.814 23.0326Z"/>
<path clip-path="url(#TextBounds_2)" d="M163.227 22.5169C162.609 23.8283 161.322 26.6116 161.322 28.6002C161.322 29.1401 161.417 29.6215 161.646 29.9989C161.96 30.5174 162.521 30.9574 163.107 31.1176C163.28 31.1646 163.458 31.1867 163.641 31.1867C165.88 31.1867 168.816 27.8676 170.002 26.4196C170.046 26.3654 170.066 26.2945 170.066 26.2136C170.066 25.7855 169.518 25.0773 169.182 25.0773C169.122 25.0773 169.068 25.1003 169.026 25.152C167.967 26.4508 164.647 29.9845 162.807 29.9845C162.792 29.9845 162.777 29.9843 162.761 29.9838C162.712 29.82 162.69 29.6267 162.69 29.4108C162.69 27.7221 164.046 24.6513 164.589 23.5011C164.606 23.4653 164.614 23.4267 164.614 23.3859C164.614 22.9883 163.857 22.3944 163.449 22.3944C163.348 22.3944 163.268 22.4312 163.227 22.5169ZM165.408 21.6522L167.046 19.0503C167.071 19.0104 167.083 18.9655 167.083 18.9172C167.083 18.5298 166.334 17.9257 165.922 17.9257C165.829 17.9257 165.752 17.9572 165.706 18.0299L164.069 20.6302C164.044 20.6701 164.032 20.7151 164.032 20.7633C164.032 21.151 164.782 21.7557 165.193 21.7557C165.287 21.7557 165.363 21.7244 165.408 21.6522Z"/>
<path clip-path="url(#TextBounds_2)" d="M169.123 28.3555C169.135 28.351 173.431 26.7651 174.406 25.0643C174.542 24.827 174.603 24.5822 174.603 24.342C174.603 23.364 173.602 22.4634 172.641 22.4634C172.614 22.4634 172.587 22.4641 172.56 22.4655C170.422 22.5815 167.522 26.0749 167.522 28.6601C167.522 29.9856 168.284 31.0723 170.302 31.3429C170.467 31.3651 170.638 31.3757 170.812 31.3757C174.526 31.3757 180.026 26.554 180.042 26.5396C180.098 26.4902 180.123 26.4214 180.123 26.3408C180.123 25.9346 179.491 25.2311 179.103 25.2311C179.041 25.2311 178.985 25.2492 178.939 25.2896C177.217 26.798 172.72 30.1772 169.995 30.1772C169.71 30.1772 169.445 30.1405 169.204 30.0609C168.91 29.9639 168.797 29.604 168.797 29.2387C168.797 28.8353 168.935 28.4253 169.123 28.3555ZM170.204 26.2012C171.047 25.1097 172.272 24.0091 173.189 23.74C172.96 24.6592 171.327 25.6313 170.204 26.2012Z"/>
</g>
<g fill="#ffffff" opacity="1" stroke="none"/>
</g>
</svg>
